M48
; DRILL file KiCad 10.0.1 date 2026-04-29T11:55:46
; FORMAT={-:-/ absolute / metric / decimal}
; #@! TF.CreationDate,2026-04-29T11:55:46-05:00
; #@! TF.GenerationSoftware,Kicad,Pcbnew,10.0.1
; #@! TF.FileFunction,Plated,1,2,PTH
FMAT,2
METRIC
; #@! TA.AperFunction,Plated,PTH,ViaDrill
T1C0.300
; #@! TA.AperFunction,Plated,PTH,ComponentDrill
T2C0.750
; #@! TA.AperFunction,Plated,PTH,ComponentDrill
T3C1.000
%
G90
G05
T1
X127.6Y-92.9
X129.0Y-103.4
X129.7Y-83.0
X129.7Y-93.4
X129.8Y-87.3
X129.95Y-84.55
X130.3Y-98.3
X131.276Y-99.876
X133.8Y-113.6
X134.7Y-114.3
X150.084Y-80.829
X150.4Y-85.4
X151.4Y-104.7
X151.7Y-94.4
X151.857Y-93.616
X152.699Y-88.124
X155.9Y-89.3
T2
X139.9Y-104.1
X141.9Y-104.1
T3
X126.4Y-85.9
X126.4Y-88.44
X128.9Y-116.5
X131.44Y-116.5
X133.98Y-116.5
X136.52Y-116.5
X139.06Y-116.5
X141.6Y-116.5
X144.14Y-116.5
X146.68Y-116.5
X149.22Y-116.5
X151.76Y-116.5
X151.8Y-96.36
X151.8Y-98.9
X151.8Y-101.44
X155.5Y-96.4
X155.5Y-98.94
X155.5Y-101.48
X159.5Y-94.8
X159.5Y-97.34
X159.5Y-99.88
X159.5Y-102.42
M30
