%TF.GenerationSoftware,KiCad,Pcbnew,10.0.1*%
%TF.CreationDate,2026-04-29T11:55:37-05:00*%
%TF.ProjectId,Chimborazo Stratos-1,4368696d-626f-4726-917a-6f2053747261,rev?*%
%TF.SameCoordinates,Original*%
%TF.FileFunction,Copper,L2,Bot*%
%TF.FilePolarity,Positive*%
%FSLAX46Y46*%
G04 Gerber Fmt 4.6, Leading zero omitted, Abs format (unit mm)*
G04 Created by KiCad (PCBNEW 10.0.1) date 2026-04-29 11:55:37*
%MOMM*%
%LPD*%
G01*
G04 APERTURE LIST*
G04 Aperture macros list*
%AMRoundRect*
0 Rectangle with rounded corners*
0 $1 Rounding radius*
0 $2 $3 $4 $5 $6 $7 $8 $9 X,Y pos of 4 corners*
0 Add a 4 corners polygon primitive as box body*
4,1,4,$2,$3,$4,$5,$6,$7,$8,$9,$2,$3,0*
0 Add four circle primitives for the rounded corners*
1,1,$1+$1,$2,$3*
1,1,$1+$1,$4,$5*
1,1,$1+$1,$6,$7*
1,1,$1+$1,$8,$9*
0 Add four rect primitives between the rounded corners*
20,1,$1+$1,$2,$3,$4,$5,0*
20,1,$1+$1,$4,$5,$6,$7,0*
20,1,$1+$1,$6,$7,$8,$9,0*
20,1,$1+$1,$8,$9,$2,$3,0*%
G04 Aperture macros list end*
%TA.AperFunction,ComponentPad*%
%ADD10R,1.700000X1.700000*%
%TD*%
%TA.AperFunction,ComponentPad*%
%ADD11C,1.700000*%
%TD*%
%TA.AperFunction,ComponentPad*%
%ADD12RoundRect,0.250000X-0.350000X-0.625000X0.350000X-0.625000X0.350000X0.625000X-0.350000X0.625000X0*%
%TD*%
%TA.AperFunction,ComponentPad*%
%ADD13O,1.200000X1.750000*%
%TD*%
%TA.AperFunction,ViaPad*%
%ADD14C,0.600000*%
%TD*%
%TA.AperFunction,Conductor*%
%ADD15C,0.200000*%
%TD*%
G04 APERTURE END LIST*
D10*
%TO.P,JPyro1,1,Pin_1_1*%
%TO.N,+5V*%
X126400000Y-85900000D03*
D11*
%TO.P,JPyro1,2,Pin_2_2*%
%TO.N,Net-(JPyro1-Pin_2)*%
X126400000Y-88440000D03*
%TD*%
D10*
%TO.P,JGPS1,1,Pin_1_1*%
%TO.N,+3V3*%
X159500000Y-94800000D03*
D11*
%TO.P,JGPS1,2,Pin_2_2*%
%TO.N,/GPS_RX*%
X159500000Y-97340000D03*
%TO.P,JGPS1,3,Pin_3_3*%
%TO.N,/GPS_TX*%
X159500000Y-99880000D03*
%TO.P,JGPS1,4,Pin_4_4*%
%TO.N,GND*%
X159500000Y-102420000D03*
%TD*%
D10*
%TO.P,JGY1,1,Pin_1_1*%
%TO.N,+3V3*%
X128900000Y-116500000D03*
D11*
%TO.P,JGY1,2,Pin_2_2*%
%TO.N,GND*%
X131440000Y-116500000D03*
%TO.P,JGY1,3,Pin_3_3*%
%TO.N,/SCL*%
X133980000Y-116500000D03*
%TO.P,JGY1,4,Pin_4_4*%
%TO.N,/SDA*%
X136520000Y-116500000D03*
%TO.P,JGY1,5,Pin_5_5*%
%TO.N,unconnected-(JGY1-Pin_5-Pad5)*%
X139060000Y-116500000D03*
%TO.P,JGY1,6,Pin_6_6*%
%TO.N,unconnected-(JGY1-Pin_6-Pad6)*%
X141600000Y-116500000D03*
%TO.P,JGY1,7,Pin_7_7*%
%TO.N,unconnected-(JGY1-Pin_7-Pad7)*%
X144140000Y-116500000D03*
%TO.P,JGY1,8,Pin_8_8*%
%TO.N,unconnected-(JGY1-Pin_8-Pad8)*%
X146680000Y-116500000D03*
%TO.P,JGY1,9,Pin_9_9*%
%TO.N,unconnected-(JGY1-Pin_9-Pad9)*%
X149220000Y-116500000D03*
%TO.P,JGY1,10,Pin_10_10*%
%TO.N,unconnected-(JGY1-Pin_10-Pad10)*%
X151760000Y-116500000D03*
%TD*%
D12*
%TO.P,JBATTERY1,1,Pin_1_1*%
%TO.N,Net-(JBATTERY1-Pin_1)*%
X139900000Y-104100000D03*
D13*
%TO.P,JBATTERY1,2,Pin_2_2*%
%TO.N,GND*%
X141900000Y-104100000D03*
%TD*%
D10*
%TO.P,Servo2,1,Pin_1_1*%
%TO.N,GND*%
X155500000Y-101480000D03*
D11*
%TO.P,Servo2,2,Pin_2_2*%
%TO.N,/SERVO2*%
X155500000Y-98940000D03*
%TO.P,Servo2,3,Pin_3_3*%
%TO.N,+5V*%
X155500000Y-96400000D03*
%TD*%
D10*
%TO.P,Servo1,1,Pin_1_1*%
%TO.N,GND*%
X151800000Y-101440000D03*
D11*
%TO.P,Servo1,2,Pin_2_2*%
%TO.N,/SERVO1*%
X151800000Y-98900000D03*
%TO.P,Servo1,3,Pin_3_3*%
%TO.N,+5V*%
X151800000Y-96360000D03*
%TD*%
D14*
%TO.N,+3V3*%
X130300000Y-98300000D03*
X152699238Y-88124263D03*
X150400000Y-85400000D03*
%TO.N,+5V*%
X155900000Y-89300000D03*
X150084238Y-80829185D03*
%TO.N,/GPS_TX*%
X151400000Y-104700000D03*
X131275735Y-99875735D03*
%TO.N,/SDA*%
X127600000Y-92900000D03*
X134700003Y-114300000D03*
%TO.N,/SCL*%
X133800000Y-113600000D03*
X129700000Y-93400000D03*
%TO.N,/BAT_SENSE*%
X129000000Y-103400000D03*
X129700000Y-83000000D03*
%TO.N,/SERVO1*%
X129950000Y-84550000D03*
X151856894Y-93615533D03*
%TO.N,/SERVO2*%
X129800000Y-87300000D03*
X151700000Y-94400000D03*
%TD*%
%TO.N,+3V3*%
D15*
X162000000Y-103000000D02*
X162000000Y-97307137D01*
X128900000Y-116500000D02*
X128900000Y-115200000D01*
X148950000Y-83950000D02*
X150400000Y-85400000D01*
X128900000Y-115200000D02*
X129200000Y-114900000D01*
X130300000Y-88900000D02*
X129200000Y-87800000D01*
X152700000Y-88123501D02*
X152699238Y-88124263D01*
X156100000Y-88100000D02*
X152700000Y-88100000D01*
X161200000Y-95700000D02*
X161200000Y-93687340D01*
X129200000Y-87800000D02*
X129200000Y-84451471D01*
X152700000Y-88100000D02*
X152700000Y-88123501D01*
X129701471Y-83950000D02*
X148950000Y-83950000D01*
X161200000Y-93687340D02*
X160956278Y-92956278D01*
X161851722Y-96351722D02*
X161200000Y-95700000D01*
X129200000Y-84451471D02*
X129701471Y-83950000D01*
X160956278Y-92956278D02*
X156100000Y-88100000D01*
X130300000Y-98300000D02*
X130300000Y-88900000D01*
X150100000Y-114900000D02*
X162000000Y-103000000D01*
X162000000Y-97307137D02*
X161851722Y-96351722D01*
X129200000Y-114900000D02*
X150100000Y-114900000D01*
%TO.N,+5V*%
X126400000Y-85000000D02*
X130800000Y-80600000D01*
X155500000Y-90100000D02*
X155500000Y-93700000D01*
X126400000Y-85900000D02*
X126400000Y-85000000D01*
X155500000Y-93700000D02*
X155500000Y-96400000D01*
X155500000Y-93700000D02*
X154460000Y-93700000D01*
X155900000Y-89300000D02*
X155900000Y-89700000D01*
X130800000Y-80600000D02*
X149855053Y-80600000D01*
X155900000Y-89700000D02*
X155500000Y-90100000D01*
X154460000Y-93700000D02*
X151800000Y-96360000D01*
X149855053Y-80600000D02*
X150084238Y-80829185D01*
%TO.N,/GPS_TX*%
X131900000Y-100500000D02*
X147200000Y-100500000D01*
X147200000Y-100500000D02*
X151400000Y-104700000D01*
X131275735Y-99875735D02*
X131900000Y-100500000D01*
%TO.N,/SDA*%
X133651471Y-114300000D02*
X128000000Y-108648529D01*
X134700003Y-114300000D02*
X133651471Y-114300000D01*
X128000000Y-93300000D02*
X127600000Y-92900000D01*
X128000000Y-108648529D02*
X128000000Y-93300000D01*
%TO.N,/SCL*%
X129600000Y-109400000D02*
X129600000Y-93500000D01*
X129600000Y-93500000D02*
X129700000Y-93400000D01*
X133800000Y-113600000D02*
X129600000Y-109400000D01*
%TO.N,/BAT_SENSE*%
X129700000Y-83000000D02*
X128600000Y-84100000D01*
X128600000Y-103000000D02*
X129000000Y-103400000D01*
X128600000Y-84100000D02*
X128600000Y-103000000D01*
%TO.N,/SERVO1*%
X149575000Y-91000000D02*
X149575000Y-91333639D01*
X129950000Y-84550000D02*
X136100000Y-90700000D01*
X149275000Y-90700000D02*
X149575000Y-91000000D01*
X149575000Y-91333639D02*
X151856894Y-93615533D01*
X136100000Y-90700000D02*
X149275000Y-90700000D01*
%TO.N,/SERVO2*%
X149900000Y-92600000D02*
X135100000Y-92600000D01*
X135100000Y-92600000D02*
X129800000Y-87300000D01*
X151700000Y-94400000D02*
X149900000Y-92600000D01*
%TD*%
%TA.AperFunction,Conductor*%
%TO.N,GND*%
G36*
X129521914Y-81106951D02*
G01*
X129565199Y-81161797D01*
X129571960Y-81231339D01*
X129540052Y-81293497D01*
X129537842Y-81295763D01*
X126120424Y-84713181D01*
X126059101Y-84746666D01*
X126032743Y-84749500D01*
X125505143Y-84749500D01*
X125505117Y-84749502D01*
X125480012Y-84752413D01*
X125480008Y-84752415D01*
X125377235Y-84797793D01*
X125297794Y-84877234D01*
X125252415Y-84980006D01*
X125252415Y-84980008D01*
X125249500Y-85005131D01*
X125249500Y-86794856D01*
X125249502Y-86794882D01*
X125252413Y-86819987D01*
X125252415Y-86819991D01*
X125297793Y-86922764D01*
X125297794Y-86922765D01*
X125377235Y-87002206D01*
X125480009Y-87047585D01*
X125505135Y-87050500D01*
X126242873Y-87050499D01*
X126309910Y-87070183D01*
X126355665Y-87122987D01*
X126365609Y-87192146D01*
X126336584Y-87255702D01*
X126277806Y-87293476D01*
X126262270Y-87296972D01*
X126130589Y-87317829D01*
X125958363Y-87373787D01*
X125958360Y-87373788D01*
X125797002Y-87456006D01*
X125650505Y-87562441D01*
X125650500Y-87562445D01*
X125522445Y-87690500D01*
X125522441Y-87690505D01*
X125416006Y-87837002D01*
X125333788Y-87998360D01*
X125333787Y-87998363D01*
X125277829Y-88170589D01*
X125249500Y-88349448D01*
X125249500Y-88530551D01*
X125277829Y-88709410D01*
X125333787Y-88881636D01*
X125333788Y-88881639D01*
X125416006Y-89042997D01*
X125522441Y-89189494D01*
X125522445Y-89189499D01*
X125650500Y-89317554D01*
X125650505Y-89317558D01*
X125735151Y-89379056D01*
X125797006Y-89423996D01*
X125902484Y-89477740D01*
X125958360Y-89506211D01*
X125958363Y-89506212D01*
X126037065Y-89531783D01*
X126130591Y-89562171D01*
X126209955Y-89574741D01*
X126309449Y-89590500D01*
X126309454Y-89590500D01*
X126490551Y-89590500D01*
X126577259Y-89576765D01*
X126669409Y-89562171D01*
X126841639Y-89506211D01*
X127002994Y-89423996D01*
X127149501Y-89317553D01*
X127277553Y-89189501D01*
X127383996Y-89042994D01*
X127466211Y-88881639D01*
X127522171Y-88709409D01*
X127536765Y-88617259D01*
X127550500Y-88530551D01*
X127550500Y-88349448D01*
X127534019Y-88245397D01*
X127522171Y-88170591D01*
X127466211Y-87998361D01*
X127466211Y-87998360D01*
X127412261Y-87892479D01*
X127383996Y-87837006D01*
X127342230Y-87779520D01*
X127277558Y-87690505D01*
X127277554Y-87690500D01*
X127149499Y-87562445D01*
X127149494Y-87562441D01*
X127002997Y-87456006D01*
X127002996Y-87456005D01*
X127002994Y-87456004D01*
X126951300Y-87429664D01*
X126841639Y-87373788D01*
X126841636Y-87373787D01*
X126669410Y-87317829D01*
X126537728Y-87296972D01*
X126474594Y-87267042D01*
X126437663Y-87207731D01*
X126438661Y-87137868D01*
X126477271Y-87079636D01*
X126541235Y-87051522D01*
X126557120Y-87050499D01*
X127294864Y-87050499D01*
X127294879Y-87050497D01*
X127294882Y-87050497D01*
X127319987Y-87047586D01*
X127319988Y-87047585D01*
X127319991Y-87047585D01*
X127422765Y-87002206D01*
X127502206Y-86922765D01*
X127547585Y-86819991D01*
X127550500Y-86794865D01*
X127550499Y-85005136D01*
X127550497Y-85005117D01*
X127547586Y-84980012D01*
X127547585Y-84980010D01*
X127547585Y-84980009D01*
X127502206Y-84877235D01*
X127422765Y-84797794D01*
X127412040Y-84793058D01*
X127358665Y-84747972D01*
X127338138Y-84681186D01*
X127356977Y-84613904D01*
X127374443Y-84591948D01*
X127987820Y-83978571D01*
X128049142Y-83945087D01*
X128118834Y-83950071D01*
X128174767Y-83991943D01*
X128199184Y-84057407D01*
X128199500Y-84066253D01*
X128199500Y-92350902D01*
X128179815Y-92417941D01*
X128127011Y-92463696D01*
X128057853Y-92473640D01*
X127994297Y-92444615D01*
X127987819Y-92438583D01*
X127968717Y-92419481D01*
X127968709Y-92419475D01*
X127831790Y-92340426D01*
X127831786Y-92340424D01*
X127831784Y-92340423D01*
X127679057Y-92299500D01*
X127520943Y-92299500D01*
X127368216Y-92340423D01*
X127368209Y-92340426D01*
X127231290Y-92419475D01*
X127231282Y-92419481D01*
X127119481Y-92531282D01*
X127119475Y-92531290D01*
X127040426Y-92668209D01*
X127040423Y-92668216D01*
X126999500Y-92820943D01*
X126999500Y-92979057D01*
X127015292Y-93037991D01*
X127040423Y-93131783D01*
X127040426Y-93131790D01*
X127119475Y-93268709D01*
X127119479Y-93268714D01*
X127119480Y-93268716D01*
X127231284Y-93380520D01*
X127231286Y-93380521D01*
X127231290Y-93380524D01*
X127368209Y-93459573D01*
X127368216Y-93459577D01*
X127507595Y-93496923D01*
X127567254Y-93533287D01*
X127597783Y-93596134D01*
X127599500Y-93616697D01*
X127599500Y-108701255D01*
X127626793Y-108803118D01*
X127648900Y-108841407D01*
X127679520Y-108894442D01*
X127679522Y-108894444D01*
X133072897Y-114287819D01*
X133106382Y-114349142D01*
X133101398Y-114418834D01*
X133059526Y-114474767D01*
X132994062Y-114499184D01*
X132985216Y-114499500D01*
X129147273Y-114499500D01*
X129045410Y-114526793D01*
X128954087Y-114579520D01*
X128954084Y-114579522D01*
X128579522Y-114954084D01*
X128579520Y-114954087D01*
X128526794Y-115045409D01*
X128526793Y-115045411D01*
X128526793Y-115045412D01*
X128521142Y-115066502D01*
X128521141Y-115066503D01*
X128499500Y-115147271D01*
X128499500Y-115225500D01*
X128479815Y-115292539D01*
X128427011Y-115338294D01*
X128375500Y-115349500D01*
X128005143Y-115349500D01*
X128005117Y-115349502D01*
X127980012Y-115352413D01*
X127980008Y-115352415D01*
X127877235Y-115397793D01*
X127797794Y-115477234D01*
X127752415Y-115580006D01*
X127752415Y-115580008D01*
X127749500Y-115605131D01*
X127749500Y-117394856D01*
X127749502Y-117394882D01*
X127752413Y-117419987D01*
X127752415Y-117419991D01*
X127797793Y-117522764D01*
X127797794Y-117522765D01*
X127877235Y-117602206D01*
X127980009Y-117647585D01*
X128005135Y-117650500D01*
X129794864Y-117650499D01*
X129794879Y-117650497D01*
X129794882Y-117650497D01*
X129819987Y-117647586D01*
X129819988Y-117647585D01*
X129819991Y-117647585D01*
X129922765Y-117602206D01*
X130002206Y-117522765D01*
X130047585Y-117419991D01*
X130050500Y-117394865D01*
X130050499Y-117263076D01*
X130070183Y-117196040D01*
X130122987Y-117150285D01*
X130192145Y-117140341D01*
X130255701Y-117169365D01*
X130282495Y-117203600D01*
X130282829Y-117203396D01*
X130284607Y-117206297D01*
X130284977Y-117206770D01*
X130285373Y-117207547D01*
X130324728Y-117261716D01*
X130957037Y-116629408D01*
X130974075Y-116692993D01*
X131039901Y-116807007D01*
X131132993Y-116900099D01*
X131247007Y-116965925D01*
X131310590Y-116982962D01*
X130678282Y-117615269D01*
X130678282Y-117615270D01*
X130732449Y-117654624D01*
X130921782Y-117751095D01*
X131123870Y-117816757D01*
X131333754Y-117850000D01*
X131546246Y-117850000D01*
X131756127Y-117816757D01*
X131756130Y-117816757D01*
X131958217Y-117751095D01*
X132147554Y-117654622D01*
X132201716Y-117615270D01*
X132201717Y-117615270D01*
X131569408Y-116982962D01*
X131632993Y-116965925D01*
X131747007Y-116900099D01*
X131840099Y-116807007D01*
X131905925Y-116692993D01*
X131922962Y-116629408D01*
X132555270Y-117261717D01*
X132555270Y-117261716D01*
X132594622Y-117207554D01*
X132691095Y-117018217D01*
X132700492Y-116989295D01*
X132739928Y-116931618D01*
X132804286Y-116904419D01*
X132873133Y-116916331D01*
X132924610Y-116963574D01*
X132928908Y-116971314D01*
X132996004Y-117102995D01*
X133102441Y-117249494D01*
X133102445Y-117249499D01*
X133230500Y-117377554D01*
X133230505Y-117377558D01*
X133358287Y-117470396D01*
X133377006Y-117483996D01*
X133453094Y-117522765D01*
X133538360Y-117566211D01*
X133538363Y-117566212D01*
X133587226Y-117582088D01*
X133710591Y-117622171D01*
X133793429Y-117635291D01*
X133889449Y-117650500D01*
X133889454Y-117650500D01*
X134070551Y-117650500D01*
X134157259Y-117636765D01*
X134249409Y-117622171D01*
X134421639Y-117566211D01*
X134582994Y-117483996D01*
X134729501Y-117377553D01*
X134857553Y-117249501D01*
X134963996Y-117102994D01*
X135046211Y-116941639D01*
X135102171Y-116769409D01*
X135116422Y-116679425D01*
X135127527Y-116609321D01*
X135157456Y-116546186D01*
X135216768Y-116509255D01*
X135286630Y-116510253D01*
X135344863Y-116548863D01*
X135372473Y-116609321D01*
X135397829Y-116769410D01*
X135453787Y-116941636D01*
X135453788Y-116941639D01*
X135536006Y-117102997D01*
X135642441Y-117249494D01*
X135642445Y-117249499D01*
X135770500Y-117377554D01*
X135770505Y-117377558D01*
X135898287Y-117470396D01*
X135917006Y-117483996D01*
X135993094Y-117522765D01*
X136078360Y-117566211D01*
X136078363Y-117566212D01*
X136127226Y-117582088D01*
X136250591Y-117622171D01*
X136333429Y-117635291D01*
X136429449Y-117650500D01*
X136429454Y-117650500D01*
X136610551Y-117650500D01*
X136697259Y-117636765D01*
X136789409Y-117622171D01*
X136961639Y-117566211D01*
X137122994Y-117483996D01*
X137269501Y-117377553D01*
X137397553Y-117249501D01*
X137503996Y-117102994D01*
X137586211Y-116941639D01*
X137642171Y-116769409D01*
X137656422Y-116679425D01*
X137667527Y-116609321D01*
X137697456Y-116546186D01*
X137756768Y-116509255D01*
X137826630Y-116510253D01*
X137884863Y-116548863D01*
X137912473Y-116609321D01*
X137937829Y-116769410D01*
X137993787Y-116941636D01*
X137993788Y-116941639D01*
X138076006Y-117102997D01*
X138182441Y-117249494D01*
X138182445Y-117249499D01*
X138310500Y-117377554D01*
X138310505Y-117377558D01*
X138438287Y-117470396D01*
X138457006Y-117483996D01*
X138533094Y-117522765D01*
X138618360Y-117566211D01*
X138618363Y-117566212D01*
X138667226Y-117582088D01*
X138790591Y-117622171D01*
X138873429Y-117635291D01*
X138969449Y-117650500D01*
X138969454Y-117650500D01*
X139150551Y-117650500D01*
X139237259Y-117636765D01*
X139329409Y-117622171D01*
X139501639Y-117566211D01*
X139662994Y-117483996D01*
X139809501Y-117377553D01*
X139937553Y-117249501D01*
X140043996Y-117102994D01*
X140126211Y-116941639D01*
X140182171Y-116769409D01*
X140196422Y-116679425D01*
X140207527Y-116609321D01*
X140237456Y-116546186D01*
X140296768Y-116509255D01*
X140366630Y-116510253D01*
X140424863Y-116548863D01*
X140452473Y-116609321D01*
X140477829Y-116769410D01*
X140533787Y-116941636D01*
X140533788Y-116941639D01*
X140616006Y-117102997D01*
X140722441Y-117249494D01*
X140722445Y-117249499D01*
X140850500Y-117377554D01*
X140850505Y-117377558D01*
X140978287Y-117470396D01*
X140997006Y-117483996D01*
X141073094Y-117522765D01*
X141158360Y-117566211D01*
X141158363Y-117566212D01*
X141207226Y-117582088D01*
X141330591Y-117622171D01*
X141413429Y-117635291D01*
X141509449Y-117650500D01*
X141509454Y-117650500D01*
X141690551Y-117650500D01*
X141777259Y-117636765D01*
X141869409Y-117622171D01*
X142041639Y-117566211D01*
X142202994Y-117483996D01*
X142349501Y-117377553D01*
X142477553Y-117249501D01*
X142583996Y-117102994D01*
X142666211Y-116941639D01*
X142722171Y-116769409D01*
X142736422Y-116679425D01*
X142747527Y-116609321D01*
X142777456Y-116546186D01*
X142836768Y-116509255D01*
X142906630Y-116510253D01*
X142964863Y-116548863D01*
X142992473Y-116609321D01*
X143017829Y-116769410D01*
X143073787Y-116941636D01*
X143073788Y-116941639D01*
X143156006Y-117102997D01*
X143262441Y-117249494D01*
X143262445Y-117249499D01*
X143390500Y-117377554D01*
X143390505Y-117377558D01*
X143518287Y-117470396D01*
X143537006Y-117483996D01*
X143613094Y-117522765D01*
X143698360Y-117566211D01*
X143698363Y-117566212D01*
X143747226Y-117582088D01*
X143870591Y-117622171D01*
X143953429Y-117635291D01*
X144049449Y-117650500D01*
X144049454Y-117650500D01*
X144230551Y-117650500D01*
X144317259Y-117636765D01*
X144409409Y-117622171D01*
X144581639Y-117566211D01*
X144742994Y-117483996D01*
X144889501Y-117377553D01*
X145017553Y-117249501D01*
X145123996Y-117102994D01*
X145206211Y-116941639D01*
X145262171Y-116769409D01*
X145276422Y-116679425D01*
X145287527Y-116609321D01*
X145317456Y-116546186D01*
X145376768Y-116509255D01*
X145446630Y-116510253D01*
X145504863Y-116548863D01*
X145532473Y-116609321D01*
X145557829Y-116769410D01*
X145613787Y-116941636D01*
X145613788Y-116941639D01*
X145696006Y-117102997D01*
X145802441Y-117249494D01*
X145802445Y-117249499D01*
X145930500Y-117377554D01*
X145930505Y-117377558D01*
X146058287Y-117470396D01*
X146077006Y-117483996D01*
X146153094Y-117522765D01*
X146238360Y-117566211D01*
X146238363Y-117566212D01*
X146287226Y-117582088D01*
X146410591Y-117622171D01*
X146493429Y-117635291D01*
X146589449Y-117650500D01*
X146589454Y-117650500D01*
X146770551Y-117650500D01*
X146857259Y-117636765D01*
X146949409Y-117622171D01*
X147121639Y-117566211D01*
X147282994Y-117483996D01*
X147429501Y-117377553D01*
X147557553Y-117249501D01*
X147663996Y-117102994D01*
X147746211Y-116941639D01*
X147802171Y-116769409D01*
X147816422Y-116679425D01*
X147827527Y-116609321D01*
X147857456Y-116546186D01*
X147916768Y-116509255D01*
X147986630Y-116510253D01*
X148044863Y-116548863D01*
X148072473Y-116609321D01*
X148097829Y-116769410D01*
X148153787Y-116941636D01*
X148153788Y-116941639D01*
X148236006Y-117102997D01*
X148342441Y-117249494D01*
X148342445Y-117249499D01*
X148470500Y-117377554D01*
X148470505Y-117377558D01*
X148598287Y-117470396D01*
X148617006Y-117483996D01*
X148693094Y-117522765D01*
X148778360Y-117566211D01*
X148778363Y-117566212D01*
X148827226Y-117582088D01*
X148950591Y-117622171D01*
X149033429Y-117635291D01*
X149129449Y-117650500D01*
X149129454Y-117650500D01*
X149310551Y-117650500D01*
X149397259Y-117636765D01*
X149489409Y-117622171D01*
X149661639Y-117566211D01*
X149822994Y-117483996D01*
X149969501Y-117377553D01*
X150097553Y-117249501D01*
X150203996Y-117102994D01*
X150286211Y-116941639D01*
X150342171Y-116769409D01*
X150356422Y-116679425D01*
X150367527Y-116609321D01*
X150397456Y-116546186D01*
X150456768Y-116509255D01*
X150526630Y-116510253D01*
X150584863Y-116548863D01*
X150612473Y-116609321D01*
X150637829Y-116769410D01*
X150693787Y-116941636D01*
X150693788Y-116941639D01*
X150776006Y-117102997D01*
X150882441Y-117249494D01*
X150882445Y-117249499D01*
X151010500Y-117377554D01*
X151010505Y-117377558D01*
X151138287Y-117470396D01*
X151157006Y-117483996D01*
X151233094Y-117522765D01*
X151318360Y-117566211D01*
X151318363Y-117566212D01*
X151367226Y-117582088D01*
X151490591Y-117622171D01*
X151573429Y-117635291D01*
X151669449Y-117650500D01*
X151669454Y-117650500D01*
X151850551Y-117650500D01*
X151937259Y-117636765D01*
X152029409Y-117622171D01*
X152201639Y-117566211D01*
X152362994Y-117483996D01*
X152509501Y-117377553D01*
X152637553Y-117249501D01*
X152743996Y-117102994D01*
X152826211Y-116941639D01*
X152882171Y-116769409D01*
X152896765Y-116677259D01*
X152910500Y-116590551D01*
X152910500Y-116409448D01*
X152894019Y-116305397D01*
X152882171Y-116230591D01*
X152826211Y-116058361D01*
X152826211Y-116058360D01*
X152787191Y-115981780D01*
X152743996Y-115897006D01*
X152730396Y-115878287D01*
X152637558Y-115750505D01*
X152637554Y-115750500D01*
X152509499Y-115622445D01*
X152509494Y-115622441D01*
X152362997Y-115516006D01*
X152362996Y-115516005D01*
X152362994Y-115516004D01*
X152286906Y-115477235D01*
X152201639Y-115433788D01*
X152201636Y-115433787D01*
X152029410Y-115377829D01*
X151850551Y-115349500D01*
X151850546Y-115349500D01*
X151669454Y-115349500D01*
X151669449Y-115349500D01*
X151490589Y-115377829D01*
X151318363Y-115433787D01*
X151318360Y-115433788D01*
X151157002Y-115516006D01*
X151010505Y-115622441D01*
X151010500Y-115622445D01*
X150882445Y-115750500D01*
X150882441Y-115750505D01*
X150776006Y-115897002D01*
X150693788Y-116058360D01*
X150693787Y-116058363D01*
X150637829Y-116230589D01*
X150612473Y-116390678D01*
X150582544Y-116453813D01*
X150523232Y-116490744D01*
X150453369Y-116489746D01*
X150395137Y-116451136D01*
X150367527Y-116390678D01*
X150353740Y-116303639D01*
X150342171Y-116230591D01*
X150286211Y-116058361D01*
X150286211Y-116058360D01*
X150247191Y-115981780D01*
X150203996Y-115897006D01*
X150190396Y-115878287D01*
X150097558Y-115750505D01*
X150097554Y-115750500D01*
X149969499Y-115622445D01*
X149969494Y-115622441D01*
X149835127Y-115524818D01*
X149792461Y-115469488D01*
X149786482Y-115399875D01*
X149819087Y-115338080D01*
X149879926Y-115303723D01*
X149908012Y-115300500D01*
X150152725Y-115300500D01*
X150152727Y-115300500D01*
X150254588Y-115273207D01*
X150345913Y-115220480D01*
X161772495Y-103793896D01*
X161833816Y-103760413D01*
X161903508Y-103765397D01*
X161959441Y-103807269D01*
X161983858Y-103872733D01*
X161982360Y-103902713D01*
X161895572Y-104404482D01*
X161894570Y-104409626D01*
X161698602Y-105313338D01*
X161697383Y-105318436D01*
X161463403Y-106213051D01*
X161461970Y-106218092D01*
X161190394Y-107102020D01*
X161188749Y-107106997D01*
X160880059Y-107978663D01*
X160878205Y-107983566D01*
X160532956Y-108841407D01*
X160530897Y-108846226D01*
X160149709Y-109688702D01*
X160147448Y-109693431D01*
X159730991Y-110519059D01*
X159728532Y-110523688D01*
X159277559Y-111330977D01*
X159274907Y-111335497D01*
X158790227Y-112122998D01*
X158787386Y-112127403D01*
X158269844Y-112893743D01*
X158266819Y-112898023D01*
X157717386Y-113641765D01*
X157714184Y-113645914D01*
X157133776Y-114365819D01*
X157130400Y-114369829D01*
X156520124Y-115064520D01*
X156516583Y-115068384D01*
X155877455Y-115736708D01*
X155873753Y-115740418D01*
X155206989Y-116381102D01*
X155203134Y-116384653D01*
X154509874Y-116996604D01*
X154505872Y-116999989D01*
X153787381Y-117582088D01*
X153783240Y-117585301D01*
X153040766Y-118136534D01*
X153036493Y-118139568D01*
X152271421Y-118658913D01*
X152267023Y-118661765D01*
X151480658Y-119148332D01*
X151476143Y-119150995D01*
X150669942Y-119603884D01*
X150665319Y-119606354D01*
X149840684Y-120024776D01*
X149835961Y-120027048D01*
X148994399Y-120410241D01*
X148989584Y-120412312D01*
X148132555Y-120759608D01*
X148127657Y-120761473D01*
X147256748Y-121072231D01*
X147251776Y-121073888D01*
X146368484Y-121347574D01*
X146363446Y-121349019D01*
X145469391Y-121585130D01*
X145464296Y-121586361D01*
X144561048Y-121784482D01*
X144555906Y-121785496D01*
X143645107Y-121945268D01*
X143639926Y-121946064D01*
X142723204Y-122067201D01*
X142717995Y-122067778D01*
X141796946Y-122150070D01*
X141791717Y-122150426D01*
X140868029Y-122193720D01*
X140862789Y-122193855D01*
X139938078Y-122198078D01*
X139932838Y-122197991D01*
X139008798Y-122163133D01*
X139003565Y-122162825D01*
X138081805Y-122088948D01*
X138076591Y-122088419D01*
X137158784Y-121975655D01*
X137153597Y-121974906D01*
X136241361Y-121823457D01*
X136236209Y-121822489D01*
X135331217Y-121632629D01*
X135326112Y-121631445D01*
X134429938Y-121403509D01*
X134424886Y-121402110D01*
X133539140Y-121136504D01*
X133534153Y-121134893D01*
X132660414Y-120832091D01*
X132655499Y-120830270D01*
X131795353Y-120490821D01*
X131790519Y-120488794D01*
X130945481Y-120113297D01*
X130940738Y-120111068D01*
X130112345Y-119700208D01*
X130107699Y-119697781D01*
X129297360Y-119252252D01*
X129292822Y-119249630D01*
X128502076Y-118770284D01*
X128497652Y-118767473D01*
X127727832Y-118255111D01*
X127723532Y-118252115D01*
X126976105Y-117707720D01*
X126971934Y-117704546D01*
X126248140Y-117129018D01*
X126244107Y-117125670D01*
X125626611Y-116590551D01*
X125545261Y-116520053D01*
X125541385Y-116516547D01*
X125533656Y-116509255D01*
X125149110Y-116146446D01*
X124868810Y-115881990D01*
X124865074Y-115878314D01*
X124219859Y-115215843D01*
X124216283Y-115212011D01*
X123599701Y-114522934D01*
X123596289Y-114518956D01*
X123456802Y-114349142D01*
X123009312Y-113804360D01*
X123006096Y-113800270D01*
X122449867Y-113061540D01*
X122446813Y-113057301D01*
X122407004Y-112999500D01*
X121922305Y-112295735D01*
X121919425Y-112291358D01*
X121427565Y-111508300D01*
X121424872Y-111503804D01*
X120966545Y-110700665D01*
X120964044Y-110696059D01*
X120936119Y-110641932D01*
X120540063Y-109874261D01*
X120537771Y-109869578D01*
X120348755Y-109461785D01*
X120148903Y-109030614D01*
X120146803Y-109025821D01*
X120097242Y-108905852D01*
X119793718Y-108171128D01*
X119791836Y-108166286D01*
X119475175Y-107297409D01*
X119473514Y-107292531D01*
X119193859Y-106411063D01*
X119192394Y-106406082D01*
X118950245Y-105513606D01*
X118948981Y-105508524D01*
X118874711Y-105180520D01*
X118744774Y-104606666D01*
X118743725Y-104601534D01*
X118708724Y-104409626D01*
X118577802Y-103691794D01*
X118576974Y-103686632D01*
X118574814Y-103671095D01*
X118449649Y-102770725D01*
X118449039Y-102765533D01*
X118447630Y-102750884D01*
X118360530Y-101845047D01*
X118360141Y-101839835D01*
X118310612Y-100916443D01*
X118310443Y-100911219D01*
X118309140Y-100796104D01*
X118301022Y-100078711D01*
X120649500Y-100078711D01*
X120649500Y-100321288D01*
X120681161Y-100561785D01*
X120743947Y-100796104D01*
X120822962Y-100986863D01*
X120836776Y-101020212D01*
X120958064Y-101230289D01*
X120958066Y-101230292D01*
X120958067Y-101230293D01*
X121105733Y-101422736D01*
X121105739Y-101422743D01*
X121277256Y-101594260D01*
X121277262Y-101594265D01*
X121469711Y-101741936D01*
X121679788Y-101863224D01*
X121903900Y-101956054D01*
X122138211Y-102018838D01*
X122318586Y-102042584D01*
X122378711Y-102050500D01*
X122378712Y-102050500D01*
X122621289Y-102050500D01*
X122669388Y-102044167D01*
X122861789Y-102018838D01*
X123096100Y-101956054D01*
X123320212Y-101863224D01*
X123530289Y-101741936D01*
X123722738Y-101594265D01*
X123894265Y-101422738D01*
X124041936Y-101230289D01*
X124163224Y-101020212D01*
X124256054Y-100796100D01*
X124318838Y-100561789D01*
X124350500Y-100321288D01*
X124350500Y-100078712D01*
X124350150Y-100076057D01*
X124338371Y-99986583D01*
X124318838Y-99838211D01*
X124256054Y-99603900D01*
X124163224Y-99379788D01*
X124041936Y-99169711D01*
X123913589Y-99002445D01*
X123894266Y-98977263D01*
X123894260Y-98977256D01*
X123722743Y-98805739D01*
X123722736Y-98805733D01*
X123530293Y-98658067D01*
X123530292Y-98658066D01*
X123530289Y-98658064D01*
X123320212Y-98536776D01*
X123308175Y-98531790D01*
X123096104Y-98443947D01*
X122861785Y-98381161D01*
X122621289Y-98349500D01*
X122621288Y-98349500D01*
X122378712Y-98349500D01*
X122378711Y-98349500D01*
X122138214Y-98381161D01*
X121903895Y-98443947D01*
X121679794Y-98536773D01*
X121679785Y-98536777D01*
X121469706Y-98658067D01*
X121277263Y-98805733D01*
X121277256Y-98805739D01*
X121105739Y-98977256D01*
X121105733Y-98977263D01*
X120958067Y-99169706D01*
X120836777Y-99379785D01*
X120836773Y-99379794D01*
X120743947Y-99603895D01*
X120681161Y-99838214D01*
X120649500Y-100078711D01*
X118301022Y-100078711D01*
X118299979Y-99986545D01*
X118300029Y-99981378D01*
X118328653Y-99057015D01*
X118328921Y-99051873D01*
X118396580Y-98129569D01*
X118397069Y-98124403D01*
X118503640Y-97205812D01*
X118504352Y-97200637D01*
X118649646Y-96287362D01*
X118650561Y-96282302D01*
X118834326Y-95375964D01*
X118835465Y-95370898D01*
X119057361Y-94473154D01*
X119058701Y-94468183D01*
X119318353Y-93580559D01*
X119319908Y-93575632D01*
X119616817Y-92699836D01*
X119618579Y-92694977D01*
X119952240Y-91832493D01*
X119954230Y-91827658D01*
X120018061Y-91681358D01*
X120324019Y-90980094D01*
X120326213Y-90975344D01*
X120353377Y-90919633D01*
X120731492Y-90144154D01*
X120733874Y-90139524D01*
X121173912Y-89326216D01*
X121176502Y-89321660D01*
X121178951Y-89317558D01*
X121650544Y-88527626D01*
X121653279Y-88523258D01*
X122160441Y-87749984D01*
X122163373Y-87745712D01*
X122702790Y-86994519D01*
X122705880Y-86990403D01*
X123276521Y-86262725D01*
X123279838Y-86258675D01*
X123412214Y-86103821D01*
X123880733Y-85555745D01*
X123884167Y-85551896D01*
X124514242Y-84874976D01*
X124517874Y-84871238D01*
X124987668Y-84407461D01*
X125175954Y-84221585D01*
X125179728Y-84218013D01*
X125864711Y-83596718D01*
X125868578Y-83593356D01*
X126579238Y-83001534D01*
X126583307Y-82998290D01*
X126742174Y-82876982D01*
X127318286Y-82437072D01*
X127322471Y-82434015D01*
X128080548Y-81904329D01*
X128084826Y-81901473D01*
X128864593Y-81404309D01*
X128869013Y-81401621D01*
X129387980Y-81100800D01*
X129455847Y-81084212D01*
X129521914Y-81106951D01*
G37*
%TD.AperFunction*%
%TA.AperFunction,Conductor*%
G36*
X130617807Y-115320185D02*
G01*
X130644212Y-115350658D01*
X131310591Y-116017037D01*
X131247007Y-116034075D01*
X131132993Y-116099901D01*
X131039901Y-116192993D01*
X130974075Y-116307007D01*
X130957037Y-116370591D01*
X130324728Y-115738282D01*
X130324727Y-115738282D01*
X130285380Y-115792440D01*
X130285377Y-115792445D01*
X130284981Y-115793223D01*
X130284752Y-115793464D01*
X130282838Y-115796590D01*
X130282180Y-115796187D01*
X130237004Y-115844017D01*
X130169183Y-115860809D01*
X130103049Y-115838268D01*
X130059600Y-115783551D01*
X130050499Y-115736923D01*
X130050499Y-115605143D01*
X130050499Y-115605136D01*
X130050497Y-115605117D01*
X130047586Y-115580012D01*
X130047585Y-115580011D01*
X130047585Y-115580009D01*
X130002206Y-115477235D01*
X130002204Y-115477233D01*
X130001036Y-115474587D01*
X129991964Y-115405308D01*
X130021787Y-115342123D01*
X130081037Y-115305092D01*
X130114470Y-115300500D01*
X130550768Y-115300500D01*
X130617807Y-115320185D01*
G37*
%TD.AperFunction*%
%TA.AperFunction,Conductor*%
G36*
X133359027Y-115320185D02*
G01*
X133404782Y-115372989D01*
X133414726Y-115442147D01*
X133385701Y-115505703D01*
X133364873Y-115524818D01*
X133230505Y-115622441D01*
X133230500Y-115622445D01*
X133102445Y-115750500D01*
X133102441Y-115750505D01*
X132996004Y-115897004D01*
X132928908Y-116028685D01*
X132880933Y-116079480D01*
X132813112Y-116096275D01*
X132746977Y-116073737D01*
X132703527Y-116019021D01*
X132700492Y-116010705D01*
X132691094Y-115981780D01*
X132594624Y-115792449D01*
X132555270Y-115738282D01*
X132555269Y-115738282D01*
X131922962Y-116370590D01*
X131905925Y-116307007D01*
X131840099Y-116192993D01*
X131747007Y-116099901D01*
X131632993Y-116034075D01*
X131569409Y-116017037D01*
X132219814Y-115366630D01*
X132219979Y-115365848D01*
X132269032Y-115316093D01*
X132329231Y-115300500D01*
X133291988Y-115300500D01*
X133359027Y-115320185D01*
G37*
%TD.AperFunction*%
%TA.AperFunction,Conductor*%
G36*
X130905703Y-88972542D02*
G01*
X130912181Y-88978574D01*
X134854087Y-92920480D01*
X134945412Y-92973207D01*
X135047273Y-93000500D01*
X135152727Y-93000500D01*
X149682745Y-93000500D01*
X149749784Y-93020185D01*
X149770426Y-93036819D01*
X151063181Y-94329574D01*
X151096666Y-94390897D01*
X151099500Y-94417255D01*
X151099500Y-94479056D01*
X151140423Y-94631783D01*
X151140426Y-94631790D01*
X151219475Y-94768709D01*
X151219479Y-94768714D01*
X151219480Y-94768716D01*
X151331284Y-94880520D01*
X151331286Y-94880521D01*
X151331290Y-94880524D01*
X151381815Y-94909694D01*
X151468216Y-94959577D01*
X151580558Y-94989678D01*
X151640215Y-95026042D01*
X151670745Y-95088888D01*
X151662451Y-95158264D01*
X151617966Y-95212142D01*
X151567863Y-95231925D01*
X151530587Y-95237829D01*
X151358363Y-95293787D01*
X151358360Y-95293788D01*
X151197002Y-95376006D01*
X151050505Y-95482441D01*
X151050500Y-95482445D01*
X150922445Y-95610500D01*
X150922441Y-95610505D01*
X150816006Y-95757002D01*
X150733788Y-95918360D01*
X150733787Y-95918363D01*
X150677829Y-96090589D01*
X150649500Y-96269448D01*
X150649500Y-96450551D01*
X150677829Y-96629410D01*
X150733787Y-96801636D01*
X150733788Y-96801639D01*
X150816006Y-96962997D01*
X150922441Y-97109494D01*
X150922445Y-97109499D01*
X151050500Y-97237554D01*
X151050505Y-97237558D01*
X151105561Y-97277558D01*
X151197006Y-97343996D01*
X151275510Y-97383996D01*
X151358360Y-97426211D01*
X151358363Y-97426212D01*
X151444476Y-97454191D01*
X151530591Y-97482171D01*
X151603639Y-97493740D01*
X151690678Y-97507527D01*
X151753813Y-97537456D01*
X151790744Y-97596768D01*
X151789746Y-97666631D01*
X151751136Y-97724863D01*
X151690678Y-97752473D01*
X151530589Y-97777829D01*
X151358363Y-97833787D01*
X151358360Y-97833788D01*
X151197002Y-97916006D01*
X151050505Y-98022441D01*
X151050500Y-98022445D01*
X150922445Y-98150500D01*
X150922441Y-98150505D01*
X150816006Y-98297002D01*
X150733788Y-98458360D01*
X150733787Y-98458363D01*
X150677829Y-98630589D01*
X150649500Y-98809448D01*
X150649500Y-98990551D01*
X150677829Y-99169410D01*
X150733787Y-99341636D01*
X150733788Y-99341639D01*
X150816006Y-99502997D01*
X150922441Y-99649494D01*
X150922445Y-99649499D01*
X151050504Y-99777558D01*
X151171798Y-99865682D01*
X151214464Y-99921011D01*
X151220443Y-99990625D01*
X151187838Y-100052420D01*
X151126999Y-100086777D01*
X151098913Y-100090000D01*
X150902155Y-100090000D01*
X150842627Y-100096401D01*
X150842620Y-100096403D01*
X150707913Y-100146645D01*
X150707906Y-100146649D01*
X150592812Y-100232809D01*
X150592809Y-100232812D01*
X150506649Y-100347906D01*
X150506645Y-100347913D01*
X150456403Y-100482620D01*
X150456401Y-100482627D01*
X150450000Y-100542155D01*
X150450000Y-101190000D01*
X151366988Y-101190000D01*
X151334075Y-101247007D01*
X151300000Y-101374174D01*
X151300000Y-101505826D01*
X151334075Y-101632993D01*
X151366988Y-101690000D01*
X150450000Y-101690000D01*
X150450000Y-102337844D01*
X150456401Y-102397372D01*
X150456403Y-102397379D01*
X150506645Y-102532086D01*
X150506649Y-102532093D01*
X150592809Y-102647187D01*
X150592812Y-102647190D01*
X150707906Y-102733350D01*
X150707913Y-102733354D01*
X150842620Y-102783596D01*
X150842627Y-102783598D01*
X150902155Y-102789999D01*
X150902172Y-102790000D01*
X151550000Y-102790000D01*
X151550000Y-101873012D01*
X151607007Y-101905925D01*
X151734174Y-101940000D01*
X151865826Y-101940000D01*
X151992993Y-101905925D01*
X152050000Y-101873012D01*
X152050000Y-102790000D01*
X152697828Y-102790000D01*
X152697844Y-102789999D01*
X152757372Y-102783598D01*
X152757379Y-102783596D01*
X152892086Y-102733354D01*
X152892093Y-102733350D01*
X153007187Y-102647190D01*
X153007190Y-102647187D01*
X153093350Y-102532093D01*
X153093354Y-102532086D01*
X153143596Y-102397379D01*
X153143598Y-102397372D01*
X153149999Y-102337844D01*
X153150000Y-102337827D01*
X153150000Y-101690000D01*
X152233012Y-101690000D01*
X152265925Y-101632993D01*
X152300000Y-101505826D01*
X152300000Y-101374174D01*
X152265925Y-101247007D01*
X152233012Y-101190000D01*
X153150000Y-101190000D01*
X153150000Y-100542172D01*
X153149999Y-100542155D01*
X153143598Y-100482627D01*
X153143596Y-100482620D01*
X153093354Y-100347913D01*
X153093350Y-100347906D01*
X153007190Y-100232812D01*
X153007187Y-100232809D01*
X152892093Y-100146649D01*
X152892086Y-100146645D01*
X152757379Y-100096403D01*
X152757372Y-100096401D01*
X152697844Y-100090000D01*
X152501087Y-100090000D01*
X152434048Y-100070315D01*
X152388293Y-100017511D01*
X152378349Y-99948353D01*
X152407374Y-99884797D01*
X152428202Y-99865682D01*
X152549495Y-99777558D01*
X152549497Y-99777555D01*
X152549501Y-99777553D01*
X152677553Y-99649501D01*
X152783996Y-99502994D01*
X152866211Y-99341639D01*
X152922171Y-99169409D01*
X152944165Y-99030546D01*
X152950500Y-98990551D01*
X152950500Y-98809448D01*
X152928506Y-98670589D01*
X152922171Y-98630591D01*
X152894191Y-98544476D01*
X152866212Y-98458363D01*
X152866211Y-98458360D01*
X152804375Y-98337002D01*
X152783996Y-98297006D01*
X152728735Y-98220945D01*
X152677558Y-98150505D01*
X152677554Y-98150500D01*
X152549499Y-98022445D01*
X152549494Y-98022441D01*
X152402997Y-97916006D01*
X152402996Y-97916005D01*
X152402994Y-97916004D01*
X152320143Y-97873789D01*
X152241639Y-97833788D01*
X152241636Y-97833787D01*
X152069410Y-97777829D01*
X151909321Y-97752473D01*
X151846186Y-97722544D01*
X151809255Y-97663232D01*
X151810253Y-97593370D01*
X151848863Y-97535137D01*
X151909321Y-97507527D01*
X151979425Y-97496422D01*
X152069409Y-97482171D01*
X152241639Y-97426211D01*
X152402994Y-97343996D01*
X152549501Y-97237553D01*
X152677553Y-97109501D01*
X152783996Y-96962994D01*
X152866211Y-96801639D01*
X152922171Y-96629409D01*
X152944165Y-96490546D01*
X152950500Y-96450551D01*
X152950500Y-96269448D01*
X152934019Y-96165397D01*
X152922171Y-96090591D01*
X152879207Y-95958360D01*
X152875424Y-95946716D01*
X152873429Y-95876875D01*
X152905672Y-95820719D01*
X154589574Y-94136819D01*
X154650897Y-94103334D01*
X154677255Y-94100500D01*
X154975500Y-94100500D01*
X155042539Y-94120185D01*
X155088294Y-94172989D01*
X155099500Y-94224500D01*
X155099500Y-95236840D01*
X155079815Y-95303879D01*
X155031795Y-95347325D01*
X154897002Y-95416006D01*
X154750505Y-95522441D01*
X154750500Y-95522445D01*
X154622445Y-95650500D01*
X154622441Y-95650505D01*
X154516006Y-95797002D01*
X154433788Y-95958360D01*
X154433787Y-95958363D01*
X154377829Y-96130589D01*
X154349500Y-96309448D01*
X154349500Y-96490551D01*
X154377829Y-96669410D01*
X154433787Y-96841636D01*
X154433788Y-96841639D01*
X154516006Y-97002997D01*
X154622441Y-97149494D01*
X154622445Y-97149499D01*
X154750500Y-97277554D01*
X154750505Y-97277558D01*
X154820729Y-97328578D01*
X154897006Y-97383996D01*
X154979857Y-97426211D01*
X155058360Y-97466211D01*
X155058363Y-97466212D01*
X155144476Y-97494191D01*
X155230591Y-97522171D01*
X155303639Y-97533740D01*
X155390678Y-97547527D01*
X155453813Y-97577456D01*
X155490744Y-97636768D01*
X155489746Y-97706631D01*
X155451136Y-97764863D01*
X155390678Y-97792473D01*
X155230589Y-97817829D01*
X155058363Y-97873787D01*
X155058360Y-97873788D01*
X154897002Y-97956006D01*
X154750505Y-98062441D01*
X154750500Y-98062445D01*
X154622445Y-98190500D01*
X154622441Y-98190505D01*
X154516006Y-98337002D01*
X154433788Y-98498360D01*
X154433787Y-98498363D01*
X154377829Y-98670589D01*
X154349500Y-98849448D01*
X154349500Y-99030551D01*
X154377829Y-99209410D01*
X154433787Y-99381636D01*
X154433788Y-99381639D01*
X154516006Y-99542997D01*
X154622441Y-99689494D01*
X154622445Y-99689499D01*
X154750504Y-99817558D01*
X154871798Y-99905682D01*
X154914464Y-99961011D01*
X154920443Y-100030625D01*
X154887838Y-100092420D01*
X154826999Y-100126777D01*
X154798913Y-100130000D01*
X154602155Y-100130000D01*
X154542627Y-100136401D01*
X154542620Y-100136403D01*
X154407913Y-100186645D01*
X154407906Y-100186649D01*
X154292812Y-100272809D01*
X154292809Y-100272812D01*
X154206649Y-100387906D01*
X154206645Y-100387913D01*
X154156403Y-100522620D01*
X154156401Y-100522627D01*
X154150000Y-100582155D01*
X154150000Y-101230000D01*
X155066988Y-101230000D01*
X155034075Y-101287007D01*
X155000000Y-101414174D01*
X155000000Y-101545826D01*
X155034075Y-101672993D01*
X155066988Y-101730000D01*
X154150000Y-101730000D01*
X154150000Y-102377844D01*
X154156401Y-102437372D01*
X154156403Y-102437379D01*
X154206645Y-102572086D01*
X154206649Y-102572093D01*
X154292809Y-102687187D01*
X154292812Y-102687190D01*
X154407906Y-102773350D01*
X154407913Y-102773354D01*
X154542620Y-102823596D01*
X154542627Y-102823598D01*
X154602155Y-102829999D01*
X154602172Y-102830000D01*
X155250000Y-102830000D01*
X155250000Y-101913012D01*
X155307007Y-101945925D01*
X155434174Y-101980000D01*
X155565826Y-101980000D01*
X155692993Y-101945925D01*
X155750000Y-101913012D01*
X155750000Y-102830000D01*
X156397828Y-102830000D01*
X156397844Y-102829999D01*
X156457372Y-102823598D01*
X156457379Y-102823596D01*
X156592086Y-102773354D01*
X156592093Y-102773350D01*
X156707187Y-102687190D01*
X156707190Y-102687187D01*
X156793350Y-102572093D01*
X156793354Y-102572086D01*
X156843596Y-102437379D01*
X156843598Y-102437372D01*
X156849999Y-102377844D01*
X156850000Y-102377827D01*
X156850000Y-101730000D01*
X155933012Y-101730000D01*
X155965925Y-101672993D01*
X156000000Y-101545826D01*
X156000000Y-101414174D01*
X155965925Y-101287007D01*
X155933012Y-101230000D01*
X156850000Y-101230000D01*
X156850000Y-100582172D01*
X156849999Y-100582155D01*
X156843598Y-100522627D01*
X156843596Y-100522620D01*
X156793354Y-100387913D01*
X156793350Y-100387906D01*
X156707190Y-100272812D01*
X156707187Y-100272809D01*
X156592093Y-100186649D01*
X156592086Y-100186645D01*
X156457379Y-100136403D01*
X156457372Y-100136401D01*
X156397844Y-100130000D01*
X156201087Y-100130000D01*
X156134048Y-100110315D01*
X156088293Y-100057511D01*
X156078349Y-99988353D01*
X156107374Y-99924797D01*
X156128202Y-99905682D01*
X156249495Y-99817558D01*
X156249497Y-99817555D01*
X156249501Y-99817553D01*
X156377553Y-99689501D01*
X156483996Y-99542994D01*
X156566211Y-99381639D01*
X156622171Y-99209409D01*
X156636765Y-99117259D01*
X156650500Y-99030551D01*
X156650500Y-98849448D01*
X156627599Y-98704863D01*
X156622171Y-98670591D01*
X156577071Y-98531784D01*
X156566212Y-98498363D01*
X156566211Y-98498360D01*
X156519258Y-98406211D01*
X156483996Y-98337006D01*
X156470396Y-98318287D01*
X156377558Y-98190505D01*
X156377554Y-98190500D01*
X156249499Y-98062445D01*
X156249494Y-98062441D01*
X156102997Y-97956006D01*
X156102996Y-97956005D01*
X156102994Y-97956004D01*
X156024494Y-97916006D01*
X155941639Y-97873788D01*
X155941636Y-97873787D01*
X155769410Y-97817829D01*
X155609321Y-97792473D01*
X155546186Y-97762544D01*
X155509255Y-97703232D01*
X155510253Y-97633370D01*
X155548863Y-97575137D01*
X155609321Y-97547527D01*
X155679425Y-97536422D01*
X155769409Y-97522171D01*
X155941639Y-97466211D01*
X156102994Y-97383996D01*
X156249501Y-97277553D01*
X156377553Y-97149501D01*
X156483996Y-97002994D01*
X156566211Y-96841639D01*
X156622171Y-96669409D01*
X156636765Y-96577259D01*
X156650500Y-96490551D01*
X156650500Y-96309448D01*
X156626148Y-96155702D01*
X156622171Y-96130591D01*
X156566211Y-95958361D01*
X156566211Y-95958360D01*
X156537598Y-95902205D01*
X156483996Y-95797006D01*
X156461691Y-95766305D01*
X156377558Y-95650505D01*
X156377554Y-95650500D01*
X156249499Y-95522445D01*
X156249494Y-95522441D01*
X156102997Y-95416006D01*
X156102996Y-95416005D01*
X156102994Y-95416004D01*
X155968205Y-95347325D01*
X155917409Y-95299350D01*
X155900500Y-95236840D01*
X155900500Y-90317255D01*
X155920185Y-90250216D01*
X155936819Y-90229574D01*
X156026869Y-90139524D01*
X156220480Y-89945913D01*
X156273206Y-89854588D01*
X156273207Y-89854587D01*
X156294442Y-89775335D01*
X156295783Y-89771407D01*
X156307741Y-89754460D01*
X156325452Y-89723783D01*
X156380520Y-89668716D01*
X156459577Y-89531784D01*
X156500500Y-89379057D01*
X156500500Y-89366255D01*
X156520185Y-89299216D01*
X156572989Y-89253461D01*
X156642147Y-89243517D01*
X156705703Y-89272542D01*
X156712181Y-89278574D01*
X160585538Y-93151931D01*
X160615492Y-93200395D01*
X160744476Y-93587291D01*
X160747004Y-93657115D01*
X160711382Y-93717221D01*
X160648918Y-93748527D01*
X160579445Y-93741093D01*
X160539160Y-93714189D01*
X160522765Y-93697794D01*
X160419992Y-93652415D01*
X160394865Y-93649500D01*
X158605143Y-93649500D01*
X158605117Y-93649502D01*
X158580012Y-93652413D01*
X158580008Y-93652415D01*
X158477235Y-93697793D01*
X158397794Y-93777234D01*
X158352415Y-93880006D01*
X158352415Y-93880008D01*
X158349500Y-93905131D01*
X158349500Y-95694856D01*
X158349502Y-95694882D01*
X158352413Y-95719987D01*
X158352415Y-95719991D01*
X158397793Y-95822764D01*
X158397794Y-95822765D01*
X158477235Y-95902206D01*
X158580009Y-95947585D01*
X158605135Y-95950500D01*
X159342873Y-95950499D01*
X159409910Y-95970183D01*
X159455665Y-96022987D01*
X159465609Y-96092146D01*
X159436584Y-96155702D01*
X159377806Y-96193476D01*
X159362270Y-96196972D01*
X159230589Y-96217829D01*
X159058363Y-96273787D01*
X159058360Y-96273788D01*
X158897002Y-96356006D01*
X158750505Y-96462441D01*
X158750500Y-96462445D01*
X158622445Y-96590500D01*
X158622441Y-96590505D01*
X158516006Y-96737002D01*
X158433788Y-96898360D01*
X158433787Y-96898363D01*
X158377829Y-97070589D01*
X158349500Y-97249448D01*
X158349500Y-97430551D01*
X158377829Y-97609410D01*
X158433787Y-97781636D01*
X158433788Y-97781639D01*
X158489664Y-97891300D01*
X158510040Y-97931290D01*
X158516006Y-97942997D01*
X158622441Y-98089494D01*
X158622445Y-98089499D01*
X158750500Y-98217554D01*
X158750505Y-98217558D01*
X158859852Y-98297002D01*
X158897006Y-98323996D01*
X159002484Y-98377740D01*
X159058360Y-98406211D01*
X159058363Y-98406212D01*
X159144476Y-98434191D01*
X159230591Y-98462171D01*
X159303639Y-98473740D01*
X159390678Y-98487527D01*
X159453813Y-98517456D01*
X159490744Y-98576768D01*
X159489746Y-98646631D01*
X159451136Y-98704863D01*
X159390678Y-98732473D01*
X159230589Y-98757829D01*
X159058363Y-98813787D01*
X159058360Y-98813788D01*
X158897002Y-98896006D01*
X158750505Y-99002441D01*
X158750500Y-99002445D01*
X158622445Y-99130500D01*
X158622441Y-99130505D01*
X158516006Y-99277002D01*
X158433788Y-99438360D01*
X158433787Y-99438363D01*
X158377829Y-99610589D01*
X158349500Y-99789448D01*
X158349500Y-99970551D01*
X158377829Y-100149410D01*
X158433787Y-100321636D01*
X158433788Y-100321639D01*
X158489664Y-100431300D01*
X158515813Y-100482620D01*
X158516006Y-100482997D01*
X158622441Y-100629494D01*
X158622445Y-100629499D01*
X158750500Y-100757554D01*
X158750505Y-100757558D01*
X158837111Y-100820480D01*
X158897006Y-100863996D01*
X158968647Y-100900499D01*
X159028684Y-100931090D01*
X159079480Y-100979065D01*
X159096275Y-101046886D01*
X159073737Y-101113021D01*
X159019022Y-101156472D01*
X159010708Y-101159506D01*
X158981781Y-101168905D01*
X158792439Y-101265380D01*
X158738282Y-101304727D01*
X158738282Y-101304728D01*
X159370591Y-101937037D01*
X159307007Y-101954075D01*
X159192993Y-102019901D01*
X159099901Y-102112993D01*
X159034075Y-102227007D01*
X159017037Y-102290591D01*
X158384728Y-101658282D01*
X158384727Y-101658282D01*
X158345380Y-101712439D01*
X158248904Y-101901782D01*
X158183242Y-102103869D01*
X158183242Y-102103872D01*
X158150000Y-102313753D01*
X158150000Y-102526246D01*
X158183242Y-102736127D01*
X158183242Y-102736130D01*
X158248904Y-102938217D01*
X158345375Y-103127550D01*
X158384728Y-103181716D01*
X159017037Y-102549408D01*
X159034075Y-102612993D01*
X159099901Y-102727007D01*
X159192993Y-102820099D01*
X159307007Y-102885925D01*
X159370590Y-102902962D01*
X158738282Y-103535269D01*
X158738282Y-103535270D01*
X158792449Y-103574624D01*
X158981782Y-103671095D01*
X159183870Y-103736757D01*
X159393754Y-103770000D01*
X159606246Y-103770000D01*
X159816127Y-103736757D01*
X159816130Y-103736757D01*
X160018217Y-103671095D01*
X160207554Y-103574622D01*
X160261716Y-103535270D01*
X160261717Y-103535270D01*
X159629408Y-102902962D01*
X159692993Y-102885925D01*
X159807007Y-102820099D01*
X159900099Y-102727007D01*
X159965925Y-102612993D01*
X159982962Y-102549409D01*
X160615270Y-103181717D01*
X160615270Y-103181716D01*
X160654622Y-103127554D01*
X160751095Y-102938217D01*
X160816757Y-102736130D01*
X160816757Y-102736127D01*
X160850000Y-102526246D01*
X160850000Y-102313753D01*
X160816757Y-102103872D01*
X160816757Y-102103869D01*
X160751095Y-101901782D01*
X160654624Y-101712449D01*
X160615270Y-101658282D01*
X160615269Y-101658282D01*
X159982962Y-102290590D01*
X159965925Y-102227007D01*
X159900099Y-102112993D01*
X159807007Y-102019901D01*
X159692993Y-101954075D01*
X159629409Y-101937037D01*
X160261716Y-101304728D01*
X160207550Y-101265375D01*
X160018217Y-101168904D01*
X159989292Y-101159506D01*
X159931616Y-101120068D01*
X159904418Y-101055710D01*
X159916333Y-100986863D01*
X159963577Y-100935388D01*
X159971315Y-100931090D01*
X160102994Y-100863996D01*
X160249501Y-100757553D01*
X160377553Y-100629501D01*
X160483996Y-100482994D01*
X160566211Y-100321639D01*
X160622171Y-100149409D01*
X160636765Y-100057259D01*
X160650500Y-99970551D01*
X160650500Y-99789448D01*
X160634019Y-99685397D01*
X160622171Y-99610591D01*
X160566211Y-99438361D01*
X160566211Y-99438360D01*
X160516928Y-99341639D01*
X160483996Y-99277006D01*
X160406042Y-99169711D01*
X160377558Y-99130505D01*
X160377554Y-99130500D01*
X160249499Y-99002445D01*
X160249494Y-99002441D01*
X160102997Y-98896006D01*
X160102996Y-98896005D01*
X160102994Y-98896004D01*
X160051300Y-98869664D01*
X159941639Y-98813788D01*
X159941636Y-98813787D01*
X159769410Y-98757829D01*
X159609321Y-98732473D01*
X159546186Y-98702544D01*
X159509255Y-98643232D01*
X159510253Y-98573370D01*
X159548863Y-98515137D01*
X159609321Y-98487527D01*
X159679425Y-98476422D01*
X159769409Y-98462171D01*
X159941639Y-98406211D01*
X160102994Y-98323996D01*
X160249501Y-98217553D01*
X160377553Y-98089501D01*
X160483996Y-97942994D01*
X160566211Y-97781639D01*
X160622171Y-97609409D01*
X160637837Y-97510500D01*
X160650500Y-97430551D01*
X160650500Y-97249448D01*
X160634019Y-97145397D01*
X160622171Y-97070591D01*
X160566211Y-96898361D01*
X160566211Y-96898360D01*
X160516928Y-96801639D01*
X160483996Y-96737006D01*
X160434884Y-96669409D01*
X160377558Y-96590505D01*
X160377554Y-96590500D01*
X160249499Y-96462445D01*
X160249494Y-96462441D01*
X160102997Y-96356006D01*
X160102996Y-96356005D01*
X160102994Y-96356004D01*
X160051300Y-96329664D01*
X159941639Y-96273788D01*
X159941636Y-96273787D01*
X159769410Y-96217829D01*
X159637728Y-96196972D01*
X159574594Y-96167042D01*
X159537663Y-96107731D01*
X159538661Y-96037868D01*
X159577271Y-95979636D01*
X159641235Y-95951522D01*
X159657120Y-95950499D01*
X160394864Y-95950499D01*
X160394879Y-95950497D01*
X160394882Y-95950497D01*
X160419987Y-95947586D01*
X160419988Y-95947585D01*
X160419991Y-95947585D01*
X160522765Y-95902206D01*
X160602206Y-95822765D01*
X160602208Y-95822759D01*
X160605196Y-95818399D01*
X160659320Y-95774214D01*
X160728741Y-95766305D01*
X160791417Y-95797183D01*
X160822053Y-95847759D01*
X160823685Y-95847084D01*
X160826792Y-95854587D01*
X160841360Y-95879819D01*
X160879520Y-95945913D01*
X160879522Y-95945915D01*
X161447381Y-96513774D01*
X161480866Y-96575097D01*
X161482233Y-96582438D01*
X161598033Y-97328578D01*
X161599500Y-97347595D01*
X161599500Y-102782745D01*
X161579815Y-102849784D01*
X161563181Y-102870426D01*
X149970426Y-114463181D01*
X149909103Y-114496666D01*
X149882745Y-114499500D01*
X135424503Y-114499500D01*
X135357464Y-114479815D01*
X135311709Y-114427011D01*
X135300503Y-114375500D01*
X135300503Y-114220945D01*
X135300503Y-114220943D01*
X135259580Y-114068216D01*
X135241023Y-114036074D01*
X135180527Y-113931290D01*
X135180521Y-113931282D01*
X135068720Y-113819481D01*
X135068712Y-113819475D01*
X134931793Y-113740426D01*
X134931789Y-113740424D01*
X134931787Y-113740423D01*
X134779060Y-113699500D01*
X134620946Y-113699500D01*
X134620944Y-113699500D01*
X134556592Y-113716743D01*
X134486743Y-113715080D01*
X134428880Y-113675917D01*
X134401377Y-113611688D01*
X134400500Y-113596968D01*
X134400500Y-113520945D01*
X134400500Y-113520943D01*
X134359577Y-113368216D01*
X134299748Y-113264588D01*
X134280524Y-113231290D01*
X134280518Y-113231282D01*
X134168717Y-113119481D01*
X134168709Y-113119475D01*
X134031790Y-113040426D01*
X134031786Y-113040424D01*
X134031784Y-113040423D01*
X133879057Y-112999500D01*
X133879056Y-112999500D01*
X133817255Y-112999500D01*
X133750216Y-112979815D01*
X133729574Y-112963181D01*
X130036819Y-109270426D01*
X130022115Y-109243498D01*
X130005523Y-109217680D01*
X130004631Y-109211479D01*
X130003334Y-109209103D01*
X130000500Y-109182745D01*
X130000500Y-108978711D01*
X147349500Y-108978711D01*
X147349500Y-109221288D01*
X147381161Y-109461785D01*
X147443947Y-109696104D01*
X147517753Y-109874286D01*
X147536776Y-109920212D01*
X147658064Y-110130289D01*
X147658066Y-110130292D01*
X147658067Y-110130293D01*
X147805733Y-110322736D01*
X147805739Y-110322743D01*
X147977256Y-110494260D01*
X147977262Y-110494265D01*
X148169711Y-110641936D01*
X148379788Y-110763224D01*
X148603900Y-110856054D01*
X148838211Y-110918838D01*
X149018586Y-110942584D01*
X149078711Y-110950500D01*
X149078712Y-110950500D01*
X149321289Y-110950500D01*
X149369388Y-110944167D01*
X149561789Y-110918838D01*
X149796100Y-110856054D01*
X150020212Y-110763224D01*
X150230289Y-110641936D01*
X150422738Y-110494265D01*
X150594265Y-110322738D01*
X150741936Y-110130289D01*
X150863224Y-109920212D01*
X150956054Y-109696100D01*
X151018838Y-109461789D01*
X151050500Y-109221288D01*
X151050500Y-108978712D01*
X151018838Y-108738211D01*
X150956054Y-108503900D01*
X150863224Y-108279788D01*
X150741936Y-108069711D01*
X150594265Y-107877262D01*
X150594260Y-107877256D01*
X150422743Y-107705739D01*
X150422736Y-107705733D01*
X150230293Y-107558067D01*
X150230292Y-107558066D01*
X150230289Y-107558064D01*
X150020212Y-107436776D01*
X150020205Y-107436773D01*
X149796104Y-107343947D01*
X149613425Y-107294998D01*
X149561789Y-107281162D01*
X149561788Y-107281161D01*
X149561785Y-107281161D01*
X149321289Y-107249500D01*
X149321288Y-107249500D01*
X149078712Y-107249500D01*
X149078711Y-107249500D01*
X148838214Y-107281161D01*
X148603895Y-107343947D01*
X148379794Y-107436773D01*
X148379785Y-107436777D01*
X148169706Y-107558067D01*
X147977263Y-107705733D01*
X147977256Y-107705739D01*
X147805739Y-107877256D01*
X147805733Y-107877263D01*
X147658067Y-108069706D01*
X147536777Y-108279785D01*
X147536773Y-108279794D01*
X147443947Y-108503895D01*
X147381161Y-108738214D01*
X147349500Y-108978711D01*
X130000500Y-108978711D01*
X130000500Y-103431898D01*
X138999500Y-103431898D01*
X138999500Y-104768102D01*
X139000816Y-104779057D01*
X139010122Y-104856561D01*
X139065639Y-104997343D01*
X139157077Y-105117922D01*
X139277656Y-105209360D01*
X139277657Y-105209360D01*
X139277658Y-105209361D01*
X139418436Y-105264877D01*
X139506898Y-105275500D01*
X139506903Y-105275500D01*
X140293097Y-105275500D01*
X140293102Y-105275500D01*
X140381564Y-105264877D01*
X140522342Y-105209361D01*
X140642922Y-105117922D01*
X140734361Y-104997342D01*
X140742292Y-104977228D01*
X140785195Y-104922086D01*
X140851102Y-104898890D01*
X140919087Y-104915008D01*
X140957965Y-104949832D01*
X141060961Y-105091596D01*
X141183397Y-105214032D01*
X141323475Y-105315804D01*
X141477744Y-105394408D01*
X141642415Y-105447914D01*
X141642414Y-105447914D01*
X141649999Y-105449115D01*
X141650000Y-105449114D01*
X141650000Y-104380330D01*
X141669745Y-104400075D01*
X141755255Y-104449444D01*
X141850630Y-104475000D01*
X141949370Y-104475000D01*
X142044745Y-104449444D01*
X142130255Y-104400075D01*
X142150000Y-104380330D01*
X142150000Y-105449115D01*
X142157584Y-105447914D01*
X142322255Y-105394408D01*
X142476524Y-105315804D01*
X142616602Y-105214032D01*
X142739032Y-105091602D01*
X142840804Y-104951524D01*
X142919408Y-104797257D01*
X142972914Y-104632584D01*
X143000000Y-104461571D01*
X143000000Y-104350000D01*
X142180330Y-104350000D01*
X142200075Y-104330255D01*
X142249444Y-104244745D01*
X142275000Y-104149370D01*
X142275000Y-104050630D01*
X142249444Y-103955255D01*
X142200075Y-103869745D01*
X142180330Y-103850000D01*
X143000000Y-103850000D01*
X143000000Y-103738428D01*
X142972914Y-103567415D01*
X142919408Y-103402742D01*
X142840804Y-103248475D01*
X142739032Y-103108397D01*
X142616602Y-102985967D01*
X142476524Y-102884195D01*
X142322257Y-102805591D01*
X142157589Y-102752087D01*
X142157581Y-102752085D01*
X142150000Y-102750884D01*
X142150000Y-103819670D01*
X142130255Y-103799925D01*
X142044745Y-103750556D01*
X141949370Y-103725000D01*
X141850630Y-103725000D01*
X141755255Y-103750556D01*
X141669745Y-103799925D01*
X141650000Y-103819670D01*
X141650000Y-102750884D01*
X141649999Y-102750884D01*
X141642418Y-102752085D01*
X141642410Y-102752087D01*
X141477742Y-102805591D01*
X141323475Y-102884195D01*
X141183397Y-102985967D01*
X141060965Y-103108399D01*
X141060961Y-103108404D01*
X140957965Y-103250167D01*
X140902635Y-103292833D01*
X140833022Y-103298812D01*
X140771227Y-103266206D01*
X140742292Y-103222771D01*
X140734361Y-103202658D01*
X140734360Y-103202657D01*
X140734360Y-103202656D01*
X140642922Y-103082077D01*
X140522343Y-102990639D01*
X140426192Y-102952722D01*
X140381564Y-102935123D01*
X140381563Y-102935122D01*
X140381561Y-102935122D01*
X140335926Y-102929642D01*
X140293102Y-102924500D01*
X139506898Y-102924500D01*
X139467853Y-102929188D01*
X139418438Y-102935122D01*
X139277656Y-102990639D01*
X139157077Y-103082077D01*
X139065639Y-103202656D01*
X139010122Y-103343438D01*
X139004188Y-103392853D01*
X138999500Y-103431898D01*
X130000500Y-103431898D01*
X130000500Y-99796678D01*
X130675235Y-99796678D01*
X130675235Y-99954792D01*
X130714010Y-100099500D01*
X130716158Y-100107518D01*
X130716161Y-100107525D01*
X130795210Y-100244444D01*
X130795214Y-100244449D01*
X130795215Y-100244451D01*
X130907019Y-100356255D01*
X130907021Y-100356256D01*
X130907025Y-100356259D01*
X131043944Y-100435308D01*
X131043951Y-100435312D01*
X131196678Y-100476235D01*
X131258480Y-100476235D01*
X131325519Y-100495920D01*
X131346161Y-100512554D01*
X131654087Y-100820480D01*
X131745412Y-100873207D01*
X131847273Y-100900500D01*
X131952727Y-100900500D01*
X146982745Y-100900500D01*
X147049784Y-100920185D01*
X147070426Y-100936819D01*
X150763181Y-104629574D01*
X150796666Y-104690897D01*
X150799500Y-104717255D01*
X150799500Y-104779057D01*
X150837825Y-104922086D01*
X150840423Y-104931783D01*
X150840426Y-104931790D01*
X150919475Y-105068709D01*
X150919479Y-105068714D01*
X150919480Y-105068716D01*
X151031284Y-105180520D01*
X151031286Y-105180521D01*
X151031290Y-105180524D01*
X151168209Y-105259573D01*
X151168216Y-105259577D01*
X151320943Y-105300500D01*
X151320945Y-105300500D01*
X151479055Y-105300500D01*
X151479057Y-105300500D01*
X151631784Y-105259577D01*
X151768716Y-105180520D01*
X151880520Y-105068716D01*
X151959577Y-104931784D01*
X152000500Y-104779057D01*
X152000500Y-104620943D01*
X151959577Y-104468216D01*
X151948739Y-104449444D01*
X151880524Y-104331290D01*
X151880518Y-104331282D01*
X151768717Y-104219481D01*
X151768709Y-104219475D01*
X151631790Y-104140426D01*
X151631786Y-104140424D01*
X151631784Y-104140423D01*
X151479057Y-104099500D01*
X151479056Y-104099500D01*
X151417255Y-104099500D01*
X151350216Y-104079815D01*
X151329574Y-104063181D01*
X147445915Y-100179522D01*
X147445913Y-100179520D01*
X147400250Y-100153156D01*
X147354589Y-100126793D01*
X147282651Y-100107518D01*
X147252727Y-100099500D01*
X147252726Y-100099500D01*
X132117255Y-100099500D01*
X132087814Y-100090855D01*
X132057828Y-100084332D01*
X132052812Y-100080577D01*
X132050216Y-100079815D01*
X132029574Y-100063181D01*
X131912554Y-99946161D01*
X131879069Y-99884838D01*
X131876235Y-99858480D01*
X131876235Y-99796680D01*
X131876235Y-99796678D01*
X131835312Y-99643951D01*
X131777025Y-99542994D01*
X131756259Y-99507025D01*
X131756253Y-99507017D01*
X131644452Y-99395216D01*
X131644444Y-99395210D01*
X131507525Y-99316161D01*
X131507521Y-99316159D01*
X131507519Y-99316158D01*
X131354792Y-99275235D01*
X131196678Y-99275235D01*
X131043951Y-99316158D01*
X131043944Y-99316161D01*
X130907025Y-99395210D01*
X130907017Y-99395216D01*
X130795216Y-99507017D01*
X130795210Y-99507025D01*
X130716161Y-99643944D01*
X130716158Y-99643951D01*
X130675235Y-99796678D01*
X130000500Y-99796678D01*
X130000500Y-99003032D01*
X130020185Y-98935993D01*
X130072989Y-98890238D01*
X130142147Y-98880294D01*
X130156581Y-98883254D01*
X130220943Y-98900500D01*
X130220946Y-98900500D01*
X130379055Y-98900500D01*
X130379057Y-98900500D01*
X130531784Y-98859577D01*
X130668716Y-98780520D01*
X130780520Y-98668716D01*
X130859577Y-98531784D01*
X130900500Y-98379057D01*
X130900500Y-98220943D01*
X130859577Y-98068216D01*
X130856243Y-98062441D01*
X130780524Y-97931290D01*
X130780518Y-97931282D01*
X130736819Y-97887583D01*
X130703334Y-97826260D01*
X130700500Y-97799902D01*
X130700500Y-89066255D01*
X130720185Y-88999216D01*
X130772989Y-88953461D01*
X130842147Y-88943517D01*
X130905703Y-88972542D01*
G37*
%TD.AperFunction*%
%TD*%
M02*
