%TF.GenerationSoftware,KiCad,Pcbnew,10.0.1*%
%TF.CreationDate,2026-04-29T11:55:37-05:00*%
%TF.ProjectId,Chimborazo Stratos-1,4368696d-626f-4726-917a-6f2053747261,rev?*%
%TF.SameCoordinates,Original*%
%TF.FileFunction,Copper,L1,Top*%
%TF.FilePolarity,Positive*%
%FSLAX46Y46*%
G04 Gerber Fmt 4.6, Leading zero omitted, Abs format (unit mm)*
G04 Created by KiCad (PCBNEW 10.0.1) date 2026-04-29 11:55:37*
%MOMM*%
%LPD*%
G01*
G04 APERTURE LIST*
G04 Aperture macros list*
%AMRoundRect*
0 Rectangle with rounded corners*
0 $1 Rounding radius*
0 $2 $3 $4 $5 $6 $7 $8 $9 X,Y pos of 4 corners*
0 Add a 4 corners polygon primitive as box body*
4,1,4,$2,$3,$4,$5,$6,$7,$8,$9,$2,$3,0*
0 Add four circle primitives for the rounded corners*
1,1,$1+$1,$2,$3*
1,1,$1+$1,$4,$5*
1,1,$1+$1,$6,$7*
1,1,$1+$1,$8,$9*
0 Add four rect primitives between the rounded corners*
20,1,$1+$1,$2,$3,$4,$5,0*
20,1,$1+$1,$4,$5,$6,$7,0*
20,1,$1+$1,$6,$7,$8,$9,0*
20,1,$1+$1,$8,$9,$2,$3,0*%
G04 Aperture macros list end*
%TA.AperFunction,SMDPad,CuDef*%
%ADD10RoundRect,0.500000X-0.875000X-0.500000X0.875000X-0.500000X0.875000X0.500000X-0.875000X0.500000X0*%
%TD*%
%TA.AperFunction,SMDPad,CuDef*%
%ADD11C,1.700000*%
%TD*%
%TA.AperFunction,SMDPad,CuDef*%
%ADD12RoundRect,0.275000X-0.275000X0.975000X-0.275000X-0.975000X0.275000X-0.975000X0.275000X0.975000X0*%
%TD*%
%TA.AperFunction,SMDPad,CuDef*%
%ADD13RoundRect,0.250000X-0.250000X-0.475000X0.250000X-0.475000X0.250000X0.475000X-0.250000X0.475000X0*%
%TD*%
%TA.AperFunction,SMDPad,CuDef*%
%ADD14RoundRect,0.250000X0.475000X-0.250000X0.475000X0.250000X-0.475000X0.250000X-0.475000X-0.250000X0*%
%TD*%
%TA.AperFunction,ComponentPad*%
%ADD15R,1.700000X1.700000*%
%TD*%
%TA.AperFunction,ComponentPad*%
%ADD16C,1.700000*%
%TD*%
%TA.AperFunction,SMDPad,CuDef*%
%ADD17RoundRect,0.250000X0.450000X-0.262500X0.450000X0.262500X-0.450000X0.262500X-0.450000X-0.262500X0*%
%TD*%
%TA.AperFunction,SMDPad,CuDef*%
%ADD18RoundRect,0.250000X0.518776X-0.047728X0.296901X0.428084X-0.518776X0.047728X-0.296901X-0.428084X0*%
%TD*%
%TA.AperFunction,SMDPad,CuDef*%
%ADD19RoundRect,0.243750X0.516516X-0.028093X0.310490X0.413732X-0.516516X0.028093X-0.310490X-0.413732X0*%
%TD*%
%TA.AperFunction,SMDPad,CuDef*%
%ADD20RoundRect,0.150000X-0.309359X-0.521491X0.521491X0.309359X0.309359X0.521491X-0.521491X-0.309359X0*%
%TD*%
%TA.AperFunction,SMDPad,CuDef*%
%ADD21RoundRect,0.243750X-0.516516X0.028093X-0.310490X-0.413732X0.516516X-0.028093X0.310490X0.413732X0*%
%TD*%
%TA.AperFunction,SMDPad,CuDef*%
%ADD22RoundRect,0.250000X-0.625000X0.375000X-0.625000X-0.375000X0.625000X-0.375000X0.625000X0.375000X0*%
%TD*%
%TA.AperFunction,SMDPad,CuDef*%
%ADD23RoundRect,0.250000X-0.450000X0.262500X-0.450000X-0.262500X0.450000X-0.262500X0.450000X0.262500X0*%
%TD*%
%TA.AperFunction,SMDPad,CuDef*%
%ADD24RoundRect,0.250000X-0.132583X0.503814X-0.503814X0.132583X0.132583X-0.503814X0.503814X-0.132583X0*%
%TD*%
%TA.AperFunction,SMDPad,CuDef*%
%ADD25RoundRect,0.250000X-0.475000X0.250000X-0.475000X-0.250000X0.475000X-0.250000X0.475000X0.250000X0*%
%TD*%
%TA.AperFunction,SMDPad,CuDef*%
%ADD26RoundRect,0.250000X-0.518776X0.047728X-0.296901X-0.428084X0.518776X-0.047728X0.296901X0.428084X0*%
%TD*%
%TA.AperFunction,ComponentPad*%
%ADD27RoundRect,0.250000X-0.350000X-0.625000X0.350000X-0.625000X0.350000X0.625000X-0.350000X0.625000X0*%
%TD*%
%TA.AperFunction,ComponentPad*%
%ADD28O,1.200000X1.750000*%
%TD*%
%TA.AperFunction,ViaPad*%
%ADD29C,0.600000*%
%TD*%
%TA.AperFunction,Conductor*%
%ADD30C,0.200000*%
%TD*%
G04 APERTURE END LIST*
D10*
%TO.P,U1,1,GPIO0_A0_D0_1*%
%TO.N,/BAT_SENSE*%
X132035000Y-81981500D03*
%TO.P,U1,2,GPIO1_A1_D1_2*%
%TO.N,/SERVO1*%
X132035000Y-84521500D03*
%TO.P,U1,3,GPIO2_A2_D2_3*%
%TO.N,/SERVO2*%
X132035000Y-87061500D03*
%TO.P,U1,4,GPIO21_D3_4*%
%TO.N,/PYRO_GATE*%
X132035000Y-89601500D03*
%TO.P,U1,5,GPIO22_D4_SDA_5*%
%TO.N,/SDA*%
X132035000Y-92141500D03*
%TO.P,U1,6,GPIO23_D5_SCL_6*%
%TO.N,/SCL*%
X132035000Y-94681500D03*
%TO.P,U1,7,GPIO16_D6_TX_7*%
%TO.N,/GPS_TX*%
X132035000Y-97221500D03*
%TO.P,U1,8,GPIO17_D7_RX_8*%
%TO.N,/GPS_RX*%
X148200000Y-97221500D03*
%TO.P,U1,9,GPIO19_D8_SCK_9*%
%TO.N,unconnected-(U1-GPIO19_D8_SCK-Pad9)*%
X148200000Y-94681500D03*
%TO.P,U1,10,GPIO20_D9_MISO_10*%
%TO.N,/LED_ARMED*%
X148200000Y-92141500D03*
%TO.P,U1,11,GPIO18_D10_MOSI_11*%
%TO.N,/LED_ERROR*%
X148200000Y-89601500D03*
%TO.P,U1,12,3V3_12*%
%TO.N,+3V3*%
X148200000Y-87061500D03*
%TO.P,U1,13,GND_13*%
%TO.N,GND*%
X148200000Y-84521500D03*
%TO.P,U1,14,VBUS_14*%
%TO.N,+5V*%
X148200000Y-81981500D03*
D11*
%TO.P,U1,15,GPIO5_MTDI_15*%
%TO.N,unconnected-(U1-GPIO5_MTDI-Pad15)*%
X138816600Y-80960000D03*
%TO.P,U1,16,GPIO7_MTDO_16*%
%TO.N,unconnected-(U1-GPIO7_MTDO-Pad16)*%
X141356600Y-80960000D03*
%TO.P,U1,17,CHIP_EN_17*%
%TO.N,unconnected-(U1-CHIP_EN-Pad17)*%
X138816600Y-83500000D03*
%TO.P,U1,18,GPIO4_MTMS_18*%
%TO.N,unconnected-(U1-GPIO4_MTMS-Pad18)*%
X141356600Y-83500000D03*
%TO.P,U1,19,GPIO6_MTCK_19*%
%TO.N,unconnected-(U1-GPIO6_MTCK-Pad19)*%
X138816600Y-86040000D03*
%TO.P,U1,20,3V3_20*%
%TO.N,unconnected-(U1-3V3-Pad20)*%
X141356600Y-86040000D03*
%TO.P,U1,21,GPIO9_BOOT_21*%
%TO.N,unconnected-(U1-GPIO9_BOOT-Pad21)*%
X138816600Y-88580000D03*
%TO.P,U1,22*%
%TO.N,N/C*%
X141264000Y-88523200D03*
D12*
%TO.P,U1,23,BAT_23*%
%TO.N,/VBAT*%
X138308600Y-95133200D03*
%TO.P,U1,24,GND_24*%
%TO.N,GND*%
X140848600Y-95133200D03*
%TD*%
D13*
%TO.P,C2,1*%
%TO.N,+3V3*%
X150528721Y-86899263D03*
%TO.P,C2,2*%
%TO.N,GND*%
X152428721Y-86899263D03*
%TD*%
D14*
%TO.P,C6,1*%
%TO.N,/BAT_SENSE*%
X131100000Y-104550000D03*
%TO.P,C6,2*%
%TO.N,GND*%
X131100000Y-102650000D03*
%TD*%
D15*
%TO.P,JPyro1,1,Pin_1_1*%
%TO.N,+5V*%
X126400000Y-85900000D03*
D16*
%TO.P,JPyro1,2,Pin_2_2*%
%TO.N,Net-(JPyro1-Pin_2)*%
X126400000Y-88440000D03*
%TD*%
D17*
%TO.P,R3,1*%
%TO.N,+3V3*%
X127500000Y-96512500D03*
%TO.P,R3,2*%
%TO.N,/SDA*%
X127500000Y-94687500D03*
%TD*%
D18*
%TO.P,R6,1*%
%TO.N,/LED_ARMED*%
X126607767Y-111630256D03*
%TO.P,R6,2*%
%TO.N,Net-(D1-A)*%
X125836489Y-109976244D03*
%TD*%
D19*
%TO.P,D1,1,K_1*%
%TO.N,GND*%
X124715086Y-112540412D03*
%TO.P,D1,2,A_2*%
%TO.N,Net-(D1-A)*%
X123922676Y-110841084D03*
%TD*%
D17*
%TO.P,R4,1*%
%TO.N,+3V3*%
X129500000Y-96512500D03*
%TO.P,R4,2*%
%TO.N,/SCL*%
X129500000Y-94687500D03*
%TD*%
D20*
%TO.P,Q1,1,G_1*%
%TO.N,/PYRO_GATE*%
X121265336Y-92491161D03*
%TO.P,Q1,2,S_2*%
%TO.N,GND*%
X122608839Y-93834664D03*
%TO.P,Q1,3,D_3*%
%TO.N,Net-(JPyro1-Pin_2)*%
X123262913Y-91837087D03*
%TD*%
D15*
%TO.P,JGPS1,1,Pin_1_1*%
%TO.N,+3V3*%
X159500000Y-94800000D03*
D16*
%TO.P,JGPS1,2,Pin_2_2*%
%TO.N,/GPS_RX*%
X159500000Y-97340000D03*
%TO.P,JGPS1,3,Pin_3_3*%
%TO.N,/GPS_TX*%
X159500000Y-99880000D03*
%TO.P,JGPS1,4,Pin_4_4*%
%TO.N,GND*%
X159500000Y-102420000D03*
%TD*%
D21*
%TO.P,D2,1,K_1*%
%TO.N,GND*%
X122448795Y-107680336D03*
%TO.P,D2,2,A_2*%
%TO.N,Net-(D2-A)*%
X123241205Y-109379664D03*
%TD*%
D15*
%TO.P,JGY1,1,Pin_1_1*%
%TO.N,+3V3*%
X128900000Y-116500000D03*
D16*
%TO.P,JGY1,2,Pin_2_2*%
%TO.N,GND*%
X131440000Y-116500000D03*
%TO.P,JGY1,3,Pin_3_3*%
%TO.N,/SCL*%
X133980000Y-116500000D03*
%TO.P,JGY1,4,Pin_4_4*%
%TO.N,/SDA*%
X136520000Y-116500000D03*
%TO.P,JGY1,5,Pin_5_5*%
%TO.N,unconnected-(JGY1-Pin_5-Pad5)*%
X139060000Y-116500000D03*
%TO.P,JGY1,6,Pin_6_6*%
%TO.N,unconnected-(JGY1-Pin_6-Pad6)*%
X141600000Y-116500000D03*
%TO.P,JGY1,7,Pin_7_7*%
%TO.N,unconnected-(JGY1-Pin_7-Pad7)*%
X144140000Y-116500000D03*
%TO.P,JGY1,8,Pin_8_8*%
%TO.N,unconnected-(JGY1-Pin_8-Pad8)*%
X146680000Y-116500000D03*
%TO.P,JGY1,9,Pin_9_9*%
%TO.N,unconnected-(JGY1-Pin_9-Pad9)*%
X149220000Y-116500000D03*
%TO.P,JGY1,10,Pin_10_10*%
%TO.N,unconnected-(JGY1-Pin_10-Pad10)*%
X151760000Y-116500000D03*
%TD*%
D22*
%TO.P,F1,1*%
%TO.N,/VBAT*%
X135300000Y-103200000D03*
%TO.P,F1,2*%
%TO.N,Net-(JBATTERY1-Pin_1)*%
X135300000Y-106000000D03*
%TD*%
D23*
%TO.P,R1,1*%
%TO.N,/VBAT*%
X133100000Y-103087500D03*
%TO.P,R1,2*%
%TO.N,/BAT_SENSE*%
X133100000Y-104912500D03*
%TD*%
D24*
%TO.P,R5,1*%
%TO.N,/PYRO_GATE*%
X125945235Y-93054765D03*
%TO.P,R5,2*%
%TO.N,GND*%
X124654765Y-94345235D03*
%TD*%
D25*
%TO.P,C5,1*%
%TO.N,+5V*%
X151500000Y-82150001D03*
%TO.P,C5,2*%
%TO.N,GND*%
X151500000Y-84049999D03*
%TD*%
D23*
%TO.P,R2,1*%
%TO.N,/BAT_SENSE*%
X129100000Y-104987500D03*
%TO.P,R2,2*%
%TO.N,GND*%
X129100000Y-106812500D03*
%TD*%
D26*
%TO.P,R7,1*%
%TO.N,/LED_ERROR*%
X124357325Y-106804167D03*
%TO.P,R7,2*%
%TO.N,Net-(D2-A)*%
X125128603Y-108458179D03*
%TD*%
D27*
%TO.P,JBATTERY1,1,Pin_1_1*%
%TO.N,Net-(JBATTERY1-Pin_1)*%
X139900000Y-104100000D03*
D28*
%TO.P,JBATTERY1,2,Pin_2_2*%
%TO.N,GND*%
X141900000Y-104100000D03*
%TD*%
D15*
%TO.P,Servo2,1,Pin_1_1*%
%TO.N,GND*%
X155500000Y-101480000D03*
D16*
%TO.P,Servo2,2,Pin_2_2*%
%TO.N,/SERVO2*%
X155500000Y-98940000D03*
%TO.P,Servo2,3,Pin_3_3*%
%TO.N,+5V*%
X155500000Y-96400000D03*
%TD*%
D15*
%TO.P,Servo1,1,Pin_1_1*%
%TO.N,GND*%
X151800000Y-101440000D03*
D16*
%TO.P,Servo1,2,Pin_2_2*%
%TO.N,/SERVO1*%
X151800000Y-98900000D03*
%TO.P,Servo1,3,Pin_3_3*%
%TO.N,+5V*%
X151800000Y-96360000D03*
%TD*%
D29*
%TO.N,+3V3*%
X130300000Y-98300000D03*
X152699238Y-88124263D03*
X150400000Y-85400000D03*
%TO.N,+5V*%
X155900000Y-89300000D03*
X150084238Y-80829185D03*
%TO.N,/GPS_TX*%
X151400000Y-104700000D03*
X131275735Y-99875735D03*
%TO.N,/SDA*%
X127600000Y-92900000D03*
X134700003Y-114300000D03*
%TO.N,/SCL*%
X133800000Y-113600000D03*
X129700000Y-93400000D03*
%TO.N,/BAT_SENSE*%
X129000000Y-103400000D03*
X129700000Y-83000000D03*
%TO.N,/SERVO1*%
X129950000Y-84550000D03*
X151856894Y-93615533D03*
%TO.N,/SERVO2*%
X129800000Y-87300000D03*
X151700000Y-94400000D03*
%TD*%
%TO.N,Net-(D1-A)*%
D30*
X125841771Y-109987573D02*
X123961183Y-110864506D01*
X123961183Y-110864506D02*
X123927960Y-110852414D01*
%TO.N,+3V3*%
X151753721Y-88124263D02*
X150528721Y-86899263D01*
X128600000Y-98200000D02*
X128700000Y-98300000D01*
X129500000Y-97300000D02*
X129500000Y-96512500D01*
X127500000Y-97100000D02*
X128600000Y-98200000D01*
X148362237Y-86899263D02*
X148200000Y-87061500D01*
X150528721Y-86899263D02*
X148362237Y-86899263D01*
X150400000Y-85400000D02*
X150400000Y-86770542D01*
X128700000Y-98300000D02*
X130300000Y-98300000D01*
X157704458Y-94800000D02*
X159500000Y-94800000D01*
X150400000Y-86770542D02*
X150528721Y-86899263D01*
X150528721Y-87624263D02*
X157704458Y-94800000D01*
X150528721Y-86899263D02*
X150528721Y-87624263D01*
X127500000Y-96512500D02*
X127500000Y-97100000D01*
X128600000Y-98200000D02*
X129500000Y-97300000D01*
X152699238Y-88124263D02*
X151753721Y-88124263D01*
%TO.N,+5V*%
X151500000Y-82150001D02*
X148368501Y-82150001D01*
X150084238Y-80829185D02*
X150179184Y-80829185D01*
X148368501Y-82150001D02*
X148200000Y-81981500D01*
X155900000Y-85400000D02*
X155900000Y-89300000D01*
X152650001Y-82150001D02*
X155900000Y-85400000D01*
X150179184Y-80829185D02*
X151500000Y-82150001D01*
X151500000Y-82150001D02*
X152650001Y-82150001D01*
X148415526Y-82197026D02*
X148200000Y-81981500D01*
%TO.N,/VBAT*%
X135300000Y-103200000D02*
X135300000Y-98141800D01*
X135300000Y-98141800D02*
X138308600Y-95133200D01*
X135300000Y-103200000D02*
X133212500Y-103200000D01*
X133212500Y-103200000D02*
X133100000Y-103087500D01*
%TO.N,Net-(D2-A)*%
X124617642Y-108411597D02*
X124608873Y-108408406D01*
X123241205Y-109379664D02*
X125121794Y-108502731D01*
X125121794Y-108502731D02*
X125133886Y-108469507D01*
%TO.N,Net-(JBATTERY1-Pin_1)*%
X138000000Y-106000000D02*
X139900000Y-104100000D01*
X135300000Y-106000000D02*
X138000000Y-106000000D01*
%TO.N,/GPS_TX*%
X131256500Y-99856500D02*
X131256500Y-98000000D01*
X131275735Y-99875735D02*
X131256500Y-99856500D01*
X131256500Y-98000000D02*
X132035000Y-97221500D01*
X159500000Y-99880000D02*
X154680000Y-104700000D01*
X154680000Y-104700000D02*
X151400000Y-104700000D01*
%TO.N,/GPS_RX*%
X148200000Y-97221500D02*
X149900000Y-95521500D01*
X151184467Y-93015533D02*
X155175533Y-93015533D01*
X155175533Y-93015533D02*
X159500000Y-97340000D01*
X149900000Y-94300000D02*
X151184467Y-93015533D01*
X149900000Y-95521500D02*
X149900000Y-94300000D01*
%TO.N,/SDA*%
X127600000Y-92900000D02*
X127600000Y-94587500D01*
X127500000Y-94687500D02*
X127500000Y-94312500D01*
X127800000Y-92700000D02*
X131476500Y-92700000D01*
X127600000Y-94587500D02*
X127500000Y-94687500D01*
X134700003Y-114680003D02*
X134700003Y-114300000D01*
X127300000Y-94687500D02*
X127300000Y-94512500D01*
X127600000Y-92900000D02*
X127800000Y-92700000D01*
X136520000Y-116500000D02*
X134700003Y-114680003D01*
X131476500Y-92700000D02*
X132035000Y-92141500D01*
%TO.N,/SCL*%
X133900000Y-113700000D02*
X133900000Y-116420000D01*
X133800000Y-113600000D02*
X133900000Y-113700000D01*
X129700000Y-93400000D02*
X130753500Y-93400000D01*
X129700000Y-93400000D02*
X129700000Y-94487500D01*
X133900000Y-116420000D02*
X133980000Y-116500000D01*
X130753500Y-93400000D02*
X132035000Y-94681500D01*
X129700000Y-94487500D02*
X129500000Y-94687500D01*
X129506000Y-94681500D02*
X129500000Y-94687500D01*
%TO.N,/PYRO_GATE*%
X126623147Y-92376853D02*
X125945235Y-93054765D01*
X125900000Y-91000000D02*
X128000000Y-91000000D01*
X128000000Y-91000000D02*
X126623147Y-92376853D01*
X124088483Y-92811517D02*
X125900000Y-91000000D01*
X121265336Y-92491161D02*
X121585692Y-92811517D01*
X129398500Y-89601500D02*
X128000000Y-91000000D01*
X121585692Y-92811517D02*
X124088483Y-92811517D01*
X132035000Y-89601500D02*
X129398500Y-89601500D01*
%TO.N,/BAT_SENSE*%
X129100000Y-104987500D02*
X130662500Y-104987500D01*
X129700000Y-83000000D02*
X130718500Y-81981500D01*
X132737500Y-104550000D02*
X133100000Y-104912500D01*
X133100000Y-104912500D02*
X133025000Y-104987500D01*
X130662500Y-104987500D02*
X131100000Y-104550000D01*
X130718500Y-81981500D02*
X132035000Y-81981500D01*
X131100000Y-104550000D02*
X132737500Y-104550000D01*
X129100000Y-104987500D02*
X129100000Y-103500000D01*
X129100000Y-103500000D02*
X129000000Y-103400000D01*
%TO.N,/LED_ARMED*%
X134700000Y-95200000D02*
X134700000Y-97865686D01*
X137758500Y-92141500D02*
X134700000Y-95200000D01*
X129365686Y-101000000D02*
X125900000Y-104465686D01*
X148200000Y-92141500D02*
X137758500Y-92141500D01*
X127134509Y-108234509D02*
X127134509Y-111103514D01*
X125900000Y-107000000D02*
X127134509Y-108234509D01*
X125900000Y-104465686D02*
X125900000Y-107000000D01*
X131565685Y-101000000D02*
X129365686Y-101000000D01*
X134700000Y-97865686D02*
X131565685Y-101000000D01*
X127134509Y-111103514D02*
X126607767Y-111630256D01*
%TO.N,/LED_ERROR*%
X124357325Y-105442675D02*
X129200000Y-100600000D01*
X124379219Y-106821542D02*
X124362607Y-106815496D01*
X144000000Y-90900000D02*
X145298500Y-89601500D01*
X138400000Y-90900000D02*
X144000000Y-90900000D01*
X145298500Y-89601500D02*
X148200000Y-89601500D01*
X124357325Y-106804167D02*
X124357325Y-105442675D01*
X129200000Y-100600000D02*
X131400000Y-100600000D01*
X134300000Y-97700000D02*
X134300000Y-95000000D01*
X131400000Y-100600000D02*
X134300000Y-97700000D01*
X134300000Y-95000000D02*
X138400000Y-90900000D01*
%TO.N,/SERVO1*%
X151325735Y-93600000D02*
X150600000Y-94325735D01*
X150600000Y-97700000D02*
X151800000Y-98900000D01*
X129978500Y-84521500D02*
X132035000Y-84521500D01*
X150600000Y-94325735D02*
X150600000Y-97700000D01*
X151856894Y-93615533D02*
X151841361Y-93600000D01*
X129950000Y-84550000D02*
X129978500Y-84521500D01*
X151841361Y-93600000D02*
X151325735Y-93600000D01*
%TO.N,/SERVO2*%
X151700000Y-94400000D02*
X153705099Y-94400000D01*
X154350000Y-97790000D02*
X155500000Y-98940000D01*
X129800000Y-87300000D02*
X130038500Y-87061500D01*
X153705099Y-94400000D02*
X154350000Y-95044901D01*
X154350000Y-95044901D02*
X154350000Y-97790000D01*
X130038500Y-87061500D02*
X132035000Y-87061500D01*
%TO.N,Net-(JPyro1-Pin_2)*%
X123262913Y-91837087D02*
X123262913Y-91577087D01*
X123562913Y-91402423D02*
X123562913Y-91277087D01*
X126400000Y-89175000D02*
X126400000Y-88440000D01*
X123262913Y-91577087D02*
X126400000Y-88440000D01*
%TD*%
%TA.AperFunction,Conductor*%
%TO.N,GND*%
G36*
X147440041Y-79391703D02*
G01*
X147622679Y-79457773D01*
X148217396Y-79672914D01*
X148222286Y-79674801D01*
X148400693Y-79748006D01*
X149077800Y-80025841D01*
X149082560Y-80027913D01*
X149573864Y-80254215D01*
X149626517Y-80300140D01*
X149645983Y-80367243D01*
X149626081Y-80434218D01*
X149609669Y-80454517D01*
X149603720Y-80460465D01*
X149603713Y-80460475D01*
X149524664Y-80597394D01*
X149524661Y-80597399D01*
X149511883Y-80645090D01*
X149475517Y-80704750D01*
X149412670Y-80735279D01*
X149351153Y-80730038D01*
X149254254Y-80696131D01*
X149254249Y-80696130D01*
X149119960Y-80681000D01*
X149119954Y-80681000D01*
X147280046Y-80681000D01*
X147280039Y-80681000D01*
X147145750Y-80696130D01*
X147145745Y-80696131D01*
X146975476Y-80755711D01*
X146822737Y-80851684D01*
X146695184Y-80979237D01*
X146599211Y-81131976D01*
X146539631Y-81302245D01*
X146539630Y-81302250D01*
X146524500Y-81436539D01*
X146524500Y-82526460D01*
X146539630Y-82660749D01*
X146539631Y-82660754D01*
X146599211Y-82831023D01*
X146691762Y-82978316D01*
X146695184Y-82983762D01*
X146822738Y-83111316D01*
X146829620Y-83115640D01*
X146962034Y-83198842D01*
X146975478Y-83207289D01*
X147057804Y-83236096D01*
X147145745Y-83266868D01*
X147145750Y-83266869D01*
X147256393Y-83279335D01*
X147275254Y-83281460D01*
X147339668Y-83308526D01*
X147349052Y-83316999D01*
X148199999Y-84167946D01*
X149050947Y-83316999D01*
X149112270Y-83283514D01*
X149124741Y-83281460D01*
X149163592Y-83277083D01*
X149254250Y-83266869D01*
X149254253Y-83266868D01*
X149254255Y-83266868D01*
X149424522Y-83207289D01*
X149577262Y-83111316D01*
X149704816Y-82983762D01*
X149800789Y-82831022D01*
X149860368Y-82660755D01*
X149860383Y-82660622D01*
X149860417Y-82660539D01*
X149861920Y-82653959D01*
X149863072Y-82654222D01*
X149887448Y-82596207D01*
X149945041Y-82556650D01*
X149983604Y-82550501D01*
X150408196Y-82550501D01*
X150475235Y-82570186D01*
X150520990Y-82622990D01*
X150523550Y-82629011D01*
X150540637Y-82672340D01*
X150540638Y-82672342D01*
X150632077Y-82792923D01*
X150759416Y-82889487D01*
X150758028Y-82891316D01*
X150798315Y-82932621D01*
X150812314Y-83001073D01*
X150787083Y-83066228D01*
X150730632Y-83107399D01*
X150727756Y-83108391D01*
X150705884Y-83115639D01*
X150705875Y-83115642D01*
X150556654Y-83207683D01*
X150432684Y-83331653D01*
X150340643Y-83480874D01*
X150340641Y-83480879D01*
X150285494Y-83647301D01*
X150285493Y-83647309D01*
X150277941Y-83721229D01*
X150251544Y-83785921D01*
X150194363Y-83826072D01*
X150124552Y-83828935D01*
X150064276Y-83793600D01*
X150035367Y-83742737D01*
X150008442Y-83648638D01*
X149914278Y-83468370D01*
X149785754Y-83310748D01*
X149773938Y-83301113D01*
X148553553Y-84521500D01*
X147349052Y-85726000D01*
X147287729Y-85759485D01*
X147275255Y-85761539D01*
X147145749Y-85776130D01*
X147145745Y-85776131D01*
X146975476Y-85835711D01*
X146822737Y-85931684D01*
X146695184Y-86059237D01*
X146599211Y-86211976D01*
X146539631Y-86382245D01*
X146539630Y-86382250D01*
X146524500Y-86516539D01*
X146524500Y-87606460D01*
X146539630Y-87740749D01*
X146539631Y-87740754D01*
X146599211Y-87911023D01*
X146695184Y-88063762D01*
X146822739Y-88191317D01*
X146878743Y-88226507D01*
X146925033Y-88278842D01*
X146935681Y-88347895D01*
X146907306Y-88411743D01*
X146878743Y-88436493D01*
X146822739Y-88471682D01*
X146695184Y-88599237D01*
X146599211Y-88751976D01*
X146539631Y-88922245D01*
X146539630Y-88922250D01*
X146524500Y-89056539D01*
X146524500Y-89077000D01*
X146504815Y-89144039D01*
X146452011Y-89189794D01*
X146400500Y-89201000D01*
X145245773Y-89201000D01*
X145143913Y-89228293D01*
X145143910Y-89228294D01*
X145066996Y-89272701D01*
X145066994Y-89272702D01*
X145052590Y-89281017D01*
X145052585Y-89281021D01*
X143870426Y-90463181D01*
X143809103Y-90496666D01*
X143782745Y-90499500D01*
X138460339Y-90499500D01*
X138460323Y-90499499D01*
X138452727Y-90499499D01*
X138347273Y-90499499D01*
X138279366Y-90517695D01*
X138245412Y-90526793D01*
X138154084Y-90579522D01*
X133979522Y-94754084D01*
X133979520Y-94754087D01*
X133941887Y-94819269D01*
X133891319Y-94867484D01*
X133822712Y-94880706D01*
X133757848Y-94854738D01*
X133717320Y-94797823D01*
X133710500Y-94757268D01*
X133710500Y-94136543D01*
X133710499Y-94136539D01*
X133695369Y-94002250D01*
X133695368Y-94002245D01*
X133668528Y-93925542D01*
X133635789Y-93831978D01*
X133626716Y-93817539D01*
X133567027Y-93722544D01*
X133539816Y-93679238D01*
X133412262Y-93551684D01*
X133356256Y-93516493D01*
X133309966Y-93464159D01*
X133299318Y-93395106D01*
X133327693Y-93331257D01*
X133356257Y-93306506D01*
X133412262Y-93271316D01*
X133539816Y-93143762D01*
X133635789Y-92991022D01*
X133695368Y-92820755D01*
X133701130Y-92769620D01*
X133708988Y-92699871D01*
X133710500Y-92686454D01*
X133710500Y-91596546D01*
X133702746Y-91527727D01*
X133695369Y-91462250D01*
X133695368Y-91462245D01*
X133686471Y-91436819D01*
X133635789Y-91291978D01*
X133623994Y-91273207D01*
X133578028Y-91200052D01*
X133539816Y-91139238D01*
X133412262Y-91011684D01*
X133356256Y-90976493D01*
X133309966Y-90924159D01*
X133299318Y-90855106D01*
X133327693Y-90791257D01*
X133356257Y-90766506D01*
X133412262Y-90731316D01*
X133539816Y-90603762D01*
X133635789Y-90451022D01*
X133695368Y-90280755D01*
X133710500Y-90146454D01*
X133710500Y-89056546D01*
X133700167Y-88964836D01*
X133695369Y-88922250D01*
X133695368Y-88922245D01*
X133669882Y-88849410D01*
X133635789Y-88751978D01*
X133539816Y-88599238D01*
X133412262Y-88471684D01*
X133356256Y-88436493D01*
X133309966Y-88384159D01*
X133299318Y-88315106D01*
X133327693Y-88251257D01*
X133356257Y-88226506D01*
X133412262Y-88191316D01*
X133539816Y-88063762D01*
X133635789Y-87911022D01*
X133695368Y-87740755D01*
X133699685Y-87702445D01*
X133706085Y-87645641D01*
X133710500Y-87606454D01*
X133710500Y-86516546D01*
X133695368Y-86382245D01*
X133635789Y-86211978D01*
X133635355Y-86211288D01*
X133584622Y-86130546D01*
X133539816Y-86059238D01*
X133412262Y-85931684D01*
X133356256Y-85896493D01*
X133309966Y-85844159D01*
X133299318Y-85775106D01*
X133327693Y-85711257D01*
X133356257Y-85686506D01*
X133412262Y-85651316D01*
X133539816Y-85523762D01*
X133635789Y-85371022D01*
X133695368Y-85200755D01*
X133695586Y-85198825D01*
X133710499Y-85066460D01*
X133710500Y-85066456D01*
X133710500Y-83976543D01*
X133710499Y-83976539D01*
X133708875Y-83962129D01*
X133697026Y-83856960D01*
X133695369Y-83842250D01*
X133695368Y-83842245D01*
X133669882Y-83769410D01*
X133635789Y-83671978D01*
X133621123Y-83648638D01*
X133584622Y-83590546D01*
X133539816Y-83519238D01*
X133412262Y-83391684D01*
X133356256Y-83356493D01*
X133309966Y-83304159D01*
X133299318Y-83235106D01*
X133327693Y-83171257D01*
X133356257Y-83146506D01*
X133412262Y-83111316D01*
X133539816Y-82983762D01*
X133635789Y-82831022D01*
X133695368Y-82660755D01*
X133695393Y-82660539D01*
X133707098Y-82556650D01*
X133710500Y-82526454D01*
X133710500Y-81436546D01*
X133705565Y-81392746D01*
X133695369Y-81302250D01*
X133695368Y-81302245D01*
X133669882Y-81229410D01*
X133635789Y-81131978D01*
X133539816Y-80979238D01*
X133430026Y-80869448D01*
X137666100Y-80869448D01*
X137666100Y-81050551D01*
X137694429Y-81229410D01*
X137750387Y-81401636D01*
X137750388Y-81401639D01*
X137832606Y-81562997D01*
X137939041Y-81709494D01*
X137939045Y-81709499D01*
X138067100Y-81837554D01*
X138067105Y-81837558D01*
X138155042Y-81901447D01*
X138213606Y-81943996D01*
X138319084Y-81997740D01*
X138374960Y-82026211D01*
X138374963Y-82026212D01*
X138461076Y-82054191D01*
X138547191Y-82082171D01*
X138620239Y-82093740D01*
X138707278Y-82107527D01*
X138770413Y-82137456D01*
X138807344Y-82196768D01*
X138806346Y-82266631D01*
X138767736Y-82324863D01*
X138707278Y-82352473D01*
X138547189Y-82377829D01*
X138374963Y-82433787D01*
X138374960Y-82433788D01*
X138213602Y-82516006D01*
X138067105Y-82622441D01*
X138067100Y-82622445D01*
X137939045Y-82750500D01*
X137939041Y-82750505D01*
X137832606Y-82897002D01*
X137750388Y-83058360D01*
X137750387Y-83058363D01*
X137694429Y-83230589D01*
X137666100Y-83409448D01*
X137666100Y-83590551D01*
X137694429Y-83769410D01*
X137750387Y-83941636D01*
X137750388Y-83941639D01*
X137832606Y-84102997D01*
X137939041Y-84249494D01*
X137939045Y-84249499D01*
X138067100Y-84377554D01*
X138067105Y-84377558D01*
X138170515Y-84452689D01*
X138213606Y-84483996D01*
X138319084Y-84537740D01*
X138374960Y-84566211D01*
X138374963Y-84566212D01*
X138461076Y-84594191D01*
X138547191Y-84622171D01*
X138620239Y-84633740D01*
X138707278Y-84647527D01*
X138770413Y-84677456D01*
X138807344Y-84736768D01*
X138806346Y-84806631D01*
X138767736Y-84864863D01*
X138707278Y-84892473D01*
X138547189Y-84917829D01*
X138374963Y-84973787D01*
X138374960Y-84973788D01*
X138213602Y-85056006D01*
X138067105Y-85162441D01*
X138067100Y-85162445D01*
X137939045Y-85290500D01*
X137939041Y-85290505D01*
X137832606Y-85437002D01*
X137750388Y-85598360D01*
X137750387Y-85598363D01*
X137694429Y-85770589D01*
X137666100Y-85949448D01*
X137666100Y-86130551D01*
X137694429Y-86309410D01*
X137750387Y-86481636D01*
X137750388Y-86481639D01*
X137832606Y-86642997D01*
X137939041Y-86789494D01*
X137939045Y-86789499D01*
X138067100Y-86917554D01*
X138067105Y-86917558D01*
X138170166Y-86992435D01*
X138213606Y-87023996D01*
X138300392Y-87068216D01*
X138374960Y-87106211D01*
X138374963Y-87106212D01*
X138426593Y-87122987D01*
X138547191Y-87162171D01*
X138620239Y-87173740D01*
X138707278Y-87187527D01*
X138770413Y-87217456D01*
X138807344Y-87276768D01*
X138806346Y-87346631D01*
X138767736Y-87404863D01*
X138707278Y-87432473D01*
X138547189Y-87457829D01*
X138374963Y-87513787D01*
X138374960Y-87513788D01*
X138213602Y-87596006D01*
X138067105Y-87702441D01*
X138067100Y-87702445D01*
X137939045Y-87830500D01*
X137939041Y-87830505D01*
X137832606Y-87977002D01*
X137750388Y-88138360D01*
X137750387Y-88138363D01*
X137694429Y-88310589D01*
X137666100Y-88489448D01*
X137666100Y-88670551D01*
X137694429Y-88849410D01*
X137750387Y-89021636D01*
X137750388Y-89021639D01*
X137832606Y-89182997D01*
X137939041Y-89329494D01*
X137939045Y-89329499D01*
X138067100Y-89457554D01*
X138067105Y-89457558D01*
X138135423Y-89507193D01*
X138213606Y-89563996D01*
X138319084Y-89617740D01*
X138374960Y-89646211D01*
X138374963Y-89646212D01*
X138444204Y-89668709D01*
X138547191Y-89702171D01*
X138630029Y-89715291D01*
X138726049Y-89730500D01*
X138726054Y-89730500D01*
X138907151Y-89730500D01*
X138993859Y-89716765D01*
X139086009Y-89702171D01*
X139258239Y-89646211D01*
X139419594Y-89563996D01*
X139566101Y-89457553D01*
X139694153Y-89329501D01*
X139800596Y-89182994D01*
X139882811Y-89021639D01*
X139915106Y-88922245D01*
X139931596Y-88871492D01*
X139971033Y-88813816D01*
X140035391Y-88786617D01*
X140104238Y-88798531D01*
X140155714Y-88845775D01*
X140167458Y-88871491D01*
X140197787Y-88964836D01*
X140197788Y-88964839D01*
X140280006Y-89126197D01*
X140386441Y-89272694D01*
X140386445Y-89272699D01*
X140514500Y-89400754D01*
X140514505Y-89400758D01*
X140632621Y-89486573D01*
X140661006Y-89507196D01*
X140736523Y-89545674D01*
X140822360Y-89589411D01*
X140822363Y-89589412D01*
X140908476Y-89617391D01*
X140994591Y-89645371D01*
X141077429Y-89658491D01*
X141173449Y-89673700D01*
X141173454Y-89673700D01*
X141354551Y-89673700D01*
X141441259Y-89659965D01*
X141533409Y-89645371D01*
X141705639Y-89589411D01*
X141866994Y-89507196D01*
X142013501Y-89400753D01*
X142141553Y-89272701D01*
X142247996Y-89126194D01*
X142330211Y-88964839D01*
X142386171Y-88792609D01*
X142403398Y-88683840D01*
X142414500Y-88613751D01*
X142414500Y-88432648D01*
X142391808Y-88289384D01*
X142386171Y-88253791D01*
X142330211Y-88081561D01*
X142330211Y-88081560D01*
X142287818Y-87998361D01*
X142247996Y-87920206D01*
X142203944Y-87859573D01*
X142141558Y-87773705D01*
X142141554Y-87773700D01*
X142013499Y-87645645D01*
X142013494Y-87645641D01*
X141866997Y-87539206D01*
X141866996Y-87539205D01*
X141866994Y-87539204D01*
X141815300Y-87512864D01*
X141705639Y-87456988D01*
X141705636Y-87456987D01*
X141560755Y-87409913D01*
X141503079Y-87370476D01*
X141475881Y-87306117D01*
X141487796Y-87237271D01*
X141535040Y-87185795D01*
X141579671Y-87169510D01*
X141626009Y-87162171D01*
X141798239Y-87106211D01*
X141959594Y-87023996D01*
X142106101Y-86917553D01*
X142234153Y-86789501D01*
X142340596Y-86642994D01*
X142422811Y-86481639D01*
X142478771Y-86309409D01*
X142493365Y-86217259D01*
X142507100Y-86130551D01*
X142507100Y-85949448D01*
X142483006Y-85797333D01*
X142478771Y-85770591D01*
X142433671Y-85631784D01*
X142422812Y-85598363D01*
X142422811Y-85598360D01*
X142394340Y-85542484D01*
X142340596Y-85437006D01*
X142292656Y-85371022D01*
X142234158Y-85290505D01*
X142234154Y-85290500D01*
X142106099Y-85162445D01*
X142106094Y-85162441D01*
X141959597Y-85056006D01*
X141959596Y-85056005D01*
X141959594Y-85056004D01*
X141907900Y-85029664D01*
X141798239Y-84973788D01*
X141798236Y-84973787D01*
X141626010Y-84917829D01*
X141465921Y-84892473D01*
X141402786Y-84862544D01*
X141365855Y-84803232D01*
X141366853Y-84733370D01*
X141405463Y-84675137D01*
X141465921Y-84647527D01*
X141536025Y-84636422D01*
X141626009Y-84622171D01*
X141798239Y-84566211D01*
X141959594Y-84483996D01*
X142106101Y-84377553D01*
X142234153Y-84249501D01*
X142340596Y-84102994D01*
X142411673Y-83963499D01*
X146325000Y-83963499D01*
X146325000Y-85079500D01*
X146335608Y-85198825D01*
X146335609Y-85198828D01*
X146391557Y-85394361D01*
X146485721Y-85574629D01*
X146614247Y-85732253D01*
X146626060Y-85741885D01*
X146626061Y-85741885D01*
X147846447Y-84521500D01*
X146626059Y-83301112D01*
X146614248Y-83310745D01*
X146485721Y-83468370D01*
X146391557Y-83648638D01*
X146335609Y-83844171D01*
X146335608Y-83844174D01*
X146325000Y-83963499D01*
X142411673Y-83963499D01*
X142422811Y-83941639D01*
X142422812Y-83941636D01*
X142429053Y-83922429D01*
X142455104Y-83842249D01*
X142478771Y-83769409D01*
X142493365Y-83677259D01*
X142507100Y-83590551D01*
X142507100Y-83409448D01*
X142484679Y-83267895D01*
X142478771Y-83230591D01*
X142450791Y-83144476D01*
X142422812Y-83058363D01*
X142422811Y-83058360D01*
X142392203Y-82998290D01*
X142340596Y-82897006D01*
X142326996Y-82878287D01*
X142234158Y-82750505D01*
X142234154Y-82750500D01*
X142106099Y-82622445D01*
X142106094Y-82622441D01*
X141959597Y-82516006D01*
X141959596Y-82516005D01*
X141959594Y-82516004D01*
X141907900Y-82489664D01*
X141798239Y-82433788D01*
X141798236Y-82433787D01*
X141626010Y-82377829D01*
X141465921Y-82352473D01*
X141402786Y-82322544D01*
X141365855Y-82263232D01*
X141366853Y-82193370D01*
X141405463Y-82135137D01*
X141465921Y-82107527D01*
X141536025Y-82096422D01*
X141626009Y-82082171D01*
X141798239Y-82026211D01*
X141959594Y-81943996D01*
X142106101Y-81837553D01*
X142234153Y-81709501D01*
X142340596Y-81562994D01*
X142422811Y-81401639D01*
X142478771Y-81229409D01*
X142493365Y-81137259D01*
X142507100Y-81050551D01*
X142507100Y-80869448D01*
X142485849Y-80735279D01*
X142478771Y-80690591D01*
X142422811Y-80518361D01*
X142422811Y-80518360D01*
X142390281Y-80454517D01*
X142340596Y-80357006D01*
X142260648Y-80246966D01*
X142234158Y-80210505D01*
X142234154Y-80210500D01*
X142106099Y-80082445D01*
X142106094Y-80082441D01*
X141959597Y-79976006D01*
X141959596Y-79976005D01*
X141959594Y-79976004D01*
X141907900Y-79949664D01*
X141798239Y-79893788D01*
X141798236Y-79893787D01*
X141626010Y-79837829D01*
X141447151Y-79809500D01*
X141447146Y-79809500D01*
X141266054Y-79809500D01*
X141266049Y-79809500D01*
X141087189Y-79837829D01*
X140914963Y-79893787D01*
X140914960Y-79893788D01*
X140753602Y-79976006D01*
X140607105Y-80082441D01*
X140607100Y-80082445D01*
X140479045Y-80210500D01*
X140479041Y-80210505D01*
X140372606Y-80357002D01*
X140290388Y-80518360D01*
X140290387Y-80518363D01*
X140234429Y-80690589D01*
X140209073Y-80850678D01*
X140179144Y-80913813D01*
X140119832Y-80950744D01*
X140049969Y-80949746D01*
X139991737Y-80911136D01*
X139964127Y-80850678D01*
X139945849Y-80735279D01*
X139938771Y-80690591D01*
X139882811Y-80518361D01*
X139882811Y-80518360D01*
X139850281Y-80454517D01*
X139800596Y-80357006D01*
X139720648Y-80246966D01*
X139694158Y-80210505D01*
X139694154Y-80210500D01*
X139566099Y-80082445D01*
X139566094Y-80082441D01*
X139419597Y-79976006D01*
X139419596Y-79976005D01*
X139419594Y-79976004D01*
X139367900Y-79949664D01*
X139258239Y-79893788D01*
X139258236Y-79893787D01*
X139086010Y-79837829D01*
X138907151Y-79809500D01*
X138907146Y-79809500D01*
X138726054Y-79809500D01*
X138726049Y-79809500D01*
X138547189Y-79837829D01*
X138374963Y-79893787D01*
X138374960Y-79893788D01*
X138213602Y-79976006D01*
X138067105Y-80082441D01*
X138067100Y-80082445D01*
X137939045Y-80210500D01*
X137939041Y-80210505D01*
X137832606Y-80357002D01*
X137750388Y-80518360D01*
X137750387Y-80518363D01*
X137694429Y-80690589D01*
X137666100Y-80869448D01*
X133430026Y-80869448D01*
X133412262Y-80851684D01*
X133318737Y-80792918D01*
X133259523Y-80755711D01*
X133089254Y-80696131D01*
X133089249Y-80696130D01*
X132954960Y-80681000D01*
X132954954Y-80681000D01*
X131115046Y-80681000D01*
X131115039Y-80681000D01*
X130980750Y-80696130D01*
X130980745Y-80696131D01*
X130810476Y-80755711D01*
X130657737Y-80851684D01*
X130530184Y-80979237D01*
X130434211Y-81131976D01*
X130374631Y-81302245D01*
X130374630Y-81302250D01*
X130359500Y-81436539D01*
X130359500Y-81722745D01*
X130339815Y-81789784D01*
X130323181Y-81810426D01*
X129770426Y-82363181D01*
X129709103Y-82396666D01*
X129682745Y-82399500D01*
X129620943Y-82399500D01*
X129468216Y-82440423D01*
X129468209Y-82440426D01*
X129331290Y-82519475D01*
X129331282Y-82519481D01*
X129219481Y-82631282D01*
X129219475Y-82631290D01*
X129140426Y-82768209D01*
X129140423Y-82768216D01*
X129099500Y-82920943D01*
X129099500Y-83079057D01*
X129140104Y-83230591D01*
X129140423Y-83231783D01*
X129140426Y-83231790D01*
X129219475Y-83368709D01*
X129219479Y-83368714D01*
X129219480Y-83368716D01*
X129331284Y-83480520D01*
X129331286Y-83480521D01*
X129331290Y-83480524D01*
X129468209Y-83559573D01*
X129468216Y-83559577D01*
X129620943Y-83600500D01*
X129620945Y-83600500D01*
X129779055Y-83600500D01*
X129779057Y-83600500D01*
X129931784Y-83559577D01*
X130068716Y-83480520D01*
X130180520Y-83368716D01*
X130259577Y-83231784D01*
X130300500Y-83079057D01*
X130300500Y-83048635D01*
X130320185Y-82981596D01*
X130372989Y-82935841D01*
X130442147Y-82925897D01*
X130505703Y-82954922D01*
X130525795Y-82978352D01*
X130525841Y-82978316D01*
X130526855Y-82979587D01*
X130529495Y-82982666D01*
X130530181Y-82983758D01*
X130530184Y-82983762D01*
X130657739Y-83111317D01*
X130713743Y-83146507D01*
X130760033Y-83198842D01*
X130770681Y-83267895D01*
X130742306Y-83331743D01*
X130713743Y-83356493D01*
X130657739Y-83391682D01*
X130530184Y-83519237D01*
X130434211Y-83671976D01*
X130374631Y-83842245D01*
X130374630Y-83842249D01*
X130368381Y-83897715D01*
X130341314Y-83962129D01*
X130283719Y-84001684D01*
X130213882Y-84003821D01*
X130183161Y-83991218D01*
X130181786Y-83990424D01*
X130181785Y-83990423D01*
X130181784Y-83990423D01*
X130029057Y-83949500D01*
X129870943Y-83949500D01*
X129718216Y-83990423D01*
X129718209Y-83990426D01*
X129581290Y-84069475D01*
X129581282Y-84069481D01*
X129469481Y-84181282D01*
X129469475Y-84181290D01*
X129390426Y-84318209D01*
X129390423Y-84318216D01*
X129349500Y-84470943D01*
X129349500Y-84629057D01*
X129376436Y-84729581D01*
X129390423Y-84781783D01*
X129390426Y-84781790D01*
X129469475Y-84918709D01*
X129469479Y-84918714D01*
X129469480Y-84918716D01*
X129581284Y-85030520D01*
X129581286Y-85030521D01*
X129581290Y-85030524D01*
X129710811Y-85105302D01*
X129718216Y-85109577D01*
X129870943Y-85150500D01*
X129870945Y-85150500D01*
X130029055Y-85150500D01*
X130029057Y-85150500D01*
X130181784Y-85109577D01*
X130189189Y-85105301D01*
X130257087Y-85088827D01*
X130323115Y-85111677D01*
X130366307Y-85166597D01*
X130374411Y-85198797D01*
X130374631Y-85200753D01*
X130374631Y-85200754D01*
X130434211Y-85371023D01*
X130530184Y-85523762D01*
X130657739Y-85651317D01*
X130713743Y-85686507D01*
X130760033Y-85738842D01*
X130770681Y-85807895D01*
X130742306Y-85871743D01*
X130713743Y-85896493D01*
X130657739Y-85931682D01*
X130530184Y-86059237D01*
X130434211Y-86211976D01*
X130374631Y-86382245D01*
X130374630Y-86382250D01*
X130359500Y-86516539D01*
X130359500Y-86537000D01*
X130339815Y-86604039D01*
X130287011Y-86649794D01*
X130235500Y-86661000D01*
X129985773Y-86661000D01*
X129883908Y-86688294D01*
X129879638Y-86690063D01*
X129832190Y-86699500D01*
X129720943Y-86699500D01*
X129568216Y-86740423D01*
X129568209Y-86740426D01*
X129431290Y-86819475D01*
X129431282Y-86819481D01*
X129319481Y-86931282D01*
X129319475Y-86931290D01*
X129240426Y-87068209D01*
X129240423Y-87068216D01*
X129199500Y-87220943D01*
X129199500Y-87379057D01*
X129239131Y-87526960D01*
X129240423Y-87531783D01*
X129240426Y-87531790D01*
X129319475Y-87668709D01*
X129319479Y-87668714D01*
X129319480Y-87668716D01*
X129431284Y-87780520D01*
X129431286Y-87780521D01*
X129431290Y-87780524D01*
X129566564Y-87858623D01*
X129568216Y-87859577D01*
X129720943Y-87900500D01*
X129720945Y-87900500D01*
X129879055Y-87900500D01*
X129879057Y-87900500D01*
X130031784Y-87859577D01*
X130168716Y-87780520D01*
X130192021Y-87757214D01*
X130253340Y-87723731D01*
X130323032Y-87728714D01*
X130378966Y-87770585D01*
X130396742Y-87803942D01*
X130434211Y-87911022D01*
X130530184Y-88063762D01*
X130657739Y-88191317D01*
X130713743Y-88226507D01*
X130760033Y-88278842D01*
X130770681Y-88347895D01*
X130742306Y-88411743D01*
X130713743Y-88436493D01*
X130657739Y-88471682D01*
X130530184Y-88599237D01*
X130434211Y-88751976D01*
X130374631Y-88922245D01*
X130374630Y-88922250D01*
X130359500Y-89056539D01*
X130359500Y-89077000D01*
X130339815Y-89144039D01*
X130287011Y-89189794D01*
X130235500Y-89201000D01*
X129458839Y-89201000D01*
X129458823Y-89200999D01*
X129451227Y-89200999D01*
X129345773Y-89200999D01*
X129246025Y-89227727D01*
X129246022Y-89227727D01*
X129243915Y-89228292D01*
X129243913Y-89228292D01*
X129243913Y-89228293D01*
X129198250Y-89254656D01*
X129152585Y-89281021D01*
X127870426Y-90563181D01*
X127809103Y-90596666D01*
X127782745Y-90599500D01*
X125847273Y-90599500D01*
X125745410Y-90626793D01*
X125654087Y-90679520D01*
X125654084Y-90679522D01*
X123958909Y-92374698D01*
X123931981Y-92389401D01*
X123906163Y-92405994D01*
X123899962Y-92406885D01*
X123897586Y-92408183D01*
X123871228Y-92411017D01*
X123837581Y-92411017D01*
X123770542Y-92391332D01*
X123724787Y-92338528D01*
X123714843Y-92269370D01*
X123743868Y-92205814D01*
X123749900Y-92199336D01*
X124141310Y-91807926D01*
X124141328Y-91807908D01*
X124160829Y-91784370D01*
X124219752Y-91662015D01*
X124239993Y-91527728D01*
X124219752Y-91393440D01*
X124190706Y-91333127D01*
X124179355Y-91264186D01*
X124207077Y-91200052D01*
X124214735Y-91191656D01*
X125860719Y-89545672D01*
X125922040Y-89512189D01*
X125986716Y-89515424D01*
X126130591Y-89562171D01*
X126209955Y-89574741D01*
X126309449Y-89590500D01*
X126309454Y-89590500D01*
X126490551Y-89590500D01*
X126577259Y-89576765D01*
X126669409Y-89562171D01*
X126841639Y-89506211D01*
X127002994Y-89423996D01*
X127149501Y-89317553D01*
X127277553Y-89189501D01*
X127383996Y-89042994D01*
X127466211Y-88881639D01*
X127522171Y-88709409D01*
X127537322Y-88613751D01*
X127550500Y-88530551D01*
X127550500Y-88349448D01*
X127531027Y-88226506D01*
X127522171Y-88170591D01*
X127466211Y-87998361D01*
X127466211Y-87998360D01*
X127423298Y-87914140D01*
X127383996Y-87837006D01*
X127342955Y-87780518D01*
X127277558Y-87690505D01*
X127277554Y-87690500D01*
X127149499Y-87562445D01*
X127149494Y-87562441D01*
X127002997Y-87456006D01*
X127002996Y-87456005D01*
X127002994Y-87456004D01*
X126940646Y-87424236D01*
X126841639Y-87373788D01*
X126841636Y-87373787D01*
X126669410Y-87317829D01*
X126537728Y-87296972D01*
X126474594Y-87267042D01*
X126437663Y-87207731D01*
X126438661Y-87137868D01*
X126477271Y-87079636D01*
X126541235Y-87051522D01*
X126557120Y-87050499D01*
X127294864Y-87050499D01*
X127294879Y-87050497D01*
X127294882Y-87050497D01*
X127319987Y-87047586D01*
X127319988Y-87047585D01*
X127319991Y-87047585D01*
X127422765Y-87002206D01*
X127502206Y-86922765D01*
X127547585Y-86819991D01*
X127550500Y-86794865D01*
X127550499Y-85005136D01*
X127550497Y-85005117D01*
X127547586Y-84980012D01*
X127547585Y-84980010D01*
X127547585Y-84980009D01*
X127502206Y-84877235D01*
X127422765Y-84797794D01*
X127422763Y-84797793D01*
X127319992Y-84752415D01*
X127294865Y-84749500D01*
X125505143Y-84749500D01*
X125505117Y-84749502D01*
X125480012Y-84752413D01*
X125480008Y-84752415D01*
X125377235Y-84797793D01*
X125297794Y-84877234D01*
X125252415Y-84980006D01*
X125252415Y-84980008D01*
X125249500Y-85005131D01*
X125249500Y-86794856D01*
X125249502Y-86794882D01*
X125252413Y-86819987D01*
X125252415Y-86819991D01*
X125297793Y-86922764D01*
X125297794Y-86922765D01*
X125377235Y-87002206D01*
X125480009Y-87047585D01*
X125505135Y-87050500D01*
X126242873Y-87050499D01*
X126309910Y-87070183D01*
X126355665Y-87122987D01*
X126365609Y-87192146D01*
X126336584Y-87255702D01*
X126277806Y-87293476D01*
X126262270Y-87296972D01*
X126130589Y-87317829D01*
X125958363Y-87373787D01*
X125958360Y-87373788D01*
X125797002Y-87456006D01*
X125650505Y-87562441D01*
X125650500Y-87562445D01*
X125522445Y-87690500D01*
X125522441Y-87690505D01*
X125416006Y-87837002D01*
X125333788Y-87998360D01*
X125333787Y-87998363D01*
X125277829Y-88170589D01*
X125249500Y-88349448D01*
X125249500Y-88530551D01*
X125277829Y-88709410D01*
X125324575Y-88853281D01*
X125326570Y-88923122D01*
X125294325Y-88979280D01*
X123366802Y-90906803D01*
X123332926Y-90930841D01*
X123315631Y-90939170D01*
X123292097Y-90958667D01*
X123292073Y-90958689D01*
X122384515Y-91866247D01*
X122384491Y-91866274D01*
X122364997Y-91889802D01*
X122364996Y-91889804D01*
X122363942Y-91891994D01*
X122362733Y-91893332D01*
X122360923Y-91896155D01*
X122360455Y-91895855D01*
X122317117Y-91943851D01*
X122249689Y-91962161D01*
X122183066Y-91941110D01*
X122156739Y-91917298D01*
X122143754Y-91901626D01*
X122143751Y-91901622D01*
X121854875Y-91612746D01*
X121831338Y-91593245D01*
X121831337Y-91593244D01*
X121767905Y-91562697D01*
X121708983Y-91534322D01*
X121574695Y-91514081D01*
X121440408Y-91534322D01*
X121440405Y-91534322D01*
X121318056Y-91593242D01*
X121318051Y-91593245D01*
X121294523Y-91612739D01*
X121294496Y-91612763D01*
X120386938Y-92520321D01*
X120386914Y-92520348D01*
X120367420Y-92543876D01*
X120367417Y-92543881D01*
X120308497Y-92666230D01*
X120308497Y-92666233D01*
X120288256Y-92800520D01*
X120303043Y-92898627D01*
X120308497Y-92934807D01*
X120367419Y-93057162D01*
X120367420Y-93057163D01*
X120386921Y-93080700D01*
X120675797Y-93369576D01*
X120699334Y-93389077D01*
X120821689Y-93448000D01*
X120955977Y-93468241D01*
X121090264Y-93448000D01*
X121212619Y-93389077D01*
X121236157Y-93369576D01*
X121372520Y-93233211D01*
X121433841Y-93199728D01*
X121492292Y-93201118D01*
X121532965Y-93212017D01*
X121532967Y-93212017D01*
X121800753Y-93212017D01*
X121867792Y-93231702D01*
X121913547Y-93284506D01*
X121923491Y-93353664D01*
X121894466Y-93417220D01*
X121888434Y-93423698D01*
X121581319Y-93730812D01*
X121581306Y-93730826D01*
X121557311Y-93758920D01*
X121557307Y-93758927D01*
X121478190Y-93902838D01*
X121478187Y-93902847D01*
X121437348Y-94061901D01*
X121437348Y-94226144D01*
X121478187Y-94385198D01*
X121478192Y-94385211D01*
X121557306Y-94529119D01*
X121558928Y-94531019D01*
X121558929Y-94531020D01*
X122344381Y-93745568D01*
X122405704Y-93712083D01*
X122475395Y-93717067D01*
X122519743Y-93745568D01*
X122608838Y-93834663D01*
X122697933Y-93745568D01*
X122759256Y-93712083D01*
X122828948Y-93717067D01*
X122873296Y-93745568D01*
X123374297Y-94246569D01*
X123407782Y-94307892D01*
X123407198Y-94326680D01*
X123441382Y-94470910D01*
X123520070Y-94627591D01*
X123585269Y-94707628D01*
X123585282Y-94707643D01*
X123762043Y-94884403D01*
X123762044Y-94884403D01*
X124390307Y-94256139D01*
X124451630Y-94222654D01*
X124521321Y-94227638D01*
X124565669Y-94256139D01*
X124654764Y-94345234D01*
X124743859Y-94256139D01*
X124805182Y-94222654D01*
X124874874Y-94227638D01*
X124919222Y-94256139D01*
X125680068Y-95016985D01*
X125680069Y-95016985D01*
X125724241Y-94972813D01*
X125724258Y-94972794D01*
X125789455Y-94892762D01*
X125789459Y-94892756D01*
X125868145Y-94736079D01*
X125908579Y-94565477D01*
X125908579Y-94390157D01*
X125877020Y-94257001D01*
X125880714Y-94187229D01*
X125921543Y-94130530D01*
X125986544Y-94104905D01*
X126014555Y-94105558D01*
X126077818Y-94114254D01*
X126227738Y-94093648D01*
X126322532Y-94052473D01*
X126366534Y-94033361D01*
X126366535Y-94033360D01*
X126366538Y-94033359D01*
X126366540Y-94033357D01*
X126373365Y-94029287D01*
X126374605Y-94031367D01*
X126428211Y-94009932D01*
X126496813Y-94023182D01*
X126547361Y-94071418D01*
X126563806Y-94139325D01*
X126555304Y-94178864D01*
X126510122Y-94293436D01*
X126504226Y-94342539D01*
X126499500Y-94381898D01*
X126499500Y-94993102D01*
X126502368Y-95016985D01*
X126510122Y-95081561D01*
X126565639Y-95222343D01*
X126657077Y-95342922D01*
X126777656Y-95434360D01*
X126777657Y-95434360D01*
X126777658Y-95434361D01*
X126905171Y-95484646D01*
X126960314Y-95527551D01*
X126983507Y-95593459D01*
X126967386Y-95661444D01*
X126917070Y-95709920D01*
X126905178Y-95715351D01*
X126853663Y-95735665D01*
X126777656Y-95765639D01*
X126657077Y-95857077D01*
X126565639Y-95977656D01*
X126510122Y-96118438D01*
X126506734Y-96146658D01*
X126499500Y-96206898D01*
X126499500Y-96818102D01*
X126504510Y-96859819D01*
X126510122Y-96906561D01*
X126565639Y-97047343D01*
X126657077Y-97167922D01*
X126777656Y-97259360D01*
X126777657Y-97259360D01*
X126777658Y-97259361D01*
X126918436Y-97314877D01*
X127006898Y-97325500D01*
X127107744Y-97325500D01*
X127174783Y-97345185D01*
X127195425Y-97361819D01*
X127749611Y-97916004D01*
X128279520Y-98445913D01*
X128379519Y-98545912D01*
X128379520Y-98545913D01*
X128454087Y-98620480D01*
X128545413Y-98673207D01*
X128647273Y-98700500D01*
X129799902Y-98700500D01*
X129866941Y-98720185D01*
X129887583Y-98736819D01*
X129931284Y-98780520D01*
X129931286Y-98780521D01*
X129931290Y-98780524D01*
X129988906Y-98813788D01*
X130068216Y-98859577D01*
X130220943Y-98900500D01*
X130220945Y-98900500D01*
X130379055Y-98900500D01*
X130379057Y-98900500D01*
X130531784Y-98859577D01*
X130611094Y-98813788D01*
X130670001Y-98779779D01*
X130737901Y-98763306D01*
X130803928Y-98786159D01*
X130847118Y-98841080D01*
X130856000Y-98887166D01*
X130856000Y-99394872D01*
X130836315Y-99461911D01*
X130819681Y-99482553D01*
X130795216Y-99507017D01*
X130795210Y-99507025D01*
X130716161Y-99643944D01*
X130716158Y-99643951D01*
X130675235Y-99796678D01*
X130675235Y-99954792D01*
X130698979Y-100043409D01*
X130697317Y-100113256D01*
X130658155Y-100171119D01*
X130593926Y-100198623D01*
X130579205Y-100199500D01*
X129260339Y-100199500D01*
X129260323Y-100199499D01*
X129252727Y-100199499D01*
X129147273Y-100199499D01*
X129079366Y-100217695D01*
X129045412Y-100226793D01*
X128954084Y-100279522D01*
X124036847Y-105196759D01*
X124036845Y-105196762D01*
X123987832Y-105281655D01*
X123984118Y-105288087D01*
X123970241Y-105339877D01*
X123970241Y-105339878D01*
X123970240Y-105339877D01*
X123956825Y-105389944D01*
X123956825Y-106014880D01*
X123937140Y-106081919D01*
X123885230Y-106127262D01*
X123566833Y-106275733D01*
X123491146Y-106322748D01*
X123491143Y-106322751D01*
X123387026Y-106432552D01*
X123387022Y-106432557D01*
X123312426Y-106573888D01*
X123309960Y-106572586D01*
X123276750Y-106617661D01*
X123211473Y-106642575D01*
X123143089Y-106628243D01*
X123133547Y-106622562D01*
X123095349Y-106597439D01*
X122931975Y-106537976D01*
X122931972Y-106537975D01*
X122759284Y-106517791D01*
X122586594Y-106537975D01*
X122586591Y-106537975D01*
X122489885Y-106571589D01*
X122489870Y-106571595D01*
X122258035Y-106679701D01*
X122622967Y-107462298D01*
X122633459Y-107531376D01*
X122604939Y-107595160D01*
X122562990Y-107627085D01*
X122448795Y-107680335D01*
X122448794Y-107680336D01*
X122502044Y-107794530D01*
X122512536Y-107863608D01*
X122484016Y-107927392D01*
X122442067Y-107959317D01*
X121466879Y-108414053D01*
X121466879Y-108414054D01*
X121485179Y-108453298D01*
X121537665Y-108541228D01*
X121537670Y-108541234D01*
X121656979Y-108667693D01*
X121656980Y-108667694D01*
X121802235Y-108763230D01*
X121802239Y-108763232D01*
X121965614Y-108822695D01*
X121965617Y-108822696D01*
X122138306Y-108842880D01*
X122159961Y-108840349D01*
X122228832Y-108852115D01*
X122280410Y-108899249D01*
X122298317Y-108966785D01*
X122280246Y-109022808D01*
X122282249Y-109023865D01*
X122208451Y-109163679D01*
X122176903Y-109309919D01*
X122185979Y-109459259D01*
X122185980Y-109459265D01*
X122213421Y-109542959D01*
X122455463Y-110062021D01*
X122501947Y-110136853D01*
X122610507Y-110239792D01*
X122610511Y-110239796D01*
X122733405Y-110304662D01*
X122742821Y-110309632D01*
X122864535Y-110335889D01*
X122925913Y-110369267D01*
X122959503Y-110430533D01*
X122954639Y-110500233D01*
X122948045Y-110514982D01*
X122889923Y-110625099D01*
X122889922Y-110625099D01*
X122858374Y-110771339D01*
X122858374Y-110771342D01*
X122858374Y-110771343D01*
X122863510Y-110855853D01*
X122867450Y-110920679D01*
X122867451Y-110920685D01*
X122894892Y-111004379D01*
X123136934Y-111523441D01*
X123183418Y-111598273D01*
X123291978Y-111701212D01*
X123291982Y-111701216D01*
X123424288Y-111771050D01*
X123424294Y-111771053D01*
X123578829Y-111804391D01*
X123578233Y-111807153D01*
X123630448Y-111826884D01*
X123672080Y-111882997D01*
X123676765Y-111952709D01*
X123643017Y-112013888D01*
X123640809Y-112016024D01*
X123624946Y-112030990D01*
X123624943Y-112030993D01*
X123529407Y-112176249D01*
X123529405Y-112176253D01*
X123469942Y-112339627D01*
X123469941Y-112339630D01*
X123449757Y-112512319D01*
X123469940Y-112685004D01*
X123503559Y-112781726D01*
X123521861Y-112820975D01*
X124497048Y-112366239D01*
X124566126Y-112355747D01*
X124629910Y-112384267D01*
X124661835Y-112426216D01*
X124715086Y-112540412D01*
X124829280Y-112487162D01*
X124898357Y-112476670D01*
X124962141Y-112505189D01*
X124994067Y-112547139D01*
X125358998Y-113329735D01*
X125590836Y-113221628D01*
X125678762Y-113169144D01*
X125678768Y-113169139D01*
X125805227Y-113049831D01*
X125805228Y-113049830D01*
X125900764Y-112904574D01*
X125900766Y-112904570D01*
X125960229Y-112741196D01*
X125960230Y-112741193D01*
X125966649Y-112686274D01*
X125993983Y-112621973D01*
X126051741Y-112582657D01*
X126115961Y-112579457D01*
X126120813Y-112580503D01*
X126120814Y-112580504D01*
X126268740Y-112612417D01*
X126419790Y-112603236D01*
X126419792Y-112603235D01*
X126419795Y-112603235D01*
X126482557Y-112582657D01*
X126504453Y-112575478D01*
X127398258Y-112158690D01*
X127473942Y-112111677D01*
X127578068Y-112001867D01*
X127648707Y-111868036D01*
X127680620Y-111720109D01*
X127671439Y-111569059D01*
X127671438Y-111569056D01*
X127671438Y-111569053D01*
X127643683Y-111484402D01*
X127643680Y-111484394D01*
X127537899Y-111257544D01*
X127526461Y-111198468D01*
X127527157Y-111185545D01*
X127535010Y-111156241D01*
X127535010Y-111050787D01*
X127535009Y-111050783D01*
X127535009Y-108978711D01*
X147349500Y-108978711D01*
X147349500Y-109221288D01*
X147381161Y-109461785D01*
X147443947Y-109696104D01*
X147522767Y-109886391D01*
X147536776Y-109920212D01*
X147658064Y-110130289D01*
X147658066Y-110130292D01*
X147658067Y-110130293D01*
X147805733Y-110322736D01*
X147805739Y-110322743D01*
X147977256Y-110494260D01*
X147977263Y-110494266D01*
X148004261Y-110514982D01*
X148169711Y-110641936D01*
X148379788Y-110763224D01*
X148541852Y-110830353D01*
X148603419Y-110855855D01*
X148603900Y-110856054D01*
X148838211Y-110918838D01*
X149018586Y-110942584D01*
X149078711Y-110950500D01*
X149078712Y-110950500D01*
X149321289Y-110950500D01*
X149369388Y-110944167D01*
X149561789Y-110918838D01*
X149796100Y-110856054D01*
X150020212Y-110763224D01*
X150230289Y-110641936D01*
X150422738Y-110494265D01*
X150594265Y-110322738D01*
X150741936Y-110130289D01*
X150863224Y-109920212D01*
X150956054Y-109696100D01*
X151018838Y-109461789D01*
X151050500Y-109221288D01*
X151050500Y-108978712D01*
X151018838Y-108738211D01*
X150956054Y-108503900D01*
X150863224Y-108279788D01*
X150741936Y-108069711D01*
X150628325Y-107921650D01*
X150594266Y-107877263D01*
X150594260Y-107877256D01*
X150422743Y-107705739D01*
X150422736Y-107705733D01*
X150230293Y-107558067D01*
X150230292Y-107558066D01*
X150230289Y-107558064D01*
X150020212Y-107436776D01*
X150020205Y-107436773D01*
X149796104Y-107343947D01*
X149613425Y-107294998D01*
X149561789Y-107281162D01*
X149561788Y-107281161D01*
X149561785Y-107281161D01*
X149321289Y-107249500D01*
X149321288Y-107249500D01*
X149078712Y-107249500D01*
X149078711Y-107249500D01*
X148838214Y-107281161D01*
X148603895Y-107343947D01*
X148379794Y-107436773D01*
X148379785Y-107436777D01*
X148169706Y-107558067D01*
X147977263Y-107705733D01*
X147977256Y-107705739D01*
X147805739Y-107877256D01*
X147805733Y-107877263D01*
X147658067Y-108069706D01*
X147536777Y-108279785D01*
X147536773Y-108279794D01*
X147443947Y-108503895D01*
X147381161Y-108738214D01*
X147349500Y-108978711D01*
X127535009Y-108978711D01*
X127535009Y-108181782D01*
X127507716Y-108079922D01*
X127454989Y-107988596D01*
X127380422Y-107914029D01*
X126591379Y-107124986D01*
X127900001Y-107124986D01*
X127910494Y-107227697D01*
X127965641Y-107394119D01*
X127965643Y-107394124D01*
X128057684Y-107543345D01*
X128181654Y-107667315D01*
X128330875Y-107759356D01*
X128330880Y-107759358D01*
X128497302Y-107814505D01*
X128497309Y-107814506D01*
X128600019Y-107824999D01*
X128849999Y-107824999D01*
X129350000Y-107824999D01*
X129599972Y-107824999D01*
X129599986Y-107824998D01*
X129702697Y-107814505D01*
X129869119Y-107759358D01*
X129869124Y-107759356D01*
X130018345Y-107667315D01*
X130142315Y-107543345D01*
X130234356Y-107394124D01*
X130234358Y-107394119D01*
X130289505Y-107227697D01*
X130289506Y-107227690D01*
X130299999Y-107124986D01*
X130300000Y-107124973D01*
X130300000Y-107062500D01*
X129350000Y-107062500D01*
X129350000Y-107824999D01*
X128849999Y-107824999D01*
X128850000Y-107824998D01*
X128850000Y-107062500D01*
X127900001Y-107062500D01*
X127900001Y-107124986D01*
X126591379Y-107124986D01*
X126336819Y-106870426D01*
X126303334Y-106809103D01*
X126300500Y-106782745D01*
X126300500Y-104682941D01*
X126320185Y-104615902D01*
X126336819Y-104595260D01*
X128582066Y-102350013D01*
X129875000Y-102350013D01*
X129875000Y-102400000D01*
X130850000Y-102400000D01*
X130850000Y-101650000D01*
X130575029Y-101650000D01*
X130575012Y-101650001D01*
X130472302Y-101660494D01*
X130305880Y-101715641D01*
X130305875Y-101715643D01*
X130156654Y-101807684D01*
X130032684Y-101931654D01*
X129940643Y-102080875D01*
X129940641Y-102080880D01*
X129885494Y-102247302D01*
X129885493Y-102247309D01*
X129875000Y-102350013D01*
X128582066Y-102350013D01*
X129495260Y-101436819D01*
X129556583Y-101403334D01*
X129582941Y-101400500D01*
X131618410Y-101400500D01*
X131618412Y-101400500D01*
X131720273Y-101373207D01*
X131811598Y-101320480D01*
X134687819Y-98444259D01*
X134749142Y-98410774D01*
X134818834Y-98415758D01*
X134874767Y-98457630D01*
X134899184Y-98523094D01*
X134899500Y-98531940D01*
X134899500Y-102150500D01*
X134879815Y-102217539D01*
X134827011Y-102263294D01*
X134775500Y-102274500D01*
X134631898Y-102274500D01*
X134592853Y-102279188D01*
X134543438Y-102285122D01*
X134402656Y-102340639D01*
X134282079Y-102432076D01*
X134211304Y-102525407D01*
X134155111Y-102566930D01*
X134085390Y-102571481D01*
X134024276Y-102537616D01*
X134013696Y-102525407D01*
X133996650Y-102502929D01*
X133942922Y-102432078D01*
X133942920Y-102432077D01*
X133942920Y-102432076D01*
X133822343Y-102340639D01*
X133681561Y-102285122D01*
X133635926Y-102279642D01*
X133593102Y-102274500D01*
X132606898Y-102274500D01*
X132543710Y-102282087D01*
X132518434Y-102285123D01*
X132471115Y-102303783D01*
X132401529Y-102310064D01*
X132339593Y-102277726D01*
X132307921Y-102227432D01*
X132259358Y-102080880D01*
X132259356Y-102080875D01*
X132167315Y-101931654D01*
X132043345Y-101807684D01*
X131894124Y-101715643D01*
X131894119Y-101715641D01*
X131727697Y-101660494D01*
X131727690Y-101660493D01*
X131624986Y-101650000D01*
X131350000Y-101650000D01*
X131350000Y-102526000D01*
X131330315Y-102593039D01*
X131277511Y-102638794D01*
X131226000Y-102650000D01*
X131100000Y-102650000D01*
X131100000Y-102776000D01*
X131080315Y-102843039D01*
X131027511Y-102888794D01*
X130976000Y-102900000D01*
X129875001Y-102900000D01*
X129875001Y-102949986D01*
X129885494Y-103052697D01*
X129940641Y-103219119D01*
X129940643Y-103219124D01*
X130032684Y-103368345D01*
X130156654Y-103492315D01*
X130305876Y-103584356D01*
X130327755Y-103591606D01*
X130385201Y-103631378D01*
X130412025Y-103695893D01*
X130399711Y-103764669D01*
X130358393Y-103809166D01*
X130359416Y-103810514D01*
X130232077Y-103907077D01*
X130140639Y-104027656D01*
X130085121Y-104168441D01*
X130081019Y-104202602D01*
X130053482Y-104266816D01*
X129995599Y-104305949D01*
X129925748Y-104307575D01*
X129882979Y-104286621D01*
X129822343Y-104240639D01*
X129725887Y-104202602D01*
X129681564Y-104185123D01*
X129681562Y-104185122D01*
X129681558Y-104185121D01*
X129609715Y-104176494D01*
X129545501Y-104148957D01*
X129506368Y-104091074D01*
X129500500Y-104053379D01*
X129500500Y-103767334D01*
X129517113Y-103705334D01*
X129526408Y-103689234D01*
X129559577Y-103631784D01*
X129600500Y-103479057D01*
X129600500Y-103320943D01*
X129559577Y-103168216D01*
X129482368Y-103034484D01*
X129480524Y-103031290D01*
X129480518Y-103031282D01*
X129368717Y-102919481D01*
X129368709Y-102919475D01*
X129231790Y-102840426D01*
X129231786Y-102840424D01*
X129231784Y-102840423D01*
X129079057Y-102799500D01*
X128920943Y-102799500D01*
X128768216Y-102840423D01*
X128768209Y-102840426D01*
X128631290Y-102919475D01*
X128631282Y-102919481D01*
X128519481Y-103031282D01*
X128519475Y-103031290D01*
X128440426Y-103168209D01*
X128440423Y-103168216D01*
X128399500Y-103320943D01*
X128399500Y-103479057D01*
X128437894Y-103622343D01*
X128440423Y-103631783D01*
X128440426Y-103631790D01*
X128519475Y-103768709D01*
X128519481Y-103768717D01*
X128631284Y-103880520D01*
X128637499Y-103884108D01*
X128645783Y-103892796D01*
X128656703Y-103897783D01*
X128669448Y-103917614D01*
X128685715Y-103934675D01*
X128688931Y-103947931D01*
X128694477Y-103956561D01*
X128699500Y-103991496D01*
X128699500Y-104053379D01*
X128679815Y-104120418D01*
X128627011Y-104166173D01*
X128590285Y-104176494D01*
X128518441Y-104185121D01*
X128377656Y-104240639D01*
X128257077Y-104332077D01*
X128165639Y-104452656D01*
X128110122Y-104593438D01*
X128105422Y-104632584D01*
X128099500Y-104681898D01*
X128099500Y-105293102D01*
X128105117Y-105339877D01*
X128110122Y-105381561D01*
X128110122Y-105381563D01*
X128110123Y-105381564D01*
X128127722Y-105426192D01*
X128165639Y-105522343D01*
X128257077Y-105642922D01*
X128307952Y-105681501D01*
X128349475Y-105737693D01*
X128354027Y-105807414D01*
X128320163Y-105868528D01*
X128298125Y-105885843D01*
X128181656Y-105957682D01*
X128057684Y-106081654D01*
X127965643Y-106230875D01*
X127965641Y-106230880D01*
X127910494Y-106397302D01*
X127910493Y-106397309D01*
X127900000Y-106500013D01*
X127900000Y-106562500D01*
X130299999Y-106562500D01*
X130299999Y-106500028D01*
X130299998Y-106500013D01*
X130289505Y-106397302D01*
X130234358Y-106230880D01*
X130234356Y-106230875D01*
X130142315Y-106081654D01*
X130018344Y-105957683D01*
X130018340Y-105957680D01*
X129901875Y-105885843D01*
X129855150Y-105833895D01*
X129843929Y-105764933D01*
X129871772Y-105700851D01*
X129892042Y-105681505D01*
X129942922Y-105642922D01*
X130034361Y-105522342D01*
X130056378Y-105466508D01*
X130099284Y-105411366D01*
X130165192Y-105388173D01*
X130171733Y-105388000D01*
X130715225Y-105388000D01*
X130715227Y-105388000D01*
X130817088Y-105360707D01*
X130817092Y-105360704D01*
X130818945Y-105359938D01*
X130822871Y-105359157D01*
X130824939Y-105358603D01*
X130824975Y-105358738D01*
X130866395Y-105350500D01*
X131618097Y-105350500D01*
X131618102Y-105350500D01*
X131706564Y-105339877D01*
X131847342Y-105284361D01*
X131913900Y-105233887D01*
X131979211Y-105209064D01*
X132047575Y-105223491D01*
X132097287Y-105272589D01*
X132109042Y-105302293D01*
X132110119Y-105306552D01*
X132110122Y-105306561D01*
X132110123Y-105306564D01*
X132139698Y-105381561D01*
X132165639Y-105447343D01*
X132257077Y-105567922D01*
X132377656Y-105659360D01*
X132377657Y-105659360D01*
X132377658Y-105659361D01*
X132518436Y-105714877D01*
X132606898Y-105725500D01*
X132606903Y-105725500D01*
X133593097Y-105725500D01*
X133593102Y-105725500D01*
X133681564Y-105714877D01*
X133822342Y-105659361D01*
X133889324Y-105608567D01*
X133925575Y-105581077D01*
X133990886Y-105556254D01*
X134059250Y-105570682D01*
X134108961Y-105619779D01*
X134124500Y-105679881D01*
X134124500Y-106418102D01*
X134128282Y-106449595D01*
X134135122Y-106506561D01*
X134135122Y-106506563D01*
X134135123Y-106506564D01*
X134147510Y-106537975D01*
X134190639Y-106647343D01*
X134282077Y-106767922D01*
X134402656Y-106859360D01*
X134402657Y-106859360D01*
X134402658Y-106859361D01*
X134543436Y-106914877D01*
X134631898Y-106925500D01*
X134631903Y-106925500D01*
X135968097Y-106925500D01*
X135968102Y-106925500D01*
X136056564Y-106914877D01*
X136197342Y-106859361D01*
X136317922Y-106767922D01*
X136409361Y-106647342D01*
X136464877Y-106506564D01*
X136464877Y-106506559D01*
X136464879Y-106506556D01*
X136466827Y-106498852D01*
X136468931Y-106499383D01*
X136492028Y-106445510D01*
X136549907Y-106406372D01*
X136587614Y-106400500D01*
X138052725Y-106400500D01*
X138052727Y-106400500D01*
X138154588Y-106373207D01*
X138245913Y-106320480D01*
X139277073Y-105289317D01*
X139338394Y-105255834D01*
X139408085Y-105260818D01*
X139410236Y-105261643D01*
X139418436Y-105264877D01*
X139506898Y-105275500D01*
X139506903Y-105275500D01*
X140293097Y-105275500D01*
X140293102Y-105275500D01*
X140381564Y-105264877D01*
X140522342Y-105209361D01*
X140642922Y-105117922D01*
X140734361Y-104997342D01*
X140742292Y-104977228D01*
X140785195Y-104922086D01*
X140851102Y-104898890D01*
X140919087Y-104915008D01*
X140957965Y-104949832D01*
X141060961Y-105091596D01*
X141183397Y-105214032D01*
X141323475Y-105315804D01*
X141477744Y-105394408D01*
X141642415Y-105447914D01*
X141642414Y-105447914D01*
X141649999Y-105449115D01*
X141650000Y-105449114D01*
X141650000Y-104380330D01*
X141669745Y-104400075D01*
X141755255Y-104449444D01*
X141850630Y-104475000D01*
X141949370Y-104475000D01*
X142044745Y-104449444D01*
X142130255Y-104400075D01*
X142150000Y-104380330D01*
X142150000Y-105449115D01*
X142157584Y-105447914D01*
X142322255Y-105394408D01*
X142476524Y-105315804D01*
X142616602Y-105214032D01*
X142739032Y-105091602D01*
X142840804Y-104951524D01*
X142919408Y-104797257D01*
X142972914Y-104632584D01*
X143000000Y-104461571D01*
X143000000Y-104350000D01*
X142180330Y-104350000D01*
X142200075Y-104330255D01*
X142249444Y-104244745D01*
X142275000Y-104149370D01*
X142275000Y-104050630D01*
X142249444Y-103955255D01*
X142200075Y-103869745D01*
X142180330Y-103850000D01*
X143000000Y-103850000D01*
X143000000Y-103738428D01*
X142972914Y-103567415D01*
X142919408Y-103402742D01*
X142840804Y-103248475D01*
X142739032Y-103108397D01*
X142616602Y-102985967D01*
X142476524Y-102884195D01*
X142322257Y-102805591D01*
X142157589Y-102752087D01*
X142157581Y-102752085D01*
X142150000Y-102750884D01*
X142150000Y-103819670D01*
X142130255Y-103799925D01*
X142044745Y-103750556D01*
X141949370Y-103725000D01*
X141850630Y-103725000D01*
X141755255Y-103750556D01*
X141669745Y-103799925D01*
X141650000Y-103819670D01*
X141650000Y-102750884D01*
X141649999Y-102750884D01*
X141642418Y-102752085D01*
X141642410Y-102752087D01*
X141477742Y-102805591D01*
X141323475Y-102884195D01*
X141183397Y-102985967D01*
X141060965Y-103108399D01*
X141060961Y-103108404D01*
X140957965Y-103250167D01*
X140902635Y-103292833D01*
X140833022Y-103298812D01*
X140771227Y-103266206D01*
X140742292Y-103222771D01*
X140734361Y-103202658D01*
X140734360Y-103202657D01*
X140734360Y-103202656D01*
X140642922Y-103082077D01*
X140522343Y-102990639D01*
X140419254Y-102949986D01*
X140381564Y-102935123D01*
X140381563Y-102935122D01*
X140381561Y-102935122D01*
X140335926Y-102929642D01*
X140293102Y-102924500D01*
X139506898Y-102924500D01*
X139467853Y-102929188D01*
X139418438Y-102935122D01*
X139277656Y-102990639D01*
X139157077Y-103082077D01*
X139065639Y-103202656D01*
X139010122Y-103343438D01*
X139004188Y-103392853D01*
X138999500Y-103431898D01*
X138999500Y-103431903D01*
X138999500Y-104382745D01*
X138979815Y-104449784D01*
X138963181Y-104470426D01*
X137870426Y-105563181D01*
X137809103Y-105596666D01*
X137782745Y-105599500D01*
X136587614Y-105599500D01*
X136520575Y-105579815D01*
X136474820Y-105527011D01*
X136467504Y-105500976D01*
X136466827Y-105501148D01*
X136464879Y-105493443D01*
X136464877Y-105493438D01*
X136464877Y-105493436D01*
X136409361Y-105352658D01*
X136409360Y-105352657D01*
X136409360Y-105352656D01*
X136317922Y-105232077D01*
X136197343Y-105140639D01*
X136095555Y-105100499D01*
X136056564Y-105085123D01*
X136056563Y-105085122D01*
X136056561Y-105085122D01*
X136010926Y-105079642D01*
X135968102Y-105074500D01*
X134631898Y-105074500D01*
X134592853Y-105079188D01*
X134543438Y-105085122D01*
X134402656Y-105140639D01*
X134299425Y-105218922D01*
X134234113Y-105243745D01*
X134165749Y-105229317D01*
X134116039Y-105180219D01*
X134100500Y-105120118D01*
X134100500Y-104606903D01*
X134100500Y-104606898D01*
X134089877Y-104518436D01*
X134034361Y-104377658D01*
X134034360Y-104377657D01*
X134034360Y-104377656D01*
X133942922Y-104257077D01*
X133822343Y-104165639D01*
X133784339Y-104150652D01*
X133694826Y-104115353D01*
X133639685Y-104072449D01*
X133616492Y-104006541D01*
X133632612Y-103938557D01*
X133682929Y-103890080D01*
X133694814Y-103884651D01*
X133822342Y-103834361D01*
X133942922Y-103742922D01*
X133945540Y-103739468D01*
X133948743Y-103737101D01*
X133948920Y-103736925D01*
X133948946Y-103736951D01*
X134001728Y-103697942D01*
X134071449Y-103693385D01*
X134132566Y-103727245D01*
X134159703Y-103768896D01*
X134190638Y-103847341D01*
X134282077Y-103967922D01*
X134402656Y-104059360D01*
X134402657Y-104059360D01*
X134402658Y-104059361D01*
X134543436Y-104114877D01*
X134631898Y-104125500D01*
X134631903Y-104125500D01*
X135968097Y-104125500D01*
X135968102Y-104125500D01*
X136056564Y-104114877D01*
X136197342Y-104059361D01*
X136317922Y-103967922D01*
X136409361Y-103847342D01*
X136464877Y-103706564D01*
X136475500Y-103618102D01*
X136475500Y-102781898D01*
X136464877Y-102693436D01*
X136409361Y-102552658D01*
X136409360Y-102552657D01*
X136409360Y-102552656D01*
X136317922Y-102432077D01*
X136197343Y-102340639D01*
X136056561Y-102285122D01*
X136010926Y-102279642D01*
X135968102Y-102274500D01*
X135968097Y-102274500D01*
X135824500Y-102274500D01*
X135757461Y-102254815D01*
X135711706Y-102202011D01*
X135700500Y-102150500D01*
X135700500Y-98359054D01*
X135720185Y-98292015D01*
X135736814Y-98271378D01*
X137470657Y-96537534D01*
X137531978Y-96504051D01*
X137601670Y-96509035D01*
X137633820Y-96526839D01*
X137743367Y-96610898D01*
X137883364Y-96668887D01*
X137995880Y-96683700D01*
X137995887Y-96683700D01*
X138621313Y-96683700D01*
X138621320Y-96683700D01*
X138733836Y-96668887D01*
X138873833Y-96610898D01*
X138994051Y-96518651D01*
X139040944Y-96457539D01*
X139877812Y-96457539D01*
X139963846Y-96594462D01*
X140087337Y-96717953D01*
X140235213Y-96810869D01*
X140400060Y-96868551D01*
X140530069Y-96883199D01*
X140530073Y-96883200D01*
X141167127Y-96883200D01*
X141167130Y-96883199D01*
X141297139Y-96868551D01*
X141461986Y-96810869D01*
X141609862Y-96717953D01*
X141733356Y-96594459D01*
X141819387Y-96457540D01*
X140848600Y-95486753D01*
X139877812Y-96457539D01*
X139040944Y-96457539D01*
X139056887Y-96436762D01*
X139076436Y-96411286D01*
X139079747Y-96406970D01*
X139086298Y-96398433D01*
X139144287Y-96258436D01*
X139159100Y-96145920D01*
X139159100Y-95829647D01*
X139798600Y-95829647D01*
X140495047Y-95133200D01*
X140495047Y-95133199D01*
X141202153Y-95133199D01*
X141202153Y-95133200D01*
X141898599Y-95829647D01*
X141898600Y-95829646D01*
X141898600Y-94436753D01*
X141898599Y-94436752D01*
X141202153Y-95133199D01*
X140495047Y-95133199D01*
X139798600Y-94436752D01*
X139798600Y-95829647D01*
X139159100Y-95829647D01*
X139159100Y-94120480D01*
X139144287Y-94007964D01*
X139086298Y-93867967D01*
X139040943Y-93808859D01*
X139877812Y-93808859D01*
X140848600Y-94779647D01*
X140848601Y-94779647D01*
X141819386Y-93808859D01*
X141733353Y-93671937D01*
X141609862Y-93548446D01*
X141461986Y-93455530D01*
X141297139Y-93397848D01*
X141167130Y-93383200D01*
X140530069Y-93383200D01*
X140400060Y-93397848D01*
X140235213Y-93455530D01*
X140087337Y-93548446D01*
X139963845Y-93671938D01*
X139877812Y-93808859D01*
X139040943Y-93808859D01*
X138994051Y-93747749D01*
X138873833Y-93655502D01*
X138873829Y-93655500D01*
X138810401Y-93629227D01*
X138733836Y-93597513D01*
X138719771Y-93595661D01*
X138621327Y-93582700D01*
X138621320Y-93582700D01*
X137995880Y-93582700D01*
X137995872Y-93582700D01*
X137883364Y-93597513D01*
X137883363Y-93597513D01*
X137743370Y-93655500D01*
X137743367Y-93655501D01*
X137743367Y-93655502D01*
X137623149Y-93747749D01*
X137532705Y-93865618D01*
X137530900Y-93867970D01*
X137472913Y-94007963D01*
X137472913Y-94007964D01*
X137458100Y-94120472D01*
X137458100Y-95365945D01*
X137438415Y-95432984D01*
X137421781Y-95453626D01*
X135312181Y-97563226D01*
X135250858Y-97596711D01*
X135181166Y-97591727D01*
X135125233Y-97549855D01*
X135100816Y-97484391D01*
X135100500Y-97475545D01*
X135100500Y-95417255D01*
X135120185Y-95350216D01*
X135136819Y-95329574D01*
X137888074Y-92578319D01*
X137949397Y-92544834D01*
X137975755Y-92542000D01*
X146400500Y-92542000D01*
X146467539Y-92561685D01*
X146513294Y-92614489D01*
X146524500Y-92666000D01*
X146524500Y-92686460D01*
X146539630Y-92820749D01*
X146539631Y-92820754D01*
X146599211Y-92991023D01*
X146695184Y-93143762D01*
X146822739Y-93271317D01*
X146878743Y-93306507D01*
X146925033Y-93358842D01*
X146935681Y-93427895D01*
X146907306Y-93491743D01*
X146878743Y-93516493D01*
X146822739Y-93551682D01*
X146695184Y-93679237D01*
X146599211Y-93831976D01*
X146539631Y-94002245D01*
X146539630Y-94002250D01*
X146524500Y-94136539D01*
X146524500Y-95226460D01*
X146539630Y-95360749D01*
X146539631Y-95360754D01*
X146599211Y-95531023D01*
X146695184Y-95683762D01*
X146822739Y-95811317D01*
X146878743Y-95846507D01*
X146925033Y-95898842D01*
X146935681Y-95967895D01*
X146907306Y-96031743D01*
X146878743Y-96056493D01*
X146822739Y-96091682D01*
X146695184Y-96219237D01*
X146599211Y-96371976D01*
X146539631Y-96542245D01*
X146539630Y-96542250D01*
X146524500Y-96676539D01*
X146524500Y-97766460D01*
X146539630Y-97900749D01*
X146539631Y-97900754D01*
X146599211Y-98071023D01*
X146674283Y-98190499D01*
X146695184Y-98223762D01*
X146822738Y-98351316D01*
X146870236Y-98381161D01*
X146970655Y-98444259D01*
X146975478Y-98447289D01*
X147121439Y-98498363D01*
X147145745Y-98506868D01*
X147145750Y-98506869D01*
X147236246Y-98517065D01*
X147280040Y-98521999D01*
X147280043Y-98522000D01*
X147280046Y-98522000D01*
X149119957Y-98522000D01*
X149119958Y-98521999D01*
X149187104Y-98514434D01*
X149254249Y-98506869D01*
X149254252Y-98506868D01*
X149254255Y-98506868D01*
X149424522Y-98447289D01*
X149577262Y-98351316D01*
X149704816Y-98223762D01*
X149800789Y-98071022D01*
X149860368Y-97900755D01*
X149860510Y-97899500D01*
X149874218Y-97777829D01*
X149875500Y-97766454D01*
X149875500Y-96676546D01*
X149870189Y-96629409D01*
X149860369Y-96542250D01*
X149860366Y-96542237D01*
X149800790Y-96371979D01*
X149782060Y-96342170D01*
X149763060Y-96274933D01*
X149783428Y-96208098D01*
X149799367Y-96188524D01*
X149987820Y-96000072D01*
X150049142Y-95966588D01*
X150118834Y-95971572D01*
X150174767Y-96013444D01*
X150199184Y-96078908D01*
X150199500Y-96087754D01*
X150199500Y-97647273D01*
X150199500Y-97752727D01*
X150202752Y-97764863D01*
X150226793Y-97854589D01*
X150251087Y-97896666D01*
X150279520Y-97945913D01*
X150279522Y-97945915D01*
X150694325Y-98360718D01*
X150727810Y-98422041D01*
X150724575Y-98486716D01*
X150677829Y-98630587D01*
X150649500Y-98809448D01*
X150649500Y-98990551D01*
X150677829Y-99169410D01*
X150733787Y-99341636D01*
X150733788Y-99341639D01*
X150816006Y-99502997D01*
X150922441Y-99649494D01*
X150922445Y-99649499D01*
X151050504Y-99777558D01*
X151171798Y-99865682D01*
X151214464Y-99921011D01*
X151220443Y-99990625D01*
X151187838Y-100052420D01*
X151126999Y-100086777D01*
X151098913Y-100090000D01*
X150902155Y-100090000D01*
X150842627Y-100096401D01*
X150842620Y-100096403D01*
X150707913Y-100146645D01*
X150707906Y-100146649D01*
X150592812Y-100232809D01*
X150592809Y-100232812D01*
X150506649Y-100347906D01*
X150506645Y-100347913D01*
X150456403Y-100482620D01*
X150456401Y-100482627D01*
X150450000Y-100542155D01*
X150450000Y-101190000D01*
X151366988Y-101190000D01*
X151334075Y-101247007D01*
X151300000Y-101374174D01*
X151300000Y-101505826D01*
X151334075Y-101632993D01*
X151366988Y-101690000D01*
X150450000Y-101690000D01*
X150450000Y-102337844D01*
X150456401Y-102397372D01*
X150456403Y-102397379D01*
X150506645Y-102532086D01*
X150506649Y-102532093D01*
X150592809Y-102647187D01*
X150592812Y-102647190D01*
X150707906Y-102733350D01*
X150707913Y-102733354D01*
X150842620Y-102783596D01*
X150842627Y-102783598D01*
X150902155Y-102789999D01*
X150902172Y-102790000D01*
X151550000Y-102790000D01*
X151550000Y-101873012D01*
X151607007Y-101905925D01*
X151734174Y-101940000D01*
X151865826Y-101940000D01*
X151992993Y-101905925D01*
X152050000Y-101873012D01*
X152050000Y-102790000D01*
X152697828Y-102790000D01*
X152697844Y-102789999D01*
X152757372Y-102783598D01*
X152757379Y-102783596D01*
X152892086Y-102733354D01*
X152892093Y-102733350D01*
X153007187Y-102647190D01*
X153007190Y-102647187D01*
X153093350Y-102532093D01*
X153093354Y-102532086D01*
X153143596Y-102397379D01*
X153143598Y-102397372D01*
X153149999Y-102337844D01*
X153150000Y-102337827D01*
X153150000Y-101690000D01*
X152233012Y-101690000D01*
X152265925Y-101632993D01*
X152300000Y-101505826D01*
X152300000Y-101374174D01*
X152265925Y-101247007D01*
X152233012Y-101190000D01*
X153150000Y-101190000D01*
X153150000Y-100542172D01*
X153149999Y-100542155D01*
X153143598Y-100482627D01*
X153143596Y-100482620D01*
X153093354Y-100347913D01*
X153093350Y-100347906D01*
X153007190Y-100232812D01*
X153007187Y-100232809D01*
X152892093Y-100146649D01*
X152892086Y-100146645D01*
X152757379Y-100096403D01*
X152757372Y-100096401D01*
X152697844Y-100090000D01*
X152501087Y-100090000D01*
X152434048Y-100070315D01*
X152388293Y-100017511D01*
X152378349Y-99948353D01*
X152407374Y-99884797D01*
X152428202Y-99865682D01*
X152549495Y-99777558D01*
X152549497Y-99777555D01*
X152549501Y-99777553D01*
X152677553Y-99649501D01*
X152783996Y-99502994D01*
X152866211Y-99341639D01*
X152922171Y-99169409D01*
X152944165Y-99030546D01*
X152950500Y-98990551D01*
X152950500Y-98809448D01*
X152933243Y-98700499D01*
X152922171Y-98630591D01*
X152892080Y-98537979D01*
X152866212Y-98458363D01*
X152866211Y-98458360D01*
X152815611Y-98359054D01*
X152783996Y-98297006D01*
X152737187Y-98232578D01*
X152677558Y-98150505D01*
X152677554Y-98150500D01*
X152549499Y-98022445D01*
X152549494Y-98022441D01*
X152402997Y-97916006D01*
X152402996Y-97916005D01*
X152402994Y-97916004D01*
X152320143Y-97873789D01*
X152241639Y-97833788D01*
X152241636Y-97833787D01*
X152069410Y-97777829D01*
X151909321Y-97752473D01*
X151846186Y-97722544D01*
X151809255Y-97663232D01*
X151810253Y-97593370D01*
X151848863Y-97535137D01*
X151909321Y-97507527D01*
X151979425Y-97496422D01*
X152069409Y-97482171D01*
X152241639Y-97426211D01*
X152402994Y-97343996D01*
X152549501Y-97237553D01*
X152677553Y-97109501D01*
X152783996Y-96962994D01*
X152866211Y-96801639D01*
X152922171Y-96629409D01*
X152939730Y-96518545D01*
X152950500Y-96450551D01*
X152950500Y-96269448D01*
X152933510Y-96162180D01*
X152922171Y-96090591D01*
X152886120Y-95979636D01*
X152866212Y-95918363D01*
X152866211Y-95918360D01*
X152834985Y-95857077D01*
X152783996Y-95757006D01*
X152742216Y-95699500D01*
X152677558Y-95610505D01*
X152677554Y-95610500D01*
X152549499Y-95482445D01*
X152549494Y-95482441D01*
X152402997Y-95376006D01*
X152402996Y-95376005D01*
X152402994Y-95376004D01*
X152351300Y-95349664D01*
X152241639Y-95293788D01*
X152241636Y-95293787D01*
X152069410Y-95237829D01*
X151906440Y-95212016D01*
X151843306Y-95182086D01*
X151806375Y-95122774D01*
X151807373Y-95052912D01*
X151845983Y-94994679D01*
X151893745Y-94969769D01*
X151931784Y-94959577D01*
X152068716Y-94880520D01*
X152112417Y-94836819D01*
X152173740Y-94803334D01*
X152200098Y-94800500D01*
X153487844Y-94800500D01*
X153554883Y-94820185D01*
X153575525Y-94836819D01*
X153913181Y-95174474D01*
X153946666Y-95235797D01*
X153949500Y-95262155D01*
X153949500Y-97737273D01*
X153949500Y-97842727D01*
X153963084Y-97893426D01*
X153976793Y-97944589D01*
X153977559Y-97945915D01*
X154029520Y-98035913D01*
X154029522Y-98035915D01*
X154394325Y-98400718D01*
X154427810Y-98462041D01*
X154424575Y-98526716D01*
X154377829Y-98670587D01*
X154349500Y-98849448D01*
X154349500Y-99030551D01*
X154377829Y-99209410D01*
X154433787Y-99381636D01*
X154433788Y-99381639D01*
X154489664Y-99491300D01*
X154510914Y-99533005D01*
X154516006Y-99542997D01*
X154622441Y-99689494D01*
X154622445Y-99689499D01*
X154750504Y-99817558D01*
X154871798Y-99905682D01*
X154914464Y-99961011D01*
X154920443Y-100030625D01*
X154887838Y-100092420D01*
X154826999Y-100126777D01*
X154798913Y-100130000D01*
X154602155Y-100130000D01*
X154542627Y-100136401D01*
X154542620Y-100136403D01*
X154407913Y-100186645D01*
X154407906Y-100186649D01*
X154292812Y-100272809D01*
X154292809Y-100272812D01*
X154206649Y-100387906D01*
X154206645Y-100387913D01*
X154156403Y-100522620D01*
X154156401Y-100522627D01*
X154150000Y-100582155D01*
X154150000Y-101230000D01*
X155066988Y-101230000D01*
X155034075Y-101287007D01*
X155000000Y-101414174D01*
X155000000Y-101545826D01*
X155034075Y-101672993D01*
X155066988Y-101730000D01*
X154150000Y-101730000D01*
X154150000Y-102377844D01*
X154156401Y-102437372D01*
X154156403Y-102437379D01*
X154206645Y-102572086D01*
X154206649Y-102572093D01*
X154292809Y-102687187D01*
X154292812Y-102687190D01*
X154407906Y-102773350D01*
X154407913Y-102773354D01*
X154542620Y-102823596D01*
X154542627Y-102823598D01*
X154602155Y-102829999D01*
X154602172Y-102830000D01*
X155250000Y-102830000D01*
X155250000Y-101913012D01*
X155307007Y-101945925D01*
X155434174Y-101980000D01*
X155565826Y-101980000D01*
X155692993Y-101945925D01*
X155750000Y-101913012D01*
X155750000Y-102830000D01*
X155779122Y-102859122D01*
X155812607Y-102920445D01*
X155807623Y-102990137D01*
X155779122Y-103034484D01*
X154550426Y-104263181D01*
X154489103Y-104296666D01*
X154462745Y-104299500D01*
X151900098Y-104299500D01*
X151833059Y-104279815D01*
X151812417Y-104263181D01*
X151768717Y-104219481D01*
X151768709Y-104219475D01*
X151631790Y-104140426D01*
X151631786Y-104140424D01*
X151631784Y-104140423D01*
X151479057Y-104099500D01*
X151320943Y-104099500D01*
X151168216Y-104140423D01*
X151168209Y-104140426D01*
X151031290Y-104219475D01*
X151031282Y-104219481D01*
X150919481Y-104331282D01*
X150919475Y-104331290D01*
X150840426Y-104468209D01*
X150840423Y-104468216D01*
X150799500Y-104620943D01*
X150799500Y-104779057D01*
X150837825Y-104922086D01*
X150840423Y-104931783D01*
X150840426Y-104931790D01*
X150919475Y-105068709D01*
X150919479Y-105068714D01*
X150919480Y-105068716D01*
X151031284Y-105180520D01*
X151031286Y-105180521D01*
X151031290Y-105180524D01*
X151120120Y-105231809D01*
X151168216Y-105259577D01*
X151320943Y-105300500D01*
X151320945Y-105300500D01*
X151479055Y-105300500D01*
X151479057Y-105300500D01*
X151631784Y-105259577D01*
X151768716Y-105180520D01*
X151812417Y-105136819D01*
X151873740Y-105103334D01*
X151900098Y-105100500D01*
X154732725Y-105100500D01*
X154732727Y-105100500D01*
X154834588Y-105073207D01*
X154925913Y-105020480D01*
X157982015Y-101964376D01*
X158043338Y-101930892D01*
X158113030Y-101935876D01*
X158168963Y-101977748D01*
X158193380Y-102043212D01*
X158187627Y-102090375D01*
X158183243Y-102103865D01*
X158183242Y-102103872D01*
X158150000Y-102313753D01*
X158150000Y-102526246D01*
X158183242Y-102736127D01*
X158183242Y-102736130D01*
X158248904Y-102938217D01*
X158345375Y-103127550D01*
X158384728Y-103181716D01*
X159017037Y-102549408D01*
X159034075Y-102612993D01*
X159099901Y-102727007D01*
X159192993Y-102820099D01*
X159307007Y-102885925D01*
X159370590Y-102902962D01*
X158738282Y-103535269D01*
X158738282Y-103535270D01*
X158792449Y-103574624D01*
X158981782Y-103671095D01*
X159183870Y-103736757D01*
X159393754Y-103770000D01*
X159606246Y-103770000D01*
X159816127Y-103736757D01*
X159816130Y-103736757D01*
X160018217Y-103671095D01*
X160207554Y-103574622D01*
X160261716Y-103535270D01*
X160261717Y-103535270D01*
X159629408Y-102902962D01*
X159692993Y-102885925D01*
X159807007Y-102820099D01*
X159900099Y-102727007D01*
X159965925Y-102612993D01*
X159982962Y-102549409D01*
X160615270Y-103181717D01*
X160615270Y-103181716D01*
X160654622Y-103127554D01*
X160751095Y-102938217D01*
X160816757Y-102736130D01*
X160816757Y-102736127D01*
X160850000Y-102526246D01*
X160850000Y-102313753D01*
X160816757Y-102103872D01*
X160816757Y-102103869D01*
X160751095Y-101901782D01*
X160654624Y-101712449D01*
X160615270Y-101658282D01*
X160615269Y-101658282D01*
X159982962Y-102290590D01*
X159965925Y-102227007D01*
X159900099Y-102112993D01*
X159807007Y-102019901D01*
X159692993Y-101954075D01*
X159629408Y-101937037D01*
X160261716Y-101304728D01*
X160207550Y-101265375D01*
X160018217Y-101168904D01*
X159989292Y-101159506D01*
X159931616Y-101120068D01*
X159904418Y-101055710D01*
X159916333Y-100986863D01*
X159963577Y-100935388D01*
X159971315Y-100931090D01*
X160102994Y-100863996D01*
X160249501Y-100757553D01*
X160377553Y-100629501D01*
X160483996Y-100482994D01*
X160566211Y-100321639D01*
X160622171Y-100149409D01*
X160636765Y-100057259D01*
X160650500Y-99970551D01*
X160650500Y-99789448D01*
X160634019Y-99685397D01*
X160622171Y-99610591D01*
X160566211Y-99438361D01*
X160566211Y-99438360D01*
X160536365Y-99379785D01*
X160483996Y-99277006D01*
X160406042Y-99169711D01*
X160377558Y-99130505D01*
X160377554Y-99130500D01*
X160249499Y-99002445D01*
X160249494Y-99002441D01*
X160102997Y-98896006D01*
X160102996Y-98896005D01*
X160102994Y-98896004D01*
X160051300Y-98869664D01*
X159941639Y-98813788D01*
X159941636Y-98813787D01*
X159769410Y-98757829D01*
X159609321Y-98732473D01*
X159546186Y-98702544D01*
X159509255Y-98643232D01*
X159510253Y-98573370D01*
X159548863Y-98515137D01*
X159609321Y-98487527D01*
X159679425Y-98476422D01*
X159769409Y-98462171D01*
X159941639Y-98406211D01*
X160102994Y-98323996D01*
X160249501Y-98217553D01*
X160377553Y-98089501D01*
X160483996Y-97942994D01*
X160566211Y-97781639D01*
X160622171Y-97609409D01*
X160638058Y-97509103D01*
X160650500Y-97430551D01*
X160650500Y-97249448D01*
X160634019Y-97145397D01*
X160622171Y-97070591D01*
X160575424Y-96926716D01*
X160566212Y-96898363D01*
X160566211Y-96898360D01*
X160525317Y-96818102D01*
X160483996Y-96737006D01*
X160445267Y-96683700D01*
X160377558Y-96590505D01*
X160377554Y-96590500D01*
X160249499Y-96462445D01*
X160249494Y-96462441D01*
X160102997Y-96356006D01*
X160102996Y-96356005D01*
X160102994Y-96356004D01*
X160051300Y-96329664D01*
X159941639Y-96273788D01*
X159941636Y-96273787D01*
X159769410Y-96217829D01*
X159637727Y-96196972D01*
X159574592Y-96167043D01*
X159537661Y-96107731D01*
X159538659Y-96037868D01*
X159577269Y-95979636D01*
X159641233Y-95951522D01*
X159657125Y-95950499D01*
X160394856Y-95950499D01*
X160394864Y-95950499D01*
X160394879Y-95950497D01*
X160394882Y-95950497D01*
X160419987Y-95947586D01*
X160419988Y-95947585D01*
X160419991Y-95947585D01*
X160522765Y-95902206D01*
X160602206Y-95822765D01*
X160647585Y-95719991D01*
X160650500Y-95694865D01*
X160650499Y-93905136D01*
X160650234Y-93902847D01*
X160647586Y-93880012D01*
X160647585Y-93880010D01*
X160647585Y-93880009D01*
X160602206Y-93777235D01*
X160522765Y-93697794D01*
X160480740Y-93679238D01*
X160419992Y-93652415D01*
X160394865Y-93649500D01*
X158605143Y-93649500D01*
X158605117Y-93649502D01*
X158580012Y-93652413D01*
X158580008Y-93652415D01*
X158477235Y-93697793D01*
X158397794Y-93777234D01*
X158352415Y-93880006D01*
X158352415Y-93880008D01*
X158349500Y-93905131D01*
X158349500Y-94275500D01*
X158329815Y-94342539D01*
X158277011Y-94388294D01*
X158225500Y-94399500D01*
X157921712Y-94399500D01*
X157854673Y-94379815D01*
X157834031Y-94363181D01*
X152367441Y-88896590D01*
X152333956Y-88835267D01*
X152338940Y-88765575D01*
X152380812Y-88709642D01*
X152446276Y-88685225D01*
X152487209Y-88689133D01*
X152620181Y-88724763D01*
X152620184Y-88724763D01*
X152778293Y-88724763D01*
X152778295Y-88724763D01*
X152931022Y-88683840D01*
X153067954Y-88604783D01*
X153179758Y-88492979D01*
X153258815Y-88356047D01*
X153299738Y-88203320D01*
X153299738Y-88045206D01*
X153267043Y-87923186D01*
X153268706Y-87853342D01*
X153281280Y-87826001D01*
X153363074Y-87693393D01*
X153363079Y-87693382D01*
X153418226Y-87526960D01*
X153418227Y-87526953D01*
X153428720Y-87424249D01*
X153428721Y-87424236D01*
X153428721Y-87149263D01*
X152552721Y-87149263D01*
X152485682Y-87129578D01*
X152439927Y-87076774D01*
X152428721Y-87025263D01*
X152428721Y-86899263D01*
X152302721Y-86899263D01*
X152235682Y-86879578D01*
X152189927Y-86826774D01*
X152178721Y-86775263D01*
X152178721Y-86649263D01*
X152678721Y-86649263D01*
X153428720Y-86649263D01*
X153428720Y-86374291D01*
X153428719Y-86374276D01*
X153418226Y-86271565D01*
X153363079Y-86105143D01*
X153363077Y-86105138D01*
X153271036Y-85955917D01*
X153147066Y-85831947D01*
X152997845Y-85739906D01*
X152997840Y-85739904D01*
X152831418Y-85684757D01*
X152831411Y-85684756D01*
X152728707Y-85674263D01*
X152678721Y-85674263D01*
X152678721Y-86649263D01*
X152178721Y-86649263D01*
X152178721Y-85674263D01*
X152178720Y-85674262D01*
X152128750Y-85674263D01*
X152128732Y-85674264D01*
X152026023Y-85684757D01*
X151859601Y-85739904D01*
X151859596Y-85739906D01*
X151710375Y-85831947D01*
X151586405Y-85955917D01*
X151494364Y-86105138D01*
X151494361Y-86105147D01*
X151487112Y-86127022D01*
X151447339Y-86184466D01*
X151382823Y-86211288D01*
X151314047Y-86198972D01*
X151269555Y-86157656D01*
X151268207Y-86158679D01*
X151171643Y-86031340D01*
X151051062Y-85939901D01*
X151051060Y-85939900D01*
X150965466Y-85906146D01*
X150910322Y-85863241D01*
X150887129Y-85797333D01*
X150903250Y-85729348D01*
X150903422Y-85729047D01*
X150959577Y-85631784D01*
X151000500Y-85479057D01*
X151000500Y-85320943D01*
X150969725Y-85206089D01*
X150971388Y-85136242D01*
X151010550Y-85078379D01*
X151074779Y-85050875D01*
X151089500Y-85049998D01*
X151249999Y-85049998D01*
X151750000Y-85049998D01*
X152024972Y-85049998D01*
X152024986Y-85049997D01*
X152127697Y-85039504D01*
X152294119Y-84984357D01*
X152294124Y-84984355D01*
X152443345Y-84892314D01*
X152567315Y-84768344D01*
X152659356Y-84619123D01*
X152659358Y-84619118D01*
X152714505Y-84452696D01*
X152714506Y-84452689D01*
X152724999Y-84349985D01*
X152725000Y-84349972D01*
X152725000Y-84299999D01*
X151750000Y-84299999D01*
X151750000Y-85049998D01*
X151249999Y-85049998D01*
X151250000Y-85049997D01*
X151250000Y-84173999D01*
X151269685Y-84106960D01*
X151322489Y-84061205D01*
X151374000Y-84049999D01*
X151500000Y-84049999D01*
X151500000Y-83923999D01*
X151519685Y-83856960D01*
X151572489Y-83811205D01*
X151624000Y-83799999D01*
X152724999Y-83799999D01*
X152724999Y-83750027D01*
X152724998Y-83750012D01*
X152714505Y-83647301D01*
X152659358Y-83480879D01*
X152659356Y-83480874D01*
X152567315Y-83331653D01*
X152443345Y-83207683D01*
X152294124Y-83115642D01*
X152294119Y-83115640D01*
X152272245Y-83108392D01*
X152214800Y-83068619D01*
X152187977Y-83004103D01*
X152200292Y-82935327D01*
X152241606Y-82890834D01*
X152240584Y-82889487D01*
X152367922Y-82792923D01*
X152386663Y-82768209D01*
X152436654Y-82702285D01*
X152492845Y-82660764D01*
X152562566Y-82656212D01*
X152623138Y-82689531D01*
X155463181Y-85529573D01*
X155496666Y-85590896D01*
X155499500Y-85617254D01*
X155499500Y-88799902D01*
X155479815Y-88866941D01*
X155463181Y-88887583D01*
X155419481Y-88931282D01*
X155419475Y-88931290D01*
X155340426Y-89068209D01*
X155340423Y-89068216D01*
X155299500Y-89220943D01*
X155299500Y-89379057D01*
X155336040Y-89515424D01*
X155340423Y-89531783D01*
X155340426Y-89531790D01*
X155419475Y-89668709D01*
X155419479Y-89668714D01*
X155419480Y-89668716D01*
X155531284Y-89780520D01*
X155531286Y-89780521D01*
X155531290Y-89780524D01*
X155668209Y-89859573D01*
X155668216Y-89859577D01*
X155820943Y-89900500D01*
X155820945Y-89900500D01*
X155979055Y-89900500D01*
X155979057Y-89900500D01*
X156131784Y-89859577D01*
X156268716Y-89780520D01*
X156380520Y-89668716D01*
X156459577Y-89531784D01*
X156500500Y-89379057D01*
X156500500Y-89220943D01*
X156459577Y-89068216D01*
X156432683Y-89021633D01*
X156380524Y-88931290D01*
X156380518Y-88931282D01*
X156336819Y-88887583D01*
X156303334Y-88826260D01*
X156300500Y-88799902D01*
X156300500Y-85462726D01*
X156300500Y-85452729D01*
X156300501Y-85452727D01*
X156300501Y-85417344D01*
X156320187Y-85350305D01*
X156372992Y-85304551D01*
X156410663Y-85299136D01*
X156442148Y-85294609D01*
X156442150Y-85294610D01*
X156442151Y-85294610D01*
X156446727Y-85296700D01*
X156505704Y-85323634D01*
X156514487Y-85332033D01*
X156551448Y-85371022D01*
X156581351Y-85402566D01*
X156584875Y-85406444D01*
X156818084Y-85674262D01*
X157176777Y-86086186D01*
X157192134Y-86103821D01*
X157195483Y-86107836D01*
X157769951Y-86826774D01*
X157772742Y-86830267D01*
X157775921Y-86834423D01*
X158015835Y-87162170D01*
X158322116Y-87580580D01*
X158325122Y-87584874D01*
X158425268Y-87734568D01*
X158770934Y-88251257D01*
X158839298Y-88353444D01*
X158842118Y-88357858D01*
X158874959Y-88411743D01*
X159323366Y-89147490D01*
X159325998Y-89152022D01*
X159773430Y-89961252D01*
X159775869Y-89965891D01*
X160188720Y-90793341D01*
X160190960Y-90798079D01*
X160568469Y-91642220D01*
X160570507Y-91647049D01*
X160768205Y-92144530D01*
X160870955Y-92403089D01*
X160912000Y-92506372D01*
X160913829Y-92511274D01*
X161126479Y-93120185D01*
X161218717Y-93384303D01*
X161220340Y-93389287D01*
X161337681Y-93777235D01*
X161472404Y-94222654D01*
X161488052Y-94274387D01*
X161489463Y-94279434D01*
X161719538Y-95175080D01*
X161720734Y-95180183D01*
X161912748Y-96084719D01*
X161913728Y-96089868D01*
X162067350Y-97001741D01*
X162068111Y-97006927D01*
X162183058Y-97924442D01*
X162183600Y-97929655D01*
X162259675Y-98851259D01*
X162259995Y-98856490D01*
X162297053Y-99780423D01*
X162297153Y-99785664D01*
X162295134Y-100710406D01*
X162295011Y-100715646D01*
X162253918Y-101639409D01*
X162253575Y-101644639D01*
X162173477Y-102565883D01*
X162172913Y-102571093D01*
X162053958Y-103488121D01*
X162053174Y-103493304D01*
X161895572Y-104404482D01*
X161894570Y-104409626D01*
X161698602Y-105313338D01*
X161697383Y-105318436D01*
X161463403Y-106213051D01*
X161461970Y-106218092D01*
X161190394Y-107102020D01*
X161188749Y-107106997D01*
X160880059Y-107978663D01*
X160878205Y-107983566D01*
X160532956Y-108841407D01*
X160530897Y-108846226D01*
X160149709Y-109688702D01*
X160147448Y-109693431D01*
X159730991Y-110519059D01*
X159728532Y-110523688D01*
X159277559Y-111330977D01*
X159274907Y-111335497D01*
X158790227Y-112122998D01*
X158787386Y-112127403D01*
X158269844Y-112893743D01*
X158266819Y-112898023D01*
X157717386Y-113641765D01*
X157714184Y-113645914D01*
X157133776Y-114365819D01*
X157130400Y-114369829D01*
X156520124Y-115064520D01*
X156516583Y-115068384D01*
X155877455Y-115736708D01*
X155873753Y-115740418D01*
X155206989Y-116381102D01*
X155203134Y-116384653D01*
X154509874Y-116996604D01*
X154505872Y-116999989D01*
X153787381Y-117582088D01*
X153783240Y-117585301D01*
X153040766Y-118136534D01*
X153036493Y-118139568D01*
X152271421Y-118658913D01*
X152267023Y-118661765D01*
X151480658Y-119148332D01*
X151476143Y-119150995D01*
X150669942Y-119603884D01*
X150665319Y-119606354D01*
X149840684Y-120024776D01*
X149835961Y-120027048D01*
X148994399Y-120410241D01*
X148989584Y-120412312D01*
X148132555Y-120759608D01*
X148127657Y-120761473D01*
X147256748Y-121072231D01*
X147251776Y-121073888D01*
X146368484Y-121347574D01*
X146363446Y-121349019D01*
X145469391Y-121585130D01*
X145464296Y-121586361D01*
X144561048Y-121784482D01*
X144555906Y-121785496D01*
X143645107Y-121945268D01*
X143639926Y-121946064D01*
X142723204Y-122067201D01*
X142717995Y-122067778D01*
X141796946Y-122150070D01*
X141791717Y-122150426D01*
X140868029Y-122193720D01*
X140862789Y-122193855D01*
X139938078Y-122198078D01*
X139932838Y-122197991D01*
X139008798Y-122163133D01*
X139003565Y-122162825D01*
X138081805Y-122088948D01*
X138076591Y-122088419D01*
X137158784Y-121975655D01*
X137153597Y-121974906D01*
X136241361Y-121823457D01*
X136236209Y-121822489D01*
X135331217Y-121632629D01*
X135326112Y-121631445D01*
X134429938Y-121403509D01*
X134424886Y-121402110D01*
X133539140Y-121136504D01*
X133534153Y-121134893D01*
X132660414Y-120832091D01*
X132655499Y-120830270D01*
X131795353Y-120490821D01*
X131790519Y-120488794D01*
X130945481Y-120113297D01*
X130940738Y-120111068D01*
X130112345Y-119700208D01*
X130107699Y-119697781D01*
X129297360Y-119252252D01*
X129292822Y-119249630D01*
X128502076Y-118770284D01*
X128497652Y-118767473D01*
X127727832Y-118255111D01*
X127723532Y-118252115D01*
X126976105Y-117707720D01*
X126971934Y-117704546D01*
X126248140Y-117129018D01*
X126244107Y-117125670D01*
X125626611Y-116590551D01*
X125545261Y-116520053D01*
X125541385Y-116516547D01*
X125533656Y-116509255D01*
X125149110Y-116146446D01*
X124868810Y-115881990D01*
X124865075Y-115878314D01*
X124679790Y-115688074D01*
X124679786Y-115688071D01*
X124599006Y-115605131D01*
X127749500Y-115605131D01*
X127749500Y-117394856D01*
X127749502Y-117394882D01*
X127752413Y-117419987D01*
X127752415Y-117419991D01*
X127797793Y-117522764D01*
X127797794Y-117522765D01*
X127877235Y-117602206D01*
X127980009Y-117647585D01*
X128005135Y-117650500D01*
X129794864Y-117650499D01*
X129794879Y-117650497D01*
X129794882Y-117650497D01*
X129819987Y-117647586D01*
X129819988Y-117647585D01*
X129819991Y-117647585D01*
X129922765Y-117602206D01*
X130002206Y-117522765D01*
X130047585Y-117419991D01*
X130050500Y-117394865D01*
X130050499Y-117263076D01*
X130070183Y-117196040D01*
X130122987Y-117150285D01*
X130192145Y-117140341D01*
X130255701Y-117169365D01*
X130282495Y-117203600D01*
X130282829Y-117203396D01*
X130284607Y-117206297D01*
X130284977Y-117206770D01*
X130285373Y-117207547D01*
X130324728Y-117261716D01*
X130957037Y-116629408D01*
X130974075Y-116692993D01*
X131039901Y-116807007D01*
X131132993Y-116900099D01*
X131247007Y-116965925D01*
X131310590Y-116982962D01*
X130678282Y-117615269D01*
X130678282Y-117615270D01*
X130732449Y-117654624D01*
X130921782Y-117751095D01*
X131123870Y-117816757D01*
X131333754Y-117850000D01*
X131546246Y-117850000D01*
X131756127Y-117816757D01*
X131756130Y-117816757D01*
X131958217Y-117751095D01*
X132147554Y-117654622D01*
X132201716Y-117615270D01*
X132201717Y-117615270D01*
X131569408Y-116982962D01*
X131632993Y-116965925D01*
X131747007Y-116900099D01*
X131840099Y-116807007D01*
X131905925Y-116692993D01*
X131922962Y-116629408D01*
X132555270Y-117261717D01*
X132555270Y-117261716D01*
X132594622Y-117207554D01*
X132691095Y-117018217D01*
X132700492Y-116989295D01*
X132739928Y-116931618D01*
X132804286Y-116904419D01*
X132873133Y-116916331D01*
X132924610Y-116963574D01*
X132928908Y-116971314D01*
X132996004Y-117102995D01*
X133102441Y-117249494D01*
X133102445Y-117249499D01*
X133230500Y-117377554D01*
X133230505Y-117377558D01*
X133358287Y-117470396D01*
X133377006Y-117483996D01*
X133453094Y-117522765D01*
X133538360Y-117566211D01*
X133538363Y-117566212D01*
X133587226Y-117582088D01*
X133710591Y-117622171D01*
X133793429Y-117635291D01*
X133889449Y-117650500D01*
X133889454Y-117650500D01*
X134070551Y-117650500D01*
X134157259Y-117636765D01*
X134249409Y-117622171D01*
X134421639Y-117566211D01*
X134582994Y-117483996D01*
X134729501Y-117377553D01*
X134857553Y-117249501D01*
X134963996Y-117102994D01*
X135046211Y-116941639D01*
X135102171Y-116769409D01*
X135116422Y-116679425D01*
X135127527Y-116609321D01*
X135157456Y-116546186D01*
X135216768Y-116509255D01*
X135286630Y-116510253D01*
X135344863Y-116548863D01*
X135372473Y-116609321D01*
X135397829Y-116769410D01*
X135453787Y-116941636D01*
X135453788Y-116941639D01*
X135536006Y-117102997D01*
X135642441Y-117249494D01*
X135642445Y-117249499D01*
X135770500Y-117377554D01*
X135770505Y-117377558D01*
X135898287Y-117470396D01*
X135917006Y-117483996D01*
X135993094Y-117522765D01*
X136078360Y-117566211D01*
X136078363Y-117566212D01*
X136127226Y-117582088D01*
X136250591Y-117622171D01*
X136333429Y-117635291D01*
X136429449Y-117650500D01*
X136429454Y-117650500D01*
X136610551Y-117650500D01*
X136697259Y-117636765D01*
X136789409Y-117622171D01*
X136961639Y-117566211D01*
X137122994Y-117483996D01*
X137269501Y-117377553D01*
X137397553Y-117249501D01*
X137503996Y-117102994D01*
X137586211Y-116941639D01*
X137642171Y-116769409D01*
X137656422Y-116679425D01*
X137667527Y-116609321D01*
X137697456Y-116546186D01*
X137756768Y-116509255D01*
X137826630Y-116510253D01*
X137884863Y-116548863D01*
X137912473Y-116609321D01*
X137937829Y-116769410D01*
X137993787Y-116941636D01*
X137993788Y-116941639D01*
X138076006Y-117102997D01*
X138182441Y-117249494D01*
X138182445Y-117249499D01*
X138310500Y-117377554D01*
X138310505Y-117377558D01*
X138438287Y-117470396D01*
X138457006Y-117483996D01*
X138533094Y-117522765D01*
X138618360Y-117566211D01*
X138618363Y-117566212D01*
X138667226Y-117582088D01*
X138790591Y-117622171D01*
X138873429Y-117635291D01*
X138969449Y-117650500D01*
X138969454Y-117650500D01*
X139150551Y-117650500D01*
X139237259Y-117636765D01*
X139329409Y-117622171D01*
X139501639Y-117566211D01*
X139662994Y-117483996D01*
X139809501Y-117377553D01*
X139937553Y-117249501D01*
X140043996Y-117102994D01*
X140126211Y-116941639D01*
X140182171Y-116769409D01*
X140196422Y-116679425D01*
X140207527Y-116609321D01*
X140237456Y-116546186D01*
X140296768Y-116509255D01*
X140366630Y-116510253D01*
X140424863Y-116548863D01*
X140452473Y-116609321D01*
X140477829Y-116769410D01*
X140533787Y-116941636D01*
X140533788Y-116941639D01*
X140616006Y-117102997D01*
X140722441Y-117249494D01*
X140722445Y-117249499D01*
X140850500Y-117377554D01*
X140850505Y-117377558D01*
X140978287Y-117470396D01*
X140997006Y-117483996D01*
X141073094Y-117522765D01*
X141158360Y-117566211D01*
X141158363Y-117566212D01*
X141207226Y-117582088D01*
X141330591Y-117622171D01*
X141413429Y-117635291D01*
X141509449Y-117650500D01*
X141509454Y-117650500D01*
X141690551Y-117650500D01*
X141777259Y-117636765D01*
X141869409Y-117622171D01*
X142041639Y-117566211D01*
X142202994Y-117483996D01*
X142349501Y-117377553D01*
X142477553Y-117249501D01*
X142583996Y-117102994D01*
X142666211Y-116941639D01*
X142722171Y-116769409D01*
X142736422Y-116679425D01*
X142747527Y-116609321D01*
X142777456Y-116546186D01*
X142836768Y-116509255D01*
X142906630Y-116510253D01*
X142964863Y-116548863D01*
X142992473Y-116609321D01*
X143017829Y-116769410D01*
X143073787Y-116941636D01*
X143073788Y-116941639D01*
X143156006Y-117102997D01*
X143262441Y-117249494D01*
X143262445Y-117249499D01*
X143390500Y-117377554D01*
X143390505Y-117377558D01*
X143518287Y-117470396D01*
X143537006Y-117483996D01*
X143613094Y-117522765D01*
X143698360Y-117566211D01*
X143698363Y-117566212D01*
X143747226Y-117582088D01*
X143870591Y-117622171D01*
X143953429Y-117635291D01*
X144049449Y-117650500D01*
X144049454Y-117650500D01*
X144230551Y-117650500D01*
X144317259Y-117636765D01*
X144409409Y-117622171D01*
X144581639Y-117566211D01*
X144742994Y-117483996D01*
X144889501Y-117377553D01*
X145017553Y-117249501D01*
X145123996Y-117102994D01*
X145206211Y-116941639D01*
X145262171Y-116769409D01*
X145276422Y-116679425D01*
X145287527Y-116609321D01*
X145317456Y-116546186D01*
X145376768Y-116509255D01*
X145446630Y-116510253D01*
X145504863Y-116548863D01*
X145532473Y-116609321D01*
X145557829Y-116769410D01*
X145613787Y-116941636D01*
X145613788Y-116941639D01*
X145696006Y-117102997D01*
X145802441Y-117249494D01*
X145802445Y-117249499D01*
X145930500Y-117377554D01*
X145930505Y-117377558D01*
X146058287Y-117470396D01*
X146077006Y-117483996D01*
X146153094Y-117522765D01*
X146238360Y-117566211D01*
X146238363Y-117566212D01*
X146287226Y-117582088D01*
X146410591Y-117622171D01*
X146493429Y-117635291D01*
X146589449Y-117650500D01*
X146589454Y-117650500D01*
X146770551Y-117650500D01*
X146857259Y-117636765D01*
X146949409Y-117622171D01*
X147121639Y-117566211D01*
X147282994Y-117483996D01*
X147429501Y-117377553D01*
X147557553Y-117249501D01*
X147663996Y-117102994D01*
X147746211Y-116941639D01*
X147802171Y-116769409D01*
X147816422Y-116679425D01*
X147827527Y-116609321D01*
X147857456Y-116546186D01*
X147916768Y-116509255D01*
X147986630Y-116510253D01*
X148044863Y-116548863D01*
X148072473Y-116609321D01*
X148097829Y-116769410D01*
X148153787Y-116941636D01*
X148153788Y-116941639D01*
X148236006Y-117102997D01*
X148342441Y-117249494D01*
X148342445Y-117249499D01*
X148470500Y-117377554D01*
X148470505Y-117377558D01*
X148598287Y-117470396D01*
X148617006Y-117483996D01*
X148693094Y-117522765D01*
X148778360Y-117566211D01*
X148778363Y-117566212D01*
X148827226Y-117582088D01*
X148950591Y-117622171D01*
X149033429Y-117635291D01*
X149129449Y-117650500D01*
X149129454Y-117650500D01*
X149310551Y-117650500D01*
X149397259Y-117636765D01*
X149489409Y-117622171D01*
X149661639Y-117566211D01*
X149822994Y-117483996D01*
X149969501Y-117377553D01*
X150097553Y-117249501D01*
X150203996Y-117102994D01*
X150286211Y-116941639D01*
X150342171Y-116769409D01*
X150356422Y-116679425D01*
X150367527Y-116609321D01*
X150397456Y-116546186D01*
X150456768Y-116509255D01*
X150526630Y-116510253D01*
X150584863Y-116548863D01*
X150612473Y-116609321D01*
X150637829Y-116769410D01*
X150693787Y-116941636D01*
X150693788Y-116941639D01*
X150776006Y-117102997D01*
X150882441Y-117249494D01*
X150882445Y-117249499D01*
X151010500Y-117377554D01*
X151010505Y-117377558D01*
X151138287Y-117470396D01*
X151157006Y-117483996D01*
X151233094Y-117522765D01*
X151318360Y-117566211D01*
X151318363Y-117566212D01*
X151367226Y-117582088D01*
X151490591Y-117622171D01*
X151573429Y-117635291D01*
X151669449Y-117650500D01*
X151669454Y-117650500D01*
X151850551Y-117650500D01*
X151937259Y-117636765D01*
X152029409Y-117622171D01*
X152201639Y-117566211D01*
X152362994Y-117483996D01*
X152509501Y-117377553D01*
X152637553Y-117249501D01*
X152743996Y-117102994D01*
X152826211Y-116941639D01*
X152882171Y-116769409D01*
X152896765Y-116677259D01*
X152910500Y-116590551D01*
X152910500Y-116409448D01*
X152894019Y-116305397D01*
X152882171Y-116230591D01*
X152826211Y-116058361D01*
X152826211Y-116058360D01*
X152776459Y-115960718D01*
X152743996Y-115897006D01*
X152730396Y-115878287D01*
X152637558Y-115750505D01*
X152637554Y-115750500D01*
X152509499Y-115622445D01*
X152509494Y-115622441D01*
X152362997Y-115516006D01*
X152362996Y-115516005D01*
X152362994Y-115516004D01*
X152286906Y-115477235D01*
X152201639Y-115433788D01*
X152201636Y-115433787D01*
X152029410Y-115377829D01*
X151850551Y-115349500D01*
X151850546Y-115349500D01*
X151669454Y-115349500D01*
X151669449Y-115349500D01*
X151490589Y-115377829D01*
X151318363Y-115433787D01*
X151318360Y-115433788D01*
X151157002Y-115516006D01*
X151010505Y-115622441D01*
X151010500Y-115622445D01*
X150882445Y-115750500D01*
X150882441Y-115750505D01*
X150776006Y-115897002D01*
X150693788Y-116058360D01*
X150693787Y-116058363D01*
X150637829Y-116230589D01*
X150612473Y-116390678D01*
X150582544Y-116453813D01*
X150523232Y-116490744D01*
X150453369Y-116489746D01*
X150395137Y-116451136D01*
X150367527Y-116390678D01*
X150353740Y-116303639D01*
X150342171Y-116230591D01*
X150286211Y-116058361D01*
X150286211Y-116058360D01*
X150236459Y-115960718D01*
X150203996Y-115897006D01*
X150190396Y-115878287D01*
X150097558Y-115750505D01*
X150097554Y-115750500D01*
X149969499Y-115622445D01*
X149969494Y-115622441D01*
X149822997Y-115516006D01*
X149822996Y-115516005D01*
X149822994Y-115516004D01*
X149746906Y-115477235D01*
X149661639Y-115433788D01*
X149661636Y-115433787D01*
X149489410Y-115377829D01*
X149310551Y-115349500D01*
X149310546Y-115349500D01*
X149129454Y-115349500D01*
X149129449Y-115349500D01*
X148950589Y-115377829D01*
X148778363Y-115433787D01*
X148778360Y-115433788D01*
X148617002Y-115516006D01*
X148470505Y-115622441D01*
X148470500Y-115622445D01*
X148342445Y-115750500D01*
X148342441Y-115750505D01*
X148236006Y-115897002D01*
X148153788Y-116058360D01*
X148153787Y-116058363D01*
X148097829Y-116230589D01*
X148072473Y-116390678D01*
X148042544Y-116453813D01*
X147983232Y-116490744D01*
X147913369Y-116489746D01*
X147855137Y-116451136D01*
X147827527Y-116390678D01*
X147813740Y-116303639D01*
X147802171Y-116230591D01*
X147746211Y-116058361D01*
X147746211Y-116058360D01*
X147696459Y-115960718D01*
X147663996Y-115897006D01*
X147650396Y-115878287D01*
X147557558Y-115750505D01*
X147557554Y-115750500D01*
X147429499Y-115622445D01*
X147429494Y-115622441D01*
X147282997Y-115516006D01*
X147282996Y-115516005D01*
X147282994Y-115516004D01*
X147206906Y-115477235D01*
X147121639Y-115433788D01*
X147121636Y-115433787D01*
X146949410Y-115377829D01*
X146770551Y-115349500D01*
X146770546Y-115349500D01*
X146589454Y-115349500D01*
X146589449Y-115349500D01*
X146410589Y-115377829D01*
X146238363Y-115433787D01*
X146238360Y-115433788D01*
X146077002Y-115516006D01*
X145930505Y-115622441D01*
X145930500Y-115622445D01*
X145802445Y-115750500D01*
X145802441Y-115750505D01*
X145696006Y-115897002D01*
X145613788Y-116058360D01*
X145613787Y-116058363D01*
X145557829Y-116230589D01*
X145532473Y-116390678D01*
X145502544Y-116453813D01*
X145443232Y-116490744D01*
X145373369Y-116489746D01*
X145315137Y-116451136D01*
X145287527Y-116390678D01*
X145273740Y-116303639D01*
X145262171Y-116230591D01*
X145206211Y-116058361D01*
X145206211Y-116058360D01*
X145156459Y-115960718D01*
X145123996Y-115897006D01*
X145110396Y-115878287D01*
X145017558Y-115750505D01*
X145017554Y-115750500D01*
X144889499Y-115622445D01*
X144889494Y-115622441D01*
X144742997Y-115516006D01*
X144742996Y-115516005D01*
X144742994Y-115516004D01*
X144666906Y-115477235D01*
X144581639Y-115433788D01*
X144581636Y-115433787D01*
X144409410Y-115377829D01*
X144230551Y-115349500D01*
X144230546Y-115349500D01*
X144049454Y-115349500D01*
X144049449Y-115349500D01*
X143870589Y-115377829D01*
X143698363Y-115433787D01*
X143698360Y-115433788D01*
X143537002Y-115516006D01*
X143390505Y-115622441D01*
X143390500Y-115622445D01*
X143262445Y-115750500D01*
X143262441Y-115750505D01*
X143156006Y-115897002D01*
X143073788Y-116058360D01*
X143073787Y-116058363D01*
X143017829Y-116230589D01*
X142992473Y-116390678D01*
X142962544Y-116453813D01*
X142903232Y-116490744D01*
X142833369Y-116489746D01*
X142775137Y-116451136D01*
X142747527Y-116390678D01*
X142733740Y-116303639D01*
X142722171Y-116230591D01*
X142666211Y-116058361D01*
X142666211Y-116058360D01*
X142616459Y-115960718D01*
X142583996Y-115897006D01*
X142570396Y-115878287D01*
X142477558Y-115750505D01*
X142477554Y-115750500D01*
X142349499Y-115622445D01*
X142349494Y-115622441D01*
X142202997Y-115516006D01*
X142202996Y-115516005D01*
X142202994Y-115516004D01*
X142126906Y-115477235D01*
X142041639Y-115433788D01*
X142041636Y-115433787D01*
X141869410Y-115377829D01*
X141690551Y-115349500D01*
X141690546Y-115349500D01*
X141509454Y-115349500D01*
X141509449Y-115349500D01*
X141330589Y-115377829D01*
X141158363Y-115433787D01*
X141158360Y-115433788D01*
X140997002Y-115516006D01*
X140850505Y-115622441D01*
X140850500Y-115622445D01*
X140722445Y-115750500D01*
X140722441Y-115750505D01*
X140616006Y-115897002D01*
X140533788Y-116058360D01*
X140533787Y-116058363D01*
X140477829Y-116230589D01*
X140452473Y-116390678D01*
X140422544Y-116453813D01*
X140363232Y-116490744D01*
X140293369Y-116489746D01*
X140235137Y-116451136D01*
X140207527Y-116390678D01*
X140193740Y-116303639D01*
X140182171Y-116230591D01*
X140126211Y-116058361D01*
X140126211Y-116058360D01*
X140076459Y-115960718D01*
X140043996Y-115897006D01*
X140030396Y-115878287D01*
X139937558Y-115750505D01*
X139937554Y-115750500D01*
X139809499Y-115622445D01*
X139809494Y-115622441D01*
X139662997Y-115516006D01*
X139662996Y-115516005D01*
X139662994Y-115516004D01*
X139586906Y-115477235D01*
X139501639Y-115433788D01*
X139501636Y-115433787D01*
X139329410Y-115377829D01*
X139150551Y-115349500D01*
X139150546Y-115349500D01*
X138969454Y-115349500D01*
X138969449Y-115349500D01*
X138790589Y-115377829D01*
X138618363Y-115433787D01*
X138618360Y-115433788D01*
X138457002Y-115516006D01*
X138310505Y-115622441D01*
X138310500Y-115622445D01*
X138182445Y-115750500D01*
X138182441Y-115750505D01*
X138076006Y-115897002D01*
X137993788Y-116058360D01*
X137993787Y-116058363D01*
X137937829Y-116230589D01*
X137912473Y-116390678D01*
X137882544Y-116453813D01*
X137823232Y-116490744D01*
X137753369Y-116489746D01*
X137695137Y-116451136D01*
X137667527Y-116390678D01*
X137653740Y-116303639D01*
X137642171Y-116230591D01*
X137586211Y-116058361D01*
X137586211Y-116058360D01*
X137536459Y-115960718D01*
X137503996Y-115897006D01*
X137490396Y-115878287D01*
X137397558Y-115750505D01*
X137397554Y-115750500D01*
X137269499Y-115622445D01*
X137269494Y-115622441D01*
X137122997Y-115516006D01*
X137122996Y-115516005D01*
X137122994Y-115516004D01*
X137046906Y-115477235D01*
X136961639Y-115433788D01*
X136961636Y-115433787D01*
X136789410Y-115377829D01*
X136610551Y-115349500D01*
X136610546Y-115349500D01*
X136429454Y-115349500D01*
X136429449Y-115349500D01*
X136250587Y-115377829D01*
X136106716Y-115424575D01*
X136036875Y-115426570D01*
X135980718Y-115394325D01*
X135275103Y-114688710D01*
X135241618Y-114627387D01*
X135246602Y-114557695D01*
X135255393Y-114539034D01*
X135259580Y-114531784D01*
X135300503Y-114379057D01*
X135300503Y-114220943D01*
X135259580Y-114068216D01*
X135202135Y-113968717D01*
X135180527Y-113931290D01*
X135180521Y-113931282D01*
X135068720Y-113819481D01*
X135068712Y-113819475D01*
X134931793Y-113740426D01*
X134931789Y-113740424D01*
X134931787Y-113740423D01*
X134779060Y-113699500D01*
X134620946Y-113699500D01*
X134620944Y-113699500D01*
X134556592Y-113716743D01*
X134486743Y-113715080D01*
X134428880Y-113675917D01*
X134401377Y-113611688D01*
X134400500Y-113596968D01*
X134400500Y-113520945D01*
X134400500Y-113520943D01*
X134359577Y-113368216D01*
X134299748Y-113264588D01*
X134280524Y-113231290D01*
X134280518Y-113231282D01*
X134168717Y-113119481D01*
X134168709Y-113119475D01*
X134031790Y-113040426D01*
X134031786Y-113040424D01*
X134031784Y-113040423D01*
X133879057Y-112999500D01*
X133720943Y-112999500D01*
X133568216Y-113040423D01*
X133568209Y-113040426D01*
X133431290Y-113119475D01*
X133431282Y-113119481D01*
X133319481Y-113231282D01*
X133319475Y-113231290D01*
X133240426Y-113368209D01*
X133240423Y-113368216D01*
X133199500Y-113520943D01*
X133199500Y-113679057D01*
X133237127Y-113819481D01*
X133240423Y-113831783D01*
X133240426Y-113831790D01*
X133319475Y-113968709D01*
X133319481Y-113968717D01*
X133431284Y-114080520D01*
X133437499Y-114084108D01*
X133485715Y-114134675D01*
X133499500Y-114191496D01*
X133499500Y-115377602D01*
X133479815Y-115444641D01*
X133431796Y-115488086D01*
X133377004Y-115516004D01*
X133230505Y-115622441D01*
X133230500Y-115622445D01*
X133102445Y-115750500D01*
X133102441Y-115750505D01*
X132996004Y-115897004D01*
X132928908Y-116028685D01*
X132880933Y-116079480D01*
X132813112Y-116096275D01*
X132746977Y-116073737D01*
X132703527Y-116019021D01*
X132700492Y-116010705D01*
X132691094Y-115981780D01*
X132594624Y-115792449D01*
X132555270Y-115738282D01*
X132555269Y-115738282D01*
X131922962Y-116370590D01*
X131905925Y-116307007D01*
X131840099Y-116192993D01*
X131747007Y-116099901D01*
X131632993Y-116034075D01*
X131569409Y-116017037D01*
X132201716Y-115384728D01*
X132147550Y-115345375D01*
X131958217Y-115248904D01*
X131756129Y-115183242D01*
X131546246Y-115150000D01*
X131333754Y-115150000D01*
X131123872Y-115183242D01*
X131123869Y-115183242D01*
X130921782Y-115248904D01*
X130732439Y-115345380D01*
X130678282Y-115384727D01*
X130678282Y-115384728D01*
X131310591Y-116017037D01*
X131247007Y-116034075D01*
X131132993Y-116099901D01*
X131039901Y-116192993D01*
X130974075Y-116307007D01*
X130957037Y-116370591D01*
X130324728Y-115738282D01*
X130324727Y-115738282D01*
X130285380Y-115792440D01*
X130285377Y-115792445D01*
X130284981Y-115793223D01*
X130284752Y-115793464D01*
X130282838Y-115796590D01*
X130282180Y-115796187D01*
X130237004Y-115844017D01*
X130169183Y-115860809D01*
X130103049Y-115838268D01*
X130059600Y-115783551D01*
X130050499Y-115736923D01*
X130050499Y-115605143D01*
X130050499Y-115605136D01*
X130049323Y-115594996D01*
X130047586Y-115580012D01*
X130047585Y-115580011D01*
X130047585Y-115580009D01*
X130002206Y-115477235D01*
X129922765Y-115397794D01*
X129915144Y-115394429D01*
X129819992Y-115352415D01*
X129794865Y-115349500D01*
X128005143Y-115349500D01*
X128005117Y-115349502D01*
X127980012Y-115352413D01*
X127980008Y-115352415D01*
X127877235Y-115397793D01*
X127797794Y-115477234D01*
X127752415Y-115580006D01*
X127752415Y-115580008D01*
X127749500Y-115605131D01*
X124599006Y-115605131D01*
X124219859Y-115215843D01*
X124216283Y-115212011D01*
X123599701Y-114522934D01*
X123596289Y-114518956D01*
X123470501Y-114365819D01*
X123009312Y-113804360D01*
X123006096Y-113800270D01*
X122609937Y-113274130D01*
X123733170Y-113274130D01*
X123751470Y-113313374D01*
X123803956Y-113401304D01*
X123803961Y-113401310D01*
X123923270Y-113527769D01*
X123923271Y-113527770D01*
X124068526Y-113623306D01*
X124068530Y-113623308D01*
X124231905Y-113682771D01*
X124231908Y-113682772D01*
X124404596Y-113702956D01*
X124577286Y-113682772D01*
X124577289Y-113682772D01*
X124673995Y-113649158D01*
X124674002Y-113649155D01*
X124905844Y-113541044D01*
X124594162Y-112872643D01*
X123733171Y-113274130D01*
X123733170Y-113274130D01*
X122609937Y-113274130D01*
X122449867Y-113061540D01*
X122446813Y-113057301D01*
X122441668Y-113049831D01*
X121922305Y-112295735D01*
X121919425Y-112291358D01*
X121427565Y-111508300D01*
X121424872Y-111503804D01*
X120966545Y-110700665D01*
X120964044Y-110696059D01*
X120958356Y-110685034D01*
X120540063Y-109874261D01*
X120537771Y-109869578D01*
X120477000Y-109738467D01*
X120148903Y-109030614D01*
X120146803Y-109025821D01*
X120145995Y-109023865D01*
X119793718Y-108171128D01*
X119791836Y-108166286D01*
X119604494Y-107652243D01*
X121183466Y-107652243D01*
X121203649Y-107824928D01*
X121237268Y-107921650D01*
X121255570Y-107960899D01*
X122116562Y-107559412D01*
X121804881Y-106891011D01*
X121573044Y-106999119D01*
X121485118Y-107051603D01*
X121485112Y-107051608D01*
X121358653Y-107170916D01*
X121358652Y-107170917D01*
X121263116Y-107316173D01*
X121263114Y-107316177D01*
X121203651Y-107479551D01*
X121203650Y-107479554D01*
X121183466Y-107652243D01*
X119604494Y-107652243D01*
X119475175Y-107297409D01*
X119473514Y-107292531D01*
X119193859Y-106411063D01*
X119192394Y-106406082D01*
X118950245Y-105513606D01*
X118948981Y-105508524D01*
X118913688Y-105352658D01*
X118744774Y-104606666D01*
X118743725Y-104601534D01*
X118742581Y-104595260D01*
X118577802Y-103691794D01*
X118576974Y-103686632D01*
X118569350Y-103631786D01*
X118449649Y-102770725D01*
X118449039Y-102765533D01*
X118447630Y-102750884D01*
X118360530Y-101845047D01*
X118360141Y-101839835D01*
X118310612Y-100916443D01*
X118310443Y-100911219D01*
X118309140Y-100796104D01*
X118301022Y-100078711D01*
X120649500Y-100078711D01*
X120649500Y-100321288D01*
X120681161Y-100561785D01*
X120743947Y-100796104D01*
X120822962Y-100986863D01*
X120836776Y-101020212D01*
X120958064Y-101230289D01*
X120958066Y-101230292D01*
X120958067Y-101230293D01*
X121105733Y-101422736D01*
X121105739Y-101422743D01*
X121277256Y-101594260D01*
X121277262Y-101594265D01*
X121469711Y-101741936D01*
X121679788Y-101863224D01*
X121903900Y-101956054D01*
X122138211Y-102018838D01*
X122318586Y-102042584D01*
X122378711Y-102050500D01*
X122378712Y-102050500D01*
X122621289Y-102050500D01*
X122676647Y-102043212D01*
X122861789Y-102018838D01*
X123096100Y-101956054D01*
X123320212Y-101863224D01*
X123530289Y-101741936D01*
X123722738Y-101594265D01*
X123894265Y-101422738D01*
X124041936Y-101230289D01*
X124163224Y-101020212D01*
X124256054Y-100796100D01*
X124318838Y-100561789D01*
X124350500Y-100321288D01*
X124350500Y-100078712D01*
X124350150Y-100076057D01*
X124338371Y-99986583D01*
X124318838Y-99838211D01*
X124256054Y-99603900D01*
X124163224Y-99379788D01*
X124041936Y-99169711D01*
X123913589Y-99002445D01*
X123894266Y-98977263D01*
X123894260Y-98977256D01*
X123722743Y-98805739D01*
X123722736Y-98805733D01*
X123530293Y-98658067D01*
X123530292Y-98658066D01*
X123530289Y-98658064D01*
X123320212Y-98536776D01*
X123320205Y-98536773D01*
X123096104Y-98443947D01*
X122978944Y-98412554D01*
X122861789Y-98381162D01*
X122861788Y-98381161D01*
X122861785Y-98381161D01*
X122621289Y-98349500D01*
X122621288Y-98349500D01*
X122378712Y-98349500D01*
X122378711Y-98349500D01*
X122138214Y-98381161D01*
X121903895Y-98443947D01*
X121679794Y-98536773D01*
X121679785Y-98536777D01*
X121517299Y-98630589D01*
X121490607Y-98646000D01*
X121469706Y-98658067D01*
X121277263Y-98805733D01*
X121277256Y-98805739D01*
X121105739Y-98977256D01*
X121105733Y-98977263D01*
X120958067Y-99169706D01*
X120836777Y-99379785D01*
X120836773Y-99379794D01*
X120743947Y-99603895D01*
X120681161Y-99838214D01*
X120649500Y-100078711D01*
X118301022Y-100078711D01*
X118299979Y-99986545D01*
X118300029Y-99981378D01*
X118328653Y-99057015D01*
X118328921Y-99051873D01*
X118396580Y-98129569D01*
X118397069Y-98124403D01*
X118503640Y-97205812D01*
X118504352Y-97200637D01*
X118649646Y-96287362D01*
X118650561Y-96282302D01*
X118834326Y-95375964D01*
X118835465Y-95370898D01*
X118868324Y-95237956D01*
X124115596Y-95237956D01*
X124292350Y-95414710D01*
X124292371Y-95414729D01*
X124372402Y-95479925D01*
X124372408Y-95479929D01*
X124529085Y-95558615D01*
X124699688Y-95599049D01*
X124875007Y-95599049D01*
X125045609Y-95558615D01*
X125202287Y-95479929D01*
X125282332Y-95414723D01*
X125282348Y-95414708D01*
X125326515Y-95370539D01*
X124654764Y-94698788D01*
X124115596Y-95237956D01*
X118868324Y-95237956D01*
X118955671Y-94884572D01*
X121912481Y-94884572D01*
X121914381Y-94886194D01*
X122058294Y-94965312D01*
X122058304Y-94965315D01*
X122217358Y-95006154D01*
X122217366Y-95006155D01*
X122381594Y-95006155D01*
X122381601Y-95006154D01*
X122540655Y-94965315D01*
X122540664Y-94965312D01*
X122684575Y-94886195D01*
X122684582Y-94886191D01*
X122712678Y-94862195D01*
X122997747Y-94577125D01*
X122608840Y-94188217D01*
X122608839Y-94188217D01*
X121912481Y-94884572D01*
X118955671Y-94884572D01*
X119057358Y-94473166D01*
X119058701Y-94468183D01*
X119318353Y-93580559D01*
X119319908Y-93575632D01*
X119616817Y-92699836D01*
X119618579Y-92694977D01*
X119952240Y-91832493D01*
X119954230Y-91827658D01*
X119973117Y-91784370D01*
X120324019Y-90980094D01*
X120326213Y-90975344D01*
X120347912Y-90930841D01*
X120731492Y-90144154D01*
X120733874Y-90139524D01*
X121173912Y-89326216D01*
X121176502Y-89321660D01*
X121178951Y-89317558D01*
X121650544Y-88527626D01*
X121653279Y-88523258D01*
X122160441Y-87749984D01*
X122163373Y-87745712D01*
X122702790Y-86994519D01*
X122705880Y-86990403D01*
X123276521Y-86262725D01*
X123279838Y-86258675D01*
X123319757Y-86211978D01*
X123880733Y-85555745D01*
X123884167Y-85551896D01*
X124514242Y-84874976D01*
X124517874Y-84871238D01*
X125045889Y-84349985D01*
X125175954Y-84221585D01*
X125179728Y-84218013D01*
X125864711Y-83596718D01*
X125868578Y-83593356D01*
X126579238Y-83001534D01*
X126583307Y-82998290D01*
X126602338Y-82983758D01*
X127318286Y-82437072D01*
X127322471Y-82434015D01*
X128080548Y-81904329D01*
X128084826Y-81901473D01*
X128864593Y-81404309D01*
X128869013Y-81401621D01*
X129669093Y-80937853D01*
X129673635Y-80935347D01*
X130492615Y-80505794D01*
X130497199Y-80503512D01*
X131333645Y-80108931D01*
X131338327Y-80106843D01*
X132190630Y-79747993D01*
X132195437Y-79746086D01*
X132970237Y-79457772D01*
X133012911Y-79449989D01*
X147397299Y-79384310D01*
X147440041Y-79391703D01*
G37*
%TD.AperFunction*%
%TA.AperFunction,Conductor*%
G36*
X155025317Y-93435718D02*
G01*
X155045959Y-93452352D01*
X158394325Y-96800718D01*
X158427810Y-96862041D01*
X158424575Y-96926716D01*
X158377829Y-97070587D01*
X158349500Y-97249448D01*
X158349500Y-97430551D01*
X158377829Y-97609410D01*
X158433787Y-97781636D01*
X158433788Y-97781639D01*
X158483812Y-97879815D01*
X158509207Y-97929655D01*
X158516006Y-97942997D01*
X158622441Y-98089494D01*
X158622445Y-98089499D01*
X158750500Y-98217554D01*
X158750505Y-98217558D01*
X158771179Y-98232578D01*
X158897006Y-98323996D01*
X158965811Y-98359054D01*
X159058360Y-98406211D01*
X159058363Y-98406212D01*
X159144476Y-98434191D01*
X159230591Y-98462171D01*
X159303639Y-98473740D01*
X159390678Y-98487527D01*
X159453813Y-98517456D01*
X159490744Y-98576768D01*
X159489746Y-98646631D01*
X159451136Y-98704863D01*
X159390678Y-98732473D01*
X159230589Y-98757829D01*
X159058363Y-98813787D01*
X159058360Y-98813788D01*
X158897002Y-98896006D01*
X158750505Y-99002441D01*
X158750500Y-99002445D01*
X158622445Y-99130500D01*
X158622441Y-99130505D01*
X158516006Y-99277002D01*
X158433788Y-99438360D01*
X158433787Y-99438363D01*
X158377829Y-99610589D01*
X158349500Y-99789448D01*
X158349500Y-99970551D01*
X158377829Y-100149410D01*
X158424575Y-100293281D01*
X158426570Y-100363122D01*
X158394325Y-100419280D01*
X157054484Y-101759122D01*
X156993161Y-101792607D01*
X156923469Y-101787623D01*
X156879122Y-101759122D01*
X156850000Y-101730000D01*
X155933012Y-101730000D01*
X155965925Y-101672993D01*
X156000000Y-101545826D01*
X156000000Y-101414174D01*
X155965925Y-101287007D01*
X155933012Y-101230000D01*
X156850000Y-101230000D01*
X156850000Y-100582172D01*
X156849999Y-100582155D01*
X156843598Y-100522627D01*
X156843596Y-100522620D01*
X156793354Y-100387913D01*
X156793350Y-100387906D01*
X156707190Y-100272812D01*
X156707187Y-100272809D01*
X156592093Y-100186649D01*
X156592086Y-100186645D01*
X156457379Y-100136403D01*
X156457372Y-100136401D01*
X156397844Y-100130000D01*
X156201087Y-100130000D01*
X156134048Y-100110315D01*
X156088293Y-100057511D01*
X156078349Y-99988353D01*
X156107374Y-99924797D01*
X156128202Y-99905682D01*
X156249495Y-99817558D01*
X156249497Y-99817555D01*
X156249501Y-99817553D01*
X156377553Y-99689501D01*
X156483996Y-99542994D01*
X156566211Y-99381639D01*
X156622171Y-99209409D01*
X156636765Y-99117259D01*
X156650500Y-99030551D01*
X156650500Y-98849448D01*
X156627599Y-98704863D01*
X156622171Y-98670591D01*
X156580288Y-98541685D01*
X156566212Y-98498363D01*
X156566211Y-98498360D01*
X156527324Y-98422041D01*
X156483996Y-98337006D01*
X156462699Y-98307693D01*
X156377558Y-98190505D01*
X156377554Y-98190500D01*
X156249499Y-98062445D01*
X156249494Y-98062441D01*
X156102997Y-97956006D01*
X156102996Y-97956005D01*
X156102994Y-97956004D01*
X156046181Y-97927056D01*
X155941639Y-97873788D01*
X155941636Y-97873787D01*
X155769410Y-97817829D01*
X155609321Y-97792473D01*
X155546186Y-97762544D01*
X155509255Y-97703232D01*
X155510253Y-97633370D01*
X155548863Y-97575137D01*
X155609321Y-97547527D01*
X155679425Y-97536422D01*
X155769409Y-97522171D01*
X155941639Y-97466211D01*
X156102994Y-97383996D01*
X156249501Y-97277553D01*
X156377553Y-97149501D01*
X156483996Y-97002994D01*
X156566211Y-96841639D01*
X156622171Y-96669409D01*
X156643058Y-96537536D01*
X156650500Y-96490551D01*
X156650500Y-96309448D01*
X156632131Y-96193476D01*
X156622171Y-96130591D01*
X156581682Y-96005976D01*
X156566212Y-95958363D01*
X156566211Y-95958360D01*
X156514604Y-95857078D01*
X156483996Y-95797006D01*
X156461207Y-95765639D01*
X156377558Y-95650505D01*
X156377554Y-95650500D01*
X156249499Y-95522445D01*
X156249494Y-95522441D01*
X156102997Y-95416006D01*
X156102996Y-95416005D01*
X156102994Y-95416004D01*
X156051300Y-95389664D01*
X155941639Y-95333788D01*
X155941636Y-95333787D01*
X155769410Y-95277829D01*
X155590551Y-95249500D01*
X155590546Y-95249500D01*
X155409454Y-95249500D01*
X155409449Y-95249500D01*
X155230589Y-95277829D01*
X155058363Y-95333787D01*
X155058360Y-95333788D01*
X154930795Y-95398787D01*
X154928089Y-95399295D01*
X154926011Y-95401096D01*
X154893961Y-95405704D01*
X154862126Y-95411683D01*
X154859576Y-95410648D01*
X154856853Y-95411040D01*
X154827394Y-95397586D01*
X154797385Y-95385407D01*
X154795799Y-95383157D01*
X154793297Y-95382015D01*
X154775788Y-95354771D01*
X154757128Y-95328300D01*
X154756555Y-95324843D01*
X154755523Y-95323237D01*
X154750500Y-95288302D01*
X154750500Y-95107630D01*
X154750501Y-95107617D01*
X154750501Y-94992176D01*
X154750501Y-94992174D01*
X154723207Y-94890313D01*
X154678408Y-94812720D01*
X154670480Y-94798988D01*
X154595913Y-94724421D01*
X154595910Y-94724419D01*
X153951012Y-94079520D01*
X153905349Y-94053156D01*
X153859688Y-94026793D01*
X153808756Y-94013146D01*
X153757826Y-93999500D01*
X153757825Y-93999500D01*
X152537293Y-93999500D01*
X152470254Y-93979815D01*
X152424499Y-93927011D01*
X152414555Y-93857853D01*
X152417514Y-93843421D01*
X152457394Y-93694590D01*
X152457394Y-93540033D01*
X152477079Y-93472994D01*
X152529883Y-93427239D01*
X152581394Y-93416033D01*
X154958278Y-93416033D01*
X155025317Y-93435718D01*
G37*
%TD.AperFunction*%
%TD*%
M02*
