%TF.GenerationSoftware,KiCad,Pcbnew,10.0.1*%
%TF.CreationDate,2026-04-29T11:55:37-05:00*%
%TF.ProjectId,Chimborazo Stratos-1,4368696d-626f-4726-917a-6f2053747261,rev?*%
%TF.SameCoordinates,Original*%
%TF.FileFunction,Soldermask,Top*%
%TF.FilePolarity,Negative*%
%FSLAX46Y46*%
G04 Gerber Fmt 4.6, Leading zero omitted, Abs format (unit mm)*
G04 Created by KiCad (PCBNEW 10.0.1) date 2026-04-29 11:55:37*
%MOMM*%
%LPD*%
G01*
G04 APERTURE LIST*
G04 Aperture macros list*
%AMRoundRect*
0 Rectangle with rounded corners*
0 $1 Rounding radius*
0 $2 $3 $4 $5 $6 $7 $8 $9 X,Y pos of 4 corners*
0 Add a 4 corners polygon primitive as box body*
4,1,4,$2,$3,$4,$5,$6,$7,$8,$9,$2,$3,0*
0 Add four circle primitives for the rounded corners*
1,1,$1+$1,$2,$3*
1,1,$1+$1,$4,$5*
1,1,$1+$1,$6,$7*
1,1,$1+$1,$8,$9*
0 Add four rect primitives between the rounded corners*
20,1,$1+$1,$2,$3,$4,$5,0*
20,1,$1+$1,$4,$5,$6,$7,0*
20,1,$1+$1,$6,$7,$8,$9,0*
20,1,$1+$1,$8,$9,$2,$3,0*%
G04 Aperture macros list end*
%ADD10RoundRect,0.525400X-0.900400X-0.525400X0.900400X-0.525400X0.900400X0.525400X-0.900400X0.525400X0*%
%ADD11C,1.700000*%
%ADD12RoundRect,0.275000X-0.275000X0.975000X-0.275000X-0.975000X0.275000X-0.975000X0.275000X0.975000X0*%
%ADD13RoundRect,0.250000X-0.250000X-0.475000X0.250000X-0.475000X0.250000X0.475000X-0.250000X0.475000X0*%
%ADD14RoundRect,0.250000X0.475000X-0.250000X0.475000X0.250000X-0.475000X0.250000X-0.475000X-0.250000X0*%
%ADD15R,1.700000X1.700000*%
%ADD16RoundRect,0.250000X0.450000X-0.262500X0.450000X0.262500X-0.450000X0.262500X-0.450000X-0.262500X0*%
%ADD17RoundRect,0.250000X0.518776X-0.047728X0.296901X0.428084X-0.518776X0.047728X-0.296901X-0.428084X0*%
%ADD18RoundRect,0.243750X0.516516X-0.028093X0.310490X0.413732X-0.516516X0.028093X-0.310490X-0.413732X0*%
%ADD19RoundRect,0.150000X-0.309359X-0.521491X0.521491X0.309359X0.309359X0.521491X-0.521491X-0.309359X0*%
%ADD20C,3.200000*%
%ADD21RoundRect,0.243750X-0.516516X0.028093X-0.310490X-0.413732X0.516516X-0.028093X0.310490X0.413732X0*%
%ADD22RoundRect,0.250000X-0.625000X0.375000X-0.625000X-0.375000X0.625000X-0.375000X0.625000X0.375000X0*%
%ADD23RoundRect,0.250000X-0.450000X0.262500X-0.450000X-0.262500X0.450000X-0.262500X0.450000X0.262500X0*%
%ADD24RoundRect,0.250000X-0.132583X0.503814X-0.503814X0.132583X0.132583X-0.503814X0.503814X-0.132583X0*%
%ADD25RoundRect,0.250000X-0.475000X0.250000X-0.475000X-0.250000X0.475000X-0.250000X0.475000X0.250000X0*%
%ADD26RoundRect,0.250000X-0.518776X0.047728X-0.296901X-0.428084X0.518776X-0.047728X0.296901X0.428084X0*%
%ADD27RoundRect,0.250000X-0.350000X-0.625000X0.350000X-0.625000X0.350000X0.625000X-0.350000X0.625000X0*%
%ADD28O,1.200000X1.750000*%
G04 APERTURE END LIST*
D10*
%TO.C,U1*%
X132035000Y-81981500D03*
X132035000Y-84521500D03*
X132035000Y-87061500D03*
X132035000Y-89601500D03*
X132035000Y-92141500D03*
X132035000Y-94681500D03*
X132035000Y-97221500D03*
X148200000Y-97221500D03*
X148200000Y-94681500D03*
X148200000Y-92141500D03*
X148200000Y-89601500D03*
X148200000Y-87061500D03*
X148200000Y-84521500D03*
X148200000Y-81981500D03*
D11*
X138816600Y-80960000D03*
X141356600Y-80960000D03*
X138816600Y-83500000D03*
X141356600Y-83500000D03*
X138816600Y-86040000D03*
X141356600Y-86040000D03*
X138816600Y-88580000D03*
X141264000Y-88523200D03*
D12*
X138308600Y-95133200D03*
X140848600Y-95133200D03*
%TD*%
D13*
%TO.C,C2*%
X150528721Y-86899263D03*
X152428721Y-86899263D03*
%TD*%
D14*
%TO.C,C6*%
X131100000Y-104550000D03*
X131100000Y-102650000D03*
%TD*%
D15*
%TO.C,JPyro1*%
X126400000Y-85900000D03*
D11*
X126400000Y-88440000D03*
%TD*%
D16*
%TO.C,R3*%
X127500000Y-96512500D03*
X127500000Y-94687500D03*
%TD*%
D17*
%TO.C,R6*%
X126607767Y-111630256D03*
X125836489Y-109976244D03*
%TD*%
D18*
%TO.C,D1*%
X124715086Y-112540412D03*
X123922676Y-110841084D03*
%TD*%
D16*
%TO.C,R4*%
X129500000Y-96512500D03*
X129500000Y-94687500D03*
%TD*%
D19*
%TO.C,Q1*%
X121265336Y-92491161D03*
X122608839Y-93834664D03*
X123262913Y-91837087D03*
%TD*%
D20*
%TO.C,REF\u002A\u002A*%
X122500000Y-100200000D03*
%TD*%
D15*
%TO.C,JGPS1*%
X159500000Y-94800000D03*
D11*
X159500000Y-97340000D03*
X159500000Y-99880000D03*
X159500000Y-102420000D03*
%TD*%
D21*
%TO.C,D2*%
X122448795Y-107680336D03*
X123241205Y-109379664D03*
%TD*%
D15*
%TO.C,JGY1*%
X128900000Y-116500000D03*
D11*
X131440000Y-116500000D03*
X133980000Y-116500000D03*
X136520000Y-116500000D03*
X139060000Y-116500000D03*
X141600000Y-116500000D03*
X144140000Y-116500000D03*
X146680000Y-116500000D03*
X149220000Y-116500000D03*
X151760000Y-116500000D03*
%TD*%
D22*
%TO.C,F1*%
X135300000Y-103200000D03*
X135300000Y-106000000D03*
%TD*%
D23*
%TO.C,R1*%
X133100000Y-103087500D03*
X133100000Y-104912500D03*
%TD*%
D24*
%TO.C,R5*%
X125945235Y-93054765D03*
X124654765Y-94345235D03*
%TD*%
D25*
%TO.C,C5*%
X151500000Y-82150001D03*
X151500000Y-84049999D03*
%TD*%
D23*
%TO.C,R2*%
X129100000Y-104987500D03*
X129100000Y-106812500D03*
%TD*%
D26*
%TO.C,R7*%
X124357325Y-106804167D03*
X125128603Y-108458179D03*
%TD*%
D20*
%TO.C,REF\u002A\u002A*%
X149200000Y-109100000D03*
%TD*%
D27*
%TO.C,JBATTERY1*%
X139900000Y-104100000D03*
D28*
X141900000Y-104100000D03*
%TD*%
D15*
%TO.C,Servo2*%
X155500000Y-101480000D03*
D11*
X155500000Y-98940000D03*
X155500000Y-96400000D03*
%TD*%
D15*
%TO.C,Servo1*%
X151800000Y-101440000D03*
D11*
X151800000Y-98900000D03*
X151800000Y-96360000D03*
%TD*%
M02*
