%TF.GenerationSoftware,KiCad,Pcbnew,9.0.6*%
%TF.CreationDate,2026-04-15T10:22:53-05:00*%
%TF.ProjectId,Chimborazo Stratos-1,4368696d-626f-4726-917a-6f2053747261,rev?*%
%TF.SameCoordinates,Original*%
%TF.FileFunction,Legend,Top*%
%TF.FilePolarity,Positive*%
%FSLAX46Y46*%
G04 Gerber Fmt 4.6, Leading zero omitted, Abs format (unit mm)*
G04 Created by KiCad (PCBNEW 9.0.6) date 2026-04-15 10:22:53*
%MOMM*%
%LPD*%
G01*
G04 APERTURE LIST*
%ADD10C,0.125000*%
%ADD11C,0.250000*%
%ADD12C,0.150000*%
%ADD13C,0.101600*%
%ADD14C,0.120000*%
%ADD15C,0.127000*%
%ADD16C,0.100000*%
%ADD17C,0.504000*%
G04 APERTURE END LIST*
D10*
G36*
X141183570Y-108344557D02*
G01*
X141217772Y-108352771D01*
X141243010Y-108365725D01*
X141252892Y-108373886D01*
X141261054Y-108383118D01*
X141267780Y-108393832D01*
X141272729Y-108405597D01*
X141276152Y-108419524D01*
X141277588Y-108434551D01*
X141276926Y-108452489D01*
X141273961Y-108471594D01*
X141271786Y-108480918D01*
X141259708Y-108513138D01*
X141251586Y-108526859D01*
X141242087Y-108539112D01*
X141230802Y-108550326D01*
X141218077Y-108560080D01*
X141202719Y-108569054D01*
X141185729Y-108576466D01*
X141201169Y-108585093D01*
X141218916Y-108601567D01*
X141225419Y-108611486D01*
X141230304Y-108622564D01*
X141233637Y-108635411D01*
X141235108Y-108649567D01*
X141234558Y-108666300D01*
X141231738Y-108684604D01*
X141226560Y-108704250D01*
X141212456Y-108736153D01*
X141192692Y-108762803D01*
X141167190Y-108784359D01*
X141152112Y-108793215D01*
X141135449Y-108800680D01*
X141116898Y-108806748D01*
X141096664Y-108811215D01*
X141074176Y-108814038D01*
X141049869Y-108815000D01*
X140844491Y-108815000D01*
X140833934Y-108814159D01*
X140820828Y-108808770D01*
X140816469Y-108803967D01*
X140813775Y-108797782D01*
X140812720Y-108788215D01*
X140814144Y-108776501D01*
X140824120Y-108728526D01*
X140903986Y-108728526D01*
X140906277Y-108732055D01*
X140911475Y-108733117D01*
X141068981Y-108733117D01*
X141082322Y-108732490D01*
X141108734Y-108726423D01*
X141119536Y-108721180D01*
X141128895Y-108714527D01*
X141137074Y-108706225D01*
X141143737Y-108696544D01*
X141149249Y-108684613D01*
X141153031Y-108671232D01*
X141154891Y-108655562D01*
X141151926Y-108637171D01*
X141148009Y-108629759D01*
X141142470Y-108623509D01*
X141134531Y-108618003D01*
X141124646Y-108613925D01*
X141110888Y-108611022D01*
X141094565Y-108610049D01*
X140928175Y-108610049D01*
X140904178Y-108725393D01*
X140903986Y-108728526D01*
X140824120Y-108728526D01*
X140863022Y-108541448D01*
X140942432Y-108541448D01*
X141106747Y-108541448D01*
X141119416Y-108540987D01*
X141146676Y-108535703D01*
X141166437Y-108525197D01*
X141174266Y-108517801D01*
X141180663Y-108508983D01*
X141186007Y-108497773D01*
X141189698Y-108484844D01*
X141191525Y-108468019D01*
X141188201Y-108450001D01*
X141184197Y-108442735D01*
X141178557Y-108436518D01*
X141170731Y-108431149D01*
X141160942Y-108427118D01*
X141147752Y-108424315D01*
X141131995Y-108423356D01*
X140975863Y-108423356D01*
X140970394Y-108424545D01*
X140967112Y-108427334D01*
X140965239Y-108431752D01*
X140942432Y-108541448D01*
X140863022Y-108541448D01*
X140896454Y-108380675D01*
X140898560Y-108372652D01*
X140907314Y-108356237D01*
X140913562Y-108350366D01*
X140921080Y-108346077D01*
X140931098Y-108343125D01*
X140942799Y-108342145D01*
X141146131Y-108342145D01*
X141183570Y-108344557D01*
G37*
G36*
X141682519Y-108445704D02*
G01*
X141499581Y-108736109D01*
X141489994Y-108736109D01*
X141478227Y-108734581D01*
X141474953Y-108732051D01*
X141472830Y-108727792D01*
X141471310Y-108720722D01*
X141419591Y-108445704D01*
X141342899Y-108445704D01*
X141399502Y-108756381D01*
X141403497Y-108772641D01*
X141409715Y-108785079D01*
X141415364Y-108791193D01*
X141422595Y-108795867D01*
X141442268Y-108801079D01*
X141457815Y-108801871D01*
X141356454Y-108963499D01*
X141434521Y-108963499D01*
X141759883Y-108445704D01*
X141682519Y-108445704D01*
G37*
G36*
X142238721Y-108342145D02*
G01*
X142213209Y-108343123D01*
X142188811Y-108346061D01*
X142166481Y-108350726D01*
X142145217Y-108357203D01*
X142125636Y-108365221D01*
X142107096Y-108374954D01*
X142089894Y-108386205D01*
X142073735Y-108399125D01*
X142044639Y-108429960D01*
X142019606Y-108468096D01*
X141998752Y-108514472D01*
X141982502Y-108570244D01*
X141980617Y-108578939D01*
X141975216Y-108609716D01*
X141972238Y-108638320D01*
X141971623Y-108663003D01*
X141973066Y-108685811D01*
X141976261Y-108705443D01*
X141981221Y-108723445D01*
X141987529Y-108738991D01*
X141995393Y-108753082D01*
X142004480Y-108765348D01*
X142015000Y-108776254D01*
X142040249Y-108793976D01*
X142072045Y-108806589D01*
X142111810Y-108813729D01*
X142140413Y-108815000D01*
X142319107Y-108815000D01*
X142336265Y-108732415D01*
X142157571Y-108732415D01*
X142136117Y-108731428D01*
X142117239Y-108728426D01*
X142102906Y-108724136D01*
X142090467Y-108718241D01*
X142080782Y-108711455D01*
X142072626Y-108703278D01*
X142061087Y-108683305D01*
X142055002Y-108656578D01*
X142055106Y-108620110D01*
X142061431Y-108578939D01*
X142068361Y-108550457D01*
X142076685Y-108525116D01*
X142085346Y-108505090D01*
X142095220Y-108487440D01*
X142105414Y-108473256D01*
X142116714Y-108460987D01*
X142128573Y-108451015D01*
X142141509Y-108442709D01*
X142170694Y-108430947D01*
X142206129Y-108425244D01*
X142221532Y-108424760D01*
X142400226Y-108424760D01*
X142417415Y-108342145D01*
X142238721Y-108342145D01*
G37*
G36*
X142735356Y-108446753D02*
G01*
X142767743Y-108453565D01*
X142793434Y-108465980D01*
X142813453Y-108483834D01*
X142821554Y-108495071D01*
X142828208Y-108507776D01*
X142833572Y-108522624D01*
X142837269Y-108539087D01*
X142839317Y-108558320D01*
X142839384Y-108579386D01*
X142837221Y-108603822D01*
X142832689Y-108630352D01*
X142831413Y-108636268D01*
X142816841Y-108684877D01*
X142797460Y-108724770D01*
X142773820Y-108756823D01*
X142760476Y-108770144D01*
X142746153Y-108781720D01*
X142730726Y-108791656D01*
X142714398Y-108799824D01*
X142696763Y-108806373D01*
X142678287Y-108811078D01*
X142658291Y-108814021D01*
X142637508Y-108815000D01*
X142561518Y-108815000D01*
X142540510Y-108813971D01*
X142507994Y-108807209D01*
X142482273Y-108794870D01*
X142462264Y-108777110D01*
X142454168Y-108765917D01*
X142447522Y-108753258D01*
X142442158Y-108738432D01*
X142438465Y-108721986D01*
X142436418Y-108702720D01*
X142436355Y-108681607D01*
X142437950Y-108663623D01*
X142511399Y-108663623D01*
X142512118Y-108693387D01*
X142518675Y-108714121D01*
X142524041Y-108722206D01*
X142530832Y-108728902D01*
X142539916Y-108734684D01*
X142550743Y-108738899D01*
X142565813Y-108741927D01*
X142583378Y-108742917D01*
X142645660Y-108742917D01*
X142658525Y-108742415D01*
X142686806Y-108736740D01*
X142709819Y-108724863D01*
X142720082Y-108716141D01*
X142729292Y-108705579D01*
X142738184Y-108691890D01*
X142745913Y-108675870D01*
X142753352Y-108654720D01*
X142759416Y-108630352D01*
X142764388Y-108596662D01*
X142763523Y-108566904D01*
X142756815Y-108546045D01*
X142751377Y-108537901D01*
X142744523Y-108531153D01*
X142735431Y-108525349D01*
X142724633Y-108521119D01*
X142709798Y-108518104D01*
X142692585Y-108517115D01*
X142630303Y-108517115D01*
X142617631Y-108517601D01*
X142589273Y-108523244D01*
X142566230Y-108535098D01*
X142555945Y-108543826D01*
X142546729Y-108554389D01*
X142537796Y-108568145D01*
X142530039Y-108584235D01*
X142522509Y-108605662D01*
X142516364Y-108630352D01*
X142511399Y-108663623D01*
X142437950Y-108663623D01*
X142438534Y-108657040D01*
X142443091Y-108630352D01*
X142444397Y-108624306D01*
X142459006Y-108575580D01*
X142478358Y-108535697D01*
X142501920Y-108503715D01*
X142515211Y-108490439D01*
X142529487Y-108478901D01*
X142544872Y-108468998D01*
X142561171Y-108460856D01*
X142578806Y-108454322D01*
X142597308Y-108449625D01*
X142617391Y-108446683D01*
X142638302Y-108445704D01*
X142714292Y-108445704D01*
X142735356Y-108446753D01*
G37*
G36*
X143107737Y-108445704D02*
G01*
X143086826Y-108446683D01*
X143066743Y-108449625D01*
X143048241Y-108454322D01*
X143030606Y-108460856D01*
X143014306Y-108468998D01*
X142998922Y-108478901D01*
X142984646Y-108490439D01*
X142971355Y-108503715D01*
X142947793Y-108535697D01*
X142928441Y-108575580D01*
X142913832Y-108624306D01*
X142912526Y-108630352D01*
X142907969Y-108657040D01*
X142905790Y-108681607D01*
X142905852Y-108702720D01*
X142907900Y-108721986D01*
X142911593Y-108738432D01*
X142916956Y-108753258D01*
X142923602Y-108765917D01*
X142931698Y-108777110D01*
X142951708Y-108794870D01*
X142977429Y-108807209D01*
X143009945Y-108813971D01*
X143030953Y-108815000D01*
X143217188Y-108815000D01*
X143232178Y-108742917D01*
X143052813Y-108742917D01*
X143035248Y-108741927D01*
X143020178Y-108738899D01*
X143009350Y-108734684D01*
X143000267Y-108728902D01*
X142993476Y-108722206D01*
X142988110Y-108714121D01*
X142981553Y-108693387D01*
X142980833Y-108663623D01*
X142985799Y-108630352D01*
X142991944Y-108605662D01*
X142999473Y-108584235D01*
X143007231Y-108568145D01*
X143016164Y-108554389D01*
X143025380Y-108543826D01*
X143035665Y-108535098D01*
X143058708Y-108523244D01*
X143087066Y-108517601D01*
X143099738Y-108517115D01*
X143279104Y-108517115D01*
X143293972Y-108445704D01*
X143107737Y-108445704D01*
G37*
G36*
X143625865Y-108446753D02*
G01*
X143658252Y-108453565D01*
X143683944Y-108465980D01*
X143703962Y-108483834D01*
X143712063Y-108495071D01*
X143718717Y-108507776D01*
X143724082Y-108522624D01*
X143727779Y-108539087D01*
X143729826Y-108558320D01*
X143729894Y-108579386D01*
X143727730Y-108603822D01*
X143723198Y-108630352D01*
X143721922Y-108636268D01*
X143707350Y-108684877D01*
X143687970Y-108724770D01*
X143664329Y-108756823D01*
X143650986Y-108770144D01*
X143636663Y-108781720D01*
X143621236Y-108791656D01*
X143604907Y-108799824D01*
X143587273Y-108806373D01*
X143568796Y-108811078D01*
X143548801Y-108814021D01*
X143528018Y-108815000D01*
X143452028Y-108815000D01*
X143431019Y-108813971D01*
X143398504Y-108807209D01*
X143372782Y-108794870D01*
X143352773Y-108777110D01*
X143344677Y-108765917D01*
X143338031Y-108753258D01*
X143332667Y-108738432D01*
X143328974Y-108721986D01*
X143326927Y-108702720D01*
X143326865Y-108681607D01*
X143328460Y-108663623D01*
X143401908Y-108663623D01*
X143402628Y-108693387D01*
X143409184Y-108714121D01*
X143414551Y-108722206D01*
X143421342Y-108728902D01*
X143430425Y-108734684D01*
X143441252Y-108738899D01*
X143456323Y-108741927D01*
X143473887Y-108742917D01*
X143536169Y-108742917D01*
X143549034Y-108742415D01*
X143577315Y-108736740D01*
X143600328Y-108724863D01*
X143610591Y-108716141D01*
X143619801Y-108705579D01*
X143628694Y-108691890D01*
X143636423Y-108675870D01*
X143643861Y-108654720D01*
X143649925Y-108630352D01*
X143654897Y-108596662D01*
X143654032Y-108566904D01*
X143647324Y-108546045D01*
X143641886Y-108537901D01*
X143635033Y-108531153D01*
X143625940Y-108525349D01*
X143615143Y-108521119D01*
X143600307Y-108518104D01*
X143583094Y-108517115D01*
X143520812Y-108517115D01*
X143508141Y-108517601D01*
X143479783Y-108523244D01*
X143456739Y-108535098D01*
X143446455Y-108543826D01*
X143437239Y-108554389D01*
X143428306Y-108568145D01*
X143420548Y-108584235D01*
X143413019Y-108605662D01*
X143406873Y-108630352D01*
X143401908Y-108663623D01*
X143328460Y-108663623D01*
X143329044Y-108657040D01*
X143333600Y-108630352D01*
X143334906Y-108624306D01*
X143349515Y-108575580D01*
X143368867Y-108535697D01*
X143392429Y-108503715D01*
X143405721Y-108490439D01*
X143419997Y-108478901D01*
X143435381Y-108468998D01*
X143451681Y-108460856D01*
X143469315Y-108454322D01*
X143487817Y-108449625D01*
X143507900Y-108446683D01*
X143528811Y-108445704D01*
X143604801Y-108445704D01*
X143625865Y-108446753D01*
G37*
G36*
X143822269Y-108445704D02*
G01*
X143807401Y-108517115D01*
X143856707Y-108517115D01*
X143821262Y-108687688D01*
X143816567Y-108715136D01*
X143814735Y-108738725D01*
X143815409Y-108755589D01*
X143818093Y-108770054D01*
X143822097Y-108780838D01*
X143827655Y-108789971D01*
X143842420Y-108803023D01*
X143863817Y-108811308D01*
X143895516Y-108814928D01*
X143901587Y-108815000D01*
X143966647Y-108815000D01*
X143980752Y-108747131D01*
X143930774Y-108747131D01*
X143916675Y-108746106D01*
X143905703Y-108742845D01*
X143899581Y-108738841D01*
X143895103Y-108733352D01*
X143891055Y-108718596D01*
X143893649Y-108691901D01*
X143929980Y-108517115D01*
X144029937Y-108517115D01*
X144044805Y-108445704D01*
X143944849Y-108445704D01*
X143963014Y-108358235D01*
X143889741Y-108358235D01*
X143871576Y-108445704D01*
X143822269Y-108445704D01*
G37*
G36*
X144218126Y-108445704D02*
G01*
X144198166Y-108446688D01*
X144180277Y-108449665D01*
X144165904Y-108454063D01*
X144153030Y-108460125D01*
X144142132Y-108467438D01*
X144132441Y-108476298D01*
X144116248Y-108499063D01*
X144103413Y-108530931D01*
X144097775Y-108553476D01*
X144043401Y-108815000D01*
X144115971Y-108815000D01*
X144168025Y-108564681D01*
X144171844Y-108551163D01*
X144177252Y-108539944D01*
X144183272Y-108532073D01*
X144190590Y-108525880D01*
X144208418Y-108518635D01*
X144224476Y-108517115D01*
X144351818Y-108517115D01*
X144366687Y-108445704D01*
X144218126Y-108445704D01*
G37*
G36*
X144444661Y-108446071D02*
G01*
X144367969Y-108815000D01*
X144440539Y-108815000D01*
X144517232Y-108446071D01*
X144444661Y-108446071D01*
G37*
G36*
X144473604Y-108306852D02*
G01*
X144455713Y-108392948D01*
X144528955Y-108392948D01*
X144546846Y-108306852D01*
X144473604Y-108306852D01*
G37*
G36*
X144658374Y-108285115D02*
G01*
X144548220Y-108815000D01*
X144620791Y-108815000D01*
X144730944Y-108285115D01*
X144658374Y-108285115D01*
G37*
G36*
X145041985Y-108446753D02*
G01*
X145074372Y-108453565D01*
X145100064Y-108465980D01*
X145120082Y-108483834D01*
X145128183Y-108495071D01*
X145134837Y-108507776D01*
X145140202Y-108522624D01*
X145143899Y-108539087D01*
X145145947Y-108558320D01*
X145146014Y-108579386D01*
X145143850Y-108603822D01*
X145139318Y-108630352D01*
X145138043Y-108636268D01*
X145123470Y-108684877D01*
X145104090Y-108724770D01*
X145080449Y-108756823D01*
X145067106Y-108770144D01*
X145052783Y-108781720D01*
X145037356Y-108791656D01*
X145021027Y-108799824D01*
X145003393Y-108806373D01*
X144984916Y-108811078D01*
X144964921Y-108814021D01*
X144944138Y-108815000D01*
X144868148Y-108815000D01*
X144847139Y-108813971D01*
X144814624Y-108807209D01*
X144788902Y-108794870D01*
X144768893Y-108777110D01*
X144760797Y-108765917D01*
X144754151Y-108753258D01*
X144748787Y-108738432D01*
X144745094Y-108721986D01*
X144743047Y-108702720D01*
X144742985Y-108681607D01*
X144744580Y-108663623D01*
X144818028Y-108663623D01*
X144818748Y-108693387D01*
X144825304Y-108714121D01*
X144830671Y-108722206D01*
X144837462Y-108728902D01*
X144846545Y-108734684D01*
X144857372Y-108738899D01*
X144872443Y-108741927D01*
X144890007Y-108742917D01*
X144952289Y-108742917D01*
X144965154Y-108742415D01*
X144993435Y-108736740D01*
X145016448Y-108724863D01*
X145026711Y-108716141D01*
X145035921Y-108705579D01*
X145044814Y-108691890D01*
X145052543Y-108675870D01*
X145059981Y-108654720D01*
X145066045Y-108630352D01*
X145071017Y-108596662D01*
X145070152Y-108566904D01*
X145063444Y-108546045D01*
X145058006Y-108537901D01*
X145051153Y-108531153D01*
X145042060Y-108525349D01*
X145031263Y-108521119D01*
X145016427Y-108518104D01*
X144999214Y-108517115D01*
X144936933Y-108517115D01*
X144924261Y-108517601D01*
X144895903Y-108523244D01*
X144872859Y-108535098D01*
X144862575Y-108543826D01*
X144853359Y-108554389D01*
X144844426Y-108568145D01*
X144836668Y-108584235D01*
X144829139Y-108605662D01*
X144822993Y-108630352D01*
X144818028Y-108663623D01*
X144744580Y-108663623D01*
X144745164Y-108657040D01*
X144749720Y-108630352D01*
X144751026Y-108624306D01*
X144765635Y-108575580D01*
X144784987Y-108535697D01*
X144808549Y-108503715D01*
X144821841Y-108490439D01*
X144836117Y-108478901D01*
X144851501Y-108468998D01*
X144867801Y-108460856D01*
X144885435Y-108454322D01*
X144903937Y-108449625D01*
X144924021Y-108446683D01*
X144944931Y-108445704D01*
X145020922Y-108445704D01*
X145041985Y-108446753D01*
G37*
G36*
X145405909Y-108557079D02*
G01*
X145391072Y-108628490D01*
X145635528Y-108628490D01*
X145650366Y-108557079D01*
X145405909Y-108557079D01*
G37*
G36*
X146086248Y-108342145D02*
G01*
X146063879Y-108343107D01*
X146043169Y-108345930D01*
X146024465Y-108350409D01*
X146007287Y-108356498D01*
X145991708Y-108364051D01*
X145977573Y-108373021D01*
X145953243Y-108395175D01*
X145933892Y-108423099D01*
X145919590Y-108457218D01*
X145914148Y-108478341D01*
X145910771Y-108499774D01*
X145909934Y-108520956D01*
X145911451Y-108537042D01*
X145915202Y-108552356D01*
X145920339Y-108564510D01*
X145927465Y-108575752D01*
X145935795Y-108585020D01*
X145946041Y-108593280D01*
X145957890Y-108600190D01*
X145971773Y-108605934D01*
X146006587Y-108613529D01*
X146037674Y-108615239D01*
X146145141Y-108615239D01*
X146161961Y-108616185D01*
X146175729Y-108618894D01*
X146185935Y-108622799D01*
X146193916Y-108627898D01*
X146199677Y-108633807D01*
X146203700Y-108640553D01*
X146207227Y-108657088D01*
X146205560Y-108673827D01*
X146201899Y-108686586D01*
X146196433Y-108698168D01*
X146189718Y-108707715D01*
X146181418Y-108715928D01*
X146172049Y-108722360D01*
X146161226Y-108727317D01*
X146149115Y-108730635D01*
X146135569Y-108732264D01*
X146129692Y-108732415D01*
X145869513Y-108732415D01*
X145852355Y-108815000D01*
X146109817Y-108815000D01*
X146132516Y-108814038D01*
X146153537Y-108811217D01*
X146172544Y-108806738D01*
X146190007Y-108800651D01*
X146205858Y-108793099D01*
X146220248Y-108784135D01*
X146245048Y-108762015D01*
X146264824Y-108734185D01*
X146279532Y-108700257D01*
X146285764Y-108676636D01*
X146289181Y-108655017D01*
X146290058Y-108633687D01*
X146288576Y-108617463D01*
X146284862Y-108602017D01*
X146279753Y-108589728D01*
X146272655Y-108578348D01*
X146264347Y-108568943D01*
X146254124Y-108560537D01*
X146242300Y-108553476D01*
X146228445Y-108547569D01*
X146193715Y-108539595D01*
X146159276Y-108537540D01*
X146051077Y-108537540D01*
X146034992Y-108536596D01*
X146021898Y-108533901D01*
X146012228Y-108530015D01*
X146004732Y-108524958D01*
X145995655Y-108512358D01*
X145992690Y-108495773D01*
X145994321Y-108481150D01*
X145997990Y-108468382D01*
X146003462Y-108456873D01*
X146010101Y-108447580D01*
X146018308Y-108439662D01*
X146027531Y-108433578D01*
X146038195Y-108428986D01*
X146050175Y-108426037D01*
X146063602Y-108424794D01*
X146066311Y-108424760D01*
X146303227Y-108424760D01*
X146320416Y-108342145D01*
X146086248Y-108342145D01*
G37*
G36*
X146398756Y-108342145D02*
G01*
X146381568Y-108424760D01*
X146516482Y-108424760D01*
X146435362Y-108815000D01*
X146516848Y-108815000D01*
X146597967Y-108424760D01*
X146732820Y-108424760D01*
X146750008Y-108342145D01*
X146398756Y-108342145D01*
G37*
G36*
X146959355Y-108435141D02*
G01*
X146965400Y-108427482D01*
X146972157Y-108422369D01*
X146985977Y-108419051D01*
X146993571Y-108420053D01*
X146999353Y-108423157D01*
X147004841Y-108433188D01*
X147005211Y-108435141D01*
X147066639Y-108815000D01*
X147156306Y-108815000D01*
X147087460Y-108395238D01*
X147084154Y-108381163D01*
X147079228Y-108369136D01*
X147073304Y-108359841D01*
X147066034Y-108352110D01*
X147047754Y-108341162D01*
X147022391Y-108335253D01*
X147004265Y-108334330D01*
X146984755Y-108335335D01*
X146966747Y-108338462D01*
X146952194Y-108343060D01*
X146938672Y-108349515D01*
X146926815Y-108357407D01*
X146915785Y-108367147D01*
X146895878Y-108392781D01*
X146894386Y-108395238D01*
X146644831Y-108815000D01*
X146733858Y-108815000D01*
X146959355Y-108435141D01*
G37*
G36*
X147457427Y-108342145D02*
G01*
X147435058Y-108343107D01*
X147414349Y-108345930D01*
X147395644Y-108350409D01*
X147378466Y-108356498D01*
X147362887Y-108364051D01*
X147348752Y-108373021D01*
X147324422Y-108395175D01*
X147305071Y-108423099D01*
X147290770Y-108457218D01*
X147285327Y-108478341D01*
X147281951Y-108499774D01*
X147281113Y-108520956D01*
X147282630Y-108537042D01*
X147286382Y-108552356D01*
X147291519Y-108564510D01*
X147298644Y-108575752D01*
X147306975Y-108585020D01*
X147317220Y-108593280D01*
X147329069Y-108600190D01*
X147342952Y-108605934D01*
X147377766Y-108613529D01*
X147408853Y-108615239D01*
X147516320Y-108615239D01*
X147533140Y-108616185D01*
X147546908Y-108618894D01*
X147557114Y-108622799D01*
X147565095Y-108627898D01*
X147570856Y-108633807D01*
X147574880Y-108640553D01*
X147578407Y-108657088D01*
X147576740Y-108673827D01*
X147573079Y-108686586D01*
X147567612Y-108698168D01*
X147560897Y-108707715D01*
X147552597Y-108715928D01*
X147543228Y-108722360D01*
X147532406Y-108727317D01*
X147520294Y-108730635D01*
X147506748Y-108732264D01*
X147500872Y-108732415D01*
X147240692Y-108732415D01*
X147223534Y-108815000D01*
X147480997Y-108815000D01*
X147503695Y-108814038D01*
X147524717Y-108811217D01*
X147543724Y-108806738D01*
X147561186Y-108800651D01*
X147577037Y-108793099D01*
X147591428Y-108784135D01*
X147616228Y-108762015D01*
X147636004Y-108734185D01*
X147650711Y-108700257D01*
X147656943Y-108676636D01*
X147660360Y-108655017D01*
X147661238Y-108633687D01*
X147659755Y-108617463D01*
X147656042Y-108602017D01*
X147650932Y-108589728D01*
X147643835Y-108578348D01*
X147635526Y-108568943D01*
X147625303Y-108560537D01*
X147613479Y-108553476D01*
X147599624Y-108547569D01*
X147564894Y-108539595D01*
X147530456Y-108537540D01*
X147422256Y-108537540D01*
X147406172Y-108536596D01*
X147393078Y-108533901D01*
X147383408Y-108530015D01*
X147375911Y-108524958D01*
X147366834Y-108512358D01*
X147363870Y-108495773D01*
X147365500Y-108481150D01*
X147369169Y-108468382D01*
X147374642Y-108456873D01*
X147381280Y-108447580D01*
X147389487Y-108439662D01*
X147398710Y-108433578D01*
X147409374Y-108428986D01*
X147421355Y-108426037D01*
X147434781Y-108424794D01*
X147437491Y-108424760D01*
X147674406Y-108424760D01*
X147691595Y-108342145D01*
X147457427Y-108342145D01*
G37*
G36*
X147826783Y-108342145D02*
G01*
X147728476Y-108815000D01*
X147809259Y-108815000D01*
X147907567Y-108342145D01*
X147826783Y-108342145D01*
G37*
G36*
X148145703Y-108342145D02*
G01*
X148123335Y-108343107D01*
X148102625Y-108345930D01*
X148083920Y-108350409D01*
X148066742Y-108356498D01*
X148051164Y-108364051D01*
X148037029Y-108373021D01*
X148012698Y-108395175D01*
X147993348Y-108423099D01*
X147979046Y-108457218D01*
X147973604Y-108478341D01*
X147970227Y-108499774D01*
X147969390Y-108520956D01*
X147970907Y-108537042D01*
X147974658Y-108552356D01*
X147979795Y-108564510D01*
X147986921Y-108575752D01*
X147995251Y-108585020D01*
X148005496Y-108593280D01*
X148017346Y-108600190D01*
X148031228Y-108605934D01*
X148066043Y-108613529D01*
X148097130Y-108615239D01*
X148204596Y-108615239D01*
X148221417Y-108616185D01*
X148235185Y-108618894D01*
X148245391Y-108622799D01*
X148253372Y-108627898D01*
X148259133Y-108633807D01*
X148263156Y-108640553D01*
X148266683Y-108657088D01*
X148265016Y-108673827D01*
X148261355Y-108686586D01*
X148255888Y-108698168D01*
X148249174Y-108707715D01*
X148240874Y-108715928D01*
X148231504Y-108722360D01*
X148220682Y-108727317D01*
X148208570Y-108730635D01*
X148195025Y-108732264D01*
X148189148Y-108732415D01*
X147928968Y-108732415D01*
X147911810Y-108815000D01*
X148169273Y-108815000D01*
X148191972Y-108814038D01*
X148212993Y-108811217D01*
X148232000Y-108806738D01*
X148249463Y-108800651D01*
X148265313Y-108793099D01*
X148279704Y-108784135D01*
X148304504Y-108762015D01*
X148324280Y-108734185D01*
X148338988Y-108700257D01*
X148345219Y-108676636D01*
X148348636Y-108655017D01*
X148349514Y-108633687D01*
X148348031Y-108617463D01*
X148344318Y-108602017D01*
X148339208Y-108589728D01*
X148332111Y-108578348D01*
X148323802Y-108568943D01*
X148313579Y-108560537D01*
X148301755Y-108553476D01*
X148287900Y-108547569D01*
X148253170Y-108539595D01*
X148218732Y-108537540D01*
X148110532Y-108537540D01*
X148094448Y-108536596D01*
X148081354Y-108533901D01*
X148071684Y-108530015D01*
X148064187Y-108524958D01*
X148055111Y-108512358D01*
X148052146Y-108495773D01*
X148053777Y-108481150D01*
X148057446Y-108468382D01*
X148062918Y-108456873D01*
X148069557Y-108447580D01*
X148077764Y-108439662D01*
X148086986Y-108433578D01*
X148097651Y-108428986D01*
X148109631Y-108426037D01*
X148123058Y-108424794D01*
X148125767Y-108424760D01*
X148362683Y-108424760D01*
X148379871Y-108342145D01*
X148145703Y-108342145D01*
G37*
G36*
X148701661Y-108342145D02*
G01*
X148603353Y-108815000D01*
X148684137Y-108815000D01*
X148725170Y-108617651D01*
X148961383Y-108617651D01*
X148920350Y-108815000D01*
X149001836Y-108815000D01*
X149100143Y-108342145D01*
X149018658Y-108342145D01*
X148978541Y-108535067D01*
X148742328Y-108535067D01*
X148782445Y-108342145D01*
X148701661Y-108342145D01*
G37*
G36*
X149442182Y-108446117D02*
G01*
X149474981Y-108451582D01*
X149499251Y-108462426D01*
X149508859Y-108469780D01*
X149516782Y-108478299D01*
X149523432Y-108488571D01*
X149528307Y-108499992D01*
X149531732Y-108513962D01*
X149533135Y-108529122D01*
X149532396Y-108547647D01*
X149529309Y-108567368D01*
X149493252Y-108740811D01*
X149487325Y-108763735D01*
X149476930Y-108786262D01*
X149462860Y-108801115D01*
X149453034Y-108806784D01*
X149441341Y-108810917D01*
X149424069Y-108814001D01*
X149403218Y-108815000D01*
X149234111Y-108815000D01*
X149226085Y-108814869D01*
X149191489Y-108810462D01*
X149166617Y-108800857D01*
X149157017Y-108794309D01*
X149149066Y-108786598D01*
X149142481Y-108777345D01*
X149137603Y-108766906D01*
X149134138Y-108754010D01*
X149132646Y-108739764D01*
X149133279Y-108721861D01*
X149134007Y-108717191D01*
X149207452Y-108717191D01*
X149212880Y-108730175D01*
X149218292Y-108735293D01*
X149225592Y-108739166D01*
X149236328Y-108741960D01*
X149249773Y-108742917D01*
X149401783Y-108742917D01*
X149406741Y-108742659D01*
X149418188Y-108738318D01*
X149422753Y-108732477D01*
X149425566Y-108724019D01*
X149439946Y-108654776D01*
X149269465Y-108654776D01*
X149251100Y-108656253D01*
X149231205Y-108663208D01*
X149223462Y-108668945D01*
X149217329Y-108676047D01*
X149211925Y-108686231D01*
X149208404Y-108698160D01*
X149207452Y-108717191D01*
X149134007Y-108717191D01*
X149136322Y-108702342D01*
X149144704Y-108673520D01*
X149158887Y-108646593D01*
X149177972Y-108625767D01*
X149189759Y-108617269D01*
X149203101Y-108610143D01*
X149218765Y-108604205D01*
X149236278Y-108599845D01*
X149257141Y-108596974D01*
X149280303Y-108596005D01*
X149452158Y-108596005D01*
X149457990Y-108568070D01*
X149459065Y-108561448D01*
X149458117Y-108543257D01*
X149451057Y-108529945D01*
X149444950Y-108524751D01*
X149437022Y-108520796D01*
X149426254Y-108518063D01*
X149413110Y-108517115D01*
X149196711Y-108517115D01*
X149211579Y-108445704D01*
X149428650Y-108445704D01*
X149442182Y-108446117D01*
G37*
G36*
X149807318Y-108445704D02*
G01*
X149786407Y-108446683D01*
X149766324Y-108449625D01*
X149747822Y-108454322D01*
X149730188Y-108460856D01*
X149713888Y-108468998D01*
X149698503Y-108478901D01*
X149684227Y-108490439D01*
X149670936Y-108503715D01*
X149647374Y-108535697D01*
X149628022Y-108575580D01*
X149613413Y-108624306D01*
X149612107Y-108630352D01*
X149607551Y-108657040D01*
X149605372Y-108681607D01*
X149605434Y-108702720D01*
X149607481Y-108721986D01*
X149611174Y-108738432D01*
X149616538Y-108753258D01*
X149623184Y-108765917D01*
X149631280Y-108777110D01*
X149651289Y-108794870D01*
X149677010Y-108807209D01*
X149709526Y-108813971D01*
X149730534Y-108815000D01*
X149916769Y-108815000D01*
X149931760Y-108742917D01*
X149752394Y-108742917D01*
X149734829Y-108741927D01*
X149719759Y-108738899D01*
X149708932Y-108734684D01*
X149699848Y-108728902D01*
X149693057Y-108722206D01*
X149687691Y-108714121D01*
X149681135Y-108693387D01*
X149680415Y-108663623D01*
X149685380Y-108630352D01*
X149691525Y-108605662D01*
X149699055Y-108584235D01*
X149706812Y-108568145D01*
X149715745Y-108554389D01*
X149724961Y-108543826D01*
X149735246Y-108535098D01*
X149758289Y-108523244D01*
X149786647Y-108517601D01*
X149799319Y-108517115D01*
X149978685Y-108517115D01*
X149993553Y-108445704D01*
X149807318Y-108445704D01*
G37*
G36*
X150122178Y-108284748D02*
G01*
X150011933Y-108815000D01*
X150084503Y-108815000D01*
X150116591Y-108660638D01*
X150150143Y-108660638D01*
X150186282Y-108661919D01*
X150210332Y-108666974D01*
X150218695Y-108671322D01*
X150225461Y-108677189D01*
X150235625Y-108693845D01*
X150240086Y-108705548D01*
X150277577Y-108815000D01*
X150359063Y-108815000D01*
X150318213Y-108698557D01*
X150306759Y-108670612D01*
X150293304Y-108649197D01*
X150284824Y-108640633D01*
X150274865Y-108633698D01*
X150259167Y-108627055D01*
X150274769Y-108619871D01*
X150288903Y-108611186D01*
X150314490Y-108588690D01*
X150337172Y-108561262D01*
X150424337Y-108445063D01*
X150345599Y-108445063D01*
X150262190Y-108556346D01*
X150246117Y-108575791D01*
X150231153Y-108588095D01*
X150211019Y-108595598D01*
X150179704Y-108598226D01*
X150163088Y-108598356D01*
X150129535Y-108598356D01*
X150194748Y-108284748D01*
X150122178Y-108284748D01*
G37*
G36*
X150727137Y-108342145D02*
G01*
X150701625Y-108343123D01*
X150677227Y-108346061D01*
X150654897Y-108350726D01*
X150633633Y-108357203D01*
X150614052Y-108365221D01*
X150595512Y-108374954D01*
X150578310Y-108386205D01*
X150562151Y-108399125D01*
X150533055Y-108429960D01*
X150508022Y-108468096D01*
X150487167Y-108514472D01*
X150470917Y-108570244D01*
X150469033Y-108578939D01*
X150463632Y-108609716D01*
X150460654Y-108638320D01*
X150460039Y-108663003D01*
X150461482Y-108685811D01*
X150464676Y-108705443D01*
X150469636Y-108723445D01*
X150475945Y-108738991D01*
X150483809Y-108753082D01*
X150492896Y-108765348D01*
X150503416Y-108776254D01*
X150528665Y-108793976D01*
X150560461Y-108806589D01*
X150600226Y-108813729D01*
X150628829Y-108815000D01*
X150807523Y-108815000D01*
X150824681Y-108732415D01*
X150645987Y-108732415D01*
X150624533Y-108731428D01*
X150605655Y-108728426D01*
X150591322Y-108724136D01*
X150578883Y-108718241D01*
X150569198Y-108711455D01*
X150561042Y-108703278D01*
X150549503Y-108683305D01*
X150543418Y-108656578D01*
X150543522Y-108620110D01*
X150549847Y-108578939D01*
X150556777Y-108550457D01*
X150565101Y-108525116D01*
X150573762Y-108505090D01*
X150583636Y-108487440D01*
X150593830Y-108473256D01*
X150605129Y-108460987D01*
X150616989Y-108451015D01*
X150629925Y-108442709D01*
X150659110Y-108430947D01*
X150694545Y-108425244D01*
X150709948Y-108424760D01*
X150888642Y-108424760D01*
X150905831Y-108342145D01*
X150727137Y-108342145D01*
G37*
G36*
X151020411Y-108285115D02*
G01*
X150910258Y-108815000D01*
X150982828Y-108815000D01*
X151092982Y-108285115D01*
X151020411Y-108285115D01*
G37*
G36*
X151165278Y-108445430D02*
G01*
X151118688Y-108669431D01*
X151115587Y-108689159D01*
X151114688Y-108707841D01*
X151115854Y-108724301D01*
X151118971Y-108739669D01*
X151123699Y-108753064D01*
X151130173Y-108765344D01*
X151138048Y-108776031D01*
X151147550Y-108785561D01*
X151171204Y-108800777D01*
X151201959Y-108810853D01*
X151241038Y-108814965D01*
X151245267Y-108815000D01*
X151312342Y-108815000D01*
X151334551Y-108814036D01*
X151355516Y-108811203D01*
X151375054Y-108806628D01*
X151393320Y-108800378D01*
X151410253Y-108792551D01*
X151425870Y-108783219D01*
X151453198Y-108760209D01*
X151475164Y-108731657D01*
X151491398Y-108697808D01*
X151499402Y-108669431D01*
X151545991Y-108445430D01*
X151474795Y-108445430D01*
X151428785Y-108666622D01*
X151425062Y-108679774D01*
X151419543Y-108692097D01*
X151412367Y-108703335D01*
X151403547Y-108713466D01*
X151393287Y-108722236D01*
X151381538Y-108729645D01*
X151368516Y-108735494D01*
X151354146Y-108739741D01*
X151324585Y-108742917D01*
X151265723Y-108742917D01*
X151249534Y-108741962D01*
X151235300Y-108739186D01*
X151223551Y-108734963D01*
X151213588Y-108729318D01*
X151205670Y-108722627D01*
X151199424Y-108714821D01*
X151191975Y-108696300D01*
X151191364Y-108673652D01*
X151192541Y-108666622D01*
X151238551Y-108445430D01*
X151165278Y-108445430D01*
G37*
G36*
X151730792Y-108445704D02*
G01*
X151890984Y-108445704D01*
X151911584Y-108446707D01*
X151943972Y-108453435D01*
X151969626Y-108465763D01*
X151989602Y-108483534D01*
X151997687Y-108494741D01*
X152004325Y-108507417D01*
X152009679Y-108522260D01*
X152013365Y-108538726D01*
X152015403Y-108558003D01*
X152015456Y-108579126D01*
X152013270Y-108603681D01*
X152008709Y-108630352D01*
X152007495Y-108635995D01*
X151992929Y-108684820D01*
X151973603Y-108724807D01*
X151950064Y-108756877D01*
X151936788Y-108770188D01*
X151922534Y-108781755D01*
X151907184Y-108791678D01*
X151890928Y-108799835D01*
X151873360Y-108806377D01*
X151854940Y-108811078D01*
X151834973Y-108814021D01*
X151814200Y-108815000D01*
X151714275Y-108815000D01*
X151682352Y-108812248D01*
X151655453Y-108803708D01*
X151635103Y-108789930D01*
X151626913Y-108780853D01*
X151620170Y-108770364D01*
X151614604Y-108757670D01*
X151610693Y-108743371D01*
X151608324Y-108725915D01*
X151607956Y-108706532D01*
X151608879Y-108695255D01*
X151683711Y-108695255D01*
X151688349Y-108715146D01*
X151692806Y-108722826D01*
X151698753Y-108729213D01*
X151707107Y-108734805D01*
X151717384Y-108738903D01*
X151732443Y-108741927D01*
X151750484Y-108742917D01*
X151821680Y-108742917D01*
X151834340Y-108742442D01*
X151862788Y-108736859D01*
X151885799Y-108725125D01*
X151896044Y-108716484D01*
X151905222Y-108706013D01*
X151914114Y-108692361D01*
X151921836Y-108676367D01*
X151929340Y-108655010D01*
X151935467Y-108630352D01*
X151940500Y-108596416D01*
X151939689Y-108566691D01*
X151933054Y-108545929D01*
X151927655Y-108537831D01*
X151920833Y-108531118D01*
X151911750Y-108525336D01*
X151900936Y-108521119D01*
X151885995Y-108518104D01*
X151868606Y-108517115D01*
X151715923Y-108517115D01*
X151687591Y-108653433D01*
X151685338Y-108665826D01*
X151683711Y-108695255D01*
X151608879Y-108695255D01*
X151609888Y-108682919D01*
X151614288Y-108656944D01*
X151691530Y-108285420D01*
X151764100Y-108285420D01*
X151730792Y-108445704D01*
G37*
D11*
G36*
X141158696Y-106980383D02*
G01*
X141106980Y-106982339D01*
X141058345Y-106988212D01*
X141015319Y-106997355D01*
X140975128Y-107010004D01*
X140939475Y-107025342D01*
X140906478Y-107043882D01*
X140877050Y-107064930D01*
X140850192Y-107089003D01*
X140804718Y-107145634D01*
X140769390Y-107215062D01*
X140744520Y-107299360D01*
X140731346Y-107401131D01*
X140729745Y-107455924D01*
X140731691Y-107516154D01*
X140737498Y-107572259D01*
X140746513Y-107621596D01*
X140758909Y-107667248D01*
X140773827Y-107707320D01*
X140791742Y-107744059D01*
X140811822Y-107776332D01*
X140834625Y-107805515D01*
X140859625Y-107831160D01*
X140887189Y-107853838D01*
X140950071Y-107890397D01*
X141024764Y-107915530D01*
X141113367Y-107928524D01*
X141158696Y-107930000D01*
X141526038Y-107930000D01*
X141526038Y-107760922D01*
X141158696Y-107760922D01*
X141114370Y-107758947D01*
X141074511Y-107752932D01*
X141042885Y-107744138D01*
X141014605Y-107731990D01*
X140991363Y-107717687D01*
X140970866Y-107700365D01*
X140938505Y-107657501D01*
X140915413Y-107600207D01*
X140901771Y-107522877D01*
X140898883Y-107455924D01*
X140900855Y-107399971D01*
X140906840Y-107350136D01*
X140915492Y-107311281D01*
X140927393Y-107276904D01*
X140941050Y-107249518D01*
X140957490Y-107225635D01*
X140975679Y-107206167D01*
X140996460Y-107189696D01*
X141046013Y-107165452D01*
X141110092Y-107151960D01*
X141158696Y-107149521D01*
X141526038Y-107149521D01*
X141526038Y-106980383D01*
X141158696Y-106980383D01*
G37*
G36*
X141710868Y-106866933D02*
G01*
X141710868Y-107930000D01*
X141863154Y-107930000D01*
X141863154Y-107334230D01*
X142121624Y-107334230D01*
X142164757Y-107336165D01*
X142202919Y-107341893D01*
X142233758Y-107350423D01*
X142260558Y-107361983D01*
X142282097Y-107375498D01*
X142300227Y-107391524D01*
X142326065Y-107429780D01*
X142339907Y-107478286D01*
X142342236Y-107512711D01*
X142342236Y-107930000D01*
X142495987Y-107930000D01*
X142495987Y-107512711D01*
X142494033Y-107469807D01*
X142488167Y-107429572D01*
X142479034Y-107394100D01*
X142466407Y-107361165D01*
X142451042Y-107332078D01*
X142432471Y-107305452D01*
X142411200Y-107281851D01*
X142386857Y-107260731D01*
X142328786Y-107226104D01*
X142256462Y-107201753D01*
X142167464Y-107188945D01*
X142121624Y-107187501D01*
X141863154Y-107187501D01*
X141863154Y-106866933D01*
X141710868Y-106866933D01*
G37*
G36*
X142700540Y-107188234D02*
G01*
X142700540Y-107930000D01*
X142852826Y-107930000D01*
X142852826Y-107188234D01*
X142700540Y-107188234D01*
G37*
G36*
X142700540Y-106909797D02*
G01*
X142700540Y-107085896D01*
X142854230Y-107085896D01*
X142854230Y-106909797D01*
X142700540Y-106909797D01*
G37*
G36*
X143166617Y-107187501D02*
G01*
X143135890Y-107189554D01*
X143110856Y-107196104D01*
X143095442Y-107204470D01*
X143083040Y-107216045D01*
X143067459Y-107247351D01*
X143061094Y-107298225D01*
X143061043Y-107304310D01*
X143061043Y-107930000D01*
X143213328Y-107930000D01*
X143213328Y-107353281D01*
X143215416Y-107341353D01*
X143222218Y-107335297D01*
X143229570Y-107334230D01*
X143602834Y-107334230D01*
X143602834Y-107930000D01*
X143756524Y-107930000D01*
X143756524Y-107334230D01*
X143928166Y-107334230D01*
X143972518Y-107336172D01*
X144011541Y-107341951D01*
X144042430Y-107350447D01*
X144069160Y-107361985D01*
X144090339Y-107375369D01*
X144108111Y-107391287D01*
X144133242Y-107429360D01*
X144146645Y-107478272D01*
X144148839Y-107512711D01*
X144148839Y-107930000D01*
X144302529Y-107930000D01*
X144302529Y-107512711D01*
X144300574Y-107469533D01*
X144294705Y-107429106D01*
X144285587Y-107393596D01*
X144272981Y-107360665D01*
X144257662Y-107331650D01*
X144239145Y-107305115D01*
X144217938Y-107281616D01*
X144193664Y-107260600D01*
X144135678Y-107226131D01*
X144063269Y-107201842D01*
X143973853Y-107188993D01*
X143926762Y-107187501D01*
X143166617Y-107187501D01*
G37*
G36*
X144657292Y-107187501D02*
G01*
X144982929Y-107187501D01*
X145016229Y-107188714D01*
X145088770Y-107201236D01*
X145150023Y-107226219D01*
X145201277Y-107263241D01*
X145223480Y-107286560D01*
X145243172Y-107313036D01*
X145260682Y-107343499D01*
X145275366Y-107377311D01*
X145287536Y-107416022D01*
X145296450Y-107458375D01*
X145302174Y-107506558D01*
X145304108Y-107558750D01*
X145302953Y-107599391D01*
X145290673Y-107688674D01*
X145266650Y-107761463D01*
X145232216Y-107820028D01*
X145211159Y-107844608D01*
X145187658Y-107866059D01*
X145161148Y-107884797D01*
X145132252Y-107900276D01*
X145099606Y-107912985D01*
X145064557Y-107922163D01*
X145024968Y-107928043D01*
X144982929Y-107930000D01*
X144778558Y-107930000D01*
X144718167Y-107925512D01*
X144656149Y-107908588D01*
X144605746Y-107879972D01*
X144584130Y-107861001D01*
X144565071Y-107838969D01*
X144547966Y-107812759D01*
X144533683Y-107783212D01*
X144521594Y-107748031D01*
X144512772Y-107709037D01*
X144506954Y-107662714D01*
X144505006Y-107611934D01*
X144505006Y-107604912D01*
X144657292Y-107604912D01*
X144657484Y-107618680D01*
X144665142Y-107681208D01*
X144682399Y-107723859D01*
X144694757Y-107740267D01*
X144709834Y-107753826D01*
X144729429Y-107765426D01*
X144752518Y-107773872D01*
X144784571Y-107779943D01*
X144821973Y-107781927D01*
X144967541Y-107781927D01*
X145004396Y-107779887D01*
X145055380Y-107767312D01*
X145093497Y-107743815D01*
X145109274Y-107726957D01*
X145122398Y-107706779D01*
X145133974Y-107680247D01*
X145142416Y-107649318D01*
X145148441Y-107607269D01*
X145150418Y-107558750D01*
X145147685Y-107502395D01*
X145134696Y-107439093D01*
X145112663Y-107394498D01*
X145098052Y-107377199D01*
X145080911Y-107362947D01*
X145059649Y-107350950D01*
X145035340Y-107342257D01*
X145003552Y-107336210D01*
X144967541Y-107334230D01*
X144657292Y-107334230D01*
X144657292Y-107604912D01*
X144505006Y-107604912D01*
X144505006Y-106866933D01*
X144657292Y-106866933D01*
X144657292Y-107187501D01*
G37*
G36*
X145954300Y-107188786D02*
G01*
X146026889Y-107201481D01*
X146088263Y-107226644D01*
X146139644Y-107263834D01*
X146161892Y-107287213D01*
X146181631Y-107313743D01*
X146199163Y-107344212D01*
X146213869Y-107378014D01*
X146226041Y-107416636D01*
X146234959Y-107458873D01*
X146240678Y-107506828D01*
X146242611Y-107558750D01*
X146241420Y-107599807D01*
X146229032Y-107688732D01*
X146204860Y-107761370D01*
X146170220Y-107819914D01*
X146149032Y-107844516D01*
X146125400Y-107865987D01*
X146098741Y-107884752D01*
X146069704Y-107900252D01*
X146036922Y-107912976D01*
X146001756Y-107922162D01*
X145962099Y-107928043D01*
X145920027Y-107930000D01*
X145764628Y-107930000D01*
X145730498Y-107928742D01*
X145657668Y-107916141D01*
X145596272Y-107891127D01*
X145544961Y-107854124D01*
X145522747Y-107830829D01*
X145503051Y-107804388D01*
X145485538Y-107773957D01*
X145470856Y-107740186D01*
X145458682Y-107701497D01*
X145449768Y-107659167D01*
X145444040Y-107610967D01*
X145442105Y-107558750D01*
X145595795Y-107558750D01*
X145598394Y-107613789D01*
X145611193Y-107677164D01*
X145633035Y-107721698D01*
X145647568Y-107738968D01*
X145664634Y-107753185D01*
X145685896Y-107765183D01*
X145710230Y-107773870D01*
X145742295Y-107779943D01*
X145778672Y-107781927D01*
X145906045Y-107781927D01*
X145943217Y-107779804D01*
X145993885Y-107767045D01*
X146031964Y-107743277D01*
X146047749Y-107726268D01*
X146060900Y-107705920D01*
X146072462Y-107679319D01*
X146080908Y-107648341D01*
X146086889Y-107606701D01*
X146088860Y-107558750D01*
X146086121Y-107502889D01*
X146073020Y-107439542D01*
X146050797Y-107394744D01*
X146036083Y-107377348D01*
X146018858Y-107363022D01*
X145997561Y-107350979D01*
X145973276Y-107342257D01*
X145941699Y-107336210D01*
X145906045Y-107334230D01*
X145778672Y-107334230D01*
X145741736Y-107336321D01*
X145690945Y-107349048D01*
X145652820Y-107372800D01*
X145637007Y-107389834D01*
X145623855Y-107410195D01*
X145612254Y-107436929D01*
X145603797Y-107468044D01*
X145597772Y-107510203D01*
X145595795Y-107558750D01*
X145442105Y-107558750D01*
X145443305Y-107517341D01*
X145455676Y-107428276D01*
X145479766Y-107355688D01*
X145514264Y-107297284D01*
X145535364Y-107272764D01*
X145558917Y-107251362D01*
X145585504Y-107232658D01*
X145614493Y-107217204D01*
X145647277Y-107204507D01*
X145682492Y-107195338D01*
X145722313Y-107189458D01*
X145764628Y-107187501D01*
X145920027Y-107187501D01*
X145954300Y-107188786D01*
G37*
G36*
X146616730Y-107187501D02*
G01*
X146576425Y-107189466D01*
X146541109Y-107195406D01*
X146514022Y-107203965D01*
X146490508Y-107215694D01*
X146471768Y-107229454D01*
X146455882Y-107246019D01*
X146432286Y-107287616D01*
X146418197Y-107345060D01*
X146414558Y-107405000D01*
X146414558Y-107930000D01*
X146566844Y-107930000D01*
X146566844Y-107427409D01*
X146568826Y-107400822D01*
X146574891Y-107378828D01*
X146583165Y-107363972D01*
X146594482Y-107352176D01*
X146624801Y-107337985D01*
X146660144Y-107334230D01*
X146922461Y-107334230D01*
X146922461Y-107187501D01*
X146616730Y-107187501D01*
G37*
G36*
X147558814Y-107187919D02*
G01*
X147631663Y-107198074D01*
X147662164Y-107207728D01*
X147689317Y-107220229D01*
X147713474Y-107235600D01*
X147734396Y-107253537D01*
X147752981Y-107274934D01*
X147768220Y-107298763D01*
X147781095Y-107327123D01*
X147790306Y-107357849D01*
X147796391Y-107394205D01*
X147798377Y-107432782D01*
X147798377Y-107779668D01*
X147794637Y-107834818D01*
X147782063Y-107875348D01*
X147772229Y-107890421D01*
X147759515Y-107902928D01*
X147741799Y-107913857D01*
X147719843Y-107921882D01*
X147685830Y-107928008D01*
X147643832Y-107930000D01*
X147298046Y-107930000D01*
X147289481Y-107929930D01*
X147213470Y-107921914D01*
X147155144Y-107902356D01*
X147131341Y-107888665D01*
X147110700Y-107872415D01*
X147092667Y-107853096D01*
X147077824Y-107831249D01*
X147065317Y-107805013D01*
X147056310Y-107776075D01*
X147050285Y-107740916D01*
X147048307Y-107702732D01*
X147048352Y-107696813D01*
X147048635Y-107694366D01*
X147197784Y-107694366D01*
X147202506Y-107728189D01*
X147218533Y-107755750D01*
X147231690Y-107766399D01*
X147248426Y-107774406D01*
X147271474Y-107780010D01*
X147299450Y-107781927D01*
X147610249Y-107781927D01*
X147619961Y-107781463D01*
X147639977Y-107773982D01*
X147646808Y-107762814D01*
X147648900Y-107746085D01*
X147648900Y-107609553D01*
X147302259Y-107609553D01*
X147261584Y-107613215D01*
X147227285Y-107626859D01*
X147215062Y-107637721D01*
X147206305Y-107651041D01*
X147199826Y-107670955D01*
X147197784Y-107694366D01*
X147048635Y-107694366D01*
X147055697Y-107633254D01*
X147074411Y-107584060D01*
X147104505Y-107545507D01*
X147124753Y-107529422D01*
X147148473Y-107515871D01*
X147177695Y-107504306D01*
X147211164Y-107495775D01*
X147252595Y-107490039D01*
X147299450Y-107488103D01*
X147648900Y-107488103D01*
X147648900Y-107434187D01*
X147648725Y-107426959D01*
X147640483Y-107388786D01*
X147620738Y-107360570D01*
X147606020Y-107349775D01*
X147587868Y-107341602D01*
X147564773Y-107336129D01*
X147537465Y-107334230D01*
X147093065Y-107334230D01*
X147093065Y-107187501D01*
X147538869Y-107187501D01*
X147558814Y-107187919D01*
G37*
G36*
X147996092Y-107187501D02*
G01*
X147996092Y-107334230D01*
X148504849Y-107334230D01*
X148526553Y-107336168D01*
X148542666Y-107341918D01*
X148551855Y-107349371D01*
X148557637Y-107359248D01*
X148560293Y-107375629D01*
X148557999Y-107392106D01*
X148549759Y-107407540D01*
X148539140Y-107417139D01*
X148523734Y-107425012D01*
X148522374Y-107425516D01*
X148096781Y-107577923D01*
X148068760Y-107590079D01*
X148044289Y-107604916D01*
X148023740Y-107621868D01*
X148006534Y-107641050D01*
X147981971Y-107685584D01*
X147970354Y-107738768D01*
X147969530Y-107758724D01*
X147971484Y-107788763D01*
X147977346Y-107816485D01*
X147986371Y-107840144D01*
X147998818Y-107861424D01*
X148013936Y-107879403D01*
X148032188Y-107894898D01*
X148077712Y-107917711D01*
X148137242Y-107929111D01*
X148161871Y-107930000D01*
X148690230Y-107930000D01*
X148690230Y-107783332D01*
X148170298Y-107783332D01*
X148150114Y-107781414D01*
X148134765Y-107775805D01*
X148125355Y-107768238D01*
X148119280Y-107758261D01*
X148116198Y-107740528D01*
X148118132Y-107726261D01*
X148123854Y-107714045D01*
X148145299Y-107695992D01*
X148154117Y-107692046D01*
X148578367Y-107538234D01*
X148606943Y-107525756D01*
X148632463Y-107510121D01*
X148653204Y-107492744D01*
X148670826Y-107472628D01*
X148684479Y-107450958D01*
X148694909Y-107426806D01*
X148701831Y-107400636D01*
X148705262Y-107372058D01*
X148705617Y-107358838D01*
X148703659Y-107328490D01*
X148697766Y-107300505D01*
X148688742Y-107276812D01*
X148676279Y-107255517D01*
X148661196Y-107237630D01*
X148642956Y-107222223D01*
X148597435Y-107199611D01*
X148537626Y-107188354D01*
X148513276Y-107187501D01*
X147996092Y-107187501D01*
G37*
G36*
X149338529Y-107188786D02*
G01*
X149411118Y-107201481D01*
X149472492Y-107226644D01*
X149523873Y-107263834D01*
X149546121Y-107287213D01*
X149565860Y-107313743D01*
X149583391Y-107344212D01*
X149598098Y-107378014D01*
X149610270Y-107416636D01*
X149619188Y-107458873D01*
X149624907Y-107506828D01*
X149626840Y-107558750D01*
X149625649Y-107599807D01*
X149613261Y-107688732D01*
X149589089Y-107761370D01*
X149554449Y-107819914D01*
X149533261Y-107844516D01*
X149509629Y-107865987D01*
X149482970Y-107884752D01*
X149453933Y-107900252D01*
X149421151Y-107912976D01*
X149385985Y-107922162D01*
X149346328Y-107928043D01*
X149304256Y-107930000D01*
X149148857Y-107930000D01*
X149114726Y-107928742D01*
X149041897Y-107916141D01*
X148980501Y-107891127D01*
X148929190Y-107854124D01*
X148906976Y-107830829D01*
X148887280Y-107804388D01*
X148869767Y-107773957D01*
X148855085Y-107740186D01*
X148842911Y-107701497D01*
X148833997Y-107659167D01*
X148828269Y-107610967D01*
X148826334Y-107558750D01*
X148980024Y-107558750D01*
X148982623Y-107613789D01*
X148995421Y-107677164D01*
X149017264Y-107721698D01*
X149031797Y-107738968D01*
X149048863Y-107753185D01*
X149070125Y-107765183D01*
X149094459Y-107773870D01*
X149126524Y-107779943D01*
X149162901Y-107781927D01*
X149290273Y-107781927D01*
X149327446Y-107779804D01*
X149378114Y-107767045D01*
X149416193Y-107743277D01*
X149431978Y-107726268D01*
X149445129Y-107705920D01*
X149456691Y-107679319D01*
X149465137Y-107648341D01*
X149471118Y-107606701D01*
X149473089Y-107558750D01*
X149470350Y-107502889D01*
X149457249Y-107439542D01*
X149435026Y-107394744D01*
X149420312Y-107377348D01*
X149403087Y-107363022D01*
X149381790Y-107350979D01*
X149357505Y-107342257D01*
X149325928Y-107336210D01*
X149290273Y-107334230D01*
X149162901Y-107334230D01*
X149125965Y-107336321D01*
X149075174Y-107349048D01*
X149037049Y-107372800D01*
X149021236Y-107389834D01*
X149008084Y-107410195D01*
X148996483Y-107436929D01*
X148988026Y-107468044D01*
X148982001Y-107510203D01*
X148980024Y-107558750D01*
X148826334Y-107558750D01*
X148827534Y-107517341D01*
X148839905Y-107428276D01*
X148863995Y-107355688D01*
X148898493Y-107297284D01*
X148919593Y-107272764D01*
X148943146Y-107251362D01*
X148969733Y-107232658D01*
X148998722Y-107217204D01*
X149031506Y-107204507D01*
X149066721Y-107195338D01*
X149106542Y-107189458D01*
X149148857Y-107187501D01*
X149304256Y-107187501D01*
X149338529Y-107188786D01*
G37*
G36*
X150434368Y-106980383D02*
G01*
X150389074Y-106982306D01*
X150347917Y-106987950D01*
X150312142Y-106996713D01*
X150280005Y-107008578D01*
X150252102Y-107022966D01*
X150227481Y-107039987D01*
X150187837Y-107081185D01*
X150159642Y-107132487D01*
X150142835Y-107195136D01*
X150138407Y-107254729D01*
X150140515Y-107296581D01*
X150147454Y-107338046D01*
X150157275Y-107370692D01*
X150171382Y-107401827D01*
X150187479Y-107427185D01*
X150207498Y-107450613D01*
X150229614Y-107470114D01*
X150255559Y-107487393D01*
X150284422Y-107501675D01*
X150317297Y-107513374D01*
X150354337Y-107522221D01*
X150395820Y-107527986D01*
X150451160Y-107530479D01*
X150670917Y-107530479D01*
X150705760Y-107532370D01*
X150735001Y-107537792D01*
X150757845Y-107545815D01*
X150776406Y-107556334D01*
X150801731Y-107583047D01*
X150814922Y-107617942D01*
X150817402Y-107645701D01*
X150815428Y-107670691D01*
X150809424Y-107693349D01*
X150800481Y-107711451D01*
X150788091Y-107727130D01*
X150773174Y-107739466D01*
X150755040Y-107749211D01*
X150708534Y-107760107D01*
X150689113Y-107760922D01*
X150155198Y-107760922D01*
X150155198Y-107930000D01*
X150683557Y-107930000D01*
X150729526Y-107928077D01*
X150771321Y-107922437D01*
X150807714Y-107913671D01*
X150840433Y-107901803D01*
X150868885Y-107887410D01*
X150894023Y-107870386D01*
X150934602Y-107829220D01*
X150963645Y-107778069D01*
X150981288Y-107715774D01*
X150986479Y-107651318D01*
X150984373Y-107609089D01*
X150977450Y-107567320D01*
X150967642Y-107534407D01*
X150953561Y-107503016D01*
X150937472Y-107477394D01*
X150917465Y-107453693D01*
X150895343Y-107433907D01*
X150869390Y-107416325D01*
X150840509Y-107401721D01*
X150807612Y-107389672D01*
X150770544Y-107380443D01*
X150729030Y-107374257D01*
X150666765Y-107371172D01*
X150445542Y-107371172D01*
X150412200Y-107369285D01*
X150384340Y-107363890D01*
X150362608Y-107355900D01*
X150345067Y-107345458D01*
X150321278Y-107318854D01*
X150309288Y-107283927D01*
X150307484Y-107260347D01*
X150309464Y-107235298D01*
X150315507Y-107212764D01*
X150324394Y-107195163D01*
X150336709Y-107180064D01*
X150351481Y-107168390D01*
X150369457Y-107159339D01*
X150415897Y-107149888D01*
X150428750Y-107149521D01*
X150915099Y-107149521D01*
X150915099Y-106980383D01*
X150434368Y-106980383D01*
G37*
G36*
X151083016Y-107187501D02*
G01*
X151083016Y-107334230D01*
X151183827Y-107334230D01*
X151183827Y-107673422D01*
X151185800Y-107727050D01*
X151191793Y-107773407D01*
X151200205Y-107807622D01*
X151211718Y-107837044D01*
X151224778Y-107859616D01*
X151240455Y-107878692D01*
X151278157Y-107906225D01*
X151328269Y-107923239D01*
X151397774Y-107929963D01*
X151404134Y-107930000D01*
X151539078Y-107930000D01*
X151539078Y-107790354D01*
X151434970Y-107790354D01*
X151405562Y-107788294D01*
X151381833Y-107781695D01*
X151367530Y-107773343D01*
X151356161Y-107761785D01*
X151342200Y-107730039D01*
X151337517Y-107681849D01*
X151337517Y-107334230D01*
X151541887Y-107334230D01*
X151541887Y-107187501D01*
X151337517Y-107187501D01*
X151337517Y-107012562D01*
X151183827Y-107012562D01*
X151183827Y-107187501D01*
X151083016Y-107187501D01*
G37*
G36*
X151882606Y-107187501D02*
G01*
X151842300Y-107189466D01*
X151806985Y-107195406D01*
X151779898Y-107203965D01*
X151756384Y-107215694D01*
X151737644Y-107229454D01*
X151721758Y-107246019D01*
X151698162Y-107287616D01*
X151684073Y-107345060D01*
X151680434Y-107405000D01*
X151680434Y-107930000D01*
X151832719Y-107930000D01*
X151832719Y-107427409D01*
X151834702Y-107400822D01*
X151840767Y-107378828D01*
X151849041Y-107363972D01*
X151860357Y-107352176D01*
X151890676Y-107337985D01*
X151926020Y-107334230D01*
X152188337Y-107334230D01*
X152188337Y-107187501D01*
X151882606Y-107187501D01*
G37*
G36*
X152824689Y-107187919D02*
G01*
X152897538Y-107198074D01*
X152928040Y-107207728D01*
X152955193Y-107220229D01*
X152979350Y-107235600D01*
X153000271Y-107253537D01*
X153018857Y-107274934D01*
X153034096Y-107298763D01*
X153046971Y-107327123D01*
X153056182Y-107357849D01*
X153062267Y-107394205D01*
X153064253Y-107432782D01*
X153064253Y-107779668D01*
X153060512Y-107834818D01*
X153047939Y-107875348D01*
X153038105Y-107890421D01*
X153025391Y-107902928D01*
X153007675Y-107913857D01*
X152985718Y-107921882D01*
X152951706Y-107928008D01*
X152909708Y-107930000D01*
X152563921Y-107930000D01*
X152555357Y-107929930D01*
X152479346Y-107921914D01*
X152421019Y-107902356D01*
X152397217Y-107888665D01*
X152376576Y-107872415D01*
X152358542Y-107853096D01*
X152343699Y-107831249D01*
X152331193Y-107805013D01*
X152322186Y-107776075D01*
X152316160Y-107740916D01*
X152314183Y-107702732D01*
X152314227Y-107696813D01*
X152314510Y-107694366D01*
X152463660Y-107694366D01*
X152468382Y-107728189D01*
X152484409Y-107755750D01*
X152497566Y-107766399D01*
X152514302Y-107774406D01*
X152537349Y-107780010D01*
X152565326Y-107781927D01*
X152876125Y-107781927D01*
X152885837Y-107781463D01*
X152905852Y-107773982D01*
X152912684Y-107762814D01*
X152914776Y-107746085D01*
X152914776Y-107609553D01*
X152568135Y-107609553D01*
X152527460Y-107613215D01*
X152493160Y-107626859D01*
X152480938Y-107637721D01*
X152472180Y-107651041D01*
X152465702Y-107670955D01*
X152463660Y-107694366D01*
X152314510Y-107694366D01*
X152321573Y-107633254D01*
X152340287Y-107584060D01*
X152370380Y-107545507D01*
X152390629Y-107529422D01*
X152414349Y-107515871D01*
X152443571Y-107504306D01*
X152477040Y-107495775D01*
X152518470Y-107490039D01*
X152565326Y-107488103D01*
X152914776Y-107488103D01*
X152914776Y-107434187D01*
X152914601Y-107426959D01*
X152906359Y-107388786D01*
X152886614Y-107360570D01*
X152871896Y-107349775D01*
X152853744Y-107341602D01*
X152830649Y-107336129D01*
X152803340Y-107334230D01*
X152358941Y-107334230D01*
X152358941Y-107187501D01*
X152804745Y-107187501D01*
X152824689Y-107187919D01*
G37*
G36*
X153196205Y-107187501D02*
G01*
X153196205Y-107334230D01*
X153297016Y-107334230D01*
X153297016Y-107673422D01*
X153298989Y-107727050D01*
X153304982Y-107773407D01*
X153313394Y-107807622D01*
X153324907Y-107837044D01*
X153337967Y-107859616D01*
X153353644Y-107878692D01*
X153391346Y-107906225D01*
X153441458Y-107923239D01*
X153510964Y-107929963D01*
X153517323Y-107930000D01*
X153652267Y-107930000D01*
X153652267Y-107790354D01*
X153548159Y-107790354D01*
X153518751Y-107788294D01*
X153495022Y-107781695D01*
X153480720Y-107773343D01*
X153469350Y-107761785D01*
X153455389Y-107730039D01*
X153450706Y-107681849D01*
X153450706Y-107334230D01*
X153655076Y-107334230D01*
X153655076Y-107187501D01*
X153450706Y-107187501D01*
X153450706Y-107012562D01*
X153297016Y-107012562D01*
X153297016Y-107187501D01*
X153196205Y-107187501D01*
G37*
G36*
X154272235Y-107188786D02*
G01*
X154344823Y-107201481D01*
X154406198Y-107226644D01*
X154457579Y-107263834D01*
X154479827Y-107287213D01*
X154499566Y-107313743D01*
X154517097Y-107344212D01*
X154531803Y-107378014D01*
X154543976Y-107416636D01*
X154552893Y-107458873D01*
X154558612Y-107506828D01*
X154560546Y-107558750D01*
X154559354Y-107599807D01*
X154546966Y-107688732D01*
X154522795Y-107761370D01*
X154488154Y-107819914D01*
X154466967Y-107844516D01*
X154443335Y-107865987D01*
X154416675Y-107884752D01*
X154387638Y-107900252D01*
X154354856Y-107912976D01*
X154319691Y-107922162D01*
X154280033Y-107928043D01*
X154237962Y-107930000D01*
X154082562Y-107930000D01*
X154048432Y-107928742D01*
X153975602Y-107916141D01*
X153914206Y-107891127D01*
X153862895Y-107854124D01*
X153840681Y-107830829D01*
X153820986Y-107804388D01*
X153803473Y-107773957D01*
X153788791Y-107740186D01*
X153776616Y-107701497D01*
X153767702Y-107659167D01*
X153761974Y-107610967D01*
X153760040Y-107558750D01*
X153913729Y-107558750D01*
X153916329Y-107613789D01*
X153929127Y-107677164D01*
X153950970Y-107721698D01*
X153965502Y-107738968D01*
X153982568Y-107753185D01*
X154003831Y-107765183D01*
X154028165Y-107773870D01*
X154060229Y-107779943D01*
X154096606Y-107781927D01*
X154223979Y-107781927D01*
X154261152Y-107779804D01*
X154311819Y-107767045D01*
X154349899Y-107743277D01*
X154365684Y-107726268D01*
X154378834Y-107705920D01*
X154390397Y-107679319D01*
X154398842Y-107648341D01*
X154404824Y-107606701D01*
X154406795Y-107558750D01*
X154404055Y-107502889D01*
X154390955Y-107439542D01*
X154368732Y-107394744D01*
X154354018Y-107377348D01*
X154336792Y-107363022D01*
X154315496Y-107350979D01*
X154291211Y-107342257D01*
X154259633Y-107336210D01*
X154223979Y-107334230D01*
X154096606Y-107334230D01*
X154059671Y-107336321D01*
X154008880Y-107349048D01*
X153970755Y-107372800D01*
X153954941Y-107389834D01*
X153941789Y-107410195D01*
X153930189Y-107436929D01*
X153921731Y-107468044D01*
X153915707Y-107510203D01*
X153913729Y-107558750D01*
X153760040Y-107558750D01*
X153761240Y-107517341D01*
X153773611Y-107428276D01*
X153797700Y-107355688D01*
X153832199Y-107297284D01*
X153853298Y-107272764D01*
X153876851Y-107251362D01*
X153903439Y-107232658D01*
X153932428Y-107217204D01*
X153965212Y-107204507D01*
X154000426Y-107195338D01*
X154040247Y-107189458D01*
X154082562Y-107187501D01*
X154237962Y-107187501D01*
X154272235Y-107188786D01*
G37*
G36*
X154941625Y-107187501D02*
G01*
X154898241Y-107189432D01*
X154859541Y-107195128D01*
X154827473Y-107203735D01*
X154799265Y-107215395D01*
X154775867Y-107229244D01*
X154755774Y-107245661D01*
X154725392Y-107285281D01*
X154706333Y-107335622D01*
X154698942Y-107399554D01*
X154698909Y-107404511D01*
X154701012Y-107442314D01*
X154707915Y-107478584D01*
X154717491Y-107505940D01*
X154731164Y-107531380D01*
X154746874Y-107551767D01*
X154766388Y-107570083D01*
X154788528Y-107585191D01*
X154814573Y-107597978D01*
X154844623Y-107608167D01*
X154879048Y-107615594D01*
X154955669Y-107621277D01*
X155130669Y-107621277D01*
X155164140Y-107623289D01*
X155190533Y-107629557D01*
X155206254Y-107637475D01*
X155218238Y-107648265D01*
X155231118Y-107675976D01*
X155233679Y-107702304D01*
X155231670Y-107726431D01*
X155225425Y-107745864D01*
X155217121Y-107758240D01*
X155205703Y-107767879D01*
X155173132Y-107779415D01*
X155139035Y-107781927D01*
X154707274Y-107781927D01*
X154707274Y-107930000D01*
X155139035Y-107930000D01*
X155180537Y-107928077D01*
X155217784Y-107922438D01*
X155249420Y-107913781D01*
X155277412Y-107902089D01*
X155301180Y-107888003D01*
X155321717Y-107871365D01*
X155353518Y-107830977D01*
X155374108Y-107779996D01*
X155382997Y-107716463D01*
X155383217Y-107703709D01*
X155381125Y-107665974D01*
X155374297Y-107630373D01*
X155364858Y-107603819D01*
X155351427Y-107579347D01*
X155335897Y-107559710D01*
X155316626Y-107542164D01*
X155294491Y-107527579D01*
X155268431Y-107515286D01*
X155202882Y-107498235D01*
X155125052Y-107492805D01*
X154951456Y-107492805D01*
X154917330Y-107490860D01*
X154891199Y-107485061D01*
X154875210Y-107477533D01*
X154863436Y-107467517D01*
X154851010Y-107442063D01*
X154848386Y-107415624D01*
X154850393Y-107392082D01*
X154856626Y-107372599D01*
X154865086Y-107359661D01*
X154876758Y-107349395D01*
X154909520Y-107336974D01*
X154943030Y-107334230D01*
X155353785Y-107334230D01*
X155353785Y-107187501D01*
X154941625Y-107187501D01*
G37*
G36*
X155487752Y-107410251D02*
G01*
X155487752Y-107556980D01*
X155991503Y-107556980D01*
X155991503Y-107410251D01*
X155487752Y-107410251D01*
G37*
G36*
X156068073Y-106980383D02*
G01*
X156068073Y-107149521D01*
X156155451Y-107149521D01*
X156179274Y-107151536D01*
X156197258Y-107157822D01*
X156207444Y-107165772D01*
X156214754Y-107176618D01*
X156221795Y-107208715D01*
X156222069Y-107219009D01*
X156222069Y-107930000D01*
X156391207Y-107930000D01*
X156391207Y-107207834D01*
X156389135Y-107154714D01*
X156382448Y-107109406D01*
X156373880Y-107080069D01*
X156361952Y-107054850D01*
X156348615Y-107036154D01*
X156332306Y-107020347D01*
X156291482Y-106997558D01*
X156233325Y-106983965D01*
X156169434Y-106980383D01*
X156068073Y-106980383D01*
G37*
D12*
X140494819Y-104543094D02*
X139494819Y-104543094D01*
X139494819Y-104543094D02*
X139494819Y-104304999D01*
X139494819Y-104304999D02*
X139542438Y-104162142D01*
X139542438Y-104162142D02*
X139637676Y-104066904D01*
X139637676Y-104066904D02*
X139732914Y-104019285D01*
X139732914Y-104019285D02*
X139923390Y-103971666D01*
X139923390Y-103971666D02*
X140066247Y-103971666D01*
X140066247Y-103971666D02*
X140256723Y-104019285D01*
X140256723Y-104019285D02*
X140351961Y-104066904D01*
X140351961Y-104066904D02*
X140447200Y-104162142D01*
X140447200Y-104162142D02*
X140494819Y-104304999D01*
X140494819Y-104304999D02*
X140494819Y-104543094D01*
X140494819Y-103019285D02*
X140494819Y-103590713D01*
X140494819Y-103304999D02*
X139494819Y-103304999D01*
X139494819Y-103304999D02*
X139637676Y-103400237D01*
X139637676Y-103400237D02*
X139732914Y-103495475D01*
X139732914Y-103495475D02*
X139780533Y-103590713D01*
X156916666Y-89274819D02*
X156916666Y-89989104D01*
X156916666Y-89989104D02*
X156869047Y-90131961D01*
X156869047Y-90131961D02*
X156773809Y-90227200D01*
X156773809Y-90227200D02*
X156630952Y-90274819D01*
X156630952Y-90274819D02*
X156535714Y-90274819D01*
X157916666Y-90274819D02*
X157345238Y-90274819D01*
X157630952Y-90274819D02*
X157630952Y-89274819D01*
X157630952Y-89274819D02*
X157535714Y-89417676D01*
X157535714Y-89417676D02*
X157440476Y-89512914D01*
X157440476Y-89512914D02*
X157345238Y-89560533D01*
D13*
X129783479Y-90068809D02*
X130297526Y-90068809D01*
X130297526Y-90068809D02*
X130358002Y-90038571D01*
X130358002Y-90038571D02*
X130388241Y-90008333D01*
X130388241Y-90008333D02*
X130418479Y-89947857D01*
X130418479Y-89947857D02*
X130418479Y-89826904D01*
X130418479Y-89826904D02*
X130388241Y-89766428D01*
X130388241Y-89766428D02*
X130358002Y-89736190D01*
X130358002Y-89736190D02*
X130297526Y-89705952D01*
X130297526Y-89705952D02*
X129783479Y-89705952D01*
X130418479Y-89070952D02*
X130418479Y-89433809D01*
X130418479Y-89252381D02*
X129783479Y-89252381D01*
X129783479Y-89252381D02*
X129874193Y-89312857D01*
X129874193Y-89312857D02*
X129934669Y-89373333D01*
X129934669Y-89373333D02*
X129964907Y-89433809D01*
D12*
X141054819Y-113833333D02*
X141769104Y-113833333D01*
X141769104Y-113833333D02*
X141911961Y-113880952D01*
X141911961Y-113880952D02*
X142007200Y-113976190D01*
X142007200Y-113976190D02*
X142054819Y-114119047D01*
X142054819Y-114119047D02*
X142054819Y-114214285D01*
X141388152Y-112928571D02*
X142054819Y-112928571D01*
X141007200Y-113166666D02*
X141721485Y-113404761D01*
X141721485Y-113404761D02*
X141721485Y-112785714D01*
X138354819Y-113753333D02*
X139069104Y-113753333D01*
X139069104Y-113753333D02*
X139211961Y-113800952D01*
X139211961Y-113800952D02*
X139307200Y-113896190D01*
X139307200Y-113896190D02*
X139354819Y-114039047D01*
X139354819Y-114039047D02*
X139354819Y-114134285D01*
X138354819Y-113372380D02*
X138354819Y-112753333D01*
X138354819Y-112753333D02*
X138735771Y-113086666D01*
X138735771Y-113086666D02*
X138735771Y-112943809D01*
X138735771Y-112943809D02*
X138783390Y-112848571D01*
X138783390Y-112848571D02*
X138831009Y-112800952D01*
X138831009Y-112800952D02*
X138926247Y-112753333D01*
X138926247Y-112753333D02*
X139164342Y-112753333D01*
X139164342Y-112753333D02*
X139259580Y-112800952D01*
X139259580Y-112800952D02*
X139307200Y-112848571D01*
X139307200Y-112848571D02*
X139354819Y-112943809D01*
X139354819Y-112943809D02*
X139354819Y-113229523D01*
X139354819Y-113229523D02*
X139307200Y-113324761D01*
X139307200Y-113324761D02*
X139259580Y-113372380D01*
X125866666Y-85684819D02*
X125866666Y-86399104D01*
X125866666Y-86399104D02*
X125819047Y-86541961D01*
X125819047Y-86541961D02*
X125723809Y-86637200D01*
X125723809Y-86637200D02*
X125580952Y-86684819D01*
X125580952Y-86684819D02*
X125485714Y-86684819D01*
X126295238Y-85780057D02*
X126342857Y-85732438D01*
X126342857Y-85732438D02*
X126438095Y-85684819D01*
X126438095Y-85684819D02*
X126676190Y-85684819D01*
X126676190Y-85684819D02*
X126771428Y-85732438D01*
X126771428Y-85732438D02*
X126819047Y-85780057D01*
X126819047Y-85780057D02*
X126866666Y-85875295D01*
X126866666Y-85875295D02*
X126866666Y-85970533D01*
X126866666Y-85970533D02*
X126819047Y-86113390D01*
X126819047Y-86113390D02*
X126247619Y-86684819D01*
X126247619Y-86684819D02*
X126866666Y-86684819D01*
D14*
%TO.C,D1*%
X142455000Y-106365000D02*
X145545000Y-106365000D01*
X142455170Y-106365000D02*
G75*
G02*
X144000000Y-100815000I1544830J2560000D01*
G01*
X144000000Y-100815000D02*
G75*
G02*
X145544830Y-106365000I0J-2990000D01*
G01*
X146500000Y-103805000D02*
G75*
G02*
X141500000Y-103805000I-2500000J0D01*
G01*
X141500000Y-103805000D02*
G75*
G02*
X146500000Y-103805000I2500000J0D01*
G01*
%TO.C,J1*%
X155870000Y-90820000D02*
X157250000Y-90820000D01*
X155870000Y-92200000D02*
X155870000Y-90820000D01*
X155870000Y-93470000D02*
X155870000Y-106280000D01*
X155870000Y-93470000D02*
X158630000Y-93470000D01*
X155870000Y-106280000D02*
X158630000Y-106280000D01*
X158630000Y-93470000D02*
X158630000Y-106280000D01*
D15*
%TO.C,U1*%
X131490000Y-97969000D02*
X131490000Y-80824000D01*
X133395000Y-99874000D02*
X147365000Y-99874000D01*
X135885000Y-78919000D02*
X135888728Y-78008728D01*
X136388728Y-77509000D02*
X144384000Y-77509000D01*
X144884000Y-78009000D02*
X144884000Y-78919000D01*
D16*
X147365000Y-78919000D02*
X133395000Y-78919000D01*
D15*
X147365000Y-78919000D02*
X133395000Y-78919000D01*
X149270000Y-97969000D02*
X149270000Y-80824000D01*
X131490000Y-80824000D02*
G75*
G02*
X133395000Y-78919000I1905000J0D01*
G01*
X133395000Y-99874000D02*
G75*
G02*
X131490000Y-97969000I1J1905001D01*
G01*
X135888728Y-78008728D02*
G75*
G02*
X136388728Y-77509028I499972J-272D01*
G01*
X144384000Y-77509000D02*
G75*
G02*
X144884000Y-78009000I0J-500000D01*
G01*
X147365000Y-78919000D02*
G75*
G02*
X149270000Y-80824000I0J-1905000D01*
G01*
X149270000Y-97969000D02*
G75*
G02*
X147365000Y-99874000I-1905001J1D01*
G01*
D17*
X131682000Y-79160000D02*
G75*
G02*
X131178000Y-79160000I-252000J0D01*
G01*
X131178000Y-79160000D02*
G75*
G02*
X131682000Y-79160000I252000J0D01*
G01*
X132825000Y-80040000D02*
G75*
G02*
X132321000Y-80040000I-252000J0D01*
G01*
X132321000Y-80040000D02*
G75*
G02*
X132825000Y-80040000I252000J0D01*
G01*
D14*
%TO.C,J4*%
X142350000Y-109550000D02*
X148400000Y-109550000D01*
X142350000Y-117350000D02*
X142350000Y-109550000D01*
X147290000Y-110920000D02*
X148300000Y-110920000D01*
X147290000Y-116000000D02*
X147290000Y-110920000D01*
X148300000Y-116000000D02*
X147290000Y-116000000D01*
X148400000Y-109550000D02*
X148400000Y-117350000D01*
X148400000Y-117350000D02*
X142350000Y-117350000D01*
%TO.C,J3*%
X132100000Y-109570000D02*
X138150000Y-109570000D01*
X132100000Y-117370000D02*
X132100000Y-109570000D01*
X132200000Y-110920000D02*
X133210000Y-110920000D01*
X133210000Y-110920000D02*
X133210000Y-116000000D01*
X133210000Y-116000000D02*
X132200000Y-116000000D01*
X138150000Y-109570000D02*
X138150000Y-117370000D01*
X138150000Y-117370000D02*
X132100000Y-117370000D01*
%TO.C,J2*%
X124820000Y-87230000D02*
X126200000Y-87230000D01*
X124820000Y-88610000D02*
X124820000Y-87230000D01*
X124820000Y-89880000D02*
X124820000Y-107770000D01*
X124820000Y-89880000D02*
X127580000Y-89880000D01*
X124820000Y-107770000D02*
X127580000Y-107770000D01*
X127580000Y-89880000D02*
X127580000Y-107770000D01*
%TD*%
M02*
