%TF.GenerationSoftware,KiCad,Pcbnew,9.0.6*%
%TF.CreationDate,2026-04-15T10:22:53-05:00*%
%TF.ProjectId,Chimborazo Stratos-1,4368696d-626f-4726-917a-6f2053747261,rev?*%
%TF.SameCoordinates,Original*%
%TF.FileFunction,Soldermask,Bot*%
%TF.FilePolarity,Negative*%
%FSLAX46Y46*%
G04 Gerber Fmt 4.6, Leading zero omitted, Abs format (unit mm)*
G04 Created by KiCad (PCBNEW 9.0.6) date 2026-04-15 10:22:53*
%MOMM*%
%LPD*%
G01*
G04 APERTURE LIST*
%ADD10C,3.200000*%
%ADD11R,1.800000X1.800000*%
%ADD12C,1.800000*%
%ADD13R,1.700000X1.700000*%
%ADD14C,1.700000*%
%ADD15C,1.524000*%
%ADD16R,2.030000X1.730000*%
%ADD17O,2.030000X1.730000*%
%ADD18C,1.600000*%
G04 APERTURE END LIST*
D10*
%TO.C,REF\u002A\u002A*%
X152500000Y-113500000D03*
%TD*%
D11*
%TO.C,D1*%
X144000000Y-105075000D03*
D12*
X144000000Y-102535000D03*
%TD*%
D13*
%TO.C,J1*%
X157250000Y-92200000D03*
D14*
X157250000Y-94740000D03*
X157250000Y-97280000D03*
X157250000Y-99820000D03*
X157250000Y-102360000D03*
X157250000Y-104900000D03*
%TD*%
D15*
%TO.C,U1*%
X132760000Y-81840000D03*
X132760000Y-84380000D03*
X132760000Y-86920000D03*
X132760000Y-89460000D03*
X132760000Y-92000000D03*
X132760000Y-94540000D03*
X132760000Y-97080000D03*
X148000000Y-97080000D03*
X148000000Y-94540000D03*
X148000000Y-92000000D03*
X148000000Y-89460000D03*
X148000000Y-86920000D03*
X148000000Y-84380000D03*
X148000000Y-81840000D03*
%TD*%
D16*
%TO.C,J4*%
X145000000Y-116000000D03*
D17*
X145000000Y-113460000D03*
X145000000Y-110920000D03*
%TD*%
D10*
%TO.C,REF\u002A\u002A*%
X127450000Y-113450000D03*
%TD*%
D16*
%TO.C,J3*%
X135500000Y-110920000D03*
D17*
X135500000Y-113460000D03*
X135500000Y-116000000D03*
%TD*%
D13*
%TO.C,J2*%
X126200000Y-88610000D03*
D14*
X126200000Y-91150000D03*
X126200000Y-93690000D03*
X126200000Y-96230000D03*
X126200000Y-98770000D03*
X126200000Y-101310000D03*
X126200000Y-103850000D03*
X126200000Y-106390000D03*
%TD*%
D18*
%TO.C,R1*%
X130040000Y-104150000D03*
X137660000Y-104150000D03*
%TD*%
M02*
