%TF.GenerationSoftware,KiCad,Pcbnew,9.0.6*%
%TF.CreationDate,2026-04-15T10:22:52-05:00*%
%TF.ProjectId,Chimborazo Stratos-1,4368696d-626f-4726-917a-6f2053747261,rev?*%
%TF.SameCoordinates,Original*%
%TF.FileFunction,Copper,L1,Top*%
%TF.FilePolarity,Positive*%
%FSLAX46Y46*%
G04 Gerber Fmt 4.6, Leading zero omitted, Abs format (unit mm)*
G04 Created by KiCad (PCBNEW 9.0.6) date 2026-04-15 10:22:52*
%MOMM*%
%LPD*%
G01*
G04 APERTURE LIST*
G04 Aperture macros list*
%AMRoundRect*
0 Rectangle with rounded corners*
0 $1 Rounding radius*
0 $2 $3 $4 $5 $6 $7 $8 $9 X,Y pos of 4 corners*
0 Add a 4 corners polygon primitive as box body*
4,1,4,$2,$3,$4,$5,$6,$7,$8,$9,$2,$3,0*
0 Add four circle primitives for the rounded corners*
1,1,$1+$1,$2,$3*
1,1,$1+$1,$4,$5*
1,1,$1+$1,$6,$7*
1,1,$1+$1,$8,$9*
0 Add four rect primitives between the rounded corners*
20,1,$1+$1,$2,$3,$4,$5,0*
20,1,$1+$1,$4,$5,$6,$7,0*
20,1,$1+$1,$6,$7,$8,$9,0*
20,1,$1+$1,$8,$9,$2,$3,0*%
G04 Aperture macros list end*
%TA.AperFunction,ComponentPad*%
%ADD10R,1.800000X1.800000*%
%TD*%
%TA.AperFunction,ComponentPad*%
%ADD11C,1.800000*%
%TD*%
%TA.AperFunction,ComponentPad*%
%ADD12R,1.700000X1.700000*%
%TD*%
%TA.AperFunction,ComponentPad*%
%ADD13C,1.700000*%
%TD*%
%TA.AperFunction,SMDPad,CuDef*%
%ADD14RoundRect,0.152400X1.063600X0.609600X-1.063600X0.609600X-1.063600X-0.609600X1.063600X-0.609600X0*%
%TD*%
%TA.AperFunction,ComponentPad*%
%ADD15C,1.524000*%
%TD*%
%TA.AperFunction,SMDPad,CuDef*%
%ADD16RoundRect,0.152400X-1.063600X-0.609600X1.063600X-0.609600X1.063600X0.609600X-1.063600X0.609600X0*%
%TD*%
%TA.AperFunction,ComponentPad*%
%ADD17R,2.030000X1.730000*%
%TD*%
%TA.AperFunction,ComponentPad*%
%ADD18O,2.030000X1.730000*%
%TD*%
%TA.AperFunction,ComponentPad*%
%ADD19C,1.600000*%
%TD*%
%TA.AperFunction,ViaPad*%
%ADD20C,0.600000*%
%TD*%
%TA.AperFunction,Conductor*%
%ADD21C,0.200000*%
%TD*%
G04 APERTURE END LIST*
D10*
%TO.P,D1,1,K*%
%TO.N,GND*%
X144000000Y-105075000D03*
D11*
%TO.P,D1,2,A*%
%TO.N,Net-(D1-A)*%
X144000000Y-102535000D03*
%TD*%
D12*
%TO.P,J1,1,Pin_1*%
%TO.N,+3V3*%
X157250000Y-92200000D03*
D13*
%TO.P,J1,2,Pin_2*%
%TO.N,GND*%
X157250000Y-94740000D03*
%TO.P,J1,3,Pin_3*%
%TO.N,SCL*%
X157250000Y-97280000D03*
%TO.P,J1,4,Pin_4*%
%TO.N,SDA*%
X157250000Y-99820000D03*
%TO.P,J1,5,Pin_5*%
%TO.N,unconnected-(J1-Pin_5-Pad5)*%
X157250000Y-102360000D03*
%TO.P,J1,6,Pin_6*%
%TO.N,unconnected-(J1-Pin_6-Pad6)*%
X157250000Y-104900000D03*
%TD*%
D14*
%TO.P,U1,1,P26_A0_D0*%
%TO.N,PWM_1*%
X131925000Y-81840000D03*
D15*
X132760000Y-81840000D03*
D14*
%TO.P,U1,2,P27_A1_D1*%
%TO.N,PWM_2*%
X131925000Y-84380000D03*
D15*
X132760000Y-84380000D03*
D14*
%TO.P,U1,3,P28_A2_D2*%
%TO.N,unconnected-(U1-P28_A2_D2-Pad3)_1*%
X131925000Y-86920000D03*
D15*
%TO.N,unconnected-(U1-P28_A2_D2-Pad3)*%
X132760000Y-86920000D03*
D14*
%TO.P,U1,4,P29_A3_D3*%
%TO.N,Net-(U1-P29_A3_D3)*%
X131925000Y-89460000D03*
D15*
X132760000Y-89460000D03*
D14*
%TO.P,U1,5,P6_SDA_D4*%
%TO.N,SDA*%
X131925000Y-92000000D03*
D15*
X132760000Y-92000000D03*
D14*
%TO.P,U1,6,P7_SCL_D5*%
%TO.N,SCL*%
X131925000Y-94540000D03*
D15*
X132760000Y-94540000D03*
D14*
%TO.P,U1,7,P0_D6_TX*%
%TO.N,unconnected-(U1-P0_D6_TX-Pad7)*%
X131925000Y-97080000D03*
D15*
%TO.N,unconnected-(U1-P0_D6_TX-Pad7)_1*%
X132760000Y-97080000D03*
%TO.P,U1,8,P1_D7_RX*%
%TO.N,unconnected-(U1-P1_D7_RX-Pad8)_1*%
X148000000Y-97080000D03*
D16*
%TO.N,unconnected-(U1-P1_D7_RX-Pad8)*%
X148835000Y-97080000D03*
D15*
%TO.P,U1,9,P2_D8_SCK*%
%TO.N,unconnected-(U1-P2_D8_SCK-Pad9)*%
X148000000Y-94540000D03*
D16*
%TO.N,unconnected-(U1-P2_D8_SCK-Pad9)_1*%
X148835000Y-94540000D03*
D15*
%TO.P,U1,10,P4_D9_MISO*%
%TO.N,unconnected-(U1-P4_D9_MISO-Pad10)*%
X148000000Y-92000000D03*
D16*
%TO.N,unconnected-(U1-P4_D9_MISO-Pad10)_1*%
X148835000Y-92000000D03*
D15*
%TO.P,U1,11,P3_D10_MOSI*%
%TO.N,unconnected-(U1-P3_D10_MOSI-Pad11)_1*%
X148000000Y-89460000D03*
D16*
%TO.N,unconnected-(U1-P3_D10_MOSI-Pad11)*%
X148835000Y-89460000D03*
D15*
%TO.P,U1,12,3V3*%
%TO.N,+3V3*%
X148000000Y-86920000D03*
D16*
X148835000Y-86920000D03*
D15*
%TO.P,U1,13,GND*%
%TO.N,GND*%
X148000000Y-84380000D03*
D16*
X148835000Y-84380000D03*
D15*
%TO.P,U1,14,VBUS*%
%TO.N,VBUS*%
X148000000Y-81840000D03*
D16*
X148835000Y-81840000D03*
%TD*%
D17*
%TO.P,J4,1,Pin_1*%
%TO.N,GND*%
X145000000Y-116000000D03*
D18*
%TO.P,J4,2,Pin_2*%
%TO.N,VBUS*%
X145000000Y-113460000D03*
%TO.P,J4,3,Pin_3*%
%TO.N,PWM_1*%
X145000000Y-110920000D03*
%TD*%
D17*
%TO.P,J3,1,Pin_1*%
%TO.N,GND*%
X135500000Y-110920000D03*
D18*
%TO.P,J3,2,Pin_2*%
%TO.N,VBUS*%
X135500000Y-113460000D03*
%TO.P,J3,3,Pin_3*%
%TO.N,PWM_2*%
X135500000Y-116000000D03*
%TD*%
D12*
%TO.P,J2,1,Pin_1*%
%TO.N,+3V3*%
X126200000Y-88610000D03*
D13*
%TO.P,J2,2,Pin_2*%
%TO.N,GND*%
X126200000Y-91150000D03*
%TO.P,J2,3,Pin_3*%
%TO.N,SCL*%
X126200000Y-93690000D03*
%TO.P,J2,4,Pin_4*%
%TO.N,SDA*%
X126200000Y-96230000D03*
%TO.P,J2,5,Pin_5*%
%TO.N,unconnected-(J2-Pin_5-Pad5)*%
X126200000Y-98770000D03*
%TO.P,J2,6,Pin_6*%
%TO.N,unconnected-(J2-Pin_6-Pad6)*%
X126200000Y-101310000D03*
%TO.P,J2,7,Pin_7*%
%TO.N,unconnected-(J2-Pin_7-Pad7)*%
X126200000Y-103850000D03*
%TO.P,J2,8,Pin_8*%
%TO.N,unconnected-(J2-Pin_8-Pad8)*%
X126200000Y-106390000D03*
%TD*%
D19*
%TO.P,R1,1*%
%TO.N,Net-(U1-P29_A3_D3)*%
X130040000Y-104150000D03*
%TO.P,R1,2*%
%TO.N,Net-(D1-A)*%
X137660000Y-104150000D03*
%TD*%
D20*
%TO.N,+3V3*%
X155100000Y-87550000D03*
X152300000Y-87300000D03*
%TO.N,SDA*%
X151300000Y-100550000D03*
X128200000Y-92050000D03*
X154900000Y-100550000D03*
X128200000Y-96270000D03*
%TO.N,SCL*%
X154900000Y-98550000D03*
X149950000Y-99800000D03*
%TO.N,PWM_2*%
X139300000Y-116050000D03*
X139250000Y-112550000D03*
%TO.N,PWM_1*%
X129050000Y-94350000D03*
X141100000Y-109600000D03*
X129350000Y-82750000D03*
X130900000Y-99700000D03*
%TD*%
D21*
%TO.N,+3V3*%
X155100000Y-87550000D02*
X152550000Y-87550000D01*
X152550000Y-87550000D02*
X152300000Y-87300000D01*
%TO.N,SDA*%
X131682370Y-92000000D02*
X132760000Y-92000000D01*
X128200000Y-92050000D02*
X128200000Y-96270000D01*
X154900000Y-100550000D02*
X151300000Y-100550000D01*
%TO.N,SCL*%
X149950000Y-99800000D02*
X151050000Y-99800000D01*
X151900000Y-98950000D02*
X154500000Y-98950000D01*
X151050000Y-99800000D02*
X151900000Y-98950000D01*
X131682370Y-94540000D02*
X132760000Y-94540000D01*
X154500000Y-98950000D02*
X154900000Y-98550000D01*
%TO.N,PWM_2*%
X139300000Y-112600000D02*
X139250000Y-112550000D01*
X139300000Y-116050000D02*
X139300000Y-112600000D01*
%TO.N,PWM_1*%
X139250000Y-101100000D02*
X132300000Y-101100000D01*
X139900000Y-109600000D02*
X139650000Y-109350000D01*
X141100000Y-109600000D02*
X139900000Y-109600000D01*
X132300000Y-101100000D02*
X130900000Y-99700000D01*
X139650000Y-101500000D02*
X139250000Y-101100000D01*
X131682370Y-81840000D02*
X132760000Y-81840000D01*
X139650000Y-108000000D02*
X139650000Y-107800000D01*
X129050000Y-83050000D02*
X129350000Y-82750000D01*
X129050000Y-94350000D02*
X129050000Y-83050000D01*
X139650000Y-109350000D02*
X139650000Y-108000000D01*
X139650000Y-108000000D02*
X139650000Y-101500000D01*
%TO.N,Net-(U1-P29_A3_D3)*%
X131682370Y-89460000D02*
X132760000Y-89460000D01*
X130040000Y-91102370D02*
X131682370Y-89460000D01*
X130040000Y-104150000D02*
X130040000Y-91102370D01*
X132530000Y-89690000D02*
X132760000Y-89460000D01*
%TD*%
%TA.AperFunction,Conductor*%
%TO.N,GND*%
G36*
X147440041Y-79391704D02*
G01*
X147907229Y-79560710D01*
X148217396Y-79672914D01*
X148222286Y-79674801D01*
X148504598Y-79790641D01*
X149077799Y-80025841D01*
X149082559Y-80027913D01*
X149761996Y-80340874D01*
X149814651Y-80386800D01*
X149834117Y-80453903D01*
X149814215Y-80520878D01*
X149761263Y-80566461D01*
X149710118Y-80577500D01*
X147705458Y-80577500D01*
X147668453Y-80580412D01*
X147668447Y-80580413D01*
X147510045Y-80626434D01*
X147510042Y-80626435D01*
X147368056Y-80710405D01*
X147368046Y-80710413D01*
X147271854Y-80806604D01*
X147257061Y-80819239D01*
X147177536Y-80877018D01*
X147037021Y-81017533D01*
X146920213Y-81178305D01*
X146829994Y-81355367D01*
X146829993Y-81355370D01*
X146768587Y-81544362D01*
X146768587Y-81544364D01*
X146737500Y-81740639D01*
X146737500Y-81939361D01*
X146753043Y-82037498D01*
X146768587Y-82135637D01*
X146829993Y-82324629D01*
X146829994Y-82324632D01*
X146886486Y-82435502D01*
X146920213Y-82501694D01*
X147037019Y-82662464D01*
X147037021Y-82662466D01*
X147177539Y-82802984D01*
X147238395Y-82847197D01*
X147247419Y-82853754D01*
X147257060Y-82860758D01*
X147263786Y-82866007D01*
X147267979Y-82869518D01*
X147368053Y-82969592D01*
X147434208Y-83008716D01*
X147441975Y-83015220D01*
X147455962Y-83036197D01*
X147473170Y-83054627D01*
X147475015Y-83064773D01*
X147480736Y-83073353D01*
X147481161Y-83098564D01*
X147485673Y-83123369D01*
X147481740Y-83132900D01*
X147481915Y-83143212D01*
X147468643Y-83164649D01*
X147459028Y-83187958D01*
X147448643Y-83196956D01*
X147445137Y-83202620D01*
X147438391Y-83205838D01*
X147425487Y-83217021D01*
X147368370Y-83250800D01*
X147368357Y-83250810D01*
X147296360Y-83322806D01*
X147296360Y-83322807D01*
X147915905Y-83942352D01*
X147828429Y-83965792D01*
X147727070Y-84024311D01*
X147644311Y-84107070D01*
X147585792Y-84208429D01*
X147562352Y-84295905D01*
X146947730Y-83681282D01*
X146947729Y-83681283D01*
X146920643Y-83718564D01*
X146830457Y-83895562D01*
X146769075Y-84084476D01*
X146769075Y-84084479D01*
X146738000Y-84280678D01*
X146738000Y-84479321D01*
X146769075Y-84675520D01*
X146769075Y-84675523D01*
X146830457Y-84864437D01*
X146920641Y-85041432D01*
X146947730Y-85078715D01*
X146947731Y-85078716D01*
X147562352Y-84464094D01*
X147585792Y-84551571D01*
X147644311Y-84652930D01*
X147727070Y-84735689D01*
X147828429Y-84794208D01*
X147915904Y-84817647D01*
X147296360Y-85437191D01*
X147368360Y-85509192D01*
X147368364Y-85509195D01*
X147425486Y-85542977D01*
X147473169Y-85594046D01*
X147485673Y-85662788D01*
X147459028Y-85727377D01*
X147441975Y-85744779D01*
X147434204Y-85751285D01*
X147368053Y-85790408D01*
X147267990Y-85890469D01*
X147263784Y-85893992D01*
X147262598Y-85894509D01*
X147257061Y-85899239D01*
X147177536Y-85957018D01*
X147037021Y-86097533D01*
X146920213Y-86258305D01*
X146829994Y-86435367D01*
X146829993Y-86435370D01*
X146768587Y-86624362D01*
X146737500Y-86820639D01*
X146737500Y-87019361D01*
X146740723Y-87039711D01*
X146768587Y-87215637D01*
X146829993Y-87404629D01*
X146829994Y-87404632D01*
X146895651Y-87533489D01*
X146920213Y-87581694D01*
X147037019Y-87742464D01*
X147037021Y-87742466D01*
X147177539Y-87882984D01*
X147257060Y-87940758D01*
X147263824Y-87946039D01*
X147267998Y-87949537D01*
X147368053Y-88049592D01*
X147433737Y-88088437D01*
X147441522Y-88094962D01*
X147455488Y-88115926D01*
X147472679Y-88134338D01*
X147474528Y-88144506D01*
X147480260Y-88153110D01*
X147480674Y-88178297D01*
X147485182Y-88203079D01*
X147481239Y-88212634D01*
X147481410Y-88222970D01*
X147468143Y-88244381D01*
X147458536Y-88267669D01*
X147448122Y-88276692D01*
X147444609Y-88282363D01*
X147437871Y-88285575D01*
X147424996Y-88296732D01*
X147368053Y-88330408D01*
X147368046Y-88330413D01*
X147271854Y-88426604D01*
X147257061Y-88439239D01*
X147177536Y-88497018D01*
X147037021Y-88637533D01*
X146920213Y-88798305D01*
X146829994Y-88975367D01*
X146829993Y-88975370D01*
X146768587Y-89164362D01*
X146743317Y-89323913D01*
X146737500Y-89360639D01*
X146737500Y-89559361D01*
X146739936Y-89574742D01*
X146768587Y-89755637D01*
X146829993Y-89944629D01*
X146829994Y-89944632D01*
X146901330Y-90084635D01*
X146920213Y-90121694D01*
X147037019Y-90282464D01*
X147037021Y-90282466D01*
X147177539Y-90422984D01*
X147257060Y-90480758D01*
X147263824Y-90486039D01*
X147267998Y-90489537D01*
X147368053Y-90589592D01*
X147433737Y-90628437D01*
X147441522Y-90634962D01*
X147455488Y-90655926D01*
X147472679Y-90674338D01*
X147474528Y-90684506D01*
X147480260Y-90693110D01*
X147480674Y-90718297D01*
X147485182Y-90743079D01*
X147481239Y-90752634D01*
X147481410Y-90762970D01*
X147468143Y-90784381D01*
X147458536Y-90807669D01*
X147448122Y-90816692D01*
X147444609Y-90822363D01*
X147437871Y-90825575D01*
X147424996Y-90836732D01*
X147368053Y-90870408D01*
X147368046Y-90870413D01*
X147271854Y-90966604D01*
X147257061Y-90979239D01*
X147177536Y-91037018D01*
X147037021Y-91177533D01*
X146920213Y-91338305D01*
X146829994Y-91515367D01*
X146829993Y-91515370D01*
X146768587Y-91704362D01*
X146737500Y-91900639D01*
X146737500Y-92099360D01*
X146768587Y-92295637D01*
X146829993Y-92484629D01*
X146829994Y-92484632D01*
X146902816Y-92627551D01*
X146920213Y-92661694D01*
X147037019Y-92822464D01*
X147037021Y-92822466D01*
X147177539Y-92962984D01*
X147257060Y-93020758D01*
X147263824Y-93026039D01*
X147267998Y-93029537D01*
X147368053Y-93129592D01*
X147433737Y-93168437D01*
X147441522Y-93174962D01*
X147455488Y-93195926D01*
X147472679Y-93214338D01*
X147474528Y-93224506D01*
X147480260Y-93233110D01*
X147480674Y-93258297D01*
X147485182Y-93283079D01*
X147481239Y-93292634D01*
X147481410Y-93302970D01*
X147468143Y-93324381D01*
X147458536Y-93347669D01*
X147448122Y-93356692D01*
X147444609Y-93362363D01*
X147437871Y-93365575D01*
X147424996Y-93376731D01*
X147372896Y-93407544D01*
X147368053Y-93410408D01*
X147368046Y-93410413D01*
X147271854Y-93506604D01*
X147257061Y-93519239D01*
X147177536Y-93577018D01*
X147037021Y-93717533D01*
X146920213Y-93878305D01*
X146829994Y-94055367D01*
X146829993Y-94055370D01*
X146768587Y-94244362D01*
X146744282Y-94397817D01*
X146737500Y-94440639D01*
X146737500Y-94639361D01*
X146750289Y-94720109D01*
X146768587Y-94835637D01*
X146829993Y-95024629D01*
X146829994Y-95024632D01*
X146919294Y-95199890D01*
X146920213Y-95201694D01*
X147037019Y-95362464D01*
X147037021Y-95362466D01*
X147177539Y-95502984D01*
X147257060Y-95560758D01*
X147263824Y-95566039D01*
X147267998Y-95569537D01*
X147368053Y-95669592D01*
X147433737Y-95708437D01*
X147441522Y-95714962D01*
X147455488Y-95735926D01*
X147472679Y-95754338D01*
X147474528Y-95764506D01*
X147480260Y-95773110D01*
X147480674Y-95798297D01*
X147485182Y-95823079D01*
X147481239Y-95832634D01*
X147481410Y-95842970D01*
X147468143Y-95864381D01*
X147458536Y-95887669D01*
X147448122Y-95896692D01*
X147444609Y-95902363D01*
X147437871Y-95905575D01*
X147424996Y-95916732D01*
X147368053Y-95950408D01*
X147368046Y-95950413D01*
X147271854Y-96046604D01*
X147257061Y-96059239D01*
X147177536Y-96117018D01*
X147037021Y-96257533D01*
X146920213Y-96418305D01*
X146829994Y-96595367D01*
X146829993Y-96595370D01*
X146768587Y-96784362D01*
X146744282Y-96937817D01*
X146737500Y-96980639D01*
X146737500Y-97179361D01*
X146750289Y-97260109D01*
X146768587Y-97375637D01*
X146829993Y-97564629D01*
X146829994Y-97564632D01*
X146919294Y-97739890D01*
X146920213Y-97741694D01*
X147037019Y-97902464D01*
X147037021Y-97902466D01*
X147177539Y-98042984D01*
X147257060Y-98100758D01*
X147271851Y-98113390D01*
X147368053Y-98209592D01*
X147510041Y-98293564D01*
X147550498Y-98305318D01*
X147668447Y-98339586D01*
X147668450Y-98339586D01*
X147668452Y-98339587D01*
X147705466Y-98342500D01*
X147705474Y-98342500D01*
X149964526Y-98342500D01*
X149964534Y-98342500D01*
X150001548Y-98339587D01*
X150001550Y-98339586D01*
X150001552Y-98339586D01*
X150043647Y-98327356D01*
X150159959Y-98293564D01*
X150301947Y-98209592D01*
X150418592Y-98092947D01*
X150502564Y-97950959D01*
X150548587Y-97792548D01*
X150551500Y-97755534D01*
X150551500Y-96404466D01*
X150548587Y-96367452D01*
X150543181Y-96348846D01*
X150502565Y-96209045D01*
X150502564Y-96209042D01*
X150502564Y-96209041D01*
X150418592Y-96067053D01*
X150418590Y-96067051D01*
X150418587Y-96067047D01*
X150301952Y-95950412D01*
X150301944Y-95950406D01*
X150245004Y-95916732D01*
X150197321Y-95865663D01*
X150184817Y-95796921D01*
X150211462Y-95732332D01*
X150245004Y-95703268D01*
X150301947Y-95669592D01*
X150418592Y-95552947D01*
X150502564Y-95410959D01*
X150548587Y-95252548D01*
X150551500Y-95215534D01*
X150551500Y-93864466D01*
X150548587Y-93827452D01*
X150539532Y-93796286D01*
X150502565Y-93669045D01*
X150502564Y-93669042D01*
X150502564Y-93669041D01*
X150432458Y-93550499D01*
X150418594Y-93527056D01*
X150418587Y-93527047D01*
X150301952Y-93410412D01*
X150301944Y-93410406D01*
X150272389Y-93392927D01*
X150245003Y-93376731D01*
X150197321Y-93325663D01*
X150184817Y-93256921D01*
X150211462Y-93192332D01*
X150245004Y-93163268D01*
X150254786Y-93157483D01*
X150301947Y-93129592D01*
X150418592Y-93012947D01*
X150502564Y-92870959D01*
X150548587Y-92712548D01*
X150551500Y-92675534D01*
X150551500Y-91324466D01*
X150549743Y-91302135D01*
X155899500Y-91302135D01*
X155899500Y-93097870D01*
X155899501Y-93097876D01*
X155905908Y-93157483D01*
X155956202Y-93292328D01*
X155956206Y-93292335D01*
X156042452Y-93407544D01*
X156042455Y-93407547D01*
X156157664Y-93493793D01*
X156157671Y-93493797D01*
X156192009Y-93506604D01*
X156292517Y-93544091D01*
X156352127Y-93550500D01*
X156362685Y-93550499D01*
X156429723Y-93570179D01*
X156450372Y-93586818D01*
X157120591Y-94257037D01*
X157057007Y-94274075D01*
X156942993Y-94339901D01*
X156849901Y-94432993D01*
X156784075Y-94547007D01*
X156767037Y-94610591D01*
X156134728Y-93978282D01*
X156134727Y-93978282D01*
X156095380Y-94032439D01*
X155998904Y-94221782D01*
X155933242Y-94423869D01*
X155933242Y-94423872D01*
X155900000Y-94633753D01*
X155900000Y-94846246D01*
X155933242Y-95056127D01*
X155933242Y-95056130D01*
X155998904Y-95258217D01*
X156095375Y-95447550D01*
X156134728Y-95501716D01*
X156767037Y-94869408D01*
X156784075Y-94932993D01*
X156849901Y-95047007D01*
X156942993Y-95140099D01*
X157057007Y-95205925D01*
X157120590Y-95222962D01*
X156488282Y-95855269D01*
X156488282Y-95855270D01*
X156542452Y-95894626D01*
X156542451Y-95894626D01*
X156551495Y-95899234D01*
X156602292Y-95947208D01*
X156619087Y-96015029D01*
X156596550Y-96081164D01*
X156551499Y-96120202D01*
X156542182Y-96124949D01*
X156370213Y-96249890D01*
X156219890Y-96400213D01*
X156094951Y-96572179D01*
X155998444Y-96761585D01*
X155932753Y-96963760D01*
X155915847Y-97070500D01*
X155899500Y-97173713D01*
X155899500Y-97386287D01*
X155906195Y-97428556D01*
X155928826Y-97571447D01*
X155932754Y-97596243D01*
X155992546Y-97780264D01*
X155998444Y-97798414D01*
X156094951Y-97987820D01*
X156219890Y-98159786D01*
X156370213Y-98310109D01*
X156542182Y-98435050D01*
X156550946Y-98439516D01*
X156601742Y-98487491D01*
X156618536Y-98555312D01*
X156595998Y-98621447D01*
X156550946Y-98660484D01*
X156542182Y-98664949D01*
X156370213Y-98789890D01*
X156219890Y-98940213D01*
X156094951Y-99112179D01*
X155998444Y-99301585D01*
X155932753Y-99503760D01*
X155909625Y-99649786D01*
X155899500Y-99713713D01*
X155899500Y-99926287D01*
X155903177Y-99949500D01*
X155928826Y-100111447D01*
X155932754Y-100136243D01*
X155991324Y-100316503D01*
X155998444Y-100338414D01*
X156094951Y-100527820D01*
X156219890Y-100699786D01*
X156370213Y-100850109D01*
X156542182Y-100975050D01*
X156550946Y-100979516D01*
X156601742Y-101027491D01*
X156618536Y-101095312D01*
X156595998Y-101161447D01*
X156550946Y-101200484D01*
X156542182Y-101204949D01*
X156370213Y-101329890D01*
X156219890Y-101480213D01*
X156094951Y-101652179D01*
X155998444Y-101841585D01*
X155932753Y-102043760D01*
X155909625Y-102189786D01*
X155899500Y-102253713D01*
X155899500Y-102466287D01*
X155906195Y-102508556D01*
X155928826Y-102651447D01*
X155932754Y-102676243D01*
X155993419Y-102862951D01*
X155998444Y-102878414D01*
X156094951Y-103067820D01*
X156219890Y-103239786D01*
X156370213Y-103390109D01*
X156542182Y-103515050D01*
X156550946Y-103519516D01*
X156601742Y-103567491D01*
X156618536Y-103635312D01*
X156595998Y-103701447D01*
X156550946Y-103740484D01*
X156542182Y-103744949D01*
X156370213Y-103869890D01*
X156219890Y-104020213D01*
X156094951Y-104192179D01*
X155998444Y-104381585D01*
X155932753Y-104583760D01*
X155899500Y-104793713D01*
X155899500Y-105006287D01*
X155901000Y-105015756D01*
X155928826Y-105191447D01*
X155932754Y-105216243D01*
X155968091Y-105325000D01*
X155998444Y-105418414D01*
X156094951Y-105607820D01*
X156219890Y-105779786D01*
X156370213Y-105930109D01*
X156542179Y-106055048D01*
X156542181Y-106055049D01*
X156542184Y-106055051D01*
X156731588Y-106151557D01*
X156933757Y-106217246D01*
X157143713Y-106250500D01*
X157143714Y-106250500D01*
X157356286Y-106250500D01*
X157356287Y-106250500D01*
X157566243Y-106217246D01*
X157768412Y-106151557D01*
X157957816Y-106055051D01*
X157979789Y-106039086D01*
X158129786Y-105930109D01*
X158129788Y-105930106D01*
X158129792Y-105930104D01*
X158280104Y-105779792D01*
X158280106Y-105779788D01*
X158280109Y-105779786D01*
X158405048Y-105607820D01*
X158405047Y-105607820D01*
X158405051Y-105607816D01*
X158501557Y-105418412D01*
X158567246Y-105216243D01*
X158600500Y-105006287D01*
X158600500Y-104793713D01*
X158567246Y-104583757D01*
X158501557Y-104381588D01*
X158405051Y-104192184D01*
X158405049Y-104192181D01*
X158405048Y-104192179D01*
X158280109Y-104020213D01*
X158129786Y-103869890D01*
X157957820Y-103744951D01*
X157955390Y-103743713D01*
X157949054Y-103740485D01*
X157898259Y-103692512D01*
X157881463Y-103624692D01*
X157903999Y-103558556D01*
X157949054Y-103519515D01*
X157957816Y-103515051D01*
X158022040Y-103468390D01*
X158129786Y-103390109D01*
X158129788Y-103390106D01*
X158129792Y-103390104D01*
X158280104Y-103239792D01*
X158280106Y-103239788D01*
X158280109Y-103239786D01*
X158405048Y-103067820D01*
X158405047Y-103067820D01*
X158405051Y-103067816D01*
X158501557Y-102878412D01*
X158567246Y-102676243D01*
X158600500Y-102466287D01*
X158600500Y-102253713D01*
X158567246Y-102043757D01*
X158501557Y-101841588D01*
X158405051Y-101652184D01*
X158405049Y-101652181D01*
X158405048Y-101652179D01*
X158280109Y-101480213D01*
X158129786Y-101329890D01*
X157957820Y-101204951D01*
X157955390Y-101203713D01*
X157949054Y-101200485D01*
X157898259Y-101152512D01*
X157881463Y-101084692D01*
X157903999Y-101018556D01*
X157949054Y-100979515D01*
X157957816Y-100975051D01*
X158020954Y-100929179D01*
X158129786Y-100850109D01*
X158129788Y-100850106D01*
X158129792Y-100850104D01*
X158280104Y-100699792D01*
X158280106Y-100699788D01*
X158280109Y-100699786D01*
X158405048Y-100527820D01*
X158405047Y-100527820D01*
X158405051Y-100527816D01*
X158501557Y-100338412D01*
X158567246Y-100136243D01*
X158600500Y-99926287D01*
X158600500Y-99713713D01*
X158567246Y-99503757D01*
X158501557Y-99301588D01*
X158405051Y-99112184D01*
X158405049Y-99112181D01*
X158405048Y-99112179D01*
X158280109Y-98940213D01*
X158129786Y-98789890D01*
X157957820Y-98664951D01*
X157955390Y-98663713D01*
X157949054Y-98660485D01*
X157898259Y-98612512D01*
X157881463Y-98544692D01*
X157903999Y-98478556D01*
X157949054Y-98439515D01*
X157957816Y-98435051D01*
X158009629Y-98397407D01*
X158129786Y-98310109D01*
X158129788Y-98310106D01*
X158129792Y-98310104D01*
X158280104Y-98159792D01*
X158280106Y-98159788D01*
X158280109Y-98159786D01*
X158405048Y-97987820D01*
X158405047Y-97987820D01*
X158405051Y-97987816D01*
X158501557Y-97798412D01*
X158567246Y-97596243D01*
X158600500Y-97386287D01*
X158600500Y-97173713D01*
X158567246Y-96963757D01*
X158501557Y-96761588D01*
X158405051Y-96572184D01*
X158405049Y-96572181D01*
X158405048Y-96572179D01*
X158280109Y-96400213D01*
X158129786Y-96249890D01*
X157957817Y-96124949D01*
X157948504Y-96120204D01*
X157897707Y-96072230D01*
X157880912Y-96004409D01*
X157903449Y-95938274D01*
X157948507Y-95899232D01*
X157957555Y-95894622D01*
X158011716Y-95855270D01*
X158011717Y-95855270D01*
X157379408Y-95222962D01*
X157442993Y-95205925D01*
X157557007Y-95140099D01*
X157650099Y-95047007D01*
X157715925Y-94932993D01*
X157732962Y-94869408D01*
X158365270Y-95501717D01*
X158365270Y-95501716D01*
X158404622Y-95447554D01*
X158501095Y-95258217D01*
X158566757Y-95056130D01*
X158566757Y-95056127D01*
X158600000Y-94846246D01*
X158600000Y-94633753D01*
X158566757Y-94423872D01*
X158566757Y-94423869D01*
X158501095Y-94221782D01*
X158404624Y-94032449D01*
X158365270Y-93978282D01*
X158365269Y-93978282D01*
X157732962Y-94610590D01*
X157715925Y-94547007D01*
X157650099Y-94432993D01*
X157557007Y-94339901D01*
X157442993Y-94274075D01*
X157379409Y-94257037D01*
X158049627Y-93586818D01*
X158110950Y-93553333D01*
X158137307Y-93550499D01*
X158147872Y-93550499D01*
X158207483Y-93544091D01*
X158342331Y-93493796D01*
X158457546Y-93407546D01*
X158543796Y-93292331D01*
X158594091Y-93157483D01*
X158600500Y-93097873D01*
X158600499Y-91302128D01*
X158594091Y-91242517D01*
X158559584Y-91150000D01*
X158543797Y-91107671D01*
X158543793Y-91107664D01*
X158457547Y-90992455D01*
X158457544Y-90992452D01*
X158342335Y-90906206D01*
X158342328Y-90906202D01*
X158207482Y-90855908D01*
X158207483Y-90855908D01*
X158147883Y-90849501D01*
X158147881Y-90849500D01*
X158147873Y-90849500D01*
X158147864Y-90849500D01*
X156352129Y-90849500D01*
X156352123Y-90849501D01*
X156292516Y-90855908D01*
X156157671Y-90906202D01*
X156157664Y-90906206D01*
X156042455Y-90992452D01*
X156042452Y-90992455D01*
X155956206Y-91107664D01*
X155956202Y-91107671D01*
X155905908Y-91242517D01*
X155899501Y-91302116D01*
X155899501Y-91302123D01*
X155899500Y-91302135D01*
X150549743Y-91302135D01*
X150548587Y-91287452D01*
X150546498Y-91280263D01*
X150502565Y-91129045D01*
X150502564Y-91129042D01*
X150502564Y-91129041D01*
X150421785Y-90992452D01*
X150418594Y-90987056D01*
X150418587Y-90987047D01*
X150301952Y-90870412D01*
X150301944Y-90870406D01*
X150245004Y-90836732D01*
X150197321Y-90785663D01*
X150184817Y-90716921D01*
X150211462Y-90652332D01*
X150245004Y-90623268D01*
X150247405Y-90621848D01*
X150301947Y-90589592D01*
X150418592Y-90472947D01*
X150502564Y-90330959D01*
X150548587Y-90172548D01*
X150551500Y-90135534D01*
X150551500Y-88784466D01*
X150548587Y-88747452D01*
X150546559Y-88740472D01*
X150502565Y-88589045D01*
X150502564Y-88589042D01*
X150502564Y-88589041D01*
X150418592Y-88447053D01*
X150418590Y-88447051D01*
X150418587Y-88447047D01*
X150301952Y-88330412D01*
X150301944Y-88330406D01*
X150245004Y-88296732D01*
X150197321Y-88245663D01*
X150184817Y-88176921D01*
X150211462Y-88112332D01*
X150245004Y-88083268D01*
X150301947Y-88049592D01*
X150418592Y-87932947D01*
X150502564Y-87790959D01*
X150536449Y-87674323D01*
X150548586Y-87632552D01*
X150548587Y-87632546D01*
X150548878Y-87628846D01*
X150551500Y-87595534D01*
X150551500Y-87221153D01*
X151499500Y-87221153D01*
X151499500Y-87378846D01*
X151530261Y-87533489D01*
X151530264Y-87533501D01*
X151590602Y-87679172D01*
X151590609Y-87679185D01*
X151678210Y-87810288D01*
X151678213Y-87810292D01*
X151789707Y-87921786D01*
X151789711Y-87921789D01*
X151920814Y-88009390D01*
X151920827Y-88009397D01*
X152066498Y-88069735D01*
X152066503Y-88069737D01*
X152193317Y-88094962D01*
X152221153Y-88100499D01*
X152221156Y-88100500D01*
X152221158Y-88100500D01*
X152271637Y-88100500D01*
X152304769Y-88105008D01*
X152315414Y-88107959D01*
X152318216Y-88109577D01*
X152407737Y-88133564D01*
X152470942Y-88150500D01*
X152470943Y-88150500D01*
X154520234Y-88150500D01*
X154587273Y-88170185D01*
X154589125Y-88171398D01*
X154720814Y-88259390D01*
X154720827Y-88259397D01*
X154866498Y-88319735D01*
X154866503Y-88319737D01*
X155021153Y-88350499D01*
X155021156Y-88350500D01*
X155021158Y-88350500D01*
X155178844Y-88350500D01*
X155178845Y-88350499D01*
X155333497Y-88319737D01*
X155479179Y-88259394D01*
X155610289Y-88171789D01*
X155721789Y-88060289D01*
X155809394Y-87929179D01*
X155869737Y-87783497D01*
X155900500Y-87628842D01*
X155900500Y-87471158D01*
X155900500Y-87471155D01*
X155900499Y-87471153D01*
X155869738Y-87316510D01*
X155869737Y-87316503D01*
X155865190Y-87305526D01*
X155809397Y-87170827D01*
X155809390Y-87170814D01*
X155721789Y-87039711D01*
X155721786Y-87039707D01*
X155610292Y-86928213D01*
X155610288Y-86928210D01*
X155479185Y-86840609D01*
X155479172Y-86840602D01*
X155333501Y-86780264D01*
X155333489Y-86780261D01*
X155178845Y-86749500D01*
X155178842Y-86749500D01*
X155021158Y-86749500D01*
X155021155Y-86749500D01*
X154866510Y-86780261D01*
X154866498Y-86780264D01*
X154720827Y-86840602D01*
X154720814Y-86840609D01*
X154589125Y-86928602D01*
X154522447Y-86949480D01*
X154520234Y-86949500D01*
X153094836Y-86949500D01*
X153027797Y-86929815D01*
X152991734Y-86894391D01*
X152921789Y-86789710D01*
X152810292Y-86678213D01*
X152810288Y-86678210D01*
X152679185Y-86590609D01*
X152679172Y-86590602D01*
X152533501Y-86530264D01*
X152533489Y-86530261D01*
X152378845Y-86499500D01*
X152378842Y-86499500D01*
X152221158Y-86499500D01*
X152221155Y-86499500D01*
X152066510Y-86530261D01*
X152066498Y-86530264D01*
X151920827Y-86590602D01*
X151920814Y-86590609D01*
X151789711Y-86678210D01*
X151789707Y-86678213D01*
X151678213Y-86789707D01*
X151678210Y-86789711D01*
X151590609Y-86920814D01*
X151590602Y-86920827D01*
X151530264Y-87066498D01*
X151530261Y-87066510D01*
X151499500Y-87221153D01*
X150551500Y-87221153D01*
X150551500Y-86244466D01*
X150548587Y-86207452D01*
X150518479Y-86103822D01*
X150502565Y-86049045D01*
X150502564Y-86049042D01*
X150502564Y-86049041D01*
X150418592Y-85907053D01*
X150418590Y-85907051D01*
X150418587Y-85907047D01*
X150301952Y-85790412D01*
X150301949Y-85790410D01*
X150301947Y-85790408D01*
X150244511Y-85756440D01*
X150196829Y-85705371D01*
X150184326Y-85636630D01*
X150210972Y-85572040D01*
X150244514Y-85542976D01*
X150301637Y-85509193D01*
X150301643Y-85509189D01*
X150418189Y-85392643D01*
X150418196Y-85392634D01*
X150502102Y-85250756D01*
X150502103Y-85250753D01*
X150548088Y-85092473D01*
X150548089Y-85092467D01*
X150550999Y-85055488D01*
X150550999Y-83704530D01*
X150550998Y-83704508D01*
X150548089Y-83667533D01*
X150502102Y-83509242D01*
X150418196Y-83367365D01*
X150418189Y-83367356D01*
X150301643Y-83250810D01*
X150301634Y-83250803D01*
X150244513Y-83217022D01*
X150196829Y-83165953D01*
X150184326Y-83097211D01*
X150210972Y-83032622D01*
X150244514Y-83003558D01*
X150301941Y-82969596D01*
X150301942Y-82969594D01*
X150301947Y-82969592D01*
X150418592Y-82852947D01*
X150502564Y-82710959D01*
X150548587Y-82552548D01*
X150551500Y-82515534D01*
X150551500Y-81164466D01*
X150548587Y-81127452D01*
X150502564Y-80969041D01*
X150502561Y-80969036D01*
X150502448Y-80968774D01*
X150502363Y-80968693D01*
X150502297Y-80968424D01*
X150499467Y-80961885D01*
X150500578Y-80961403D01*
X150494179Y-80935263D01*
X150485706Y-80901868D01*
X150485877Y-80901354D01*
X150485749Y-80900828D01*
X150496954Y-80868232D01*
X150507866Y-80835605D01*
X150508287Y-80835266D01*
X150508464Y-80834753D01*
X150535475Y-80813419D01*
X150562331Y-80791841D01*
X150562871Y-80791783D01*
X150563295Y-80791449D01*
X150597542Y-80788106D01*
X150631811Y-80784472D01*
X150632474Y-80784697D01*
X150632835Y-80784662D01*
X150666204Y-80796133D01*
X150750027Y-80839126D01*
X150754574Y-80841582D01*
X151323501Y-81164458D01*
X151558796Y-81297992D01*
X151563300Y-81300674D01*
X151724837Y-81401605D01*
X152347543Y-81790678D01*
X152351918Y-81793542D01*
X153102624Y-82307938D01*
X153114725Y-82316230D01*
X153118980Y-82319280D01*
X153834455Y-82855333D01*
X153859039Y-82873752D01*
X153863163Y-82876980D01*
X154217268Y-83166436D01*
X154579106Y-83462212D01*
X154583093Y-83465614D01*
X154809747Y-83667453D01*
X155273674Y-84080586D01*
X155277508Y-84084148D01*
X155419301Y-84221591D01*
X155941484Y-84727755D01*
X155945169Y-84731481D01*
X156581349Y-85402566D01*
X156584874Y-85406445D01*
X156721468Y-85563309D01*
X157186657Y-86097533D01*
X157192134Y-86103822D01*
X157195483Y-86107837D01*
X157732785Y-86780264D01*
X157772741Y-86830268D01*
X157775920Y-86834424D01*
X158022167Y-87170821D01*
X158322116Y-87580581D01*
X158325122Y-87584875D01*
X158823888Y-88330413D01*
X158839297Y-88353445D01*
X158842119Y-88357862D01*
X159323365Y-89147490D01*
X159325997Y-89152022D01*
X159773429Y-89961252D01*
X159775868Y-89965891D01*
X160162954Y-90741702D01*
X160188724Y-90793350D01*
X160190964Y-90798089D01*
X160568465Y-91642213D01*
X160570503Y-91647041D01*
X160903359Y-92484632D01*
X160911999Y-92506372D01*
X160913828Y-92511274D01*
X161139504Y-93157483D01*
X161218716Y-93384303D01*
X161220339Y-93389287D01*
X161251949Y-93493796D01*
X161398489Y-93978282D01*
X161488051Y-94274387D01*
X161489462Y-94279434D01*
X161719537Y-95175080D01*
X161720733Y-95180183D01*
X161912747Y-96084719D01*
X161913727Y-96089868D01*
X162067350Y-97001741D01*
X162068111Y-97006927D01*
X162183058Y-97924442D01*
X162183600Y-97929655D01*
X162259674Y-98851258D01*
X162259994Y-98856489D01*
X162297053Y-99780423D01*
X162297153Y-99785664D01*
X162295133Y-100710406D01*
X162295010Y-100715645D01*
X162253918Y-101639408D01*
X162253575Y-101644639D01*
X162173477Y-102565882D01*
X162172913Y-102571092D01*
X162053957Y-103488121D01*
X162053173Y-103493304D01*
X161895572Y-104404481D01*
X161894570Y-104409625D01*
X161698602Y-105313337D01*
X161697383Y-105318435D01*
X161463404Y-106213044D01*
X161461971Y-106218086D01*
X161190390Y-107102027D01*
X161188745Y-107107003D01*
X160880058Y-107978663D01*
X160878204Y-107983566D01*
X160532955Y-108841407D01*
X160530896Y-108846226D01*
X160149709Y-109688702D01*
X160147448Y-109693431D01*
X159730991Y-110519058D01*
X159728532Y-110523687D01*
X159277559Y-111330976D01*
X159274907Y-111335496D01*
X158790227Y-112122999D01*
X158787386Y-112127404D01*
X158269844Y-112893743D01*
X158266819Y-112898023D01*
X157717386Y-113641765D01*
X157714184Y-113645914D01*
X157133786Y-114365804D01*
X157130411Y-114369814D01*
X156520113Y-115064532D01*
X156516571Y-115068396D01*
X155877454Y-115736708D01*
X155873752Y-115740418D01*
X155206990Y-116381102D01*
X155203135Y-116384653D01*
X154509874Y-116996603D01*
X154505872Y-116999988D01*
X153787381Y-117582087D01*
X153783240Y-117585300D01*
X153040755Y-118136542D01*
X153036481Y-118139576D01*
X152271431Y-118658905D01*
X152267034Y-118661757D01*
X151480658Y-119148331D01*
X151476143Y-119150994D01*
X150669951Y-119603878D01*
X150665328Y-119606348D01*
X149840675Y-120024780D01*
X149835952Y-120027052D01*
X148994399Y-120410241D01*
X148989584Y-120412312D01*
X148132556Y-120759608D01*
X148127658Y-120761473D01*
X147256748Y-121072231D01*
X147251776Y-121073888D01*
X146368484Y-121347574D01*
X146363446Y-121349019D01*
X145469391Y-121585130D01*
X145464296Y-121586361D01*
X144561049Y-121784482D01*
X144555907Y-121785496D01*
X143645107Y-121945267D01*
X143639926Y-121946063D01*
X142723204Y-122067201D01*
X142717995Y-122067778D01*
X141796947Y-122150069D01*
X141791718Y-122150425D01*
X140868029Y-122193720D01*
X140862789Y-122193855D01*
X139938078Y-122198078D01*
X139932838Y-122197991D01*
X139008798Y-122163133D01*
X139003565Y-122162825D01*
X138081805Y-122088947D01*
X138076591Y-122088418D01*
X137158784Y-121975655D01*
X137153596Y-121974906D01*
X136241361Y-121823456D01*
X136236210Y-121822488D01*
X135331224Y-121632631D01*
X135326118Y-121631447D01*
X134429933Y-121403507D01*
X134424882Y-121402108D01*
X133539141Y-121136503D01*
X133534154Y-121134892D01*
X132660415Y-120832090D01*
X132655500Y-120830269D01*
X131795354Y-120490820D01*
X131790520Y-120488793D01*
X130945482Y-120113297D01*
X130940739Y-120111068D01*
X130112346Y-119700207D01*
X130107700Y-119697780D01*
X129297360Y-119252252D01*
X129292822Y-119249630D01*
X128502077Y-118770283D01*
X128497653Y-118767472D01*
X127727844Y-118255119D01*
X127723543Y-118252123D01*
X127367617Y-117992881D01*
X126976081Y-117707701D01*
X126971937Y-117704547D01*
X126503259Y-117331876D01*
X126248141Y-117129018D01*
X126244108Y-117125670D01*
X125720356Y-116671789D01*
X125545262Y-116520053D01*
X125541386Y-116516547D01*
X125448776Y-116429172D01*
X125130453Y-116128842D01*
X124868811Y-115881989D01*
X124865076Y-115878313D01*
X124219872Y-115215854D01*
X124216295Y-115212022D01*
X123599692Y-114522921D01*
X123596280Y-114518943D01*
X123207881Y-114046100D01*
X123009313Y-113804360D01*
X123006097Y-113800270D01*
X122651035Y-113328711D01*
X125599500Y-113328711D01*
X125599500Y-113571288D01*
X125631161Y-113811785D01*
X125693947Y-114046104D01*
X125786773Y-114270205D01*
X125786776Y-114270212D01*
X125908064Y-114480289D01*
X125908066Y-114480292D01*
X125908067Y-114480293D01*
X126055733Y-114672736D01*
X126055739Y-114672743D01*
X126227256Y-114844260D01*
X126227262Y-114844265D01*
X126419711Y-114991936D01*
X126629788Y-115113224D01*
X126853900Y-115206054D01*
X127088211Y-115268838D01*
X127268586Y-115292584D01*
X127328711Y-115300500D01*
X127328712Y-115300500D01*
X127571289Y-115300500D01*
X127619388Y-115294167D01*
X127811789Y-115268838D01*
X128046100Y-115206054D01*
X128270212Y-115113224D01*
X128480289Y-114991936D01*
X128672738Y-114844265D01*
X128844265Y-114672738D01*
X128991936Y-114480289D01*
X129113224Y-114270212D01*
X129206054Y-114046100D01*
X129268838Y-113811789D01*
X129300500Y-113571288D01*
X129300500Y-113352533D01*
X133984500Y-113352533D01*
X133984500Y-113567467D01*
X133993025Y-113621288D01*
X134018124Y-113779756D01*
X134018124Y-113779759D01*
X134084540Y-113984167D01*
X134084541Y-113984170D01*
X134141573Y-114096100D01*
X134182120Y-114175678D01*
X134308455Y-114349563D01*
X134460437Y-114501545D01*
X134604852Y-114606469D01*
X134636802Y-114629682D01*
X134679467Y-114685012D01*
X134685446Y-114754626D01*
X134652840Y-114816421D01*
X134636802Y-114830318D01*
X134634322Y-114832120D01*
X134460437Y-114958455D01*
X134460435Y-114958457D01*
X134460434Y-114958457D01*
X134308457Y-115110434D01*
X134308457Y-115110435D01*
X134308455Y-115110437D01*
X134270103Y-115163224D01*
X134182120Y-115284321D01*
X134084541Y-115475829D01*
X134084540Y-115475832D01*
X134018124Y-115680240D01*
X134018124Y-115680243D01*
X133984500Y-115892534D01*
X133984500Y-116107465D01*
X134018124Y-116319756D01*
X134018124Y-116319759D01*
X134084540Y-116524167D01*
X134084541Y-116524170D01*
X134159756Y-116671786D01*
X134182120Y-116715678D01*
X134308455Y-116889563D01*
X134460437Y-117041545D01*
X134634322Y-117167880D01*
X134728251Y-117215739D01*
X134825829Y-117265458D01*
X134825832Y-117265459D01*
X134957839Y-117308350D01*
X135030245Y-117331876D01*
X135242533Y-117365500D01*
X135242534Y-117365500D01*
X135757466Y-117365500D01*
X135757467Y-117365500D01*
X135969755Y-117331876D01*
X135969758Y-117331875D01*
X135969759Y-117331875D01*
X136174167Y-117265459D01*
X136174170Y-117265458D01*
X136259088Y-117222190D01*
X136365678Y-117167880D01*
X136539563Y-117041545D01*
X136691545Y-116889563D01*
X136817880Y-116715678D01*
X136915458Y-116524170D01*
X136961352Y-116382923D01*
X136981875Y-116319759D01*
X136981875Y-116319758D01*
X136981876Y-116319755D01*
X137015500Y-116107467D01*
X137015500Y-115892533D01*
X136981876Y-115680245D01*
X136981875Y-115680241D01*
X136981875Y-115680240D01*
X136915459Y-115475832D01*
X136915458Y-115475829D01*
X136851016Y-115349356D01*
X136817880Y-115284322D01*
X136691545Y-115110437D01*
X136539563Y-114958455D01*
X136365678Y-114832120D01*
X136363198Y-114830318D01*
X136320532Y-114774988D01*
X136314553Y-114705375D01*
X136347159Y-114643580D01*
X136363198Y-114629682D01*
X136395148Y-114606469D01*
X136539563Y-114501545D01*
X136691545Y-114349563D01*
X136817880Y-114175678D01*
X136915458Y-113984170D01*
X136981876Y-113779755D01*
X137015500Y-113567467D01*
X137015500Y-113352533D01*
X136981876Y-113140245D01*
X136981875Y-113140241D01*
X136981875Y-113140240D01*
X136915459Y-112935832D01*
X136915458Y-112935829D01*
X136865739Y-112838251D01*
X136817880Y-112744322D01*
X136691545Y-112570437D01*
X136596630Y-112475522D01*
X136594244Y-112471153D01*
X138449500Y-112471153D01*
X138449500Y-112628846D01*
X138480261Y-112783489D01*
X138480264Y-112783501D01*
X138540602Y-112929172D01*
X138540609Y-112929185D01*
X138628210Y-113060288D01*
X138628213Y-113060292D01*
X138663180Y-113095258D01*
X138696666Y-113156580D01*
X138699500Y-113182940D01*
X138699500Y-115470234D01*
X138679815Y-115537273D01*
X138678602Y-115539125D01*
X138590609Y-115670814D01*
X138590602Y-115670827D01*
X138530264Y-115816498D01*
X138530261Y-115816510D01*
X138499500Y-115971153D01*
X138499500Y-116128846D01*
X138530261Y-116283489D01*
X138530264Y-116283501D01*
X138590602Y-116429172D01*
X138590609Y-116429185D01*
X138678210Y-116560288D01*
X138678213Y-116560292D01*
X138789707Y-116671786D01*
X138789711Y-116671789D01*
X138920814Y-116759390D01*
X138920827Y-116759397D01*
X139066498Y-116819735D01*
X139066503Y-116819737D01*
X139221153Y-116850499D01*
X139221156Y-116850500D01*
X139221158Y-116850500D01*
X139378844Y-116850500D01*
X139378845Y-116850499D01*
X139533497Y-116819737D01*
X139679179Y-116759394D01*
X139810289Y-116671789D01*
X139921789Y-116560289D01*
X140009394Y-116429179D01*
X140069737Y-116283497D01*
X140091429Y-116174446D01*
X140100500Y-116128844D01*
X140100500Y-115971155D01*
X140100499Y-115971153D01*
X140092881Y-115932857D01*
X140069737Y-115816503D01*
X140013297Y-115680243D01*
X140009397Y-115670827D01*
X140009390Y-115670814D01*
X139921398Y-115539125D01*
X139900520Y-115472447D01*
X139900500Y-115470234D01*
X139900500Y-113054935D01*
X139920185Y-112987896D01*
X139921366Y-112986090D01*
X139959394Y-112929179D01*
X140019737Y-112783497D01*
X140050500Y-112628842D01*
X140050500Y-112471158D01*
X140050500Y-112471155D01*
X140050499Y-112471153D01*
X140019738Y-112316510D01*
X140019737Y-112316503D01*
X140008169Y-112288574D01*
X139959397Y-112170827D01*
X139959390Y-112170814D01*
X139871789Y-112039711D01*
X139871786Y-112039707D01*
X139760292Y-111928213D01*
X139760288Y-111928210D01*
X139629185Y-111840609D01*
X139629172Y-111840602D01*
X139483501Y-111780264D01*
X139483489Y-111780261D01*
X139328845Y-111749500D01*
X139328842Y-111749500D01*
X139171158Y-111749500D01*
X139171155Y-111749500D01*
X139016510Y-111780261D01*
X139016498Y-111780264D01*
X138870827Y-111840602D01*
X138870814Y-111840609D01*
X138739711Y-111928210D01*
X138739707Y-111928213D01*
X138628213Y-112039707D01*
X138628210Y-112039711D01*
X138540609Y-112170814D01*
X138540602Y-112170827D01*
X138480264Y-112316498D01*
X138480261Y-112316510D01*
X138449500Y-112471153D01*
X136594244Y-112471153D01*
X136563145Y-112414199D01*
X136568129Y-112344507D01*
X136610001Y-112288574D01*
X136640979Y-112271659D01*
X136757084Y-112228355D01*
X136757093Y-112228350D01*
X136872187Y-112142190D01*
X136872190Y-112142187D01*
X136958350Y-112027093D01*
X136958354Y-112027086D01*
X137008596Y-111892379D01*
X137008598Y-111892372D01*
X137014999Y-111832844D01*
X137015000Y-111832827D01*
X137015000Y-111170000D01*
X135944560Y-111170000D01*
X135975245Y-111116853D01*
X136010000Y-110987143D01*
X136010000Y-110852857D01*
X135999196Y-110812534D01*
X143484500Y-110812534D01*
X143484500Y-111027465D01*
X143518124Y-111239756D01*
X143518124Y-111239759D01*
X143584540Y-111444167D01*
X143584541Y-111444170D01*
X143663686Y-111599500D01*
X143682120Y-111635678D01*
X143808455Y-111809563D01*
X143960437Y-111961545D01*
X144050656Y-112027093D01*
X144136802Y-112089682D01*
X144179467Y-112145012D01*
X144185446Y-112214626D01*
X144152840Y-112276421D01*
X144136802Y-112290318D01*
X144132321Y-112293574D01*
X143960437Y-112418455D01*
X143960435Y-112418457D01*
X143960434Y-112418457D01*
X143808457Y-112570434D01*
X143808457Y-112570435D01*
X143808455Y-112570437D01*
X143766021Y-112628842D01*
X143682120Y-112744321D01*
X143584541Y-112935829D01*
X143584540Y-112935832D01*
X143518124Y-113140240D01*
X143518124Y-113140243D01*
X143498429Y-113264588D01*
X143484500Y-113352533D01*
X143484500Y-113567467D01*
X143493025Y-113621288D01*
X143518124Y-113779756D01*
X143518124Y-113779759D01*
X143584540Y-113984167D01*
X143584541Y-113984170D01*
X143641573Y-114096100D01*
X143682120Y-114175678D01*
X143808455Y-114349563D01*
X143808457Y-114349565D01*
X143903369Y-114444477D01*
X143936854Y-114505800D01*
X143931870Y-114575492D01*
X143889998Y-114631425D01*
X143859021Y-114648340D01*
X143742913Y-114691645D01*
X143742906Y-114691649D01*
X143627812Y-114777809D01*
X143627809Y-114777812D01*
X143541649Y-114892906D01*
X143541645Y-114892913D01*
X143491403Y-115027620D01*
X143491401Y-115027627D01*
X143485000Y-115087155D01*
X143485000Y-115750000D01*
X144555440Y-115750000D01*
X144524755Y-115803147D01*
X144490000Y-115932857D01*
X144490000Y-116067143D01*
X144524755Y-116196853D01*
X144555440Y-116250000D01*
X143485000Y-116250000D01*
X143485000Y-116912844D01*
X143491401Y-116972372D01*
X143491403Y-116972379D01*
X143541645Y-117107086D01*
X143541649Y-117107093D01*
X143627809Y-117222187D01*
X143627812Y-117222190D01*
X143742906Y-117308350D01*
X143742913Y-117308354D01*
X143877620Y-117358596D01*
X143877627Y-117358598D01*
X143937155Y-117364999D01*
X143937172Y-117365000D01*
X144750000Y-117365000D01*
X144750000Y-116444560D01*
X144803147Y-116475245D01*
X144932857Y-116510000D01*
X145067143Y-116510000D01*
X145196853Y-116475245D01*
X145250000Y-116444560D01*
X145250000Y-117365000D01*
X146062828Y-117365000D01*
X146062844Y-117364999D01*
X146122372Y-117358598D01*
X146122379Y-117358596D01*
X146257086Y-117308354D01*
X146257093Y-117308350D01*
X146372187Y-117222190D01*
X146372190Y-117222187D01*
X146458350Y-117107093D01*
X146458354Y-117107086D01*
X146508596Y-116972379D01*
X146508598Y-116972372D01*
X146514999Y-116912844D01*
X146515000Y-116912827D01*
X146515000Y-116250000D01*
X145444560Y-116250000D01*
X145475245Y-116196853D01*
X145510000Y-116067143D01*
X145510000Y-115932857D01*
X145475245Y-115803147D01*
X145444560Y-115750000D01*
X146515000Y-115750000D01*
X146515000Y-115087172D01*
X146514999Y-115087155D01*
X146508598Y-115027627D01*
X146508596Y-115027620D01*
X146458354Y-114892913D01*
X146458350Y-114892906D01*
X146372190Y-114777812D01*
X146372187Y-114777809D01*
X146257093Y-114691649D01*
X146257086Y-114691645D01*
X146140978Y-114648340D01*
X146085044Y-114606469D01*
X146060627Y-114541005D01*
X146075479Y-114472732D01*
X146096624Y-114444483D01*
X146191545Y-114349563D01*
X146317880Y-114175678D01*
X146415458Y-113984170D01*
X146481876Y-113779755D01*
X146515500Y-113567467D01*
X146515500Y-113378711D01*
X150649500Y-113378711D01*
X150649500Y-113621288D01*
X150681161Y-113861785D01*
X150743947Y-114096104D01*
X150776908Y-114175678D01*
X150836776Y-114320212D01*
X150958064Y-114530289D01*
X150958066Y-114530292D01*
X150958067Y-114530293D01*
X151105733Y-114722736D01*
X151105739Y-114722743D01*
X151277256Y-114894260D01*
X151277262Y-114894265D01*
X151469711Y-115041936D01*
X151679788Y-115163224D01*
X151903900Y-115256054D01*
X152138211Y-115318838D01*
X152318586Y-115342584D01*
X152378711Y-115350500D01*
X152378712Y-115350500D01*
X152621289Y-115350500D01*
X152669388Y-115344167D01*
X152861789Y-115318838D01*
X153096100Y-115256054D01*
X153320212Y-115163224D01*
X153530289Y-115041936D01*
X153722738Y-114894265D01*
X153894265Y-114722738D01*
X154041936Y-114530289D01*
X154163224Y-114320212D01*
X154256054Y-114096100D01*
X154318838Y-113861789D01*
X154350500Y-113621288D01*
X154350500Y-113378712D01*
X154343917Y-113328712D01*
X154342584Y-113318586D01*
X154318838Y-113138211D01*
X154256054Y-112903900D01*
X154163224Y-112679788D01*
X154041936Y-112469711D01*
X153924372Y-112316498D01*
X153894266Y-112277263D01*
X153894260Y-112277256D01*
X153722743Y-112105739D01*
X153722736Y-112105733D01*
X153530293Y-111958067D01*
X153530292Y-111958066D01*
X153530289Y-111958064D01*
X153320212Y-111836776D01*
X153320205Y-111836773D01*
X153096104Y-111743947D01*
X152861785Y-111681161D01*
X152621289Y-111649500D01*
X152621288Y-111649500D01*
X152378712Y-111649500D01*
X152378711Y-111649500D01*
X152138214Y-111681161D01*
X151903895Y-111743947D01*
X151679794Y-111836773D01*
X151679785Y-111836777D01*
X151469706Y-111958067D01*
X151277263Y-112105733D01*
X151277256Y-112105739D01*
X151105739Y-112277256D01*
X151105733Y-112277263D01*
X150958067Y-112469706D01*
X150958064Y-112469710D01*
X150958064Y-112469711D01*
X150957230Y-112471155D01*
X150836777Y-112679785D01*
X150836773Y-112679794D01*
X150743947Y-112903895D01*
X150681161Y-113138214D01*
X150649500Y-113378711D01*
X146515500Y-113378711D01*
X146515500Y-113352533D01*
X146481876Y-113140245D01*
X146481875Y-113140241D01*
X146481875Y-113140240D01*
X146415459Y-112935832D01*
X146415458Y-112935829D01*
X146365739Y-112838251D01*
X146317880Y-112744322D01*
X146191545Y-112570437D01*
X146039563Y-112418455D01*
X145985250Y-112378994D01*
X145863198Y-112290318D01*
X145820532Y-112234988D01*
X145814553Y-112165375D01*
X145847159Y-112103580D01*
X145863198Y-112089682D01*
X145949344Y-112027093D01*
X146039563Y-111961545D01*
X146191545Y-111809563D01*
X146317880Y-111635678D01*
X146415458Y-111444170D01*
X146481876Y-111239755D01*
X146515500Y-111027467D01*
X146515500Y-110812533D01*
X146481876Y-110600245D01*
X146481875Y-110600241D01*
X146481875Y-110600240D01*
X146415459Y-110395832D01*
X146415458Y-110395829D01*
X146365739Y-110298251D01*
X146317880Y-110204322D01*
X146191545Y-110030437D01*
X146039563Y-109878455D01*
X145865678Y-109752120D01*
X145800119Y-109718716D01*
X145674170Y-109654541D01*
X145674167Y-109654540D01*
X145469757Y-109588124D01*
X145328229Y-109565708D01*
X145257467Y-109554500D01*
X144742533Y-109554500D01*
X144671770Y-109565708D01*
X144530243Y-109588124D01*
X144530240Y-109588124D01*
X144325832Y-109654540D01*
X144325829Y-109654541D01*
X144134321Y-109752120D01*
X144050657Y-109812906D01*
X143960437Y-109878455D01*
X143960435Y-109878457D01*
X143960434Y-109878457D01*
X143808457Y-110030434D01*
X143808457Y-110030435D01*
X143808455Y-110030437D01*
X143786464Y-110060705D01*
X143682120Y-110204321D01*
X143584541Y-110395829D01*
X143584540Y-110395832D01*
X143518124Y-110600240D01*
X143518124Y-110600243D01*
X143484500Y-110812534D01*
X135999196Y-110812534D01*
X135975245Y-110723147D01*
X135944560Y-110670000D01*
X137015000Y-110670000D01*
X137015000Y-110007172D01*
X137014999Y-110007155D01*
X137008598Y-109947627D01*
X137008596Y-109947620D01*
X136958354Y-109812913D01*
X136958350Y-109812906D01*
X136872190Y-109697812D01*
X136872187Y-109697809D01*
X136757093Y-109611649D01*
X136757086Y-109611645D01*
X136622379Y-109561403D01*
X136622372Y-109561401D01*
X136562844Y-109555000D01*
X135750000Y-109555000D01*
X135750000Y-110475439D01*
X135696853Y-110444755D01*
X135567143Y-110410000D01*
X135432857Y-110410000D01*
X135303147Y-110444755D01*
X135250000Y-110475439D01*
X135250000Y-109555000D01*
X134437155Y-109555000D01*
X134377627Y-109561401D01*
X134377620Y-109561403D01*
X134242913Y-109611645D01*
X134242906Y-109611649D01*
X134127812Y-109697809D01*
X134127809Y-109697812D01*
X134041649Y-109812906D01*
X134041645Y-109812913D01*
X133991403Y-109947620D01*
X133991401Y-109947627D01*
X133985000Y-110007155D01*
X133985000Y-110670000D01*
X135055440Y-110670000D01*
X135024755Y-110723147D01*
X134990000Y-110852857D01*
X134990000Y-110987143D01*
X135024755Y-111116853D01*
X135055440Y-111170000D01*
X133985000Y-111170000D01*
X133985000Y-111832844D01*
X133991401Y-111892372D01*
X133991403Y-111892379D01*
X134041645Y-112027086D01*
X134041649Y-112027093D01*
X134127809Y-112142187D01*
X134127812Y-112142190D01*
X134242906Y-112228350D01*
X134242913Y-112228354D01*
X134359021Y-112271659D01*
X134414954Y-112313530D01*
X134439372Y-112378994D01*
X134424521Y-112447267D01*
X134403370Y-112475522D01*
X134308454Y-112570438D01*
X134182120Y-112744321D01*
X134084541Y-112935829D01*
X134084540Y-112935832D01*
X134018124Y-113140240D01*
X134018124Y-113140243D01*
X133998429Y-113264588D01*
X133984500Y-113352533D01*
X129300500Y-113352533D01*
X129300500Y-113328712D01*
X129268838Y-113088211D01*
X129206054Y-112853900D01*
X129113224Y-112629788D01*
X128991936Y-112419711D01*
X128894032Y-112292120D01*
X128844266Y-112227263D01*
X128844260Y-112227256D01*
X128672743Y-112055739D01*
X128672736Y-112055733D01*
X128480293Y-111908067D01*
X128480292Y-111908066D01*
X128480289Y-111908064D01*
X128270212Y-111786776D01*
X128254491Y-111780264D01*
X128046104Y-111693947D01*
X127811785Y-111631161D01*
X127571289Y-111599500D01*
X127571288Y-111599500D01*
X127328712Y-111599500D01*
X127328711Y-111599500D01*
X127088214Y-111631161D01*
X126853895Y-111693947D01*
X126629794Y-111786773D01*
X126629785Y-111786777D01*
X126419706Y-111908067D01*
X126227263Y-112055733D01*
X126227256Y-112055739D01*
X126055739Y-112227256D01*
X126055733Y-112227263D01*
X125908067Y-112419706D01*
X125786777Y-112629785D01*
X125786773Y-112629794D01*
X125693947Y-112853895D01*
X125631161Y-113088214D01*
X125599500Y-113328711D01*
X122651035Y-113328711D01*
X122449868Y-113061540D01*
X122446814Y-113057301D01*
X122445184Y-113054935D01*
X121922306Y-112295735D01*
X121919426Y-112291358D01*
X121884018Y-112234988D01*
X121771425Y-112055735D01*
X121427566Y-111508300D01*
X121424873Y-111503804D01*
X121234381Y-111170000D01*
X120966542Y-110700660D01*
X120964050Y-110696069D01*
X120950600Y-110670000D01*
X120540062Y-109874258D01*
X120537777Y-109869589D01*
X120148904Y-109030615D01*
X120146804Y-109025821D01*
X119793719Y-108171128D01*
X119791837Y-108166286D01*
X119475176Y-107297409D01*
X119473515Y-107292531D01*
X119193860Y-106411063D01*
X119192395Y-106406082D01*
X118950246Y-105513606D01*
X118948982Y-105508524D01*
X118932354Y-105435090D01*
X118744775Y-104606666D01*
X118743726Y-104601534D01*
X118735504Y-104556455D01*
X118577803Y-103691794D01*
X118576975Y-103686632D01*
X118571991Y-103650781D01*
X118449650Y-102770725D01*
X118449040Y-102765533D01*
X118442253Y-102694951D01*
X118360531Y-101845047D01*
X118360142Y-101839835D01*
X118310613Y-100916443D01*
X118310444Y-100911219D01*
X118299980Y-99986544D01*
X118300030Y-99981378D01*
X118328654Y-99057015D01*
X118328922Y-99051873D01*
X118396581Y-98129569D01*
X118397070Y-98124403D01*
X118503641Y-97205813D01*
X118504353Y-97200638D01*
X118507738Y-97179361D01*
X118649647Y-96287362D01*
X118650562Y-96282303D01*
X118834327Y-95375965D01*
X118835466Y-95370899D01*
X119057362Y-94473155D01*
X119058702Y-94468184D01*
X119318354Y-93580560D01*
X119319909Y-93575633D01*
X119616818Y-92699836D01*
X119618580Y-92694977D01*
X119952241Y-91832493D01*
X119954231Y-91827658D01*
X120034095Y-91644610D01*
X120166730Y-91340608D01*
X120320007Y-90989294D01*
X120324015Y-90980107D01*
X120326214Y-90975344D01*
X120359927Y-90906202D01*
X120731494Y-90144155D01*
X120733857Y-90139556D01*
X121173919Y-89326201D01*
X121176502Y-89321661D01*
X121650545Y-88527627D01*
X121653280Y-88523259D01*
X122160442Y-87749985D01*
X122163374Y-87745713D01*
X122702790Y-86994520D01*
X122705880Y-86990404D01*
X123276522Y-86262725D01*
X123279839Y-86258675D01*
X123880734Y-85555746D01*
X123884168Y-85551897D01*
X124514243Y-84874977D01*
X124517875Y-84871239D01*
X125015488Y-84379999D01*
X125175955Y-84221586D01*
X125179729Y-84218014D01*
X125864712Y-83596719D01*
X125868606Y-83593334D01*
X126579239Y-83001535D01*
X126583277Y-82998314D01*
X127318286Y-82437073D01*
X127322471Y-82434016D01*
X128080549Y-81904330D01*
X128084827Y-81901474D01*
X128864594Y-81404310D01*
X128869013Y-81401622D01*
X129669094Y-80937854D01*
X129673636Y-80935348D01*
X130162359Y-80679014D01*
X130230868Y-80665308D01*
X130295914Y-80690818D01*
X130336843Y-80747445D01*
X130340660Y-80817210D01*
X130326684Y-80851948D01*
X130257435Y-80969042D01*
X130257434Y-80969045D01*
X130211413Y-81127447D01*
X130211412Y-81127453D01*
X130208500Y-81164458D01*
X130208500Y-82185200D01*
X130188815Y-82252239D01*
X130136011Y-82297994D01*
X130066853Y-82307938D01*
X130003297Y-82278913D01*
X129981398Y-82254092D01*
X129971786Y-82239707D01*
X129860292Y-82128213D01*
X129860288Y-82128210D01*
X129729185Y-82040609D01*
X129729172Y-82040602D01*
X129583501Y-81980264D01*
X129583489Y-81980261D01*
X129428845Y-81949500D01*
X129428842Y-81949500D01*
X129271158Y-81949500D01*
X129271155Y-81949500D01*
X129116510Y-81980261D01*
X129116498Y-81980264D01*
X128970827Y-82040602D01*
X128970814Y-82040609D01*
X128839711Y-82128210D01*
X128839707Y-82128213D01*
X128728213Y-82239707D01*
X128728210Y-82239711D01*
X128640609Y-82370814D01*
X128640602Y-82370827D01*
X128580264Y-82516498D01*
X128580261Y-82516510D01*
X128549500Y-82671153D01*
X128549500Y-82682665D01*
X128545351Y-82698149D01*
X128546007Y-82711891D01*
X128532891Y-82744658D01*
X128530567Y-82748684D01*
X128490423Y-82818215D01*
X128449499Y-82970943D01*
X128449499Y-82970945D01*
X128449499Y-83139046D01*
X128449500Y-83139059D01*
X128449500Y-91132351D01*
X128429815Y-91199390D01*
X128377011Y-91245145D01*
X128307853Y-91255089D01*
X128301310Y-91253969D01*
X128278842Y-91249500D01*
X128121158Y-91249500D01*
X128121155Y-91249500D01*
X127966510Y-91280261D01*
X127966498Y-91280264D01*
X127820827Y-91340602D01*
X127820816Y-91340608D01*
X127738714Y-91395467D01*
X127672036Y-91416344D01*
X127604656Y-91397859D01*
X127557967Y-91345880D01*
X127546791Y-91276910D01*
X127547351Y-91272962D01*
X127550000Y-91256240D01*
X127550000Y-91043753D01*
X127516757Y-90833872D01*
X127516757Y-90833869D01*
X127451095Y-90631782D01*
X127354624Y-90442449D01*
X127315270Y-90388282D01*
X127315269Y-90388282D01*
X126682962Y-91020590D01*
X126665925Y-90957007D01*
X126600099Y-90842993D01*
X126507007Y-90749901D01*
X126392993Y-90684075D01*
X126329409Y-90667037D01*
X126999627Y-89996818D01*
X127060950Y-89963333D01*
X127087307Y-89960499D01*
X127097872Y-89960499D01*
X127157483Y-89954091D01*
X127292331Y-89903796D01*
X127407546Y-89817546D01*
X127493796Y-89702331D01*
X127544091Y-89567483D01*
X127550500Y-89507873D01*
X127550499Y-87712128D01*
X127544091Y-87652517D01*
X127536642Y-87632546D01*
X127493797Y-87517671D01*
X127493793Y-87517664D01*
X127407547Y-87402455D01*
X127407544Y-87402452D01*
X127292335Y-87316206D01*
X127292328Y-87316202D01*
X127157482Y-87265908D01*
X127157483Y-87265908D01*
X127097883Y-87259501D01*
X127097881Y-87259500D01*
X127097873Y-87259500D01*
X127097864Y-87259500D01*
X125302129Y-87259500D01*
X125302123Y-87259501D01*
X125242516Y-87265908D01*
X125107671Y-87316202D01*
X125107664Y-87316206D01*
X124992455Y-87402452D01*
X124992452Y-87402455D01*
X124906206Y-87517664D01*
X124906202Y-87517671D01*
X124855908Y-87652517D01*
X124849501Y-87712116D01*
X124849501Y-87712123D01*
X124849500Y-87712135D01*
X124849500Y-89507870D01*
X124849501Y-89507876D01*
X124855908Y-89567483D01*
X124906202Y-89702328D01*
X124906206Y-89702335D01*
X124992452Y-89817544D01*
X124992455Y-89817547D01*
X125107664Y-89903793D01*
X125107671Y-89903797D01*
X125152618Y-89920561D01*
X125242517Y-89954091D01*
X125302127Y-89960500D01*
X125312685Y-89960499D01*
X125379723Y-89980179D01*
X125400372Y-89996818D01*
X126070591Y-90667037D01*
X126007007Y-90684075D01*
X125892993Y-90749901D01*
X125799901Y-90842993D01*
X125734075Y-90957007D01*
X125717037Y-91020591D01*
X125084728Y-90388282D01*
X125084727Y-90388282D01*
X125045380Y-90442439D01*
X124948904Y-90631782D01*
X124883242Y-90833869D01*
X124883242Y-90833872D01*
X124850000Y-91043753D01*
X124850000Y-91256246D01*
X124883242Y-91466127D01*
X124883242Y-91466130D01*
X124948904Y-91668217D01*
X125045375Y-91857550D01*
X125084728Y-91911716D01*
X125717037Y-91279408D01*
X125734075Y-91342993D01*
X125799901Y-91457007D01*
X125892993Y-91550099D01*
X126007007Y-91615925D01*
X126070590Y-91632962D01*
X125438282Y-92265269D01*
X125438282Y-92265270D01*
X125492452Y-92304626D01*
X125492451Y-92304626D01*
X125501495Y-92309234D01*
X125552292Y-92357208D01*
X125569087Y-92425029D01*
X125546550Y-92491164D01*
X125501499Y-92530202D01*
X125492182Y-92534949D01*
X125320213Y-92659890D01*
X125169890Y-92810213D01*
X125044951Y-92982179D01*
X124948444Y-93171585D01*
X124948443Y-93171587D01*
X124948443Y-93171588D01*
X124920269Y-93258297D01*
X124882753Y-93373760D01*
X124854761Y-93550498D01*
X124849500Y-93583713D01*
X124849500Y-93796287D01*
X124882754Y-94006243D01*
X124942924Y-94191427D01*
X124948444Y-94208414D01*
X125044951Y-94397820D01*
X125169890Y-94569786D01*
X125320213Y-94720109D01*
X125492182Y-94845050D01*
X125500946Y-94849516D01*
X125551742Y-94897491D01*
X125568536Y-94965312D01*
X125545998Y-95031447D01*
X125500946Y-95070484D01*
X125492182Y-95074949D01*
X125320213Y-95199890D01*
X125169890Y-95350213D01*
X125044951Y-95522179D01*
X124948444Y-95711585D01*
X124948443Y-95711587D01*
X124948443Y-95711588D01*
X124920269Y-95798297D01*
X124882753Y-95913760D01*
X124849500Y-96123713D01*
X124849500Y-96336286D01*
X124875983Y-96503497D01*
X124882754Y-96546243D01*
X124898716Y-96595370D01*
X124948444Y-96748414D01*
X125044951Y-96937820D01*
X125169890Y-97109786D01*
X125320213Y-97260109D01*
X125492182Y-97385050D01*
X125500946Y-97389516D01*
X125551742Y-97437491D01*
X125568536Y-97505312D01*
X125545998Y-97571447D01*
X125500946Y-97610484D01*
X125492182Y-97614949D01*
X125320213Y-97739890D01*
X125169890Y-97890213D01*
X125044951Y-98062179D01*
X124948444Y-98251585D01*
X124882753Y-98453760D01*
X124868351Y-98544692D01*
X124849500Y-98663713D01*
X124849500Y-98876287D01*
X124857876Y-98929172D01*
X124881481Y-99078210D01*
X124882754Y-99086243D01*
X124939015Y-99259397D01*
X124948444Y-99288414D01*
X125044951Y-99477820D01*
X125169890Y-99649786D01*
X125320213Y-99800109D01*
X125492182Y-99925050D01*
X125500946Y-99929516D01*
X125551742Y-99977491D01*
X125568536Y-100045312D01*
X125545998Y-100111447D01*
X125500946Y-100150484D01*
X125492182Y-100154949D01*
X125320213Y-100279890D01*
X125169890Y-100430213D01*
X125044951Y-100602179D01*
X124948444Y-100791585D01*
X124882753Y-100993760D01*
X124868351Y-101084692D01*
X124849500Y-101203713D01*
X124849500Y-101416287D01*
X124850238Y-101420946D01*
X124882182Y-101622636D01*
X124882754Y-101626243D01*
X124922554Y-101748735D01*
X124948444Y-101828414D01*
X125044951Y-102017820D01*
X125169890Y-102189786D01*
X125320213Y-102340109D01*
X125492182Y-102465050D01*
X125500946Y-102469516D01*
X125551742Y-102517491D01*
X125568536Y-102585312D01*
X125545998Y-102651447D01*
X125500946Y-102690484D01*
X125492182Y-102694949D01*
X125320213Y-102819890D01*
X125169890Y-102970213D01*
X125044951Y-103142179D01*
X124948444Y-103331585D01*
X124882753Y-103533760D01*
X124849500Y-103743713D01*
X124849500Y-103956286D01*
X124876565Y-104127172D01*
X124882754Y-104166243D01*
X124910732Y-104252351D01*
X124948444Y-104368414D01*
X125044951Y-104557820D01*
X125169890Y-104729786D01*
X125320213Y-104880109D01*
X125492182Y-105005050D01*
X125500946Y-105009516D01*
X125551742Y-105057491D01*
X125568536Y-105125312D01*
X125545998Y-105191447D01*
X125500946Y-105230484D01*
X125492182Y-105234949D01*
X125320213Y-105359890D01*
X125169890Y-105510213D01*
X125044951Y-105682179D01*
X124948444Y-105871585D01*
X124882753Y-106073760D01*
X124849500Y-106283713D01*
X124849500Y-106496286D01*
X124882753Y-106706239D01*
X124948444Y-106908414D01*
X125044951Y-107097820D01*
X125169890Y-107269786D01*
X125320213Y-107420109D01*
X125492179Y-107545048D01*
X125492181Y-107545049D01*
X125492184Y-107545051D01*
X125681588Y-107641557D01*
X125883757Y-107707246D01*
X126093713Y-107740500D01*
X126093714Y-107740500D01*
X126306286Y-107740500D01*
X126306287Y-107740500D01*
X126516243Y-107707246D01*
X126718412Y-107641557D01*
X126907816Y-107545051D01*
X126929789Y-107529086D01*
X127079786Y-107420109D01*
X127079788Y-107420106D01*
X127079792Y-107420104D01*
X127230104Y-107269792D01*
X127230106Y-107269788D01*
X127230109Y-107269786D01*
X127350176Y-107104526D01*
X127355051Y-107097816D01*
X127451557Y-106908412D01*
X127517246Y-106706243D01*
X127550500Y-106496287D01*
X127550500Y-106283713D01*
X127517246Y-106073757D01*
X127451557Y-105871588D01*
X127355051Y-105682184D01*
X127355049Y-105682181D01*
X127355048Y-105682179D01*
X127230109Y-105510213D01*
X127079786Y-105359890D01*
X126907820Y-105234951D01*
X126907115Y-105234591D01*
X126899054Y-105230485D01*
X126848259Y-105182512D01*
X126831463Y-105114692D01*
X126853999Y-105048556D01*
X126899054Y-105009515D01*
X126907816Y-105005051D01*
X127050610Y-104901306D01*
X127079786Y-104880109D01*
X127079788Y-104880106D01*
X127079792Y-104880104D01*
X127230104Y-104729792D01*
X127230106Y-104729788D01*
X127230109Y-104729786D01*
X127355048Y-104557820D01*
X127355047Y-104557820D01*
X127355051Y-104557816D01*
X127451557Y-104368412D01*
X127517246Y-104166243D01*
X127550500Y-103956287D01*
X127550500Y-103743713D01*
X127517246Y-103533757D01*
X127451557Y-103331588D01*
X127355051Y-103142184D01*
X127355049Y-103142181D01*
X127355048Y-103142179D01*
X127230109Y-102970213D01*
X127079786Y-102819890D01*
X126907820Y-102694951D01*
X126907115Y-102694591D01*
X126899054Y-102690485D01*
X126848259Y-102642512D01*
X126831463Y-102574692D01*
X126853999Y-102508556D01*
X126899054Y-102469515D01*
X126907816Y-102465051D01*
X126929789Y-102449086D01*
X127079786Y-102340109D01*
X127079788Y-102340106D01*
X127079792Y-102340104D01*
X127230104Y-102189792D01*
X127230106Y-102189788D01*
X127230109Y-102189786D01*
X127355048Y-102017820D01*
X127355047Y-102017820D01*
X127355051Y-102017816D01*
X127451557Y-101828412D01*
X127517246Y-101626243D01*
X127550500Y-101416287D01*
X127550500Y-101203713D01*
X127517246Y-100993757D01*
X127451557Y-100791588D01*
X127355051Y-100602184D01*
X127355049Y-100602181D01*
X127355048Y-100602179D01*
X127230109Y-100430213D01*
X127079786Y-100279890D01*
X126907820Y-100154951D01*
X126907115Y-100154591D01*
X126899054Y-100150485D01*
X126848259Y-100102512D01*
X126831463Y-100034692D01*
X126853999Y-99968556D01*
X126899054Y-99929515D01*
X126907816Y-99925051D01*
X126973938Y-99877011D01*
X127079786Y-99800109D01*
X127079788Y-99800106D01*
X127079792Y-99800104D01*
X127230104Y-99649792D01*
X127230106Y-99649788D01*
X127230109Y-99649786D01*
X127355048Y-99477820D01*
X127355047Y-99477820D01*
X127355051Y-99477816D01*
X127451557Y-99288412D01*
X127517246Y-99086243D01*
X127550500Y-98876287D01*
X127550500Y-98663713D01*
X127517246Y-98453757D01*
X127451557Y-98251588D01*
X127355051Y-98062184D01*
X127355049Y-98062181D01*
X127355048Y-98062179D01*
X127230109Y-97890213D01*
X127079786Y-97739890D01*
X126907820Y-97614951D01*
X126907115Y-97614591D01*
X126899054Y-97610485D01*
X126848259Y-97562512D01*
X126831463Y-97494692D01*
X126853999Y-97428556D01*
X126899054Y-97389515D01*
X126907816Y-97385051D01*
X126929789Y-97369086D01*
X127079786Y-97260109D01*
X127079788Y-97260106D01*
X127079792Y-97260104D01*
X127230104Y-97109792D01*
X127230106Y-97109788D01*
X127230109Y-97109786D01*
X127317678Y-96989255D01*
X127355051Y-96937816D01*
X127406065Y-96837694D01*
X127454038Y-96786900D01*
X127521859Y-96770104D01*
X127587994Y-96792641D01*
X127604230Y-96806309D01*
X127689707Y-96891786D01*
X127689711Y-96891789D01*
X127820814Y-96979390D01*
X127820827Y-96979397D01*
X127966498Y-97039735D01*
X127966503Y-97039737D01*
X128121153Y-97070499D01*
X128121156Y-97070500D01*
X128121158Y-97070500D01*
X128278844Y-97070500D01*
X128278845Y-97070499D01*
X128433497Y-97039737D01*
X128566215Y-96984764D01*
X128579172Y-96979397D01*
X128579172Y-96979396D01*
X128579179Y-96979394D01*
X128710289Y-96891789D01*
X128821789Y-96780289D01*
X128909394Y-96649179D01*
X128913209Y-96639970D01*
X128969735Y-96503501D01*
X128969737Y-96503497D01*
X129000500Y-96348842D01*
X129000500Y-96191158D01*
X129000500Y-96191155D01*
X129000499Y-96191153D01*
X128985753Y-96117019D01*
X128969737Y-96036503D01*
X128969735Y-96036498D01*
X128909397Y-95890827D01*
X128909390Y-95890814D01*
X128821398Y-95759125D01*
X128800520Y-95692447D01*
X128800500Y-95690234D01*
X128800500Y-95267648D01*
X128820185Y-95200609D01*
X128872989Y-95154854D01*
X128942147Y-95144910D01*
X128948672Y-95146027D01*
X128971158Y-95150500D01*
X129128844Y-95150500D01*
X129128845Y-95150499D01*
X129181131Y-95140099D01*
X129289472Y-95118549D01*
X129289932Y-95120863D01*
X129349327Y-95120311D01*
X129408454Y-95157537D01*
X129438068Y-95220820D01*
X129439500Y-95239608D01*
X129439500Y-102920397D01*
X129419815Y-102987436D01*
X129371800Y-103030879D01*
X129358389Y-103037712D01*
X129192786Y-103158028D01*
X129048028Y-103302786D01*
X128927715Y-103468386D01*
X128834781Y-103650776D01*
X128771522Y-103845465D01*
X128739500Y-104047648D01*
X128739500Y-104252351D01*
X128771522Y-104454534D01*
X128834781Y-104649223D01*
X128889907Y-104757412D01*
X128913668Y-104804046D01*
X128927715Y-104831613D01*
X129048028Y-104997213D01*
X129192786Y-105141971D01*
X129314619Y-105230486D01*
X129358390Y-105262287D01*
X129474607Y-105321503D01*
X129540776Y-105355218D01*
X129540778Y-105355218D01*
X129540781Y-105355220D01*
X129645137Y-105389127D01*
X129735465Y-105418477D01*
X129836557Y-105434488D01*
X129937648Y-105450500D01*
X129937649Y-105450500D01*
X130142351Y-105450500D01*
X130142352Y-105450500D01*
X130344534Y-105418477D01*
X130539219Y-105355220D01*
X130721610Y-105262287D01*
X130831412Y-105182512D01*
X130887213Y-105141971D01*
X130887215Y-105141968D01*
X130887219Y-105141966D01*
X131031966Y-104997219D01*
X131031968Y-104997215D01*
X131031971Y-104997213D01*
X131101650Y-104901306D01*
X131152287Y-104831610D01*
X131245220Y-104649219D01*
X131308477Y-104454534D01*
X131340500Y-104252352D01*
X131340500Y-104047648D01*
X131326030Y-103956287D01*
X131308477Y-103845465D01*
X131271494Y-103731643D01*
X131245220Y-103650781D01*
X131245218Y-103650778D01*
X131245218Y-103650776D01*
X131211503Y-103584607D01*
X131152287Y-103468390D01*
X131137009Y-103447362D01*
X131031971Y-103302786D01*
X130887213Y-103158028D01*
X130721610Y-103037712D01*
X130708200Y-103030879D01*
X130657406Y-102982903D01*
X130640500Y-102920397D01*
X130640500Y-100615659D01*
X130646435Y-100595443D01*
X130647564Y-100574405D01*
X130656082Y-100562592D01*
X130660185Y-100548620D01*
X130676106Y-100534823D01*
X130688431Y-100517733D01*
X130701984Y-100512400D01*
X130712989Y-100502865D01*
X130733840Y-100499866D01*
X130753449Y-100492152D01*
X130778246Y-100493481D01*
X130782147Y-100492921D01*
X130788683Y-100494040D01*
X130809763Y-100498233D01*
X130821851Y-100500638D01*
X130883761Y-100533024D01*
X130885339Y-100534574D01*
X131815139Y-101464374D01*
X131815149Y-101464385D01*
X131819479Y-101468715D01*
X131819480Y-101468716D01*
X131931284Y-101580520D01*
X132001445Y-101621027D01*
X132068215Y-101659577D01*
X132220943Y-101700501D01*
X132220946Y-101700501D01*
X132386653Y-101700501D01*
X132386669Y-101700500D01*
X138925500Y-101700500D01*
X138992539Y-101720185D01*
X139038294Y-101772989D01*
X139049500Y-101824500D01*
X139049500Y-103495953D01*
X139029815Y-103562992D01*
X138977011Y-103608747D01*
X138907853Y-103618691D01*
X138844297Y-103589666D01*
X138815015Y-103552248D01*
X138796060Y-103515048D01*
X138772287Y-103468390D01*
X138757009Y-103447362D01*
X138651971Y-103302786D01*
X138507213Y-103158028D01*
X138341613Y-103037715D01*
X138341612Y-103037714D01*
X138341610Y-103037713D01*
X138284653Y-103008691D01*
X138159223Y-102944781D01*
X137964534Y-102881522D01*
X137789995Y-102853878D01*
X137762352Y-102849500D01*
X137557648Y-102849500D01*
X137533329Y-102853351D01*
X137355465Y-102881522D01*
X137160776Y-102944781D01*
X136978386Y-103037715D01*
X136812786Y-103158028D01*
X136668028Y-103302786D01*
X136547715Y-103468386D01*
X136454781Y-103650776D01*
X136391522Y-103845465D01*
X136359500Y-104047648D01*
X136359500Y-104252351D01*
X136391522Y-104454534D01*
X136454781Y-104649223D01*
X136509907Y-104757412D01*
X136533668Y-104804046D01*
X136547715Y-104831613D01*
X136668028Y-104997213D01*
X136812786Y-105141971D01*
X136934619Y-105230486D01*
X136978390Y-105262287D01*
X137094607Y-105321503D01*
X137160776Y-105355218D01*
X137160778Y-105355218D01*
X137160781Y-105355220D01*
X137265137Y-105389127D01*
X137355465Y-105418477D01*
X137456557Y-105434488D01*
X137557648Y-105450500D01*
X137557649Y-105450500D01*
X137762351Y-105450500D01*
X137762352Y-105450500D01*
X137964534Y-105418477D01*
X138159219Y-105355220D01*
X138341610Y-105262287D01*
X138451412Y-105182512D01*
X138507213Y-105141971D01*
X138507215Y-105141968D01*
X138507219Y-105141966D01*
X138651966Y-104997219D01*
X138651968Y-104997215D01*
X138651971Y-104997213D01*
X138772284Y-104831614D01*
X138772285Y-104831613D01*
X138772287Y-104831610D01*
X138815015Y-104747750D01*
X138862989Y-104696955D01*
X138930810Y-104680160D01*
X138996945Y-104702697D01*
X139040397Y-104757412D01*
X139049500Y-104804046D01*
X139049500Y-109263330D01*
X139049499Y-109263348D01*
X139049499Y-109429054D01*
X139049498Y-109429054D01*
X139049499Y-109429057D01*
X139090423Y-109581785D01*
X139090424Y-109581787D01*
X139090423Y-109581787D01*
X139094083Y-109588125D01*
X139094084Y-109588126D01*
X139169477Y-109718712D01*
X139169481Y-109718717D01*
X139288349Y-109837585D01*
X139288355Y-109837590D01*
X139415139Y-109964374D01*
X139415149Y-109964385D01*
X139419479Y-109968715D01*
X139419480Y-109968716D01*
X139531284Y-110080520D01*
X139531286Y-110080521D01*
X139531290Y-110080524D01*
X139668209Y-110159573D01*
X139668216Y-110159577D01*
X139780019Y-110189534D01*
X139820942Y-110200500D01*
X139820943Y-110200500D01*
X140520234Y-110200500D01*
X140587273Y-110220185D01*
X140589125Y-110221398D01*
X140720814Y-110309390D01*
X140720827Y-110309397D01*
X140866498Y-110369735D01*
X140866503Y-110369737D01*
X140997691Y-110395832D01*
X141021153Y-110400499D01*
X141021156Y-110400500D01*
X141021158Y-110400500D01*
X141178844Y-110400500D01*
X141178845Y-110400499D01*
X141333497Y-110369737D01*
X141479179Y-110309394D01*
X141610289Y-110221789D01*
X141721789Y-110110289D01*
X141809394Y-109979179D01*
X141869737Y-109833497D01*
X141900500Y-109678842D01*
X141900500Y-109521158D01*
X141900500Y-109521155D01*
X141900499Y-109521153D01*
X141869738Y-109366510D01*
X141869737Y-109366503D01*
X141830155Y-109270943D01*
X141809397Y-109220827D01*
X141809390Y-109220814D01*
X141721789Y-109089711D01*
X141721786Y-109089707D01*
X141610292Y-108978213D01*
X141610288Y-108978210D01*
X141479185Y-108890609D01*
X141479172Y-108890602D01*
X141333501Y-108830264D01*
X141333489Y-108830261D01*
X141178845Y-108799500D01*
X141178842Y-108799500D01*
X141021158Y-108799500D01*
X141021155Y-108799500D01*
X140866510Y-108830261D01*
X140866498Y-108830264D01*
X140720827Y-108890602D01*
X140720814Y-108890609D01*
X140589125Y-108978602D01*
X140571078Y-108984252D01*
X140555169Y-108994477D01*
X140524207Y-108998928D01*
X140522447Y-108999480D01*
X140520234Y-108999500D01*
X140374500Y-108999500D01*
X140307461Y-108979815D01*
X140261706Y-108927011D01*
X140250500Y-108875500D01*
X140250500Y-102424778D01*
X142599500Y-102424778D01*
X142599500Y-102645222D01*
X142604413Y-102676239D01*
X142633985Y-102862952D01*
X142702103Y-103072603D01*
X142702104Y-103072606D01*
X142737557Y-103142184D01*
X142787291Y-103239792D01*
X142802187Y-103269025D01*
X142931752Y-103447358D01*
X142931756Y-103447363D01*
X142982316Y-103497923D01*
X143015801Y-103559246D01*
X143010817Y-103628938D01*
X142968945Y-103684871D01*
X142937969Y-103701785D01*
X142857918Y-103731643D01*
X142857906Y-103731649D01*
X142742812Y-103817809D01*
X142742809Y-103817812D01*
X142656649Y-103932906D01*
X142656645Y-103932913D01*
X142606403Y-104067620D01*
X142606401Y-104067627D01*
X142600000Y-104127155D01*
X142600000Y-104825000D01*
X143624722Y-104825000D01*
X143580667Y-104901306D01*
X143550000Y-105015756D01*
X143550000Y-105134244D01*
X143580667Y-105248694D01*
X143624722Y-105325000D01*
X142600000Y-105325000D01*
X142600000Y-106022844D01*
X142606401Y-106082372D01*
X142606403Y-106082379D01*
X142656645Y-106217086D01*
X142656649Y-106217093D01*
X142742809Y-106332187D01*
X142742812Y-106332190D01*
X142857906Y-106418350D01*
X142857913Y-106418354D01*
X142992620Y-106468596D01*
X142992627Y-106468598D01*
X143052155Y-106474999D01*
X143052172Y-106475000D01*
X143750000Y-106475000D01*
X143750000Y-105450277D01*
X143826306Y-105494333D01*
X143940756Y-105525000D01*
X144059244Y-105525000D01*
X144173694Y-105494333D01*
X144250000Y-105450277D01*
X144250000Y-106475000D01*
X144947828Y-106475000D01*
X144947844Y-106474999D01*
X145007372Y-106468598D01*
X145007379Y-106468596D01*
X145142086Y-106418354D01*
X145142093Y-106418350D01*
X145257187Y-106332190D01*
X145257190Y-106332187D01*
X145343350Y-106217093D01*
X145343354Y-106217086D01*
X145393596Y-106082379D01*
X145393598Y-106082372D01*
X145399999Y-106022844D01*
X145400000Y-106022827D01*
X145400000Y-105325000D01*
X144375278Y-105325000D01*
X144419333Y-105248694D01*
X144450000Y-105134244D01*
X144450000Y-105015756D01*
X144419333Y-104901306D01*
X144375278Y-104825000D01*
X145400000Y-104825000D01*
X145400000Y-104127172D01*
X145399999Y-104127155D01*
X145393598Y-104067627D01*
X145393596Y-104067620D01*
X145343354Y-103932913D01*
X145343350Y-103932906D01*
X145257190Y-103817812D01*
X145257187Y-103817809D01*
X145142093Y-103731649D01*
X145142087Y-103731646D01*
X145062030Y-103701786D01*
X145006097Y-103659914D01*
X144981680Y-103594450D01*
X144996532Y-103526177D01*
X145017681Y-103497925D01*
X145068242Y-103447365D01*
X145197815Y-103269022D01*
X145297895Y-103072606D01*
X145366015Y-102862951D01*
X145400500Y-102645222D01*
X145400500Y-102424778D01*
X145366015Y-102207049D01*
X145304532Y-102017820D01*
X145297896Y-101997396D01*
X145297895Y-101997393D01*
X145263237Y-101929375D01*
X145197815Y-101800978D01*
X145177480Y-101772989D01*
X145068247Y-101622641D01*
X145068243Y-101622636D01*
X144912363Y-101466756D01*
X144912358Y-101466752D01*
X144734025Y-101337187D01*
X144734024Y-101337186D01*
X144734022Y-101337185D01*
X144671096Y-101305122D01*
X144537606Y-101237104D01*
X144537603Y-101237103D01*
X144327952Y-101168985D01*
X144211242Y-101150500D01*
X144110222Y-101134500D01*
X143889778Y-101134500D01*
X143817201Y-101145995D01*
X143672047Y-101168985D01*
X143462396Y-101237103D01*
X143462393Y-101237104D01*
X143265974Y-101337187D01*
X143087641Y-101466752D01*
X143087636Y-101466756D01*
X142931756Y-101622636D01*
X142931752Y-101622641D01*
X142802187Y-101800974D01*
X142702104Y-101997393D01*
X142702103Y-101997396D01*
X142633985Y-102207047D01*
X142633985Y-102207049D01*
X142599500Y-102424778D01*
X140250500Y-102424778D01*
X140250500Y-101420946D01*
X140250499Y-101420939D01*
X140249252Y-101416287D01*
X140249249Y-101416276D01*
X140231624Y-101350499D01*
X140223382Y-101319737D01*
X140209577Y-101268216D01*
X140191614Y-101237103D01*
X140130524Y-101131290D01*
X140130521Y-101131286D01*
X140130520Y-101131284D01*
X140018716Y-101019480D01*
X140018715Y-101019479D01*
X140014385Y-101015149D01*
X140014374Y-101015139D01*
X139737590Y-100738355D01*
X139737588Y-100738352D01*
X139618717Y-100619481D01*
X139618709Y-100619475D01*
X139530323Y-100568446D01*
X139530322Y-100568446D01*
X139495982Y-100548620D01*
X139481785Y-100540423D01*
X139329057Y-100499499D01*
X139170943Y-100499499D01*
X139163347Y-100499499D01*
X139163331Y-100499500D01*
X132600097Y-100499500D01*
X132533058Y-100479815D01*
X132512416Y-100463181D01*
X131770388Y-99721153D01*
X149149500Y-99721153D01*
X149149500Y-99878846D01*
X149180261Y-100033489D01*
X149180264Y-100033501D01*
X149240602Y-100179172D01*
X149240609Y-100179185D01*
X149328210Y-100310288D01*
X149328213Y-100310292D01*
X149439707Y-100421786D01*
X149439711Y-100421789D01*
X149570814Y-100509390D01*
X149570827Y-100509397D01*
X149716498Y-100569735D01*
X149716503Y-100569737D01*
X149837269Y-100593759D01*
X149871153Y-100600499D01*
X149871156Y-100600500D01*
X149871158Y-100600500D01*
X150028844Y-100600500D01*
X150028845Y-100600499D01*
X150183497Y-100569737D01*
X150254268Y-100540423D01*
X150328048Y-100509863D01*
X150397517Y-100502394D01*
X150459996Y-100533669D01*
X150495648Y-100593759D01*
X150499500Y-100624424D01*
X150499500Y-100628846D01*
X150530261Y-100783489D01*
X150530264Y-100783501D01*
X150590602Y-100929172D01*
X150590609Y-100929185D01*
X150678210Y-101060288D01*
X150678213Y-101060292D01*
X150789707Y-101171786D01*
X150789711Y-101171789D01*
X150920814Y-101259390D01*
X150920827Y-101259397D01*
X151066498Y-101319735D01*
X151066503Y-101319737D01*
X151221153Y-101350499D01*
X151221156Y-101350500D01*
X151221158Y-101350500D01*
X151378844Y-101350500D01*
X151378845Y-101350499D01*
X151533497Y-101319737D01*
X151657881Y-101268216D01*
X151679172Y-101259397D01*
X151679172Y-101259396D01*
X151679179Y-101259394D01*
X151712537Y-101237105D01*
X151810875Y-101171398D01*
X151877553Y-101150520D01*
X151879766Y-101150500D01*
X154320234Y-101150500D01*
X154387273Y-101170185D01*
X154389125Y-101171398D01*
X154520814Y-101259390D01*
X154520827Y-101259397D01*
X154666498Y-101319735D01*
X154666503Y-101319737D01*
X154821153Y-101350499D01*
X154821156Y-101350500D01*
X154821158Y-101350500D01*
X154978844Y-101350500D01*
X154978845Y-101350499D01*
X155133497Y-101319737D01*
X155257881Y-101268216D01*
X155279172Y-101259397D01*
X155279172Y-101259396D01*
X155279179Y-101259394D01*
X155410289Y-101171789D01*
X155521789Y-101060289D01*
X155609394Y-100929179D01*
X155669737Y-100783497D01*
X155700500Y-100628842D01*
X155700500Y-100471158D01*
X155700500Y-100471155D01*
X155700499Y-100471153D01*
X155669738Y-100316510D01*
X155669737Y-100316503D01*
X155654572Y-100279890D01*
X155609397Y-100170827D01*
X155609390Y-100170814D01*
X155521789Y-100039711D01*
X155521786Y-100039707D01*
X155410292Y-99928213D01*
X155410288Y-99928210D01*
X155279185Y-99840609D01*
X155279172Y-99840602D01*
X155133501Y-99780264D01*
X155133489Y-99780261D01*
X154978845Y-99749500D01*
X154978842Y-99749500D01*
X154821158Y-99749500D01*
X154821155Y-99749500D01*
X154717955Y-99770027D01*
X154717933Y-99770032D01*
X154666503Y-99780263D01*
X154642665Y-99790136D01*
X154642657Y-99790139D01*
X154520823Y-99840604D01*
X154520814Y-99840609D01*
X154389125Y-99928602D01*
X154380537Y-99931290D01*
X154373847Y-99937311D01*
X154328080Y-99947716D01*
X154322447Y-99949480D01*
X154321483Y-99949215D01*
X154320234Y-99949500D01*
X152049097Y-99949500D01*
X151982058Y-99929815D01*
X151936303Y-99877011D01*
X151926359Y-99807853D01*
X151955384Y-99744297D01*
X151961402Y-99737831D01*
X152112418Y-99586817D01*
X152173740Y-99553334D01*
X152200098Y-99550500D01*
X154413331Y-99550500D01*
X154413347Y-99550501D01*
X154420943Y-99550501D01*
X154578805Y-99550501D01*
X154579057Y-99550501D01*
X154731785Y-99509577D01*
X154786796Y-99477816D01*
X154868716Y-99430520D01*
X154914663Y-99384572D01*
X154975984Y-99351088D01*
X154978152Y-99350637D01*
X154978841Y-99350500D01*
X154978842Y-99350500D01*
X155133497Y-99319737D01*
X155279179Y-99259394D01*
X155410289Y-99171789D01*
X155521789Y-99060289D01*
X155609394Y-98929179D01*
X155621593Y-98899729D01*
X155667089Y-98789890D01*
X155669737Y-98783497D01*
X155700500Y-98628842D01*
X155700500Y-98471158D01*
X155700500Y-98471155D01*
X155700499Y-98471153D01*
X155694206Y-98439516D01*
X155669737Y-98316503D01*
X155667089Y-98310109D01*
X155609397Y-98170827D01*
X155609390Y-98170814D01*
X155521789Y-98039711D01*
X155521786Y-98039707D01*
X155410292Y-97928213D01*
X155410288Y-97928210D01*
X155279185Y-97840609D01*
X155279172Y-97840602D01*
X155133501Y-97780264D01*
X155133489Y-97780261D01*
X154978845Y-97749500D01*
X154978842Y-97749500D01*
X154821158Y-97749500D01*
X154821155Y-97749500D01*
X154666510Y-97780261D01*
X154666498Y-97780264D01*
X154520827Y-97840602D01*
X154520814Y-97840609D01*
X154389711Y-97928210D01*
X154389707Y-97928213D01*
X154278213Y-98039707D01*
X154278210Y-98039711D01*
X154190609Y-98170814D01*
X154190602Y-98170827D01*
X154148302Y-98272952D01*
X154104462Y-98327356D01*
X154038167Y-98349421D01*
X154033741Y-98349500D01*
X151986670Y-98349500D01*
X151986654Y-98349499D01*
X151979058Y-98349499D01*
X151820943Y-98349499D01*
X151744579Y-98369961D01*
X151668214Y-98390423D01*
X151668209Y-98390426D01*
X151531290Y-98469475D01*
X151531282Y-98469481D01*
X150837584Y-99163181D01*
X150810656Y-99177884D01*
X150784838Y-99194477D01*
X150778637Y-99195368D01*
X150776261Y-99196666D01*
X150749903Y-99199500D01*
X150529766Y-99199500D01*
X150462727Y-99179815D01*
X150460875Y-99178602D01*
X150329185Y-99090609D01*
X150329172Y-99090602D01*
X150183501Y-99030264D01*
X150183489Y-99030261D01*
X150028845Y-98999500D01*
X150028842Y-98999500D01*
X149871158Y-98999500D01*
X149871155Y-98999500D01*
X149716510Y-99030261D01*
X149716498Y-99030264D01*
X149570827Y-99090602D01*
X149570814Y-99090609D01*
X149439711Y-99178210D01*
X149439707Y-99178213D01*
X149328213Y-99289707D01*
X149328210Y-99289711D01*
X149240609Y-99420814D01*
X149240602Y-99420827D01*
X149180264Y-99566498D01*
X149180261Y-99566510D01*
X149149500Y-99721153D01*
X131770388Y-99721153D01*
X131734574Y-99685339D01*
X131701089Y-99624016D01*
X131700638Y-99621849D01*
X131669738Y-99466510D01*
X131669737Y-99466503D01*
X131654833Y-99430522D01*
X131609397Y-99320827D01*
X131609390Y-99320814D01*
X131521789Y-99189711D01*
X131521786Y-99189707D01*
X131410292Y-99078213D01*
X131410288Y-99078210D01*
X131279185Y-98990609D01*
X131279172Y-98990602D01*
X131133501Y-98930264D01*
X131133489Y-98930261D01*
X130978845Y-98899500D01*
X130978842Y-98899500D01*
X130821158Y-98899500D01*
X130788690Y-98905958D01*
X130719098Y-98899729D01*
X130663922Y-98856866D01*
X130640678Y-98790976D01*
X130640500Y-98784340D01*
X130640500Y-98464446D01*
X130660185Y-98397407D01*
X130712989Y-98351652D01*
X130774228Y-98340828D01*
X130795466Y-98342500D01*
X130795474Y-98342500D01*
X133054526Y-98342500D01*
X133054534Y-98342500D01*
X133091548Y-98339587D01*
X133091550Y-98339586D01*
X133091552Y-98339586D01*
X133133647Y-98327356D01*
X133249959Y-98293564D01*
X133391947Y-98209592D01*
X133488148Y-98113389D01*
X133502939Y-98100758D01*
X133582464Y-98042981D01*
X133722981Y-97902464D01*
X133839787Y-97741694D01*
X133930005Y-97564632D01*
X133991413Y-97375636D01*
X134022500Y-97179361D01*
X134022500Y-96980639D01*
X133991413Y-96784364D01*
X133930005Y-96595368D01*
X133930005Y-96595367D01*
X133839786Y-96418305D01*
X133722981Y-96257536D01*
X133582464Y-96117019D01*
X133502937Y-96059239D01*
X133496175Y-96053960D01*
X133492000Y-96050461D01*
X133391947Y-95950408D01*
X133326259Y-95911560D01*
X133318477Y-95905038D01*
X133304510Y-95884073D01*
X133287321Y-95865663D01*
X133285471Y-95855492D01*
X133279740Y-95846890D01*
X133279324Y-95821702D01*
X133274817Y-95796921D01*
X133278758Y-95787366D01*
X133278588Y-95777030D01*
X133291856Y-95755616D01*
X133301462Y-95732332D01*
X133311874Y-95723309D01*
X133315389Y-95717638D01*
X133322127Y-95714425D01*
X133335004Y-95703268D01*
X133391947Y-95669592D01*
X133488148Y-95573389D01*
X133502939Y-95560758D01*
X133582464Y-95502981D01*
X133722981Y-95362464D01*
X133839787Y-95201694D01*
X133930005Y-95024632D01*
X133991413Y-94835636D01*
X134022500Y-94639361D01*
X134022500Y-94440639D01*
X133991413Y-94244364D01*
X133930005Y-94055368D01*
X133930005Y-94055367D01*
X133839786Y-93878305D01*
X133722981Y-93717536D01*
X133582464Y-93577019D01*
X133537142Y-93544091D01*
X133502938Y-93519240D01*
X133496175Y-93513960D01*
X133492000Y-93510461D01*
X133391947Y-93410408D01*
X133326259Y-93371560D01*
X133318477Y-93365038D01*
X133304510Y-93344073D01*
X133287321Y-93325663D01*
X133285471Y-93315492D01*
X133279740Y-93306890D01*
X133279324Y-93281702D01*
X133274817Y-93256921D01*
X133278758Y-93247366D01*
X133278588Y-93237030D01*
X133291856Y-93215616D01*
X133301462Y-93192332D01*
X133311874Y-93183309D01*
X133315389Y-93177638D01*
X133322127Y-93174425D01*
X133335004Y-93163268D01*
X133344786Y-93157483D01*
X133391947Y-93129592D01*
X133488148Y-93033389D01*
X133502939Y-93020758D01*
X133582464Y-92962981D01*
X133722981Y-92822464D01*
X133839787Y-92661694D01*
X133930005Y-92484632D01*
X133991413Y-92295636D01*
X134022500Y-92099361D01*
X134022500Y-91900639D01*
X133991413Y-91704364D01*
X133941290Y-91550099D01*
X133930006Y-91515370D01*
X133930005Y-91515367D01*
X133884035Y-91425149D01*
X133839787Y-91338306D01*
X133722981Y-91177536D01*
X133582464Y-91037019D01*
X133521125Y-90992454D01*
X133502938Y-90979240D01*
X133496175Y-90973960D01*
X133492000Y-90970461D01*
X133391947Y-90870408D01*
X133326259Y-90831560D01*
X133318477Y-90825038D01*
X133304510Y-90804073D01*
X133287321Y-90785663D01*
X133285471Y-90775492D01*
X133279740Y-90766890D01*
X133279324Y-90741702D01*
X133274817Y-90716921D01*
X133278758Y-90707366D01*
X133278588Y-90697030D01*
X133291856Y-90675616D01*
X133301462Y-90652332D01*
X133311874Y-90643309D01*
X133315389Y-90637638D01*
X133322127Y-90634425D01*
X133335004Y-90623268D01*
X133337405Y-90621848D01*
X133391947Y-90589592D01*
X133488148Y-90493389D01*
X133502939Y-90480758D01*
X133582464Y-90422981D01*
X133722981Y-90282464D01*
X133839787Y-90121694D01*
X133930005Y-89944632D01*
X133991413Y-89755636D01*
X134022500Y-89559361D01*
X134022500Y-89360639D01*
X133991413Y-89164364D01*
X133930005Y-88975368D01*
X133930005Y-88975367D01*
X133839786Y-88798305D01*
X133722981Y-88637536D01*
X133582464Y-88497019D01*
X133502937Y-88439239D01*
X133496175Y-88433960D01*
X133492000Y-88430461D01*
X133391947Y-88330408D01*
X133326259Y-88291560D01*
X133318477Y-88285038D01*
X133304510Y-88264073D01*
X133287321Y-88245663D01*
X133285471Y-88235492D01*
X133279740Y-88226890D01*
X133279324Y-88201702D01*
X133274817Y-88176921D01*
X133278758Y-88167366D01*
X133278588Y-88157030D01*
X133291856Y-88135616D01*
X133301462Y-88112332D01*
X133311874Y-88103309D01*
X133315389Y-88097638D01*
X133322127Y-88094425D01*
X133335004Y-88083268D01*
X133357882Y-88069738D01*
X133391947Y-88049592D01*
X133488148Y-87953389D01*
X133502939Y-87940758D01*
X133582464Y-87882981D01*
X133722981Y-87742464D01*
X133839787Y-87581694D01*
X133930005Y-87404632D01*
X133991413Y-87215636D01*
X134022500Y-87019361D01*
X134022500Y-86820639D01*
X133991413Y-86624364D01*
X133930005Y-86435368D01*
X133930005Y-86435367D01*
X133839786Y-86258305D01*
X133722981Y-86097536D01*
X133582464Y-85957019D01*
X133502937Y-85899239D01*
X133496175Y-85893960D01*
X133492000Y-85890461D01*
X133391947Y-85790408D01*
X133326259Y-85751560D01*
X133318477Y-85745038D01*
X133304510Y-85724073D01*
X133287321Y-85705663D01*
X133285471Y-85695492D01*
X133279740Y-85686890D01*
X133279324Y-85661702D01*
X133274817Y-85636921D01*
X133278758Y-85627366D01*
X133278588Y-85617030D01*
X133291856Y-85595616D01*
X133301462Y-85572332D01*
X133311874Y-85563309D01*
X133315389Y-85557638D01*
X133322127Y-85554425D01*
X133335004Y-85543268D01*
X133335498Y-85542976D01*
X133391947Y-85509592D01*
X133488148Y-85413389D01*
X133502939Y-85400758D01*
X133582464Y-85342981D01*
X133722981Y-85202464D01*
X133839787Y-85041694D01*
X133930005Y-84864632D01*
X133991413Y-84675636D01*
X134022500Y-84479361D01*
X134022500Y-84280639D01*
X133991413Y-84084364D01*
X133930005Y-83895368D01*
X133930005Y-83895367D01*
X133839786Y-83718305D01*
X133829762Y-83704508D01*
X133722981Y-83557536D01*
X133582464Y-83417019D01*
X133502938Y-83359240D01*
X133496175Y-83353960D01*
X133492000Y-83350461D01*
X133391947Y-83250408D01*
X133326259Y-83211560D01*
X133318477Y-83205038D01*
X133304510Y-83184073D01*
X133287321Y-83165663D01*
X133285471Y-83155492D01*
X133279740Y-83146890D01*
X133279324Y-83121702D01*
X133274817Y-83096921D01*
X133278758Y-83087366D01*
X133278588Y-83077030D01*
X133291856Y-83055616D01*
X133301462Y-83032332D01*
X133311874Y-83023309D01*
X133315389Y-83017638D01*
X133322127Y-83014425D01*
X133335004Y-83003268D01*
X133340738Y-82999877D01*
X133391947Y-82969592D01*
X133488148Y-82873389D01*
X133502939Y-82860758D01*
X133510406Y-82855333D01*
X133582464Y-82802981D01*
X133722981Y-82662464D01*
X133839787Y-82501694D01*
X133930005Y-82324632D01*
X133991413Y-82135636D01*
X134022500Y-81939361D01*
X134022500Y-81740639D01*
X133991413Y-81544364D01*
X133945913Y-81404329D01*
X133930006Y-81355370D01*
X133930005Y-81355367D01*
X133839786Y-81178305D01*
X133722981Y-81017536D01*
X133582464Y-80877019D01*
X133531920Y-80840297D01*
X133502938Y-80819240D01*
X133488147Y-80806608D01*
X133391947Y-80710408D01*
X133391946Y-80710407D01*
X133391943Y-80710405D01*
X133249957Y-80626435D01*
X133249954Y-80626434D01*
X133091552Y-80580413D01*
X133091546Y-80580412D01*
X133054541Y-80577500D01*
X133054534Y-80577500D01*
X130893860Y-80577500D01*
X130826821Y-80557815D01*
X130781066Y-80505011D01*
X130771122Y-80435853D01*
X130800147Y-80372297D01*
X130840956Y-80341352D01*
X130910121Y-80308724D01*
X131333646Y-80108932D01*
X131338328Y-80106844D01*
X132190631Y-79747994D01*
X132195438Y-79746087D01*
X132970235Y-79457774D01*
X133012909Y-79449991D01*
X147397299Y-79384311D01*
X147440041Y-79391704D01*
G37*
%TD.AperFunction*%
%TA.AperFunction,Conductor*%
G36*
X127333361Y-91929808D02*
G01*
X127334140Y-91929972D01*
X127383900Y-91979019D01*
X127399500Y-92039230D01*
X127399500Y-92128846D01*
X127430261Y-92283489D01*
X127430264Y-92283501D01*
X127490602Y-92429172D01*
X127490609Y-92429185D01*
X127578602Y-92560874D01*
X127599480Y-92627551D01*
X127599500Y-92629765D01*
X127599500Y-92945444D01*
X127579815Y-93012483D01*
X127527011Y-93058238D01*
X127457853Y-93068182D01*
X127394297Y-93039157D01*
X127365016Y-93001740D01*
X127355050Y-92982182D01*
X127230109Y-92810213D01*
X127079786Y-92659890D01*
X126907817Y-92534949D01*
X126898504Y-92530204D01*
X126847707Y-92482230D01*
X126830912Y-92414409D01*
X126853449Y-92348274D01*
X126898507Y-92309232D01*
X126907555Y-92304622D01*
X126961716Y-92265270D01*
X126961717Y-92265270D01*
X126329408Y-91632962D01*
X126392993Y-91615925D01*
X126507007Y-91550099D01*
X126600099Y-91457007D01*
X126665925Y-91342993D01*
X126682962Y-91279408D01*
X127333361Y-91929808D01*
G37*
%TD.AperFunction*%
%TD*%
M02*
