M48
; DRILL file {KiCad 9.0.6} date 2026-04-15T10:23:15-0500
; FORMAT={-:-/ absolute / metric / decimal}
; #@! TF.CreationDate,2026-04-15T10:23:15-05:00
; #@! TF.GenerationSoftware,Kicad,Pcbnew,9.0.6
; #@! TF.FileFunction,Plated,1,2,PTH
FMAT,2
METRIC
; #@! TA.AperFunction,Plated,PTH,ViaDrill
T1C0.300
; #@! TA.AperFunction,Plated,PTH,ComponentDrill
T2C0.800
; #@! TA.AperFunction,Plated,PTH,ComponentDrill
T3C0.889
; #@! TA.AperFunction,Plated,PTH,ComponentDrill
T4C0.900
; #@! TA.AperFunction,Plated,PTH,ComponentDrill
T5C1.000
; #@! TA.AperFunction,Plated,PTH,ComponentDrill
T6C1.020
%
G90
G05
T1
X128.2Y-92.05
X128.2Y-96.27
X129.05Y-94.35
X129.35Y-82.75
X130.9Y-99.7
X139.25Y-112.55
X139.3Y-116.05
X141.1Y-109.6
X149.95Y-99.8
X151.3Y-100.55
X152.3Y-87.3
X154.9Y-98.55
X154.9Y-100.55
X155.1Y-87.55
T2
X130.04Y-104.15
X137.66Y-104.15
T3
X132.76Y-81.84
X132.76Y-84.38
X132.76Y-86.92
X132.76Y-89.46
X132.76Y-92.0
X132.76Y-94.54
X132.76Y-97.08
X148.0Y-81.84
X148.0Y-84.38
X148.0Y-86.92
X148.0Y-89.46
X148.0Y-92.0
X148.0Y-94.54
X148.0Y-97.08
T4
X144.0Y-102.535
X144.0Y-105.075
T5
X126.2Y-88.61
X126.2Y-91.15
X126.2Y-93.69
X126.2Y-96.23
X126.2Y-98.77
X126.2Y-101.31
X126.2Y-103.85
X126.2Y-106.39
X157.25Y-92.2
X157.25Y-94.74
X157.25Y-97.28
X157.25Y-99.82
X157.25Y-102.36
X157.25Y-104.9
T6
X135.5Y-110.92
X135.5Y-113.46
X135.5Y-116.0
X145.0Y-110.92
X145.0Y-113.46
X145.0Y-116.0
M30
