%TF.GenerationSoftware,KiCad,Pcbnew,9.0.6*%
%TF.CreationDate,2026-04-15T10:22:53-05:00*%
%TF.ProjectId,Chimborazo Stratos-1,4368696d-626f-4726-917a-6f2053747261,rev?*%
%TF.SameCoordinates,Original*%
%TF.FileFunction,Legend,Bot*%
%TF.FilePolarity,Positive*%
%FSLAX46Y46*%
G04 Gerber Fmt 4.6, Leading zero omitted, Abs format (unit mm)*
G04 Created by KiCad (PCBNEW 9.0.6) date 2026-04-15 10:22:53*
%MOMM*%
%LPD*%
G01*
G04 APERTURE LIST*
%ADD10C,0.150000*%
%ADD11C,0.120000*%
G04 APERTURE END LIST*
D10*
X134016666Y-106974819D02*
X134349999Y-106498628D01*
X134588094Y-106974819D02*
X134588094Y-105974819D01*
X134588094Y-105974819D02*
X134207142Y-105974819D01*
X134207142Y-105974819D02*
X134111904Y-106022438D01*
X134111904Y-106022438D02*
X134064285Y-106070057D01*
X134064285Y-106070057D02*
X134016666Y-106165295D01*
X134016666Y-106165295D02*
X134016666Y-106308152D01*
X134016666Y-106308152D02*
X134064285Y-106403390D01*
X134064285Y-106403390D02*
X134111904Y-106451009D01*
X134111904Y-106451009D02*
X134207142Y-106498628D01*
X134207142Y-106498628D02*
X134588094Y-106498628D01*
X133064285Y-106974819D02*
X133635713Y-106974819D01*
X133349999Y-106974819D02*
X133349999Y-105974819D01*
X133349999Y-105974819D02*
X133445237Y-106117676D01*
X133445237Y-106117676D02*
X133540475Y-106212914D01*
X133540475Y-106212914D02*
X133635713Y-106260533D01*
D11*
%TO.C,R1*%
X130580000Y-102780000D02*
X137120000Y-102780000D01*
X130580000Y-103110000D02*
X130580000Y-102780000D01*
X130580000Y-105190000D02*
X130580000Y-105520000D01*
X130580000Y-105520000D02*
X137120000Y-105520000D01*
X137120000Y-102780000D02*
X137120000Y-103110000D01*
X137120000Y-105520000D02*
X137120000Y-105190000D01*
%TD*%
M02*
