%TF.GenerationSoftware,KiCad,Pcbnew,9.0.6*%
%TF.CreationDate,2026-04-15T10:22:52-05:00*%
%TF.ProjectId,Chimborazo Stratos-1,4368696d-626f-4726-917a-6f2053747261,rev?*%
%TF.SameCoordinates,Original*%
%TF.FileFunction,Copper,L2,Bot*%
%TF.FilePolarity,Positive*%
%FSLAX46Y46*%
G04 Gerber Fmt 4.6, Leading zero omitted, Abs format (unit mm)*
G04 Created by KiCad (PCBNEW 9.0.6) date 2026-04-15 10:22:52*
%MOMM*%
%LPD*%
G01*
G04 APERTURE LIST*
%TA.AperFunction,ComponentPad*%
%ADD10R,1.800000X1.800000*%
%TD*%
%TA.AperFunction,ComponentPad*%
%ADD11C,1.800000*%
%TD*%
%TA.AperFunction,ComponentPad*%
%ADD12R,1.700000X1.700000*%
%TD*%
%TA.AperFunction,ComponentPad*%
%ADD13C,1.700000*%
%TD*%
%TA.AperFunction,ComponentPad*%
%ADD14C,1.524000*%
%TD*%
%TA.AperFunction,ComponentPad*%
%ADD15R,2.030000X1.730000*%
%TD*%
%TA.AperFunction,ComponentPad*%
%ADD16O,2.030000X1.730000*%
%TD*%
%TA.AperFunction,ComponentPad*%
%ADD17C,1.600000*%
%TD*%
%TA.AperFunction,ViaPad*%
%ADD18C,0.600000*%
%TD*%
%TA.AperFunction,Conductor*%
%ADD19C,0.200000*%
%TD*%
%TA.AperFunction,Conductor*%
%ADD20C,0.500000*%
%TD*%
G04 APERTURE END LIST*
D10*
%TO.P,D1,1,K*%
%TO.N,GND*%
X144000000Y-105075000D03*
D11*
%TO.P,D1,2,A*%
%TO.N,Net-(D1-A)*%
X144000000Y-102535000D03*
%TD*%
D12*
%TO.P,J1,1,Pin_1*%
%TO.N,+3V3*%
X157250000Y-92200000D03*
D13*
%TO.P,J1,2,Pin_2*%
%TO.N,GND*%
X157250000Y-94740000D03*
%TO.P,J1,3,Pin_3*%
%TO.N,SCL*%
X157250000Y-97280000D03*
%TO.P,J1,4,Pin_4*%
%TO.N,SDA*%
X157250000Y-99820000D03*
%TO.P,J1,5,Pin_5*%
%TO.N,unconnected-(J1-Pin_5-Pad5)*%
X157250000Y-102360000D03*
%TO.P,J1,6,Pin_6*%
%TO.N,unconnected-(J1-Pin_6-Pad6)*%
X157250000Y-104900000D03*
%TD*%
D14*
%TO.P,U1,1,P26_A0_D0*%
%TO.N,PWM_1*%
X132760000Y-81840000D03*
%TO.P,U1,2,P27_A1_D1*%
%TO.N,PWM_2*%
X132760000Y-84380000D03*
%TO.P,U1,3,P28_A2_D2*%
%TO.N,unconnected-(U1-P28_A2_D2-Pad3)*%
X132760000Y-86920000D03*
%TO.P,U1,4,P29_A3_D3*%
%TO.N,Net-(U1-P29_A3_D3)*%
X132760000Y-89460000D03*
%TO.P,U1,5,P6_SDA_D4*%
%TO.N,SDA*%
X132760000Y-92000000D03*
%TO.P,U1,6,P7_SCL_D5*%
%TO.N,SCL*%
X132760000Y-94540000D03*
%TO.P,U1,7,P0_D6_TX*%
%TO.N,unconnected-(U1-P0_D6_TX-Pad7)_1*%
X132760000Y-97080000D03*
%TO.P,U1,8,P1_D7_RX*%
%TO.N,unconnected-(U1-P1_D7_RX-Pad8)_1*%
X148000000Y-97080000D03*
%TO.P,U1,9,P2_D8_SCK*%
%TO.N,unconnected-(U1-P2_D8_SCK-Pad9)*%
X148000000Y-94540000D03*
%TO.P,U1,10,P4_D9_MISO*%
%TO.N,unconnected-(U1-P4_D9_MISO-Pad10)*%
X148000000Y-92000000D03*
%TO.P,U1,11,P3_D10_MOSI*%
%TO.N,unconnected-(U1-P3_D10_MOSI-Pad11)_1*%
X148000000Y-89460000D03*
%TO.P,U1,12,3V3*%
%TO.N,+3V3*%
X148000000Y-86920000D03*
%TO.P,U1,13,GND*%
%TO.N,GND*%
X148000000Y-84380000D03*
%TO.P,U1,14,VBUS*%
%TO.N,VBUS*%
X148000000Y-81840000D03*
%TD*%
D15*
%TO.P,J4,1,Pin_1*%
%TO.N,GND*%
X145000000Y-116000000D03*
D16*
%TO.P,J4,2,Pin_2*%
%TO.N,VBUS*%
X145000000Y-113460000D03*
%TO.P,J4,3,Pin_3*%
%TO.N,PWM_1*%
X145000000Y-110920000D03*
%TD*%
D15*
%TO.P,J3,1,Pin_1*%
%TO.N,GND*%
X135500000Y-110920000D03*
D16*
%TO.P,J3,2,Pin_2*%
%TO.N,VBUS*%
X135500000Y-113460000D03*
%TO.P,J3,3,Pin_3*%
%TO.N,PWM_2*%
X135500000Y-116000000D03*
%TD*%
D12*
%TO.P,J2,1,Pin_1*%
%TO.N,+3V3*%
X126200000Y-88610000D03*
D13*
%TO.P,J2,2,Pin_2*%
%TO.N,GND*%
X126200000Y-91150000D03*
%TO.P,J2,3,Pin_3*%
%TO.N,SCL*%
X126200000Y-93690000D03*
%TO.P,J2,4,Pin_4*%
%TO.N,SDA*%
X126200000Y-96230000D03*
%TO.P,J2,5,Pin_5*%
%TO.N,unconnected-(J2-Pin_5-Pad5)*%
X126200000Y-98770000D03*
%TO.P,J2,6,Pin_6*%
%TO.N,unconnected-(J2-Pin_6-Pad6)*%
X126200000Y-101310000D03*
%TO.P,J2,7,Pin_7*%
%TO.N,unconnected-(J2-Pin_7-Pad7)*%
X126200000Y-103850000D03*
%TO.P,J2,8,Pin_8*%
%TO.N,unconnected-(J2-Pin_8-Pad8)*%
X126200000Y-106390000D03*
%TD*%
D17*
%TO.P,R1,1*%
%TO.N,Net-(U1-P29_A3_D3)*%
X130040000Y-104150000D03*
%TO.P,R1,2*%
%TO.N,Net-(D1-A)*%
X137660000Y-104150000D03*
%TD*%
D18*
%TO.N,+3V3*%
X155100000Y-87550000D03*
X152300000Y-87300000D03*
%TO.N,SDA*%
X151300000Y-100550000D03*
X128200000Y-92050000D03*
X154900000Y-100550000D03*
X128200000Y-96270000D03*
%TO.N,SCL*%
X154900000Y-98550000D03*
X149950000Y-99800000D03*
%TO.N,PWM_2*%
X139300000Y-116050000D03*
X139250000Y-112550000D03*
%TO.N,PWM_1*%
X129050000Y-94350000D03*
X141100000Y-109600000D03*
X129350000Y-82750000D03*
X130900000Y-99700000D03*
%TD*%
D19*
%TO.N,Net-(D1-A)*%
X137660000Y-104150000D02*
X142385000Y-104150000D01*
X142385000Y-104150000D02*
X144000000Y-102535000D01*
%TO.N,+3V3*%
X152300000Y-87300000D02*
X151920000Y-86920000D01*
X126200000Y-88610000D02*
X126413000Y-88397000D01*
X157250000Y-92200000D02*
X157250000Y-89700000D01*
X157250000Y-92200000D02*
X156450000Y-92200000D01*
X157250000Y-89700000D02*
X155100000Y-87550000D01*
X151920000Y-86920000D02*
X148000000Y-86920000D01*
X146523000Y-88397000D02*
X148000000Y-86920000D01*
X126413000Y-88397000D02*
X146523000Y-88397000D01*
%TO.N,SDA*%
X151300000Y-100550000D02*
X151300000Y-100300057D01*
X128200000Y-96270000D02*
X125800000Y-96270000D01*
X129650000Y-92050000D02*
X129700000Y-92000000D01*
X157250000Y-99820000D02*
X155630000Y-99820000D01*
X150198943Y-99199000D02*
X139959000Y-99199000D01*
X139959000Y-99199000D02*
X132760000Y-92000000D01*
X155630000Y-99820000D02*
X154900000Y-100550000D01*
X129700000Y-92000000D02*
X132760000Y-92000000D01*
X151300000Y-100300057D02*
X150198943Y-99199000D01*
X128200000Y-92050000D02*
X129650000Y-92050000D01*
%TO.N,SCL*%
X131950000Y-93730000D02*
X132760000Y-94540000D01*
X156170000Y-97280000D02*
X154900000Y-98550000D01*
X149950000Y-99800000D02*
X138020000Y-99800000D01*
X138020000Y-99800000D02*
X132760000Y-94540000D01*
X125800000Y-93730000D02*
X131950000Y-93730000D01*
X157250000Y-97280000D02*
X156170000Y-97280000D01*
D20*
%TO.N,VBUS*%
X140250000Y-113460000D02*
X145000000Y-113460000D01*
X140250000Y-113460000D02*
X140250000Y-108250000D01*
X140250000Y-108250000D02*
X141000000Y-107500000D01*
X141000000Y-107500000D02*
X153550000Y-107500000D01*
X153550000Y-87390000D02*
X148000000Y-81840000D01*
X153550000Y-107500000D02*
X153550000Y-87390000D01*
X135500000Y-113460000D02*
X140250000Y-113460000D01*
D19*
%TO.N,PWM_2*%
X139250000Y-116000000D02*
X139300000Y-116050000D01*
X138900000Y-108400000D02*
X138900000Y-112200000D01*
X126170000Y-84380000D02*
X124100000Y-86450000D01*
X138900000Y-112200000D02*
X139250000Y-112550000D01*
X124100000Y-108400000D02*
X138900000Y-108400000D01*
X124100000Y-86450000D02*
X124100000Y-108400000D01*
X132760000Y-84380000D02*
X126170000Y-84380000D01*
X135500000Y-116000000D02*
X139250000Y-116000000D01*
%TO.N,PWM_1*%
X129350000Y-82750000D02*
X130260000Y-81840000D01*
X129100000Y-97900000D02*
X129100000Y-94400000D01*
X130260000Y-81840000D02*
X132760000Y-81840000D01*
X142420000Y-110920000D02*
X141100000Y-109600000D01*
X143900000Y-110920000D02*
X143770000Y-110920000D01*
X143900000Y-110920000D02*
X142420000Y-110920000D01*
X130900000Y-99700000D02*
X129100000Y-97900000D01*
X129100000Y-94400000D02*
X129050000Y-94350000D01*
X145000000Y-110920000D02*
X143900000Y-110920000D01*
%TO.N,Net-(U1-P29_A3_D3)*%
X132530000Y-89690000D02*
X132760000Y-89460000D01*
%TD*%
%TA.AperFunction,Conductor*%
%TO.N,GND*%
G36*
X147440041Y-79391704D02*
G01*
X147907229Y-79560710D01*
X148217396Y-79672914D01*
X148222286Y-79674801D01*
X148504598Y-79790641D01*
X149077799Y-80025841D01*
X149082559Y-80027913D01*
X149922498Y-80414804D01*
X149927161Y-80417073D01*
X150749990Y-80839107D01*
X150754574Y-80841582D01*
X151475049Y-81250464D01*
X151558796Y-81297992D01*
X151563300Y-81300674D01*
X151724837Y-81401605D01*
X152347543Y-81790678D01*
X152351918Y-81793542D01*
X153114725Y-82316230D01*
X153118980Y-82319280D01*
X153859039Y-82873752D01*
X153863163Y-82876980D01*
X154171681Y-83129172D01*
X154579106Y-83462212D01*
X154583093Y-83465614D01*
X155195851Y-84011284D01*
X155273674Y-84080586D01*
X155277508Y-84084148D01*
X155571391Y-84369016D01*
X155941484Y-84727755D01*
X155945169Y-84731481D01*
X156581349Y-85402566D01*
X156584874Y-85406445D01*
X156801336Y-85655030D01*
X157186657Y-86097533D01*
X157192134Y-86103822D01*
X157195469Y-86107819D01*
X157765047Y-86820639D01*
X157772741Y-86830268D01*
X157775920Y-86834424D01*
X158120772Y-87305526D01*
X158322116Y-87580581D01*
X158325122Y-87584875D01*
X158839297Y-88353445D01*
X158842119Y-88357862D01*
X159323365Y-89147490D01*
X159325997Y-89152022D01*
X159773429Y-89961252D01*
X159775868Y-89965891D01*
X160188724Y-90793350D01*
X160190964Y-90798089D01*
X160568465Y-91642213D01*
X160570503Y-91647041D01*
X160903359Y-92484632D01*
X160911999Y-92506372D01*
X160913828Y-92511274D01*
X161139504Y-93157483D01*
X161218716Y-93384303D01*
X161220339Y-93389287D01*
X161251949Y-93493796D01*
X161449987Y-94148543D01*
X161488051Y-94274387D01*
X161489462Y-94279434D01*
X161719537Y-95175080D01*
X161720733Y-95180183D01*
X161912747Y-96084719D01*
X161913727Y-96089868D01*
X162067350Y-97001741D01*
X162068111Y-97006927D01*
X162183058Y-97924442D01*
X162183600Y-97929655D01*
X162259674Y-98851258D01*
X162259994Y-98856489D01*
X162297053Y-99780423D01*
X162297153Y-99785664D01*
X162295133Y-100710406D01*
X162295010Y-100715645D01*
X162253918Y-101639408D01*
X162253575Y-101644639D01*
X162173477Y-102565882D01*
X162172913Y-102571092D01*
X162053957Y-103488121D01*
X162053173Y-103493304D01*
X161895572Y-104404481D01*
X161894570Y-104409625D01*
X161698602Y-105313337D01*
X161697383Y-105318435D01*
X161463404Y-106213044D01*
X161461971Y-106218086D01*
X161190390Y-107102027D01*
X161188745Y-107107003D01*
X160880058Y-107978663D01*
X160878204Y-107983566D01*
X160532955Y-108841407D01*
X160530896Y-108846226D01*
X160149709Y-109688702D01*
X160147448Y-109693431D01*
X159730991Y-110519058D01*
X159728532Y-110523687D01*
X159277559Y-111330976D01*
X159274907Y-111335496D01*
X158790227Y-112122999D01*
X158787386Y-112127404D01*
X158269844Y-112893743D01*
X158266819Y-112898023D01*
X157717386Y-113641765D01*
X157714184Y-113645914D01*
X157133786Y-114365804D01*
X157130411Y-114369814D01*
X156520113Y-115064532D01*
X156516571Y-115068396D01*
X155877454Y-115736708D01*
X155873752Y-115740418D01*
X155206990Y-116381102D01*
X155203135Y-116384653D01*
X154509874Y-116996603D01*
X154505872Y-116999988D01*
X153787381Y-117582087D01*
X153783240Y-117585300D01*
X153040755Y-118136542D01*
X153036481Y-118139576D01*
X152271431Y-118658905D01*
X152267034Y-118661757D01*
X151480658Y-119148331D01*
X151476143Y-119150994D01*
X150669951Y-119603878D01*
X150665328Y-119606348D01*
X149840675Y-120024780D01*
X149835952Y-120027052D01*
X148994399Y-120410241D01*
X148989584Y-120412312D01*
X148132556Y-120759608D01*
X148127658Y-120761473D01*
X147256748Y-121072231D01*
X147251776Y-121073888D01*
X146368484Y-121347574D01*
X146363446Y-121349019D01*
X145469391Y-121585130D01*
X145464296Y-121586361D01*
X144561049Y-121784482D01*
X144555907Y-121785496D01*
X143645107Y-121945267D01*
X143639926Y-121946063D01*
X142723204Y-122067201D01*
X142717995Y-122067778D01*
X141796947Y-122150069D01*
X141791718Y-122150425D01*
X140868029Y-122193720D01*
X140862789Y-122193855D01*
X139938078Y-122198078D01*
X139932838Y-122197991D01*
X139008798Y-122163133D01*
X139003565Y-122162825D01*
X138081805Y-122088947D01*
X138076591Y-122088418D01*
X137158784Y-121975655D01*
X137153596Y-121974906D01*
X136241361Y-121823456D01*
X136236210Y-121822488D01*
X135331224Y-121632631D01*
X135326118Y-121631447D01*
X134429933Y-121403507D01*
X134424882Y-121402108D01*
X133539141Y-121136503D01*
X133534154Y-121134892D01*
X132660415Y-120832090D01*
X132655500Y-120830269D01*
X131795354Y-120490820D01*
X131790520Y-120488793D01*
X130945482Y-120113297D01*
X130940739Y-120111068D01*
X130112346Y-119700207D01*
X130107700Y-119697780D01*
X129297360Y-119252252D01*
X129292822Y-119249630D01*
X128502077Y-118770283D01*
X128497653Y-118767472D01*
X127727844Y-118255119D01*
X127723543Y-118252123D01*
X127367617Y-117992881D01*
X126976081Y-117707701D01*
X126971937Y-117704547D01*
X126503259Y-117331876D01*
X126248141Y-117129018D01*
X126244108Y-117125670D01*
X125720356Y-116671789D01*
X125545262Y-116520053D01*
X125541386Y-116516547D01*
X125448776Y-116429172D01*
X125130453Y-116128842D01*
X124868811Y-115881989D01*
X124865076Y-115878313D01*
X124219872Y-115215854D01*
X124216295Y-115212022D01*
X123599692Y-114522921D01*
X123596280Y-114518943D01*
X123207881Y-114046100D01*
X123009313Y-113804360D01*
X123006097Y-113800270D01*
X122651035Y-113328711D01*
X125599500Y-113328711D01*
X125599500Y-113571288D01*
X125631161Y-113811785D01*
X125693947Y-114046104D01*
X125765542Y-114218949D01*
X125786776Y-114270212D01*
X125908064Y-114480289D01*
X125908066Y-114480292D01*
X125908067Y-114480293D01*
X126055733Y-114672736D01*
X126055739Y-114672743D01*
X126227256Y-114844260D01*
X126227262Y-114844265D01*
X126419711Y-114991936D01*
X126629788Y-115113224D01*
X126853900Y-115206054D01*
X127088211Y-115268838D01*
X127268586Y-115292584D01*
X127328711Y-115300500D01*
X127328712Y-115300500D01*
X127571289Y-115300500D01*
X127619388Y-115294167D01*
X127811789Y-115268838D01*
X128046100Y-115206054D01*
X128270212Y-115113224D01*
X128480289Y-114991936D01*
X128672738Y-114844265D01*
X128844265Y-114672738D01*
X128991936Y-114480289D01*
X129113224Y-114270212D01*
X129206054Y-114046100D01*
X129268838Y-113811789D01*
X129300500Y-113571288D01*
X129300500Y-113328712D01*
X129268838Y-113088211D01*
X129206054Y-112853900D01*
X129113224Y-112629788D01*
X128991936Y-112419711D01*
X128894032Y-112292120D01*
X128844266Y-112227263D01*
X128844260Y-112227256D01*
X128672743Y-112055739D01*
X128672736Y-112055733D01*
X128480293Y-111908067D01*
X128480292Y-111908066D01*
X128480289Y-111908064D01*
X128270212Y-111786776D01*
X128270205Y-111786773D01*
X128046104Y-111693947D01*
X127811785Y-111631161D01*
X127571289Y-111599500D01*
X127571288Y-111599500D01*
X127328712Y-111599500D01*
X127328711Y-111599500D01*
X127088214Y-111631161D01*
X126853895Y-111693947D01*
X126629794Y-111786773D01*
X126629785Y-111786777D01*
X126419706Y-111908067D01*
X126227263Y-112055733D01*
X126227256Y-112055739D01*
X126055739Y-112227256D01*
X126055733Y-112227263D01*
X125908067Y-112419706D01*
X125786777Y-112629785D01*
X125786773Y-112629794D01*
X125693947Y-112853895D01*
X125631161Y-113088214D01*
X125599500Y-113328711D01*
X122651035Y-113328711D01*
X122449868Y-113061540D01*
X122446814Y-113057301D01*
X122363154Y-112935830D01*
X121922306Y-112295735D01*
X121919426Y-112291358D01*
X121884018Y-112234988D01*
X121771425Y-112055735D01*
X121427566Y-111508300D01*
X121424873Y-111503804D01*
X121234381Y-111170000D01*
X120966542Y-110700660D01*
X120964050Y-110696069D01*
X120950600Y-110670000D01*
X120540062Y-109874258D01*
X120537777Y-109869589D01*
X120148904Y-109030615D01*
X120146804Y-109025821D01*
X120136343Y-109000499D01*
X119793719Y-108171128D01*
X119791837Y-108166286D01*
X119475176Y-107297409D01*
X119473515Y-107292531D01*
X119193860Y-106411063D01*
X119192395Y-106406082D01*
X118950246Y-105513606D01*
X118948982Y-105508524D01*
X118932354Y-105435090D01*
X118744775Y-104606666D01*
X118743726Y-104601534D01*
X118728621Y-104518713D01*
X118577803Y-103691794D01*
X118576975Y-103686632D01*
X118571991Y-103650781D01*
X118449650Y-102770725D01*
X118449040Y-102765533D01*
X118442253Y-102694951D01*
X118360531Y-101845047D01*
X118360142Y-101839835D01*
X118310613Y-100916443D01*
X118310444Y-100911219D01*
X118310260Y-100894965D01*
X118299980Y-99986544D01*
X118300030Y-99981378D01*
X118328654Y-99057015D01*
X118328922Y-99051873D01*
X118396581Y-98129569D01*
X118397070Y-98124403D01*
X118503641Y-97205813D01*
X118504353Y-97200638D01*
X118507738Y-97179361D01*
X118649647Y-96287362D01*
X118650562Y-96282303D01*
X118834327Y-95375965D01*
X118835466Y-95370899D01*
X119057362Y-94473155D01*
X119058702Y-94468184D01*
X119318354Y-93580560D01*
X119319909Y-93575633D01*
X119616818Y-92699836D01*
X119618580Y-92694977D01*
X119952241Y-91832493D01*
X119954231Y-91827658D01*
X120015770Y-91686611D01*
X120324020Y-90980094D01*
X120326214Y-90975344D01*
X120335155Y-90957007D01*
X120731494Y-90144155D01*
X120733857Y-90139556D01*
X121173919Y-89326201D01*
X121176502Y-89321661D01*
X121237506Y-89219478D01*
X121650545Y-88527627D01*
X121653280Y-88523259D01*
X122160442Y-87749985D01*
X122163374Y-87745713D01*
X122702790Y-86994520D01*
X122705880Y-86990404D01*
X123276522Y-86262725D01*
X123279818Y-86258699D01*
X123287883Y-86249264D01*
X123346402Y-86211097D01*
X123416270Y-86210626D01*
X123475302Y-86248003D01*
X123504755Y-86311361D01*
X123501915Y-86361925D01*
X123499499Y-86370940D01*
X123499499Y-86539046D01*
X123499500Y-86539059D01*
X123499500Y-108479057D01*
X123535184Y-108612229D01*
X123540423Y-108631783D01*
X123540426Y-108631790D01*
X123619475Y-108768709D01*
X123619479Y-108768714D01*
X123619480Y-108768716D01*
X123731284Y-108880520D01*
X123731286Y-108880521D01*
X123731290Y-108880524D01*
X123868209Y-108959573D01*
X123868216Y-108959577D01*
X124020943Y-109000500D01*
X124179057Y-109000500D01*
X138175500Y-109000500D01*
X138242539Y-109020185D01*
X138288294Y-109072989D01*
X138299500Y-109124500D01*
X138299500Y-112113330D01*
X138299499Y-112113348D01*
X138299499Y-112279054D01*
X138299498Y-112279054D01*
X138340424Y-112431789D01*
X138340425Y-112431790D01*
X138363028Y-112470939D01*
X138363032Y-112470944D01*
X138393375Y-112523501D01*
X138409846Y-112591402D01*
X138386994Y-112657428D01*
X138332072Y-112700618D01*
X138285987Y-112709500D01*
X136855761Y-112709500D01*
X136788722Y-112689815D01*
X136755443Y-112658385D01*
X136691547Y-112570440D01*
X136691545Y-112570437D01*
X136596630Y-112475522D01*
X136563145Y-112414199D01*
X136568129Y-112344507D01*
X136610001Y-112288574D01*
X136640979Y-112271659D01*
X136757084Y-112228355D01*
X136757093Y-112228350D01*
X136872187Y-112142190D01*
X136872190Y-112142187D01*
X136958350Y-112027093D01*
X136958354Y-112027086D01*
X137008596Y-111892379D01*
X137008598Y-111892372D01*
X137014999Y-111832844D01*
X137015000Y-111832827D01*
X137015000Y-111170000D01*
X135944560Y-111170000D01*
X135975245Y-111116853D01*
X136010000Y-110987143D01*
X136010000Y-110852857D01*
X135975245Y-110723147D01*
X135944560Y-110670000D01*
X137015000Y-110670000D01*
X137015000Y-110007172D01*
X137014999Y-110007155D01*
X137008598Y-109947627D01*
X137008596Y-109947620D01*
X136958354Y-109812913D01*
X136958350Y-109812906D01*
X136872190Y-109697812D01*
X136872187Y-109697809D01*
X136757093Y-109611649D01*
X136757086Y-109611645D01*
X136622379Y-109561403D01*
X136622372Y-109561401D01*
X136562844Y-109555000D01*
X135750000Y-109555000D01*
X135750000Y-110475439D01*
X135696853Y-110444755D01*
X135567143Y-110410000D01*
X135432857Y-110410000D01*
X135303147Y-110444755D01*
X135250000Y-110475439D01*
X135250000Y-109555000D01*
X134437155Y-109555000D01*
X134377627Y-109561401D01*
X134377620Y-109561403D01*
X134242913Y-109611645D01*
X134242906Y-109611649D01*
X134127812Y-109697809D01*
X134127809Y-109697812D01*
X134041649Y-109812906D01*
X134041645Y-109812913D01*
X133991403Y-109947620D01*
X133991401Y-109947627D01*
X133985000Y-110007155D01*
X133985000Y-110670000D01*
X135055440Y-110670000D01*
X135024755Y-110723147D01*
X134990000Y-110852857D01*
X134990000Y-110987143D01*
X135024755Y-111116853D01*
X135055440Y-111170000D01*
X133985000Y-111170000D01*
X133985000Y-111832844D01*
X133991401Y-111892372D01*
X133991403Y-111892379D01*
X134041645Y-112027086D01*
X134041649Y-112027093D01*
X134127809Y-112142187D01*
X134127812Y-112142190D01*
X134242906Y-112228350D01*
X134242913Y-112228354D01*
X134359021Y-112271659D01*
X134414954Y-112313530D01*
X134439372Y-112378994D01*
X134424521Y-112447267D01*
X134403370Y-112475522D01*
X134308454Y-112570438D01*
X134182120Y-112744321D01*
X134084541Y-112935829D01*
X134084540Y-112935832D01*
X134018124Y-113140240D01*
X134018124Y-113140243D01*
X134018124Y-113140245D01*
X133984500Y-113352533D01*
X133984500Y-113567467D01*
X133993025Y-113621288D01*
X134018124Y-113779756D01*
X134018124Y-113779759D01*
X134084540Y-113984167D01*
X134084541Y-113984170D01*
X134141573Y-114096100D01*
X134182120Y-114175678D01*
X134308455Y-114349563D01*
X134460437Y-114501545D01*
X134604852Y-114606469D01*
X134636802Y-114629682D01*
X134679467Y-114685012D01*
X134685446Y-114754626D01*
X134652840Y-114816421D01*
X134636802Y-114830318D01*
X134634322Y-114832120D01*
X134460437Y-114958455D01*
X134460435Y-114958457D01*
X134460434Y-114958457D01*
X134308457Y-115110434D01*
X134308457Y-115110435D01*
X134308455Y-115110437D01*
X134270103Y-115163224D01*
X134182120Y-115284321D01*
X134084541Y-115475829D01*
X134084540Y-115475832D01*
X134018124Y-115680240D01*
X134018124Y-115680243D01*
X133984500Y-115892534D01*
X133984500Y-116107465D01*
X134018124Y-116319756D01*
X134018124Y-116319759D01*
X134084540Y-116524167D01*
X134084541Y-116524170D01*
X134141940Y-116636820D01*
X134182120Y-116715678D01*
X134308455Y-116889563D01*
X134460437Y-117041545D01*
X134634322Y-117167880D01*
X134728251Y-117215739D01*
X134825829Y-117265458D01*
X134825832Y-117265459D01*
X134957839Y-117308350D01*
X135030245Y-117331876D01*
X135242533Y-117365500D01*
X135242534Y-117365500D01*
X135757466Y-117365500D01*
X135757467Y-117365500D01*
X135969755Y-117331876D01*
X135969758Y-117331875D01*
X135969759Y-117331875D01*
X136174167Y-117265459D01*
X136174170Y-117265458D01*
X136259088Y-117222190D01*
X136365678Y-117167880D01*
X136539563Y-117041545D01*
X136691545Y-116889563D01*
X136817880Y-116715678D01*
X136840243Y-116671789D01*
X136842070Y-116668204D01*
X136890044Y-116617409D01*
X136952554Y-116600500D01*
X138667060Y-116600500D01*
X138734099Y-116620185D01*
X138754742Y-116636820D01*
X138789707Y-116671786D01*
X138789711Y-116671789D01*
X138920814Y-116759390D01*
X138920827Y-116759397D01*
X139066498Y-116819735D01*
X139066503Y-116819737D01*
X139221153Y-116850499D01*
X139221156Y-116850500D01*
X139221158Y-116850500D01*
X139378844Y-116850500D01*
X139378845Y-116850499D01*
X139533497Y-116819737D01*
X139679179Y-116759394D01*
X139810289Y-116671789D01*
X139921789Y-116560289D01*
X140009394Y-116429179D01*
X140069737Y-116283497D01*
X140100500Y-116128842D01*
X140100500Y-115971158D01*
X140100500Y-115971155D01*
X140100499Y-115971153D01*
X140092881Y-115932857D01*
X140069737Y-115816503D01*
X140013297Y-115680243D01*
X140009397Y-115670827D01*
X140009390Y-115670814D01*
X139921789Y-115539711D01*
X139921786Y-115539707D01*
X139810292Y-115428213D01*
X139810288Y-115428210D01*
X139679185Y-115340609D01*
X139679172Y-115340602D01*
X139533501Y-115280264D01*
X139533489Y-115280261D01*
X139378845Y-115249500D01*
X139378842Y-115249500D01*
X139221158Y-115249500D01*
X139221155Y-115249500D01*
X139066510Y-115280261D01*
X139066498Y-115280264D01*
X138920827Y-115340602D01*
X138920820Y-115340606D01*
X138891928Y-115359911D01*
X138863955Y-115378602D01*
X138797279Y-115399480D01*
X138795065Y-115399500D01*
X136952554Y-115399500D01*
X136885515Y-115379815D01*
X136842070Y-115331796D01*
X136817881Y-115284323D01*
X136766776Y-115213984D01*
X136691545Y-115110437D01*
X136539563Y-114958455D01*
X136365678Y-114832120D01*
X136363198Y-114830318D01*
X136320532Y-114774988D01*
X136314553Y-114705375D01*
X136347159Y-114643580D01*
X136363198Y-114629682D01*
X136395148Y-114606469D01*
X136539563Y-114501545D01*
X136691545Y-114349563D01*
X136755443Y-114261615D01*
X136810773Y-114218949D01*
X136855761Y-114210500D01*
X140176082Y-114210500D01*
X140323918Y-114210500D01*
X143644239Y-114210500D01*
X143711278Y-114230185D01*
X143744557Y-114261615D01*
X143808452Y-114349559D01*
X143808457Y-114349565D01*
X143903369Y-114444477D01*
X143936854Y-114505800D01*
X143931870Y-114575492D01*
X143889998Y-114631425D01*
X143859021Y-114648340D01*
X143742913Y-114691645D01*
X143742906Y-114691649D01*
X143627812Y-114777809D01*
X143627809Y-114777812D01*
X143541649Y-114892906D01*
X143541645Y-114892913D01*
X143491403Y-115027620D01*
X143491401Y-115027627D01*
X143485000Y-115087155D01*
X143485000Y-115750000D01*
X144555440Y-115750000D01*
X144524755Y-115803147D01*
X144490000Y-115932857D01*
X144490000Y-116067143D01*
X144524755Y-116196853D01*
X144555440Y-116250000D01*
X143485000Y-116250000D01*
X143485000Y-116912844D01*
X143491401Y-116972372D01*
X143491403Y-116972379D01*
X143541645Y-117107086D01*
X143541649Y-117107093D01*
X143627809Y-117222187D01*
X143627812Y-117222190D01*
X143742906Y-117308350D01*
X143742913Y-117308354D01*
X143877620Y-117358596D01*
X143877627Y-117358598D01*
X143937155Y-117364999D01*
X143937172Y-117365000D01*
X144750000Y-117365000D01*
X144750000Y-116444560D01*
X144803147Y-116475245D01*
X144932857Y-116510000D01*
X145067143Y-116510000D01*
X145196853Y-116475245D01*
X145250000Y-116444560D01*
X145250000Y-117365000D01*
X146062828Y-117365000D01*
X146062844Y-117364999D01*
X146122372Y-117358598D01*
X146122379Y-117358596D01*
X146257086Y-117308354D01*
X146257093Y-117308350D01*
X146372187Y-117222190D01*
X146372190Y-117222187D01*
X146458350Y-117107093D01*
X146458354Y-117107086D01*
X146508596Y-116972379D01*
X146508598Y-116972372D01*
X146514999Y-116912844D01*
X146515000Y-116912827D01*
X146515000Y-116250000D01*
X145444560Y-116250000D01*
X145475245Y-116196853D01*
X145510000Y-116067143D01*
X145510000Y-115932857D01*
X145475245Y-115803147D01*
X145444560Y-115750000D01*
X146515000Y-115750000D01*
X146515000Y-115087172D01*
X146514999Y-115087155D01*
X146508598Y-115027627D01*
X146508596Y-115027620D01*
X146458354Y-114892913D01*
X146458350Y-114892906D01*
X146372190Y-114777812D01*
X146372187Y-114777809D01*
X146257093Y-114691649D01*
X146257086Y-114691645D01*
X146140978Y-114648340D01*
X146085044Y-114606469D01*
X146060627Y-114541005D01*
X146075479Y-114472732D01*
X146096624Y-114444483D01*
X146191545Y-114349563D01*
X146317880Y-114175678D01*
X146415458Y-113984170D01*
X146481876Y-113779755D01*
X146515500Y-113567467D01*
X146515500Y-113378711D01*
X150649500Y-113378711D01*
X150649500Y-113621288D01*
X150681161Y-113861785D01*
X150743947Y-114096104D01*
X150812504Y-114261615D01*
X150836776Y-114320212D01*
X150958064Y-114530289D01*
X150958066Y-114530292D01*
X150958067Y-114530293D01*
X151105733Y-114722736D01*
X151105739Y-114722743D01*
X151277256Y-114894260D01*
X151277262Y-114894265D01*
X151469711Y-115041936D01*
X151679788Y-115163224D01*
X151903900Y-115256054D01*
X152138211Y-115318838D01*
X152303581Y-115340609D01*
X152378711Y-115350500D01*
X152378712Y-115350500D01*
X152621289Y-115350500D01*
X152669388Y-115344167D01*
X152861789Y-115318838D01*
X153096100Y-115256054D01*
X153320212Y-115163224D01*
X153530289Y-115041936D01*
X153722738Y-114894265D01*
X153894265Y-114722738D01*
X154041936Y-114530289D01*
X154163224Y-114320212D01*
X154256054Y-114096100D01*
X154318838Y-113861789D01*
X154350500Y-113621288D01*
X154350500Y-113378712D01*
X154343917Y-113328712D01*
X154342584Y-113318586D01*
X154318838Y-113138211D01*
X154256054Y-112903900D01*
X154163224Y-112679788D01*
X154041936Y-112469711D01*
X153945864Y-112344507D01*
X153894266Y-112277263D01*
X153894260Y-112277256D01*
X153722743Y-112105739D01*
X153722736Y-112105733D01*
X153530293Y-111958067D01*
X153530292Y-111958066D01*
X153530289Y-111958064D01*
X153320212Y-111836776D01*
X153320205Y-111836773D01*
X153096104Y-111743947D01*
X152861785Y-111681161D01*
X152621289Y-111649500D01*
X152621288Y-111649500D01*
X152378712Y-111649500D01*
X152378711Y-111649500D01*
X152138214Y-111681161D01*
X151903895Y-111743947D01*
X151679794Y-111836773D01*
X151679785Y-111836777D01*
X151469706Y-111958067D01*
X151277263Y-112105733D01*
X151277256Y-112105739D01*
X151105739Y-112277256D01*
X151105733Y-112277263D01*
X150958067Y-112469706D01*
X150836777Y-112679785D01*
X150836773Y-112679794D01*
X150743947Y-112903895D01*
X150681161Y-113138214D01*
X150649500Y-113378711D01*
X146515500Y-113378711D01*
X146515500Y-113352533D01*
X146481876Y-113140245D01*
X146481875Y-113140241D01*
X146481875Y-113140240D01*
X146415459Y-112935832D01*
X146415458Y-112935829D01*
X146317879Y-112744321D01*
X146292580Y-112709500D01*
X146191545Y-112570437D01*
X146039563Y-112418455D01*
X145985250Y-112378994D01*
X145863198Y-112290318D01*
X145820532Y-112234988D01*
X145814553Y-112165375D01*
X145847159Y-112103580D01*
X145863198Y-112089682D01*
X145949344Y-112027093D01*
X146039563Y-111961545D01*
X146191545Y-111809563D01*
X146317880Y-111635678D01*
X146415458Y-111444170D01*
X146481876Y-111239755D01*
X146515500Y-111027467D01*
X146515500Y-110812533D01*
X146481876Y-110600245D01*
X146481875Y-110600241D01*
X146481875Y-110600240D01*
X146415459Y-110395832D01*
X146415458Y-110395829D01*
X146342069Y-110251796D01*
X146317880Y-110204322D01*
X146191545Y-110030437D01*
X146039563Y-109878455D01*
X145865678Y-109752120D01*
X145674170Y-109654541D01*
X145674167Y-109654540D01*
X145469757Y-109588124D01*
X145328229Y-109565708D01*
X145257467Y-109554500D01*
X144742533Y-109554500D01*
X144671770Y-109565708D01*
X144530243Y-109588124D01*
X144530240Y-109588124D01*
X144325832Y-109654540D01*
X144325829Y-109654541D01*
X144134321Y-109752120D01*
X144050657Y-109812906D01*
X143960437Y-109878455D01*
X143960435Y-109878457D01*
X143960434Y-109878457D01*
X143808457Y-110030434D01*
X143808457Y-110030435D01*
X143808455Y-110030437D01*
X143786464Y-110060705D01*
X143682118Y-110204323D01*
X143657930Y-110251796D01*
X143609956Y-110302591D01*
X143547446Y-110319500D01*
X142720097Y-110319500D01*
X142653058Y-110299815D01*
X142632416Y-110283181D01*
X141934574Y-109585339D01*
X141901089Y-109524016D01*
X141900638Y-109521849D01*
X141869738Y-109366510D01*
X141869737Y-109366503D01*
X141869735Y-109366498D01*
X141809397Y-109220827D01*
X141809390Y-109220814D01*
X141721789Y-109089711D01*
X141721786Y-109089707D01*
X141610292Y-108978213D01*
X141610288Y-108978210D01*
X141479185Y-108890609D01*
X141479172Y-108890602D01*
X141333501Y-108830264D01*
X141333489Y-108830261D01*
X141178845Y-108799500D01*
X141178842Y-108799500D01*
X141124500Y-108799500D01*
X141115814Y-108796949D01*
X141106853Y-108798238D01*
X141082812Y-108787259D01*
X141057461Y-108779815D01*
X141051533Y-108772974D01*
X141043297Y-108769213D01*
X141029007Y-108746978D01*
X141011706Y-108727011D01*
X141009418Y-108716496D01*
X141005523Y-108710435D01*
X141000500Y-108675500D01*
X141000500Y-108612229D01*
X141020185Y-108545190D01*
X141036819Y-108524548D01*
X141274548Y-108286819D01*
X141335871Y-108253334D01*
X141362229Y-108250500D01*
X153623920Y-108250500D01*
X153721462Y-108231096D01*
X153768913Y-108221658D01*
X153905495Y-108165084D01*
X154028416Y-108082951D01*
X154132951Y-107978416D01*
X154215084Y-107855495D01*
X154271658Y-107718913D01*
X154283804Y-107657853D01*
X154300500Y-107573920D01*
X154300500Y-101344168D01*
X154320185Y-101277129D01*
X154372989Y-101231374D01*
X154442147Y-101221430D01*
X154493392Y-101241067D01*
X154520812Y-101259389D01*
X154520827Y-101259397D01*
X154666498Y-101319735D01*
X154666503Y-101319737D01*
X154821153Y-101350499D01*
X154821156Y-101350500D01*
X154821158Y-101350500D01*
X154978844Y-101350500D01*
X154978845Y-101350499D01*
X155133497Y-101319737D01*
X155279179Y-101259394D01*
X155410289Y-101171789D01*
X155521789Y-101060289D01*
X155609394Y-100929179D01*
X155669737Y-100783497D01*
X155689113Y-100686085D01*
X155700638Y-100628150D01*
X155709402Y-100611394D01*
X155713423Y-100592914D01*
X155732168Y-100567872D01*
X155733023Y-100566239D01*
X155734467Y-100564767D01*
X155842418Y-100456816D01*
X155903739Y-100423334D01*
X155930097Y-100420500D01*
X155964281Y-100420500D01*
X156031320Y-100440185D01*
X156074765Y-100488205D01*
X156094947Y-100527814D01*
X156094948Y-100527815D01*
X156219890Y-100699786D01*
X156370213Y-100850109D01*
X156542182Y-100975050D01*
X156550946Y-100979516D01*
X156601742Y-101027491D01*
X156618536Y-101095312D01*
X156595998Y-101161447D01*
X156550946Y-101200484D01*
X156542182Y-101204949D01*
X156370213Y-101329890D01*
X156219890Y-101480213D01*
X156094951Y-101652179D01*
X155998444Y-101841585D01*
X155932753Y-102043760D01*
X155909625Y-102189786D01*
X155899500Y-102253713D01*
X155899500Y-102466287D01*
X155906195Y-102508556D01*
X155928826Y-102651447D01*
X155932754Y-102676243D01*
X155993419Y-102862951D01*
X155998444Y-102878414D01*
X156094951Y-103067820D01*
X156219890Y-103239786D01*
X156370213Y-103390109D01*
X156542182Y-103515050D01*
X156550946Y-103519516D01*
X156601742Y-103567491D01*
X156618536Y-103635312D01*
X156595998Y-103701447D01*
X156550946Y-103740484D01*
X156542182Y-103744949D01*
X156370213Y-103869890D01*
X156219890Y-104020213D01*
X156094951Y-104192179D01*
X155998444Y-104381585D01*
X155932753Y-104583760D01*
X155922385Y-104649223D01*
X155899500Y-104793713D01*
X155899500Y-105006287D01*
X155901000Y-105015756D01*
X155928826Y-105191447D01*
X155932754Y-105216243D01*
X155968091Y-105325000D01*
X155998444Y-105418414D01*
X156094951Y-105607820D01*
X156219890Y-105779786D01*
X156370213Y-105930109D01*
X156542179Y-106055048D01*
X156542181Y-106055049D01*
X156542184Y-106055051D01*
X156731588Y-106151557D01*
X156933757Y-106217246D01*
X157143713Y-106250500D01*
X157143714Y-106250500D01*
X157356286Y-106250500D01*
X157356287Y-106250500D01*
X157566243Y-106217246D01*
X157768412Y-106151557D01*
X157957816Y-106055051D01*
X157979789Y-106039086D01*
X158129786Y-105930109D01*
X158129788Y-105930106D01*
X158129792Y-105930104D01*
X158280104Y-105779792D01*
X158280106Y-105779788D01*
X158280109Y-105779786D01*
X158405048Y-105607820D01*
X158405047Y-105607820D01*
X158405051Y-105607816D01*
X158501557Y-105418412D01*
X158567246Y-105216243D01*
X158600500Y-105006287D01*
X158600500Y-104793713D01*
X158567246Y-104583757D01*
X158501557Y-104381588D01*
X158405051Y-104192184D01*
X158405049Y-104192181D01*
X158405048Y-104192179D01*
X158280109Y-104020213D01*
X158129786Y-103869890D01*
X157957820Y-103744951D01*
X157955390Y-103743713D01*
X157949054Y-103740485D01*
X157898259Y-103692512D01*
X157881463Y-103624692D01*
X157903999Y-103558556D01*
X157949054Y-103519515D01*
X157957816Y-103515051D01*
X158022040Y-103468390D01*
X158129786Y-103390109D01*
X158129788Y-103390106D01*
X158129792Y-103390104D01*
X158280104Y-103239792D01*
X158280106Y-103239788D01*
X158280109Y-103239786D01*
X158405048Y-103067820D01*
X158405047Y-103067820D01*
X158405051Y-103067816D01*
X158501557Y-102878412D01*
X158567246Y-102676243D01*
X158600500Y-102466287D01*
X158600500Y-102253713D01*
X158567246Y-102043757D01*
X158501557Y-101841588D01*
X158405051Y-101652184D01*
X158405049Y-101652181D01*
X158405048Y-101652179D01*
X158280109Y-101480213D01*
X158129786Y-101329890D01*
X157957820Y-101204951D01*
X157955390Y-101203713D01*
X157949054Y-101200485D01*
X157898259Y-101152512D01*
X157881463Y-101084692D01*
X157903999Y-101018556D01*
X157949054Y-100979515D01*
X157957816Y-100975051D01*
X158020954Y-100929179D01*
X158129786Y-100850109D01*
X158129788Y-100850106D01*
X158129792Y-100850104D01*
X158280104Y-100699792D01*
X158280106Y-100699788D01*
X158280109Y-100699786D01*
X158405048Y-100527820D01*
X158405047Y-100527820D01*
X158405051Y-100527816D01*
X158501557Y-100338412D01*
X158567246Y-100136243D01*
X158600500Y-99926287D01*
X158600500Y-99713713D01*
X158567246Y-99503757D01*
X158501557Y-99301588D01*
X158405051Y-99112184D01*
X158405049Y-99112181D01*
X158405048Y-99112179D01*
X158280109Y-98940213D01*
X158129786Y-98789890D01*
X157957820Y-98664951D01*
X157955390Y-98663713D01*
X157949054Y-98660485D01*
X157898259Y-98612512D01*
X157881463Y-98544692D01*
X157903999Y-98478556D01*
X157949054Y-98439515D01*
X157957816Y-98435051D01*
X158068046Y-98354965D01*
X158129786Y-98310109D01*
X158129788Y-98310106D01*
X158129792Y-98310104D01*
X158280104Y-98159792D01*
X158280104Y-98159791D01*
X158280109Y-98159787D01*
X158280109Y-98159786D01*
X158405048Y-97987820D01*
X158405047Y-97987820D01*
X158405051Y-97987816D01*
X158501557Y-97798412D01*
X158567246Y-97596243D01*
X158600500Y-97386287D01*
X158600500Y-97173713D01*
X158567246Y-96963757D01*
X158501557Y-96761588D01*
X158405051Y-96572184D01*
X158405049Y-96572181D01*
X158405048Y-96572179D01*
X158280109Y-96400213D01*
X158129786Y-96249890D01*
X157957817Y-96124949D01*
X157948504Y-96120204D01*
X157897707Y-96072230D01*
X157880912Y-96004409D01*
X157903449Y-95938274D01*
X157948507Y-95899232D01*
X157957555Y-95894622D01*
X158011716Y-95855270D01*
X158011717Y-95855270D01*
X157379408Y-95222962D01*
X157442993Y-95205925D01*
X157557007Y-95140099D01*
X157650099Y-95047007D01*
X157715925Y-94932993D01*
X157732962Y-94869408D01*
X158365270Y-95501717D01*
X158365270Y-95501716D01*
X158404622Y-95447554D01*
X158501095Y-95258217D01*
X158566757Y-95056130D01*
X158566757Y-95056127D01*
X158600000Y-94846246D01*
X158600000Y-94633753D01*
X158566757Y-94423872D01*
X158566757Y-94423869D01*
X158501095Y-94221782D01*
X158404624Y-94032449D01*
X158365270Y-93978282D01*
X158365269Y-93978282D01*
X157732962Y-94610590D01*
X157715925Y-94547007D01*
X157650099Y-94432993D01*
X157557007Y-94339901D01*
X157442993Y-94274075D01*
X157379409Y-94257037D01*
X158049627Y-93586818D01*
X158110950Y-93553333D01*
X158137307Y-93550499D01*
X158147872Y-93550499D01*
X158207483Y-93544091D01*
X158342331Y-93493796D01*
X158457546Y-93407546D01*
X158543796Y-93292331D01*
X158594091Y-93157483D01*
X158600500Y-93097873D01*
X158600499Y-91302128D01*
X158594091Y-91242517D01*
X158559584Y-91150000D01*
X158543797Y-91107671D01*
X158543793Y-91107664D01*
X158457547Y-90992455D01*
X158457544Y-90992452D01*
X158342335Y-90906206D01*
X158342328Y-90906202D01*
X158207482Y-90855908D01*
X158207483Y-90855908D01*
X158147883Y-90849501D01*
X158147881Y-90849500D01*
X158147873Y-90849500D01*
X158147865Y-90849500D01*
X157974500Y-90849500D01*
X157907461Y-90829815D01*
X157861706Y-90777011D01*
X157850500Y-90725500D01*
X157850500Y-89620946D01*
X157850499Y-89620939D01*
X157838121Y-89574742D01*
X157809577Y-89468215D01*
X157780639Y-89418095D01*
X157730520Y-89331284D01*
X157618716Y-89219480D01*
X157618715Y-89219479D01*
X157614385Y-89215149D01*
X157614374Y-89215139D01*
X155934574Y-87535339D01*
X155901089Y-87474016D01*
X155900638Y-87471849D01*
X155869738Y-87316510D01*
X155869737Y-87316503D01*
X155855012Y-87280954D01*
X155809397Y-87170827D01*
X155809390Y-87170814D01*
X155721789Y-87039711D01*
X155721786Y-87039707D01*
X155610292Y-86928213D01*
X155610288Y-86928210D01*
X155479185Y-86840609D01*
X155479172Y-86840602D01*
X155333501Y-86780264D01*
X155333489Y-86780261D01*
X155178845Y-86749500D01*
X155178842Y-86749500D01*
X155021158Y-86749500D01*
X155021155Y-86749500D01*
X154866510Y-86780261D01*
X154866498Y-86780264D01*
X154720827Y-86840602D01*
X154720814Y-86840609D01*
X154589711Y-86928210D01*
X154589707Y-86928213D01*
X154478213Y-87039707D01*
X154478208Y-87039713D01*
X154445993Y-87087926D01*
X154392380Y-87132731D01*
X154323055Y-87141437D01*
X154260028Y-87111281D01*
X154228331Y-87066486D01*
X154215084Y-87034505D01*
X154215080Y-87034498D01*
X154132952Y-86911585D01*
X154132951Y-86911584D01*
X154028416Y-86807049D01*
X149293260Y-82071893D01*
X149259775Y-82010570D01*
X149258468Y-81964815D01*
X149262500Y-81939361D01*
X149262500Y-81740639D01*
X149231413Y-81544364D01*
X149185913Y-81404329D01*
X149170006Y-81355370D01*
X149170005Y-81355367D01*
X149116554Y-81250465D01*
X149079787Y-81178306D01*
X148962981Y-81017536D01*
X148822464Y-80877019D01*
X148661694Y-80760213D01*
X148616894Y-80737386D01*
X148484632Y-80669994D01*
X148484629Y-80669993D01*
X148295637Y-80608587D01*
X148197498Y-80593043D01*
X148099361Y-80577500D01*
X147900639Y-80577500D01*
X147835214Y-80587862D01*
X147704362Y-80608587D01*
X147515370Y-80669993D01*
X147515367Y-80669994D01*
X147338305Y-80760213D01*
X147177533Y-80877021D01*
X147037021Y-81017533D01*
X146920213Y-81178305D01*
X146829994Y-81355367D01*
X146829993Y-81355370D01*
X146768587Y-81544362D01*
X146768587Y-81544364D01*
X146737500Y-81740639D01*
X146737500Y-81939361D01*
X146748778Y-82010570D01*
X146768587Y-82135637D01*
X146829993Y-82324629D01*
X146829994Y-82324632D01*
X146886486Y-82435502D01*
X146920213Y-82501694D01*
X147037019Y-82662464D01*
X147177536Y-82802981D01*
X147338306Y-82919787D01*
X147495332Y-82999796D01*
X147546127Y-83047769D01*
X147562922Y-83115590D01*
X147540385Y-83181725D01*
X147495332Y-83220764D01*
X147338566Y-83300641D01*
X147301283Y-83327729D01*
X147301282Y-83327730D01*
X147915905Y-83942352D01*
X147828429Y-83965792D01*
X147727070Y-84024311D01*
X147644311Y-84107070D01*
X147585792Y-84208429D01*
X147562352Y-84295905D01*
X146947730Y-83681282D01*
X146947729Y-83681283D01*
X146920643Y-83718564D01*
X146830457Y-83895562D01*
X146769075Y-84084476D01*
X146769075Y-84084479D01*
X146738000Y-84280678D01*
X146738000Y-84479321D01*
X146769075Y-84675520D01*
X146769075Y-84675523D01*
X146830457Y-84864437D01*
X146920641Y-85041432D01*
X146947730Y-85078715D01*
X146947731Y-85078716D01*
X147562352Y-84464094D01*
X147585792Y-84551571D01*
X147644311Y-84652930D01*
X147727070Y-84735689D01*
X147828429Y-84794208D01*
X147915905Y-84817647D01*
X147301283Y-85432268D01*
X147301283Y-85432269D01*
X147338567Y-85459358D01*
X147495331Y-85539234D01*
X147546127Y-85587209D01*
X147562922Y-85655030D01*
X147540384Y-85721165D01*
X147495331Y-85760204D01*
X147338305Y-85840213D01*
X147177533Y-85957021D01*
X147037021Y-86097533D01*
X146920213Y-86258305D01*
X146829994Y-86435367D01*
X146829993Y-86435370D01*
X146768587Y-86624362D01*
X146768587Y-86624364D01*
X146737500Y-86820639D01*
X146737500Y-87019361D01*
X146740723Y-87039711D01*
X146768586Y-87215636D01*
X146769131Y-87217903D01*
X146769086Y-87218790D01*
X146769349Y-87220448D01*
X146769000Y-87220503D01*
X146765638Y-87287685D01*
X146736237Y-87334526D01*
X146310584Y-87760181D01*
X146249261Y-87793666D01*
X146222903Y-87796500D01*
X133927085Y-87796500D01*
X133860046Y-87776815D01*
X133814291Y-87724011D01*
X133804347Y-87654853D01*
X133826768Y-87599614D01*
X133839784Y-87581698D01*
X133839783Y-87581698D01*
X133839787Y-87581694D01*
X133930005Y-87404632D01*
X133991413Y-87215636D01*
X134022500Y-87019361D01*
X134022500Y-86820639D01*
X133991413Y-86624364D01*
X133930005Y-86435368D01*
X133930005Y-86435367D01*
X133842041Y-86262730D01*
X133839787Y-86258306D01*
X133722981Y-86097536D01*
X133582464Y-85957019D01*
X133421694Y-85840213D01*
X133265218Y-85760484D01*
X133214423Y-85712510D01*
X133197628Y-85644689D01*
X133220165Y-85578554D01*
X133265218Y-85539515D01*
X133421694Y-85459787D01*
X133582464Y-85342981D01*
X133722981Y-85202464D01*
X133839787Y-85041694D01*
X133930005Y-84864632D01*
X133991413Y-84675636D01*
X134022500Y-84479361D01*
X134022500Y-84280639D01*
X133991413Y-84084364D01*
X133930005Y-83895368D01*
X133930005Y-83895367D01*
X133864681Y-83767163D01*
X133839787Y-83718306D01*
X133722981Y-83557536D01*
X133582464Y-83417019D01*
X133421694Y-83300213D01*
X133265218Y-83220484D01*
X133214423Y-83172510D01*
X133197628Y-83104689D01*
X133220165Y-83038554D01*
X133265218Y-82999515D01*
X133421694Y-82919787D01*
X133582464Y-82802981D01*
X133722981Y-82662464D01*
X133839787Y-82501694D01*
X133930005Y-82324632D01*
X133991413Y-82135636D01*
X134022500Y-81939361D01*
X134022500Y-81740639D01*
X133991413Y-81544364D01*
X133945913Y-81404329D01*
X133930006Y-81355370D01*
X133930005Y-81355367D01*
X133876554Y-81250465D01*
X133839787Y-81178306D01*
X133722981Y-81017536D01*
X133582464Y-80877019D01*
X133421694Y-80760213D01*
X133376894Y-80737386D01*
X133244632Y-80669994D01*
X133244629Y-80669993D01*
X133055637Y-80608587D01*
X132957498Y-80593043D01*
X132859361Y-80577500D01*
X132660639Y-80577500D01*
X132595214Y-80587862D01*
X132464362Y-80608587D01*
X132275370Y-80669993D01*
X132275367Y-80669994D01*
X132098305Y-80760213D01*
X131937533Y-80877021D01*
X131797021Y-81017533D01*
X131680210Y-81178309D01*
X131679000Y-81180285D01*
X131678343Y-81180878D01*
X131677349Y-81182248D01*
X131677061Y-81182039D01*
X131627190Y-81227163D01*
X131573270Y-81239500D01*
X130180940Y-81239500D01*
X130140019Y-81250464D01*
X130140019Y-81250465D01*
X130102751Y-81260451D01*
X130028214Y-81280423D01*
X130028209Y-81280426D01*
X129891290Y-81359475D01*
X129891282Y-81359481D01*
X129335339Y-81915425D01*
X129274016Y-81948910D01*
X129271850Y-81949361D01*
X129116508Y-81980261D01*
X129116498Y-81980264D01*
X128970827Y-82040602D01*
X128970814Y-82040609D01*
X128839711Y-82128210D01*
X128839707Y-82128213D01*
X128728213Y-82239707D01*
X128728210Y-82239711D01*
X128640609Y-82370814D01*
X128640602Y-82370827D01*
X128580264Y-82516498D01*
X128580261Y-82516510D01*
X128549500Y-82671153D01*
X128549500Y-82828846D01*
X128580261Y-82983489D01*
X128580264Y-82983501D01*
X128640602Y-83129172D01*
X128640609Y-83129185D01*
X128728210Y-83260288D01*
X128728213Y-83260292D01*
X128839707Y-83371786D01*
X128839711Y-83371789D01*
X128970814Y-83459390D01*
X128970827Y-83459397D01*
X129116498Y-83519735D01*
X129116503Y-83519737D01*
X129116507Y-83519737D01*
X129116508Y-83519738D01*
X129187617Y-83533883D01*
X129249528Y-83566268D01*
X129284102Y-83626984D01*
X129280362Y-83696753D01*
X129239495Y-83753425D01*
X129174477Y-83779006D01*
X129163425Y-83779500D01*
X126090941Y-83779500D01*
X125978772Y-83809555D01*
X125972626Y-83809408D01*
X125967091Y-83812089D01*
X125938105Y-83808586D01*
X125908923Y-83807892D01*
X125903831Y-83804445D01*
X125897726Y-83803708D01*
X125875235Y-83785091D01*
X125851060Y-83768729D01*
X125848639Y-83763076D01*
X125843903Y-83759156D01*
X125835048Y-83731337D01*
X125823557Y-83704500D01*
X125824576Y-83698435D01*
X125822712Y-83692577D01*
X125830302Y-83664389D01*
X125835144Y-83635598D01*
X125839687Y-83629536D01*
X125840879Y-83625111D01*
X125863379Y-83597928D01*
X125864724Y-83596708D01*
X125868606Y-83593334D01*
X126579239Y-83001535D01*
X126583277Y-82998314D01*
X127318286Y-82437073D01*
X127322471Y-82434016D01*
X128080549Y-81904330D01*
X128084827Y-81901474D01*
X128864594Y-81404310D01*
X128869013Y-81401622D01*
X129669094Y-80937854D01*
X129673636Y-80935348D01*
X130492615Y-80505795D01*
X130497199Y-80503513D01*
X131333646Y-80108932D01*
X131338328Y-80106844D01*
X132190631Y-79747994D01*
X132195438Y-79746087D01*
X132970235Y-79457774D01*
X133012909Y-79449991D01*
X147397299Y-79384311D01*
X147440041Y-79391704D01*
G37*
%TD.AperFunction*%
%TA.AperFunction,Conductor*%
G36*
X151461206Y-87526132D02*
G01*
X151481185Y-87526846D01*
X151494045Y-87535774D01*
X151509064Y-87540185D01*
X151522153Y-87555290D01*
X151538577Y-87566694D01*
X151552785Y-87590642D01*
X151554819Y-87592989D01*
X151556586Y-87597048D01*
X151590602Y-87679172D01*
X151590609Y-87679185D01*
X151678210Y-87810288D01*
X151678213Y-87810292D01*
X151789707Y-87921786D01*
X151789711Y-87921789D01*
X151920814Y-88009390D01*
X151920827Y-88009397D01*
X152066498Y-88069735D01*
X152066503Y-88069737D01*
X152189788Y-88094260D01*
X152221153Y-88100499D01*
X152221156Y-88100500D01*
X152221158Y-88100500D01*
X152378844Y-88100500D01*
X152378845Y-88100499D01*
X152533497Y-88069737D01*
X152628048Y-88030572D01*
X152697517Y-88023104D01*
X152759996Y-88054379D01*
X152795648Y-88114468D01*
X152799500Y-88145134D01*
X152799500Y-106625500D01*
X152779815Y-106692539D01*
X152727011Y-106738294D01*
X152675500Y-106749500D01*
X140926080Y-106749500D01*
X140781092Y-106778340D01*
X140781082Y-106778343D01*
X140644511Y-106834912D01*
X140644498Y-106834919D01*
X140521584Y-106917048D01*
X140521580Y-106917051D01*
X139667045Y-107771586D01*
X139651168Y-107795350D01*
X139651163Y-107795357D01*
X139648396Y-107799500D01*
X139584916Y-107894505D01*
X139553250Y-107970951D01*
X139549746Y-107977237D01*
X139529749Y-107996881D01*
X139512165Y-108018703D01*
X139505166Y-108021032D01*
X139499904Y-108026202D01*
X139472464Y-108031916D01*
X139445871Y-108040768D01*
X139438724Y-108038943D01*
X139431502Y-108040448D01*
X139405328Y-108030420D01*
X139378172Y-108023489D01*
X139369350Y-108016636D01*
X139366257Y-108015451D01*
X139364171Y-108012612D01*
X139353764Y-108004528D01*
X139268717Y-107919481D01*
X139268709Y-107919475D01*
X139131790Y-107840426D01*
X139131786Y-107840424D01*
X139131784Y-107840423D01*
X138979057Y-107799500D01*
X138979056Y-107799500D01*
X126924929Y-107799500D01*
X126857890Y-107779815D01*
X126812135Y-107727011D01*
X126802191Y-107657853D01*
X126831216Y-107594297D01*
X126868634Y-107565015D01*
X126907816Y-107545051D01*
X126929789Y-107529086D01*
X127079786Y-107420109D01*
X127079788Y-107420106D01*
X127079792Y-107420104D01*
X127230104Y-107269792D01*
X127230106Y-107269788D01*
X127230109Y-107269786D01*
X127350176Y-107104526D01*
X127355051Y-107097816D01*
X127451557Y-106908412D01*
X127517246Y-106706243D01*
X127550500Y-106496287D01*
X127550500Y-106283713D01*
X127517246Y-106073757D01*
X127451557Y-105871588D01*
X127355051Y-105682184D01*
X127355049Y-105682181D01*
X127355048Y-105682179D01*
X127230109Y-105510213D01*
X127079786Y-105359890D01*
X126907820Y-105234951D01*
X126907115Y-105234591D01*
X126899054Y-105230485D01*
X126848259Y-105182512D01*
X126831463Y-105114692D01*
X126853999Y-105048556D01*
X126899054Y-105009515D01*
X126907816Y-105005051D01*
X127050610Y-104901306D01*
X127079786Y-104880109D01*
X127079788Y-104880106D01*
X127079792Y-104880104D01*
X127230104Y-104729792D01*
X127230106Y-104729788D01*
X127230109Y-104729786D01*
X127355048Y-104557820D01*
X127355047Y-104557820D01*
X127355051Y-104557816D01*
X127451557Y-104368412D01*
X127517246Y-104166243D01*
X127536030Y-104047648D01*
X128739500Y-104047648D01*
X128739500Y-104252351D01*
X128771522Y-104454534D01*
X128834781Y-104649223D01*
X128892150Y-104761814D01*
X128910941Y-104798694D01*
X128927715Y-104831613D01*
X129048028Y-104997213D01*
X129192786Y-105141971D01*
X129314619Y-105230486D01*
X129358390Y-105262287D01*
X129474607Y-105321503D01*
X129540776Y-105355218D01*
X129540778Y-105355218D01*
X129540781Y-105355220D01*
X129645137Y-105389127D01*
X129735465Y-105418477D01*
X129836557Y-105434488D01*
X129937648Y-105450500D01*
X129937649Y-105450500D01*
X130142351Y-105450500D01*
X130142352Y-105450500D01*
X130344534Y-105418477D01*
X130539219Y-105355220D01*
X130721610Y-105262287D01*
X130844065Y-105173319D01*
X130887213Y-105141971D01*
X130887215Y-105141968D01*
X130887219Y-105141966D01*
X131031966Y-104997219D01*
X131031968Y-104997215D01*
X131031971Y-104997213D01*
X131101650Y-104901306D01*
X131152287Y-104831610D01*
X131245220Y-104649219D01*
X131308477Y-104454534D01*
X131340500Y-104252352D01*
X131340500Y-104047648D01*
X136359500Y-104047648D01*
X136359500Y-104252351D01*
X136391522Y-104454534D01*
X136454781Y-104649223D01*
X136512150Y-104761814D01*
X136530941Y-104798694D01*
X136547715Y-104831613D01*
X136668028Y-104997213D01*
X136812786Y-105141971D01*
X136934619Y-105230486D01*
X136978390Y-105262287D01*
X137094607Y-105321503D01*
X137160776Y-105355218D01*
X137160778Y-105355218D01*
X137160781Y-105355220D01*
X137265137Y-105389127D01*
X137355465Y-105418477D01*
X137456557Y-105434488D01*
X137557648Y-105450500D01*
X137557649Y-105450500D01*
X137762351Y-105450500D01*
X137762352Y-105450500D01*
X137964534Y-105418477D01*
X138159219Y-105355220D01*
X138341610Y-105262287D01*
X138464065Y-105173319D01*
X138464067Y-105173318D01*
X138507212Y-105141971D01*
X138507210Y-105141971D01*
X138507219Y-105141966D01*
X138651966Y-104997219D01*
X138651968Y-104997215D01*
X138651971Y-104997213D01*
X138772284Y-104831614D01*
X138772285Y-104831613D01*
X138772287Y-104831610D01*
X138779117Y-104818204D01*
X138827091Y-104767409D01*
X138889602Y-104750500D01*
X142305939Y-104750500D01*
X142305943Y-104750501D01*
X142464057Y-104750501D01*
X142465830Y-104750025D01*
X142475650Y-104749998D01*
X142501859Y-104757613D01*
X142528828Y-104761814D01*
X142534922Y-104767221D01*
X142542744Y-104769494D01*
X142560672Y-104790067D01*
X142561532Y-104790829D01*
X142563681Y-104788681D01*
X142600000Y-104825000D01*
X143624722Y-104825000D01*
X143580667Y-104901306D01*
X143550000Y-105015756D01*
X143550000Y-105134244D01*
X143580667Y-105248694D01*
X143624722Y-105325000D01*
X142600000Y-105325000D01*
X142600000Y-106022844D01*
X142606401Y-106082372D01*
X142606403Y-106082379D01*
X142656645Y-106217086D01*
X142656649Y-106217093D01*
X142742809Y-106332187D01*
X142742812Y-106332190D01*
X142857906Y-106418350D01*
X142857913Y-106418354D01*
X142992620Y-106468596D01*
X142992627Y-106468598D01*
X143052155Y-106474999D01*
X143052172Y-106475000D01*
X143750000Y-106475000D01*
X143750000Y-105450277D01*
X143826306Y-105494333D01*
X143940756Y-105525000D01*
X144059244Y-105525000D01*
X144173694Y-105494333D01*
X144250000Y-105450277D01*
X144250000Y-106475000D01*
X144947828Y-106475000D01*
X144947844Y-106474999D01*
X145007372Y-106468598D01*
X145007379Y-106468596D01*
X145142086Y-106418354D01*
X145142093Y-106418350D01*
X145257187Y-106332190D01*
X145257190Y-106332187D01*
X145343350Y-106217093D01*
X145343354Y-106217086D01*
X145393596Y-106082379D01*
X145393598Y-106082372D01*
X145399999Y-106022844D01*
X145400000Y-106022827D01*
X145400000Y-105325000D01*
X144375278Y-105325000D01*
X144419333Y-105248694D01*
X144450000Y-105134244D01*
X144450000Y-105015756D01*
X144419333Y-104901306D01*
X144375278Y-104825000D01*
X145400000Y-104825000D01*
X145400000Y-104127172D01*
X145399999Y-104127155D01*
X145393598Y-104067627D01*
X145393596Y-104067620D01*
X145343354Y-103932913D01*
X145343350Y-103932906D01*
X145257190Y-103817812D01*
X145257187Y-103817809D01*
X145142093Y-103731649D01*
X145142087Y-103731646D01*
X145062030Y-103701786D01*
X145006097Y-103659914D01*
X144981680Y-103594450D01*
X144996532Y-103526177D01*
X145017681Y-103497925D01*
X145068242Y-103447365D01*
X145197815Y-103269022D01*
X145297895Y-103072606D01*
X145366015Y-102862951D01*
X145400500Y-102645222D01*
X145400500Y-102424778D01*
X145366015Y-102207049D01*
X145304532Y-102017820D01*
X145297896Y-101997396D01*
X145297895Y-101997393D01*
X145221889Y-101848226D01*
X145197815Y-101800978D01*
X145181260Y-101778192D01*
X145068247Y-101622641D01*
X145068243Y-101622636D01*
X144912363Y-101466756D01*
X144912358Y-101466752D01*
X144734025Y-101337187D01*
X144734024Y-101337186D01*
X144734022Y-101337185D01*
X144671096Y-101305122D01*
X144537606Y-101237104D01*
X144537603Y-101237103D01*
X144327952Y-101168985D01*
X144219086Y-101151742D01*
X144110222Y-101134500D01*
X143889778Y-101134500D01*
X143817201Y-101145995D01*
X143672047Y-101168985D01*
X143462396Y-101237103D01*
X143462393Y-101237104D01*
X143265974Y-101337187D01*
X143087641Y-101466752D01*
X143087636Y-101466756D01*
X142931756Y-101622636D01*
X142931752Y-101622641D01*
X142802187Y-101800974D01*
X142702104Y-101997393D01*
X142702103Y-101997396D01*
X142633985Y-102207047D01*
X142633985Y-102207049D01*
X142599500Y-102424778D01*
X142599500Y-102645222D01*
X142604413Y-102676239D01*
X142633985Y-102862952D01*
X142656811Y-102933203D01*
X142658806Y-103003044D01*
X142626561Y-103059202D01*
X142172584Y-103513181D01*
X142111261Y-103546666D01*
X142084903Y-103549500D01*
X138889602Y-103549500D01*
X138822563Y-103529815D01*
X138779117Y-103481795D01*
X138772284Y-103468385D01*
X138651971Y-103302786D01*
X138507213Y-103158028D01*
X138341613Y-103037715D01*
X138341612Y-103037714D01*
X138341610Y-103037713D01*
X138278334Y-103005472D01*
X138159223Y-102944781D01*
X137964534Y-102881522D01*
X137789995Y-102853878D01*
X137762352Y-102849500D01*
X137557648Y-102849500D01*
X137533329Y-102853351D01*
X137355465Y-102881522D01*
X137160776Y-102944781D01*
X136978386Y-103037715D01*
X136812786Y-103158028D01*
X136668028Y-103302786D01*
X136547715Y-103468386D01*
X136454781Y-103650776D01*
X136391522Y-103845465D01*
X136359500Y-104047648D01*
X131340500Y-104047648D01*
X131322737Y-103935500D01*
X131308477Y-103845465D01*
X131271495Y-103731646D01*
X131245220Y-103650781D01*
X131245218Y-103650778D01*
X131245218Y-103650776D01*
X131211503Y-103584607D01*
X131152287Y-103468390D01*
X131137009Y-103447362D01*
X131031971Y-103302786D01*
X130887213Y-103158028D01*
X130721613Y-103037715D01*
X130721612Y-103037714D01*
X130721610Y-103037713D01*
X130658334Y-103005472D01*
X130539223Y-102944781D01*
X130344534Y-102881522D01*
X130169995Y-102853878D01*
X130142352Y-102849500D01*
X129937648Y-102849500D01*
X129913329Y-102853351D01*
X129735465Y-102881522D01*
X129540776Y-102944781D01*
X129358386Y-103037715D01*
X129192786Y-103158028D01*
X129048028Y-103302786D01*
X128927715Y-103468386D01*
X128834781Y-103650776D01*
X128771522Y-103845465D01*
X128739500Y-104047648D01*
X127536030Y-104047648D01*
X127550500Y-103956287D01*
X127550500Y-103743713D01*
X127517246Y-103533757D01*
X127451557Y-103331588D01*
X127355051Y-103142184D01*
X127355049Y-103142181D01*
X127355048Y-103142179D01*
X127230109Y-102970213D01*
X127079786Y-102819890D01*
X126907820Y-102694951D01*
X126907115Y-102694591D01*
X126899054Y-102690485D01*
X126848259Y-102642512D01*
X126831463Y-102574692D01*
X126853999Y-102508556D01*
X126899054Y-102469515D01*
X126907816Y-102465051D01*
X126929789Y-102449086D01*
X127079786Y-102340109D01*
X127079788Y-102340106D01*
X127079792Y-102340104D01*
X127230104Y-102189792D01*
X127230106Y-102189788D01*
X127230109Y-102189786D01*
X127355048Y-102017820D01*
X127355047Y-102017820D01*
X127355051Y-102017816D01*
X127451557Y-101828412D01*
X127517246Y-101626243D01*
X127550500Y-101416287D01*
X127550500Y-101203713D01*
X127517246Y-100993757D01*
X127451557Y-100791588D01*
X127355051Y-100602184D01*
X127355049Y-100602181D01*
X127355048Y-100602179D01*
X127230109Y-100430213D01*
X127079786Y-100279890D01*
X126907820Y-100154951D01*
X126907115Y-100154591D01*
X126899054Y-100150485D01*
X126848259Y-100102512D01*
X126831463Y-100034692D01*
X126853999Y-99968556D01*
X126899054Y-99929515D01*
X126907816Y-99925051D01*
X126985314Y-99868746D01*
X127079786Y-99800109D01*
X127079788Y-99800106D01*
X127079792Y-99800104D01*
X127230104Y-99649792D01*
X127230106Y-99649788D01*
X127230109Y-99649786D01*
X127355048Y-99477820D01*
X127355047Y-99477820D01*
X127355051Y-99477816D01*
X127451557Y-99288412D01*
X127517246Y-99086243D01*
X127550500Y-98876287D01*
X127550500Y-98663713D01*
X127517246Y-98453757D01*
X127451557Y-98251588D01*
X127355051Y-98062184D01*
X127355049Y-98062181D01*
X127355048Y-98062179D01*
X127230109Y-97890213D01*
X127079786Y-97739890D01*
X126907820Y-97614951D01*
X126907115Y-97614591D01*
X126899054Y-97610485D01*
X126848259Y-97562512D01*
X126831463Y-97494692D01*
X126853999Y-97428556D01*
X126899054Y-97389515D01*
X126907816Y-97385051D01*
X126929789Y-97369086D01*
X127079786Y-97260109D01*
X127079788Y-97260106D01*
X127079792Y-97260104D01*
X127230104Y-97109792D01*
X127230106Y-97109788D01*
X127230109Y-97109786D01*
X127308607Y-97001741D01*
X127355051Y-96937816D01*
X127355060Y-96937797D01*
X127357592Y-96933668D01*
X127358571Y-96934268D01*
X127365300Y-96927143D01*
X127371624Y-96913297D01*
X127388804Y-96902255D01*
X127402824Y-96887411D01*
X127418504Y-96883169D01*
X127430402Y-96875523D01*
X127465337Y-96870500D01*
X127620234Y-96870500D01*
X127687273Y-96890185D01*
X127689125Y-96891398D01*
X127820814Y-96979390D01*
X127820827Y-96979397D01*
X127966498Y-97039735D01*
X127966503Y-97039737D01*
X128121153Y-97070499D01*
X128121156Y-97070500D01*
X128121158Y-97070500D01*
X128278843Y-97070500D01*
X128294564Y-97067372D01*
X128351309Y-97056085D01*
X128420899Y-97062312D01*
X128476077Y-97105174D01*
X128499322Y-97171063D01*
X128499500Y-97177702D01*
X128499500Y-97813330D01*
X128499499Y-97813348D01*
X128499499Y-97979054D01*
X128499498Y-97979054D01*
X128540424Y-98131789D01*
X128540425Y-98131790D01*
X128556589Y-98159786D01*
X128556590Y-98159787D01*
X128619477Y-98268712D01*
X128619481Y-98268717D01*
X128738349Y-98387585D01*
X128738355Y-98387590D01*
X130065425Y-99714660D01*
X130098910Y-99775983D01*
X130099361Y-99778149D01*
X130130261Y-99933491D01*
X130130264Y-99933501D01*
X130190602Y-100079172D01*
X130190609Y-100079185D01*
X130278210Y-100210288D01*
X130278213Y-100210292D01*
X130389707Y-100321786D01*
X130389711Y-100321789D01*
X130520814Y-100409390D01*
X130520827Y-100409397D01*
X130666498Y-100469735D01*
X130666503Y-100469737D01*
X130821153Y-100500499D01*
X130821156Y-100500500D01*
X130821158Y-100500500D01*
X130978844Y-100500500D01*
X130978845Y-100500499D01*
X131133497Y-100469737D01*
X131279179Y-100409394D01*
X131410289Y-100321789D01*
X131521789Y-100210289D01*
X131609394Y-100079179D01*
X131669737Y-99933497D01*
X131700500Y-99778842D01*
X131700500Y-99621158D01*
X131700500Y-99621155D01*
X131700499Y-99621153D01*
X131686674Y-99551652D01*
X131669737Y-99466503D01*
X131647497Y-99412810D01*
X131609397Y-99320827D01*
X131609390Y-99320814D01*
X131521789Y-99189711D01*
X131521786Y-99189707D01*
X131410292Y-99078213D01*
X131410288Y-99078210D01*
X131279185Y-98990609D01*
X131279172Y-98990602D01*
X131133501Y-98930264D01*
X131133491Y-98930261D01*
X130978149Y-98899361D01*
X130916238Y-98866976D01*
X130914660Y-98865425D01*
X129736819Y-97687584D01*
X129703334Y-97626261D01*
X129700500Y-97599903D01*
X129700500Y-94854935D01*
X129720185Y-94787896D01*
X129721366Y-94786090D01*
X129759394Y-94729179D01*
X129819737Y-94583497D01*
X129842683Y-94468140D01*
X129850209Y-94430308D01*
X129882594Y-94368397D01*
X129943310Y-94333823D01*
X129971826Y-94330500D01*
X131373500Y-94330500D01*
X131440539Y-94350185D01*
X131486294Y-94402989D01*
X131497500Y-94454500D01*
X131497500Y-94639361D01*
X131510289Y-94720109D01*
X131528587Y-94835637D01*
X131589993Y-95024629D01*
X131589994Y-95024632D01*
X131679294Y-95199890D01*
X131680213Y-95201694D01*
X131797019Y-95362464D01*
X131937536Y-95502981D01*
X132098306Y-95619787D01*
X132157239Y-95649815D01*
X132254780Y-95699515D01*
X132305576Y-95747490D01*
X132322371Y-95815311D01*
X132299833Y-95881446D01*
X132254780Y-95920485D01*
X132098305Y-96000213D01*
X131937533Y-96117021D01*
X131797021Y-96257533D01*
X131680213Y-96418305D01*
X131589994Y-96595367D01*
X131589993Y-96595370D01*
X131528587Y-96784362D01*
X131504282Y-96937820D01*
X131497500Y-96980639D01*
X131497500Y-97179361D01*
X131510289Y-97260109D01*
X131528587Y-97375637D01*
X131589993Y-97564629D01*
X131589994Y-97564632D01*
X131679294Y-97739890D01*
X131680213Y-97741694D01*
X131797019Y-97902464D01*
X131937536Y-98042981D01*
X132098306Y-98159787D01*
X132182933Y-98202907D01*
X132275367Y-98250005D01*
X132275370Y-98250006D01*
X132332955Y-98268716D01*
X132464364Y-98311413D01*
X132660639Y-98342500D01*
X132660640Y-98342500D01*
X132859360Y-98342500D01*
X132859361Y-98342500D01*
X133055636Y-98311413D01*
X133244632Y-98250005D01*
X133421694Y-98159787D01*
X133582464Y-98042981D01*
X133722981Y-97902464D01*
X133839787Y-97741694D01*
X133930005Y-97564632D01*
X133991413Y-97375636D01*
X134022500Y-97179361D01*
X134022500Y-96980639D01*
X134020303Y-96966770D01*
X134029257Y-96897480D01*
X134074252Y-96844027D01*
X134141003Y-96823386D01*
X134208317Y-96842110D01*
X134230457Y-96859692D01*
X137535139Y-100164374D01*
X137535149Y-100164385D01*
X137539479Y-100168715D01*
X137539480Y-100168716D01*
X137651284Y-100280520D01*
X137651286Y-100280521D01*
X137651290Y-100280524D01*
X137751557Y-100338412D01*
X137788216Y-100359577D01*
X137900019Y-100389534D01*
X137940942Y-100400500D01*
X137940943Y-100400500D01*
X149370234Y-100400500D01*
X149437273Y-100420185D01*
X149439125Y-100421398D01*
X149570814Y-100509390D01*
X149570827Y-100509397D01*
X149716498Y-100569735D01*
X149716503Y-100569737D01*
X149833021Y-100592914D01*
X149871153Y-100600499D01*
X149871156Y-100600500D01*
X149871158Y-100600500D01*
X150028844Y-100600500D01*
X150028845Y-100600499D01*
X150183497Y-100569737D01*
X150270574Y-100533669D01*
X150328048Y-100509863D01*
X150397517Y-100502394D01*
X150459996Y-100533669D01*
X150495648Y-100593759D01*
X150499500Y-100624424D01*
X150499500Y-100628846D01*
X150530261Y-100783489D01*
X150530264Y-100783501D01*
X150590602Y-100929172D01*
X150590609Y-100929185D01*
X150678210Y-101060288D01*
X150678213Y-101060292D01*
X150789707Y-101171786D01*
X150789711Y-101171789D01*
X150920814Y-101259390D01*
X150920827Y-101259397D01*
X151066498Y-101319735D01*
X151066503Y-101319737D01*
X151221153Y-101350499D01*
X151221156Y-101350500D01*
X151221158Y-101350500D01*
X151378844Y-101350500D01*
X151378845Y-101350499D01*
X151533497Y-101319737D01*
X151679179Y-101259394D01*
X151810289Y-101171789D01*
X151921789Y-101060289D01*
X152009394Y-100929179D01*
X152069737Y-100783497D01*
X152100500Y-100628842D01*
X152100500Y-100471158D01*
X152100500Y-100471155D01*
X152100499Y-100471153D01*
X152070788Y-100321789D01*
X152069737Y-100316503D01*
X152054833Y-100280521D01*
X152009397Y-100170827D01*
X152009390Y-100170814D01*
X151921789Y-100039711D01*
X151921786Y-100039707D01*
X151810292Y-99928213D01*
X151810288Y-99928210D01*
X151721294Y-99868746D01*
X151702504Y-99853325D01*
X150686533Y-98837355D01*
X150686531Y-98837352D01*
X150567660Y-98718481D01*
X150567659Y-98718480D01*
X150472799Y-98663713D01*
X150430728Y-98639423D01*
X150278000Y-98598499D01*
X150119886Y-98598499D01*
X150112290Y-98598499D01*
X150112274Y-98598500D01*
X140259097Y-98598500D01*
X140192058Y-98578815D01*
X140171416Y-98562181D01*
X134023762Y-92414527D01*
X133990277Y-92353204D01*
X133990843Y-92300478D01*
X133990651Y-92300448D01*
X133990857Y-92299143D01*
X133990871Y-92297891D01*
X133991409Y-92295646D01*
X133991413Y-92295636D01*
X134022500Y-92099361D01*
X134022500Y-91900639D01*
X133991413Y-91704364D01*
X133941290Y-91550099D01*
X133930006Y-91515370D01*
X133930005Y-91515367D01*
X133884035Y-91425149D01*
X133839787Y-91338306D01*
X133722981Y-91177536D01*
X133582464Y-91037019D01*
X133421694Y-90920213D01*
X133265218Y-90840484D01*
X133214423Y-90792510D01*
X133197628Y-90724689D01*
X133220165Y-90658554D01*
X133265218Y-90619515D01*
X133421694Y-90539787D01*
X133582464Y-90422981D01*
X133722981Y-90282464D01*
X133839787Y-90121694D01*
X133930005Y-89944632D01*
X133991413Y-89755636D01*
X134022500Y-89559361D01*
X134022500Y-89360639D01*
X134016683Y-89323913D01*
X133991413Y-89164363D01*
X133989937Y-89159821D01*
X133987940Y-89089980D01*
X134024019Y-89030146D01*
X134086719Y-88999317D01*
X134107867Y-88997500D01*
X146443939Y-88997500D01*
X146443943Y-88997501D01*
X146602057Y-88997501D01*
X146636283Y-88988330D01*
X146649748Y-88987721D01*
X146671112Y-88992958D01*
X146693104Y-88993481D01*
X146704381Y-89001113D01*
X146717609Y-89004356D01*
X146732751Y-89020313D01*
X146750968Y-89032642D01*
X146756329Y-89045160D01*
X146765703Y-89055039D01*
X146769814Y-89076648D01*
X146778474Y-89096870D01*
X146776839Y-89113574D01*
X146778761Y-89123677D01*
X146774917Y-89133211D01*
X146773283Y-89149910D01*
X146768586Y-89164364D01*
X146743317Y-89323913D01*
X146737500Y-89360639D01*
X146737500Y-89559361D01*
X146739936Y-89574742D01*
X146768587Y-89755637D01*
X146829993Y-89944629D01*
X146829994Y-89944632D01*
X146920213Y-90121694D01*
X147037019Y-90282464D01*
X147177536Y-90422981D01*
X147338306Y-90539787D01*
X147456832Y-90600179D01*
X147494780Y-90619515D01*
X147545576Y-90667490D01*
X147562371Y-90735311D01*
X147539833Y-90801446D01*
X147494780Y-90840485D01*
X147338305Y-90920213D01*
X147177533Y-91037021D01*
X147037021Y-91177533D01*
X146920213Y-91338305D01*
X146829994Y-91515367D01*
X146829993Y-91515370D01*
X146768587Y-91704362D01*
X146737500Y-91900639D01*
X146737500Y-92099360D01*
X146768587Y-92295637D01*
X146829993Y-92484629D01*
X146829994Y-92484632D01*
X146918204Y-92657752D01*
X146920213Y-92661694D01*
X147037019Y-92822464D01*
X147177536Y-92962981D01*
X147338306Y-93079787D01*
X147387332Y-93104767D01*
X147494780Y-93159515D01*
X147545576Y-93207490D01*
X147562371Y-93275311D01*
X147539833Y-93341446D01*
X147494780Y-93380485D01*
X147338305Y-93460213D01*
X147177533Y-93577021D01*
X147037021Y-93717533D01*
X146920213Y-93878305D01*
X146829994Y-94055367D01*
X146829993Y-94055370D01*
X146768587Y-94244362D01*
X146744282Y-94397820D01*
X146737500Y-94440639D01*
X146737500Y-94639361D01*
X146750289Y-94720109D01*
X146768587Y-94835637D01*
X146829993Y-95024629D01*
X146829994Y-95024632D01*
X146919294Y-95199890D01*
X146920213Y-95201694D01*
X147037019Y-95362464D01*
X147177536Y-95502981D01*
X147338306Y-95619787D01*
X147397239Y-95649815D01*
X147494780Y-95699515D01*
X147545576Y-95747490D01*
X147562371Y-95815311D01*
X147539833Y-95881446D01*
X147494780Y-95920485D01*
X147338305Y-96000213D01*
X147177533Y-96117021D01*
X147037021Y-96257533D01*
X146920213Y-96418305D01*
X146829994Y-96595367D01*
X146829993Y-96595370D01*
X146768587Y-96784362D01*
X146744282Y-96937820D01*
X146737500Y-96980639D01*
X146737500Y-97179361D01*
X146750289Y-97260109D01*
X146768587Y-97375637D01*
X146829993Y-97564629D01*
X146829994Y-97564632D01*
X146919294Y-97739890D01*
X146920213Y-97741694D01*
X147037019Y-97902464D01*
X147177536Y-98042981D01*
X147338306Y-98159787D01*
X147422933Y-98202907D01*
X147515367Y-98250005D01*
X147515370Y-98250006D01*
X147572955Y-98268716D01*
X147704364Y-98311413D01*
X147900639Y-98342500D01*
X147900640Y-98342500D01*
X148099360Y-98342500D01*
X148099361Y-98342500D01*
X148295636Y-98311413D01*
X148484632Y-98250005D01*
X148661694Y-98159787D01*
X148822464Y-98042981D01*
X148962981Y-97902464D01*
X149079787Y-97741694D01*
X149170005Y-97564632D01*
X149231413Y-97375636D01*
X149262500Y-97179361D01*
X149262500Y-96980639D01*
X149231413Y-96784364D01*
X149170005Y-96595368D01*
X149170005Y-96595367D01*
X149079786Y-96418305D01*
X148962981Y-96257536D01*
X148822464Y-96117019D01*
X148661694Y-96000213D01*
X148505218Y-95920484D01*
X148454423Y-95872510D01*
X148437628Y-95804689D01*
X148460165Y-95738554D01*
X148505218Y-95699515D01*
X148661694Y-95619787D01*
X148822464Y-95502981D01*
X148962981Y-95362464D01*
X149079787Y-95201694D01*
X149170005Y-95024632D01*
X149231413Y-94835636D01*
X149262500Y-94639361D01*
X149262500Y-94440639D01*
X149231413Y-94244364D01*
X149170005Y-94055368D01*
X149170005Y-94055367D01*
X149079786Y-93878305D01*
X148962981Y-93717536D01*
X148822464Y-93577019D01*
X148661694Y-93460213D01*
X148505218Y-93380484D01*
X148454423Y-93332510D01*
X148437628Y-93264689D01*
X148460165Y-93198554D01*
X148505218Y-93159515D01*
X148661694Y-93079787D01*
X148822464Y-92962981D01*
X148962981Y-92822464D01*
X149079787Y-92661694D01*
X149170005Y-92484632D01*
X149231413Y-92295636D01*
X149262500Y-92099361D01*
X149262500Y-91900639D01*
X149231413Y-91704364D01*
X149181290Y-91550099D01*
X149170006Y-91515370D01*
X149170005Y-91515367D01*
X149124035Y-91425149D01*
X149079787Y-91338306D01*
X148962981Y-91177536D01*
X148822464Y-91037019D01*
X148661694Y-90920213D01*
X148505218Y-90840484D01*
X148454423Y-90792510D01*
X148437628Y-90724689D01*
X148460165Y-90658554D01*
X148505218Y-90619515D01*
X148661694Y-90539787D01*
X148822464Y-90422981D01*
X148962981Y-90282464D01*
X149079787Y-90121694D01*
X149170005Y-89944632D01*
X149231413Y-89755636D01*
X149262500Y-89559361D01*
X149262500Y-89360639D01*
X149231413Y-89164364D01*
X149196681Y-89057469D01*
X149170006Y-88975370D01*
X149170005Y-88975367D01*
X149079786Y-88798305D01*
X149037768Y-88740472D01*
X148962981Y-88637536D01*
X148822464Y-88497019D01*
X148661694Y-88380213D01*
X148505218Y-88300484D01*
X148454423Y-88252510D01*
X148437628Y-88184689D01*
X148460165Y-88118554D01*
X148505218Y-88079515D01*
X148661694Y-87999787D01*
X148822464Y-87882981D01*
X148962981Y-87742464D01*
X149079787Y-87581694D01*
X149079789Y-87581689D01*
X149081000Y-87579715D01*
X149081656Y-87579121D01*
X149082651Y-87577752D01*
X149082938Y-87577960D01*
X149132810Y-87532837D01*
X149186730Y-87520500D01*
X151442025Y-87520500D01*
X151461206Y-87526132D01*
G37*
%TD.AperFunction*%
%TA.AperFunction,Conductor*%
G36*
X154505703Y-88088228D02*
G01*
X154512181Y-88094260D01*
X154589707Y-88171786D01*
X154589711Y-88171789D01*
X154720814Y-88259390D01*
X154720827Y-88259397D01*
X154820024Y-88300485D01*
X154866503Y-88319737D01*
X154905661Y-88327526D01*
X155021849Y-88350638D01*
X155083760Y-88383023D01*
X155085339Y-88384574D01*
X156613181Y-89912416D01*
X156646666Y-89973739D01*
X156649500Y-90000097D01*
X156649500Y-90725500D01*
X156629815Y-90792539D01*
X156577011Y-90838294D01*
X156525501Y-90849500D01*
X156352130Y-90849500D01*
X156352123Y-90849501D01*
X156292516Y-90855908D01*
X156157671Y-90906202D01*
X156157664Y-90906206D01*
X156042455Y-90992452D01*
X156042452Y-90992455D01*
X155956206Y-91107664D01*
X155956202Y-91107671D01*
X155905908Y-91242517D01*
X155899501Y-91302116D01*
X155899501Y-91302123D01*
X155899500Y-91302135D01*
X155899500Y-91921636D01*
X155891833Y-91960180D01*
X155892526Y-91960366D01*
X155887528Y-91979019D01*
X155849500Y-92120943D01*
X155849500Y-92279057D01*
X155853943Y-92295637D01*
X155892526Y-92439634D01*
X155891832Y-92439819D01*
X155899500Y-92478363D01*
X155899500Y-93097870D01*
X155899501Y-93097876D01*
X155905908Y-93157483D01*
X155956202Y-93292328D01*
X155956206Y-93292335D01*
X156042452Y-93407544D01*
X156042455Y-93407547D01*
X156157664Y-93493793D01*
X156157671Y-93493797D01*
X156202618Y-93510561D01*
X156292517Y-93544091D01*
X156352127Y-93550500D01*
X156362685Y-93550499D01*
X156429723Y-93570179D01*
X156450372Y-93586818D01*
X157120591Y-94257037D01*
X157057007Y-94274075D01*
X156942993Y-94339901D01*
X156849901Y-94432993D01*
X156784075Y-94547007D01*
X156767037Y-94610591D01*
X156134728Y-93978282D01*
X156134727Y-93978282D01*
X156095380Y-94032439D01*
X155998904Y-94221782D01*
X155933242Y-94423869D01*
X155933242Y-94423872D01*
X155900000Y-94633753D01*
X155900000Y-94846246D01*
X155933242Y-95056127D01*
X155933242Y-95056130D01*
X155998904Y-95258217D01*
X156095375Y-95447550D01*
X156134728Y-95501716D01*
X156767037Y-94869408D01*
X156784075Y-94932993D01*
X156849901Y-95047007D01*
X156942993Y-95140099D01*
X157057007Y-95205925D01*
X157120590Y-95222962D01*
X156488282Y-95855269D01*
X156488282Y-95855270D01*
X156542452Y-95894626D01*
X156542451Y-95894626D01*
X156551495Y-95899234D01*
X156602292Y-95947208D01*
X156619087Y-96015029D01*
X156596550Y-96081164D01*
X156551499Y-96120202D01*
X156542182Y-96124949D01*
X156370213Y-96249890D01*
X156219890Y-96400213D01*
X156094949Y-96572182D01*
X156057319Y-96646034D01*
X156009344Y-96696830D01*
X155995879Y-96703627D01*
X155987613Y-96707186D01*
X155938215Y-96720423D01*
X155889737Y-96748412D01*
X155883450Y-96752042D01*
X155801285Y-96799479D01*
X155801282Y-96799481D01*
X154885339Y-97715425D01*
X154824016Y-97748910D01*
X154821850Y-97749361D01*
X154666508Y-97780261D01*
X154666498Y-97780264D01*
X154520827Y-97840602D01*
X154520816Y-97840608D01*
X154493390Y-97858934D01*
X154426712Y-97879811D01*
X154359332Y-97861326D01*
X154312643Y-97809346D01*
X154300500Y-97755831D01*
X154300500Y-88181941D01*
X154320185Y-88114902D01*
X154372989Y-88069147D01*
X154442147Y-88059203D01*
X154505703Y-88088228D01*
G37*
%TD.AperFunction*%
%TA.AperFunction,Conductor*%
G36*
X125734075Y-91342993D02*
G01*
X125799901Y-91457007D01*
X125892993Y-91550099D01*
X126007007Y-91615925D01*
X126070590Y-91632962D01*
X125438282Y-92265269D01*
X125438282Y-92265270D01*
X125492452Y-92304626D01*
X125492451Y-92304626D01*
X125501495Y-92309234D01*
X125552292Y-92357208D01*
X125569087Y-92425029D01*
X125546550Y-92491164D01*
X125501499Y-92530202D01*
X125492182Y-92534949D01*
X125320213Y-92659890D01*
X125169890Y-92810213D01*
X125044951Y-92982179D01*
X124948445Y-93171582D01*
X124948443Y-93171587D01*
X124948443Y-93171588D01*
X124942429Y-93190094D01*
X124902992Y-93247768D01*
X124838633Y-93274965D01*
X124769787Y-93263050D01*
X124718312Y-93215805D01*
X124700500Y-93151773D01*
X124700500Y-91686611D01*
X124720185Y-91619572D01*
X124772989Y-91573817D01*
X124842147Y-91563873D01*
X124905703Y-91592898D01*
X124942432Y-91648294D01*
X124948906Y-91668221D01*
X125045375Y-91857550D01*
X125084728Y-91911716D01*
X125717037Y-91279408D01*
X125734075Y-91342993D01*
G37*
%TD.AperFunction*%
%TA.AperFunction,Conductor*%
G36*
X127333361Y-91929808D02*
G01*
X127334140Y-91929972D01*
X127383900Y-91979019D01*
X127399500Y-92039230D01*
X127399500Y-92128846D01*
X127430261Y-92283489D01*
X127430264Y-92283501D01*
X127490602Y-92429172D01*
X127490609Y-92429185D01*
X127578210Y-92560288D01*
X127578213Y-92560292D01*
X127689707Y-92671786D01*
X127689711Y-92671789D01*
X127820814Y-92759390D01*
X127820827Y-92759397D01*
X127943510Y-92810213D01*
X127966503Y-92819737D01*
X128121153Y-92850499D01*
X128121156Y-92850500D01*
X128121158Y-92850500D01*
X128278844Y-92850500D01*
X128278845Y-92850499D01*
X128433497Y-92819737D01*
X128579179Y-92759394D01*
X128579185Y-92759390D01*
X128710875Y-92671398D01*
X128777553Y-92650520D01*
X128779766Y-92650500D01*
X129563331Y-92650500D01*
X129563347Y-92650501D01*
X129570943Y-92650501D01*
X129729054Y-92650501D01*
X129729057Y-92650501D01*
X129881785Y-92609577D01*
X129881786Y-92609575D01*
X129889635Y-92607473D01*
X129889820Y-92608165D01*
X129928364Y-92600500D01*
X131573270Y-92600500D01*
X131640309Y-92620185D01*
X131677191Y-92657866D01*
X131677349Y-92657752D01*
X131678127Y-92658823D01*
X131679000Y-92659715D01*
X131680210Y-92661690D01*
X131680213Y-92661694D01*
X131797019Y-92822464D01*
X131797021Y-92822466D01*
X131892374Y-92917819D01*
X131925859Y-92979142D01*
X131920875Y-93048834D01*
X131879003Y-93104767D01*
X131813539Y-93129184D01*
X131804693Y-93129500D01*
X127506100Y-93129500D01*
X127439061Y-93109815D01*
X127395615Y-93061795D01*
X127385845Y-93042621D01*
X127355051Y-92982184D01*
X127341097Y-92962978D01*
X127230109Y-92810213D01*
X127079786Y-92659890D01*
X126907817Y-92534949D01*
X126898504Y-92530204D01*
X126847707Y-92482230D01*
X126830912Y-92414409D01*
X126853449Y-92348274D01*
X126898507Y-92309232D01*
X126907555Y-92304622D01*
X126961716Y-92265270D01*
X126961717Y-92265270D01*
X126329408Y-91632962D01*
X126392993Y-91615925D01*
X126507007Y-91550099D01*
X126600099Y-91457007D01*
X126665925Y-91342993D01*
X126682962Y-91279408D01*
X127333361Y-91929808D01*
G37*
%TD.AperFunction*%
%TA.AperFunction,Conductor*%
G36*
X131439125Y-89005425D02*
G01*
X131466847Y-89010224D01*
X131472201Y-89015138D01*
X131479172Y-89017185D01*
X131497590Y-89038441D01*
X131518322Y-89057469D01*
X131520169Y-89064498D01*
X131524927Y-89069989D01*
X131528930Y-89097834D01*
X131536082Y-89125044D01*
X131534312Y-89135265D01*
X131534871Y-89139147D01*
X131530063Y-89159821D01*
X131528586Y-89164363D01*
X131503317Y-89323913D01*
X131497500Y-89360639D01*
X131497500Y-89559361D01*
X131499936Y-89574742D01*
X131528587Y-89755637D01*
X131589993Y-89944629D01*
X131589994Y-89944632D01*
X131680213Y-90121694D01*
X131797019Y-90282464D01*
X131937536Y-90422981D01*
X132098306Y-90539787D01*
X132216832Y-90600179D01*
X132254780Y-90619515D01*
X132305576Y-90667490D01*
X132322371Y-90735311D01*
X132299833Y-90801446D01*
X132254780Y-90840485D01*
X132098305Y-90920213D01*
X131937533Y-91037021D01*
X131797021Y-91177533D01*
X131680210Y-91338309D01*
X131679000Y-91340285D01*
X131678343Y-91340878D01*
X131677349Y-91342248D01*
X131677061Y-91342039D01*
X131627190Y-91387163D01*
X131573270Y-91399500D01*
X129786670Y-91399500D01*
X129786654Y-91399499D01*
X129779058Y-91399499D01*
X129620943Y-91399499D01*
X129468216Y-91440423D01*
X129468214Y-91440424D01*
X129460366Y-91442527D01*
X129460180Y-91441834D01*
X129421637Y-91449500D01*
X128779766Y-91449500D01*
X128712727Y-91429815D01*
X128710875Y-91428602D01*
X128579185Y-91340609D01*
X128579172Y-91340602D01*
X128433501Y-91280264D01*
X128433489Y-91280261D01*
X128278845Y-91249500D01*
X128278842Y-91249500D01*
X128121158Y-91249500D01*
X128121155Y-91249500D01*
X127966510Y-91280261D01*
X127966498Y-91280264D01*
X127820827Y-91340602D01*
X127820816Y-91340608D01*
X127738714Y-91395467D01*
X127672036Y-91416344D01*
X127604656Y-91397859D01*
X127557967Y-91345880D01*
X127546791Y-91276910D01*
X127547351Y-91272962D01*
X127550000Y-91256240D01*
X127550000Y-91043753D01*
X127516757Y-90833872D01*
X127516757Y-90833869D01*
X127451095Y-90631782D01*
X127354624Y-90442449D01*
X127315270Y-90388282D01*
X127315269Y-90388282D01*
X126682962Y-91020590D01*
X126665925Y-90957007D01*
X126600099Y-90842993D01*
X126507007Y-90749901D01*
X126392993Y-90684075D01*
X126329409Y-90667037D01*
X126999627Y-89996818D01*
X127060950Y-89963333D01*
X127087307Y-89960499D01*
X127097872Y-89960499D01*
X127157483Y-89954091D01*
X127292331Y-89903796D01*
X127407546Y-89817546D01*
X127493796Y-89702331D01*
X127544091Y-89567483D01*
X127550500Y-89507873D01*
X127550500Y-89121500D01*
X127570185Y-89054461D01*
X127622989Y-89008706D01*
X127674500Y-88997500D01*
X131412133Y-88997500D01*
X131439125Y-89005425D01*
G37*
%TD.AperFunction*%
%TA.AperFunction,Conductor*%
G36*
X124905703Y-89706389D02*
G01*
X124923762Y-89725786D01*
X124992454Y-89817546D01*
X125038643Y-89852123D01*
X125107664Y-89903793D01*
X125107671Y-89903797D01*
X125130780Y-89912416D01*
X125242517Y-89954091D01*
X125302127Y-89960500D01*
X125312685Y-89960499D01*
X125379723Y-89980179D01*
X125400372Y-89996818D01*
X126070591Y-90667037D01*
X126007007Y-90684075D01*
X125892993Y-90749901D01*
X125799901Y-90842993D01*
X125734075Y-90957007D01*
X125717037Y-91020591D01*
X125084728Y-90388282D01*
X125084727Y-90388282D01*
X125045380Y-90442439D01*
X124948904Y-90631782D01*
X124942431Y-90651706D01*
X124902994Y-90709381D01*
X124838635Y-90736580D01*
X124769789Y-90724665D01*
X124718313Y-90677421D01*
X124700500Y-90613388D01*
X124700500Y-89800102D01*
X124720185Y-89733063D01*
X124772989Y-89687308D01*
X124842147Y-89677364D01*
X124905703Y-89706389D01*
G37*
%TD.AperFunction*%
%TA.AperFunction,Conductor*%
G36*
X149467203Y-84369016D02*
G01*
X149473681Y-84375048D01*
X151206452Y-86107819D01*
X151239937Y-86169142D01*
X151234953Y-86238834D01*
X151193081Y-86294767D01*
X151127617Y-86319184D01*
X151118771Y-86319500D01*
X149186730Y-86319500D01*
X149119691Y-86299815D01*
X149082808Y-86262133D01*
X149082651Y-86262248D01*
X149081872Y-86261176D01*
X149081000Y-86260285D01*
X149079789Y-86258309D01*
X149050659Y-86218215D01*
X148962981Y-86097536D01*
X148822464Y-85957019D01*
X148661694Y-85840213D01*
X148504667Y-85760203D01*
X148453872Y-85712229D01*
X148437077Y-85644408D01*
X148459614Y-85578273D01*
X148504669Y-85539234D01*
X148661422Y-85459364D01*
X148698716Y-85432268D01*
X148084095Y-84817647D01*
X148171571Y-84794208D01*
X148272930Y-84735689D01*
X148355689Y-84652930D01*
X148414208Y-84551571D01*
X148437647Y-84464093D01*
X149052268Y-85078715D01*
X149079362Y-85041425D01*
X149169542Y-84864437D01*
X149230924Y-84675523D01*
X149230924Y-84675520D01*
X149262000Y-84479321D01*
X149262000Y-84462729D01*
X149281685Y-84395690D01*
X149334489Y-84349935D01*
X149403647Y-84339991D01*
X149467203Y-84369016D01*
G37*
%TD.AperFunction*%
%TD*%
M02*
